<?xml version="1.0" encoding="utf-8"?>
<!-- Generator: Adobe Illustrator 16.0.0, SVG Export Plug-In . SVG Version: 6.00 Build 0)  -->
<!DOCTYPE svg PUBLIC "-//W3C//DTD SVG 1.1//EN" "http://www.w3.org/Graphics/SVG/1.1/DTD/svg11.dtd">
<svg version="1.1" id="Layer_1" xmlns="http://www.w3.org/2000/svg" xmlns:xlink="http://www.w3.org/1999/xlink" x="0px" y="0px"
	 width="309.602px" height="275.94px" viewBox="0 0 309.602 275.94" enable-background="new 0 0 309.602 275.94"
	 xml:space="preserve">
<g>
	<g id="XMLID_3_">
		<g>
			<path fill="#9F8CE2" d="M52.741,135.73c2.63-7.359,5.48-14.2,11.08-19.899c0,0.97,0.06,1.63,0,2.279
				c-0.23,2.49-0.52,4.98-0.74,7.471c-0.09,1.109-0.02,2.239-0.11,3.35c-0.04,0.41-0.24,0.98-0.55,1.17
				C59.321,131.951,56.181,133.74,52.741,135.73z"/>
			<path fill="#9F8CE2" d="M254.4,246.181c0.471-0.67,0.88-1.37,1.53-2.39c0.15,0.71,0.26,1.029,0.28,1.35
				c0.17,3.22,0.43,6.45,0.46,9.67c0.03,2.46-0.21,4.92-0.391,7.37c-0.029,0.4-0.42,0.78-0.64,1.17c-0.29-0.28-0.62-0.53-0.88-0.84
				c-1.95-2.42-3.9-4.83-5.79-7.29c-0.2-0.25-0.19-0.89,0-1.17C250.751,251.4,252.591,248.801,254.4,246.181z"/>
			<path fill="#9F8CE2" d="M151.48,273.381c-0.529-1.2-0.68-2.58-1.3-3.71c-1.09-1.98-0.87-3.66,0.36-5.48
				c1.16-1.739,2.08-3.66,3.109-5.489c0.13,0.069,0.261,0.13,0.391,0.199c0.66,4.71,0.449,9.41-0.15,14.09
				c-0.07,0.57-0.7,1.061-1.08,1.591C152.36,274.181,151.701,273.881,151.48,273.381z"/>
			<path fill="#9F8CE2" d="M222.181,211.921c1.95-0.681,4.03-0.33,5.31,1.229c3.08,3.721,6.131,7.44,7.99,11.99
				c1.431,3.5,2.04,7.17,2.4,10.89c0.16,1.65,0.149,3.311,0.189,4.971c0,0.3-0.109,0.6-0.119,0.64c-1.91-1.84-3.82-3.689-5.74-5.52
				c-1.32-1.261-2.71-2.46-3.971-3.78c-3.029-3.18-5.909-6.49-9.01-9.61c-2.479-2.49-4.279-5.42-6.24-8.529
				c1.721-0.381,3.341-0.721,4.94-1.11C219.351,212.74,220.791,212.4,222.181,211.921z"/>
			<path fill="#D6CFF3" d="M225.011,127.291c0.85,0.89,1.63,1.859,2.5,2.729c0.2,0.2,0.64,0.16,0.97,0.23
				c0.021-0.32,0.17-0.7,0.061-0.94c-0.301-0.6-0.69-1.16-1.09-1.7c-1.061-1.439-2.24-2.8-3.2-4.3c-1.011-1.58-2.05-2.899-3.94-3.59
				c-1.26-0.46-2.109-0.36-3.02,0.47c-1.23,1.141-2.49,2.24-3.7,3.38c-0.46,0.44-0.84,0.96-1.25,1.45
				c0.42,0.16,0.67,0.181,0.86,0.07c2.069-1.12,4.119-2.271,6.26-3.45C221.291,123.501,223.161,125.381,225.011,127.291z
				 M190.9,139.86c0.271-0.109,0.59-0.159,0.811-0.34c1.2-0.91,2.35-1.89,3.569-2.77c0.351-0.25,0.99-0.471,1.301-0.32
				c2.359,1.19,2.46,1.54,1.54,3.94c-0.101,0.25,0,0.569,0.01,0.859c0.28-0.08,0.66-0.069,0.83-0.26c0.85-0.94,1.66-1.93,2.45-2.92
				c0.43-0.55,0.8-1.15,1.159-1.68c2.66,1.71,4.181,4.43,6.66,6.069c-0.76-2.63-2.09-4.859-3.79-6.88
				c-0.46-0.55-1.02-1.05-1.33-1.68c-0.529-1.101-0.83-1.22-1.649-0.26c-0.75,0.859-1.41,1.81-2.13,2.75
				c-1.13-1.181-2.24-2.341-3.54-3.721c-2.471,1.771-4.15,4.48-6.07,6.971C190.78,139.701,190.841,139.78,190.9,139.86z
				 M186.24,120.601c0.15,0.16,0.29,0.311,0.44,0.47c1.32-1.08,2.63-2.149,3.97-3.239c0.54,0.779,1,1.43,1.44,2.09
				c0.46,0.689,0.84,1.46,1.39,2.08c0.311,0.35,0.891,0.479,1.34,0.71c0.021-0.471,0.181-1,0.03-1.41c-0.479-1.3-1-2.6-1.649-3.83
				c-1.54-2.87-1.601-2.87-3.82-0.52C188.28,118.121,187.291,119.381,186.24,120.601z M176.681,134.101
				c1.47,0.73,2.59,0.39,3.34-1.1c0.28-0.561,0.53-1.141,0.83-1.8c0.55,0.3,0.98,0.67,1.45,0.739c0.43,0.07,1.05-0.029,1.33-0.319
				c0.22-0.221,0.21-0.931,0.01-1.25c-1.42-2.36-3.479-2.311-4.83,0.05c-0.31,0.56-0.67,1.09-1,1.63c-0.53-0.34-1.01-0.76-1.58-1
				c-1.729-0.75-3.52-1.39-5.25-2.16c-1.13-0.5-1.51-0.03-1.72,0.99c-0.81,3.95-1.73,7.88-2.46,11.85
				c-0.24,1.28-0.04,2.641-0.04,3.971c0.229,0.02,0.45,0.05,0.68,0.069c1.261-4.74,2.53-9.479,3.811-14.27
				C173.15,132.411,174.921,133.24,176.681,134.101z M151.831,136.24c2.109-0.949,2.81-2.8,4.18-4.27
				c0.68,0.94,1.229,1.77,1.87,2.52c0.24,0.28,0.7,0.37,1.06,0.561c0.12-0.43,0.471-1,0.311-1.271c-0.83-1.479-1.75-2.92-2.73-4.31
				c-0.43-0.61-1.069-0.53-1.47,0.11c-0.75,1.18-1.5,2.359-2.13,3.6C152.49,134.03,152.271,134.98,151.831,136.24z M150.431,160.931
				c0.96-0.79,1.92-1.58,2.95-2.42c0.1,0.25,0.14,0.45,0.25,0.59c0.3,0.4,0.64,0.78,0.96,1.17c0.21-0.49,0.55-0.96,0.59-1.46
				c0.08-0.899,0.03-1.82-0.05-2.729c-0.05-0.46-0.26-0.91-0.4-1.36c-0.49,0.19-1.13,0.25-1.43,0.6c-0.66,0.78-1.21,1.67-1.71,2.57
				c-0.521,0.93-0.94,1.92-1.41,2.88C150.261,160.82,150.341,160.881,150.431,160.931z M133.701,143.041
				c1.659-1.54,3.329-3.08,5.029-4.65c1.95,1.8,2.79,4.63,5.29,5.95c0.11-0.061,0.22-0.12,0.32-0.18
				c-0.43-0.91-1.101-1.78-1.26-2.74c-0.391-2.33-2.061-3.72-3.561-5.22c-0.24-0.24-1.1-0.271-1.33-0.04
				c-1.93,1.939-3.52,4.14-4.8,6.56C133.49,142.831,133.601,142.931,133.701,143.041z M121.961,153.311
				c1.2-0.51,2.21-0.939,3.43-1.46c0.271,1.18,0.48,2.26,0.78,3.32c0.08,0.28,0.439,0.66,0.689,0.67s0.69-0.34,0.74-0.59
				c0.15-0.73,0.28-1.5,0.18-2.221c-0.13-0.93-0.569-1.819-0.72-2.75c-0.149-0.92-0.57-1-1.2-0.54c-1.29,0.921-2.54,1.9-3.79,2.86
				C122.001,152.65,122.03,152.82,121.961,153.311z M118.291,138.48c1.82-0.54,2.65-2.399,4.28-3.58
				c0.33,0.69,0.601,1.25,0.87,1.811c1.05,2.17,2.021,2.39,3.851,0.89c0.149-0.12,0.319-0.21,0.529-0.34
				c0.271,0.31,0.471,0.63,0.75,0.81c0.32,0.21,0.721,0.301,1.08,0.44c0.141-0.38,0.49-0.83,0.38-1.14
				c-0.25-0.74-0.609-1.49-1.109-2.08c-0.57-0.69-1.36-0.771-2.11-0.12c-0.37,0.319-0.76,0.62-1.2,0.979
				c-0.31-0.62-0.529-1.08-0.77-1.529c-0.9-1.67-2.18-2.03-3.25-0.601c-0.16,0.21-0.45,0.33-0.63,0.54
				c-1.03,1.16-2.05,2.34-3.07,3.51C118.031,138.211,118.161,138.341,118.291,138.48z M105.441,138.03
				c0.21,0.101,0.64-0.159,0.92-0.34c0.22-0.14,0.37-0.399,0.66-0.71c0.4,0.25,0.71,0.561,1.07,0.63c0.34,0.07,0.81-0.02,1.07-0.229
				c0.17-0.141,0.22-0.74,0.07-0.92c-0.73-0.84-1.48-1.681-2.34-2.37c-0.84-0.66-1.66-0.36-1.92,0.68
				c-0.19,0.76-0.19,1.58-0.14,2.37C104.851,137.461,105.151,137.891,105.441,138.03z M54.781,168.961
				c0.33-0.03,0.77-0.311,0.89-0.601c0.2-0.449,0.2-1.01,0.24-1.52c0.05-0.65,0.07-1.3,0.11-2.22c1.32,2.06,2.47,3.869,3.62,5.67
				c-0.69-0.311-1.45-0.761-2.26-0.95c-0.42-0.101-1.21,0.12-1.36,0.43c-0.2,0.41-0.14,1.271,0.16,1.53
				c0.78,0.689,1.68,1.37,2.66,1.66c3.1,0.93,6.24,1.68,9.38-0.01c3.03-1.62,5.99-3.211,7.9-6.33c1.72-2.811,2.07-8.15-1.85-10.41
				c-3.12-1.8-6.44-3.13-10.23-2.021c-1.79,0.521-3.59,0.87-5.14,2.07c-2.57,1.99-3.97,4.68-4.72,7.69
				c-0.34,1.369-0.11,2.899-0.06,4.35C54.131,168.551,54.581,168.98,54.781,168.961z M31.371,212.541
				c-2.41,0.58-4.56-0.12-6.71-1.03c-6.09-2.56-11.98-5.42-17.04-9.8c-2.56-2.221-4.12-4.91-4.82-8.16
				c-0.39-1.85,0.16-3.49,1.23-4.97c2.46-3.4,5.63-6.061,8.83-8.74c5.47-4.58,10.99-9.16,14.86-15.3c1.89-3.011,3.69-6.07,5.5-9.13
				c1.39-2.341,2.85-4.54,5.19-6.15c2.35-1.63,4.4-3.69,6.65-5.48c3.51-2.779,7.43-4.939,11.34-7.109
				c2.57-1.44,4.97-3.181,7.54-4.641c3.25-1.859,6.74-3.06,10.52-3.319c2.91-0.21,5.81-0.49,8.71-0.771
				c0.39-0.04,0.77-0.29,1.16-0.439c-0.96-2.141-2.88-1.5-4.52-1.82c1.9-1.07,4.31-0.79,5.78-2.86c-0.78,0.04-1.56,0.091-2.34,0.131
				c-0.08-0.091-0.16-0.181-0.24-0.271c0.73-0.78,1.45-1.57,2.35-2.54c-1.55-0.29-1.53-1.42-1.42-2.6
				c-0.16,0.01-0.32,0.029-0.48,0.04c-0.51,1.09-1.09,2.149-1.51,3.279c-0.43,1.11-0.99,2.04-2.06,2.67
				c-2.98,1.75-5.15,2.28-8.15,1.811c4.45-8.07,8.87-16.07,13.32-24.14c0.18,0.6,0.4,1.26,0.57,1.93c0.82,3.42,1.52,6.87,2.47,10.24
				c0.92,3.26,2.1,6.439,3.17,9.659c0.27,0.79,0.56,1.57,0.83,2.36c0.3,0.89,0.92,1.11,1.84,1.13c4.31,0.09,8.63,0.15,12.93,0.47
				c2.2,0.16,4.36,0.851,6.54,1.311c0.7,0.15,1.4,0.33,2.1,0.49c0.07-0.15,0.15-0.311,0.22-0.46c-1-0.71-1.96-1.5-3.02-2.11
				c-1.03-0.59-1.18-0.88-0.57-1.93c0.51-0.851,0.97-1.74,1.52-2.73c1.26,0.61,2.06,1.67,2.89,2.71c0.4,0.49,0.78,1.03,1.26,1.431
				c0.75,0.619,1.55,0.59,1.95-0.391c0.69-1.649,1.27-3.35,1.89-5.04c0.15-0.399,0.271-0.819,0.431-1.34
				c1.08,0.43,2.069,0.83,3.06,1.22c0.29,0.11,0.59,0.261,0.9,0.29c2.79,0.221,2.89-0.22,3.52-3.149
				c0.13-0.601,0.021-1.25,0.021-1.86c2.569-0.31,3.87,1.2,5.08,2.89c0.56,0.79,1.17,1.54,1.77,2.311l2.12,0.87
				c-0.311,0.42-0.6,0.84-0.89,1.27c-1.261,1.87-2.36,3.851-3.471,5.82c-0.27,0.49-0.27,1.11-0.399,1.67
				c0.46-0.3,1.05-0.5,1.359-0.91c2.13-2.8,4.19-5.649,6.28-8.479c0.22-0.28,0.47-0.54,0.71-0.82c1.28,2.55,2.48,4.939,3.68,7.34
				c0.17-0.07,0.341-0.14,0.511-0.21c-0.65-1.96-1.29-3.91-1.94-5.87c0.11-0.07,0.22-0.13,0.33-0.2c0.29,0.19,0.59,0.37,0.88,0.57
				c1.38,0.95,2.75,1.92,4.14,2.85c0.54,0.36,1.16,0.811,1.66,0.04c0.49-0.76,0.03-1.359-0.58-1.83l0.891-0.97
				c4.01-3.78,7.56-7.92,10.689-12.49c0.74,3.091-0.35,6.131-0.149,9.16c0.13,0.021,0.26,0.04,0.39,0.07
				c0.8-3.23,1.59-6.46,2.39-9.69c0.091-0.119,0.19-0.239,0.28-0.35c0.22,0.35,0.391,0.74,0.65,1.05
				c0.96,1.13,1.899,2.271,2.93,3.33c0.561,0.58,1.311,0.99,1.96,1.5c0.46,0.37,0.9,0.78,1.32,1.19c0.729,0.71,1.45,1.43,2.17,2.149
				c0.1-0.08,0.189-0.149,0.29-0.229c-1.44-2.141-2.88-4.28-4.32-6.42c2.84,0.64,4.521,3.5,7.7,3.42c-0.29-1.82-2.15-2.26-2.93-3.41
				c0.17-0.15,0.34-0.311,0.51-0.46c2.979-2.68,5.92-5.32,9-8.09c0.57,0.569,1.24,1.22,1.899,1.89c0.971,1.01,1.62,2.29,3.32,2.521
				c0.75,0.1,1.34,1.18,2.05,1.75c0.641,0.51,1.36,0.92,2.011,1.42c0.569,0.43,1.39,0.81,1.59,1.39c0.5,1.47,1.22,0.79,1.85,0.31
				c0.98-0.75,1.88-1.609,2.811-2.43c0.229-0.21,0.46-0.42,0.739-0.66c0.65,0.73,0.86,1.32-0.06,1.971
				c-0.48,0.34-0.89,0.81-1.23,1.3c-0.199,0.279-0.199,0.7-0.29,1.06c0.381,0.07,0.811,0.29,1.11,0.181
				c0.62-0.24,1.21-0.61,1.74-1.021c0.67-0.51,1.3-1.08,1.87-1.69c0.72-0.75,1.37-0.739,2.21-0.159c1.779,1.22,3.6,2.38,5.42,3.529
				c0.33,0.21,0.75,0.45,1.1,0.41c0.37-0.05,0.79-0.35,1.01-0.66c0.101-0.14-0.119-0.699-0.35-0.859c-2.43-1.8-4.86-3.601-7.36-5.3
				c-0.47-0.32-1.239-0.19-2.109-0.311c-0.01-0.01-0.181-0.28-0.25-0.57c-0.42-1.68-1.75-2.199-3-1.02
				c-1.17,1.1-2.16,2.41-3.22,3.63c-0.221,0.26-0.4,0.56-0.65,0.91c-0.69-0.771-1.311-1.42-1.85-2.13
				c-0.15-0.19-0.171-0.721-0.03-0.84c0.74-0.641,1.17-1.5,2.46-1.62c1.16-0.11,2.29-1.05,3.33-1.771
				c2.279-1.55,4.479-3.21,6.74-4.779c1.729-1.2,1.92-1.211,3.3,0.34c1.56,1.75,3.01,3.6,4.54,5.439c-0.65,0.7-1.21,1.25-1.7,1.87
				c-0.18,0.21-0.19,0.561-0.271,0.851c0.33,0.05,0.761,0.27,0.971,0.13c1.229-0.79,2.42-1.67,3.609-2.53
				c0.311-0.22,0.59-0.5,0.98-0.84c0.39,1.569,0.7,3.02,1.09,4.439c0.47,1.71,0.93,3.44,1.54,5.11c0.53,1.46,1.38,1.63,2.57,0.67
				c1.439-1.18,2.85-2.4,4.33-3.65c1.489,1.73,2.819,3.431,4.319,4.971c0.69,0.72,1.681,1.16,2.57,1.64
				c0.08,0.04,0.49-0.55,0.89-1.02c0.4,0.159,1.16,0.55,1.971,0.76c3.59,0.939,7.229,1.7,10.779,2.78
				c4.13,1.25,8.061,3.079,11.57,5.579c2.94,2.101,6.06,4.03,8.28,7.011c0.21,0.29,0.56,0.479,0.85,0.72
				c0.09-0.07,0.18-0.13,0.271-0.19c-0.16-0.399-0.32-0.79-0.58-1.43c0.479,0.26,0.79,0.38,1.06,0.58c3.12,2.28,6.34,4.45,9.34,6.89
				c6.061,4.931,12.37,9.631,17.04,16.021c1.34,1.82,2.51,3.79,3.59,5.78c2.101,3.869,4.091,7.81,6.12,11.72
				c0.05,0.09,0.03,0.22,0.04,0.45c-0.189-0.04-0.35-0.021-0.46-0.09c-5.37-3-10.74-5.99-16.08-9.03
				c-0.899-0.51-1.8-1.13-2.47-1.891c-1.04-1.18-1.89-2.54-2.83-3.819c-1.56-2.09-2.47-4.5-3.51-6.87c-1-2.3-2.29-4.47-3.46-6.7
				c-0.08-0.15-0.23-0.27-0.61-0.31c0.09,0.34,0.16,0.68,0.28,1.01c1.24,3.37,2.64,6.689,3.67,10.12c0.71,2.39,0.88,4.93,1.35,7.399
				c0.96,5.101,0.79,10.25,0.601,15.38c-0.21,5.841-0.57,11.69-2.28,17.33c-0.71,2.351-1.77,4.591-2.64,6.9
				c-0.681,1.83-1.28,3.69-1.99,5.51c-2.13,5.46-4.24,10.931-7.75,15.73c-1.9,2.6-3.47,5.43-5.271,8.1c-2.05,3.04-4.199,5.99-6.29,9
				c-1.109,1.601-2.159,3.24-3.27,4.84c-2.1,3.04-4.24,6.061-6.32,9.12c-0.989,1.46-1.92,2.97-2.899,4.44
				c-0.32,0.479-0.641,0.96-0.98,1.43c-0.85,1.19-1.87,2.271-2.88,3.33c-0.28,0.3-1.03,0.62-1.2,0.48
				c-0.37-0.311-0.72-0.9-0.71-1.37c0.061-2.62,0.04-5.271,0.4-7.86c0.41-2.89,0.42-5.77,0.33-8.66c-0.04-1.08,0.01-2.16,0.14-3.229
				c0.58-4.721-0.33-9.351-1.22-13.9c-0.58-2.95-2.13-5.72-3.3-8.55c-1.511-3.66-4.44-6.3-6.891-9.36
				c0.46-0.319,1.04-0.45,1.061-1.319c0.01-0.36,1.199-0.761,1.899-1.03c3.771-1.47,7.17-3.53,10.42-5.95
				c1.91-1.42,3.12-3.42,4.83-4.92c1.521-1.32,2.681-2.78,3.49-4.55c1.18-2.57,2.51-5.12,3.3-7.82c0.63-2.14,0.55-4.49,0.76-6.74
				c0.101-1.069,0.15-2.14,0.24-3.39c-1.59,1.56-1.89,3.5-2.47,5.31c-0.63,2.011-1.15,4.061-1.88,6.04
				c-0.36,0.971-1.101,1.79-1.66,2.69c-2.04,3.28-3.92,6.67-6.14,9.82c-1.95,2.77-4.841,4.29-8.221,4.85
				c-0.529,0.09-1.02,0.4-1.529,0.62c-0.75,0.34-1.471,0.76-2.25,1c-0.65,0.2-1.061,0.38-1.33,1.13c-0.181,0.49-1.021,0.8-1.63,1.04
				c-1.21,0.479-2.471,0.83-3.69,1.26c-3.08,1.101-6.229,1.79-9.47,2.23c-3.46,0.47-6.891,1.22-10.34,1.729
				c-2.67,0.391-5.37,0.53-8.04,0.9c-3.94,0.56-7.87,1.149-11.771,1.89c-1.899,0.36-3.72,1.09-5.58,1.66
				c-0.149,0.05-0.31,0.16-0.45,0.15c-2.13-0.181-3.68,0.939-5.27,2.149c-3.34,2.53-5.93,5.7-7.69,9.41
				c-1.26,2.64-2.39,5.34-3.5,8.05c-0.939,2.28-1.859,4.57-2.819,6.84c-1.37,3.221-2.761,6.42-4.23,9.591
				c-1.21,2.63-2.189,5.479-3.93,7.739c-2.44,3.181-3.851,6.92-6.19,10.11c-0.31,0.42-0.609,0.88-1.02,1.17
				c-0.42,0.29-1.15,0.68-1.41,0.51c-0.41-0.26-0.78-0.97-0.76-1.47c0.12-2.78,0.47-5.56,0.529-8.35
				c0.141-6.57-0.569-13.051-2.359-19.4c-0.59-2.1-1.04-4.27-1.84-6.3c-1.011-2.55-2.32-4.99-3.511-7.47
				c-0.1-0.2-0.279-0.37-0.56-0.5c2.73,6.81,5.07,13.71,6.16,20.96c-0.101,0.04-0.2,0.079-0.311,0.13
				c-0.25-0.551-0.489-1.101-0.75-1.641c-1.88-3.92-4.899-6.97-7.739-10.16c-3.101-3.479-6.561-6.659-8.931-10.76
				c-1.64-2.83-3.17-5.74-5.01-8.439c-2.19-3.23-4.25-6.58-7.26-9.181c-2.23-1.92-4.38-3.93-6.71-5.729
				c-1.19-0.92-2.69-1.45-4.2-2.24c1.62-1.33,3.18-2.61,4.74-3.88c-0.1-0.14-0.19-0.28-0.29-0.42c-0.39,0.189-0.8,0.34-1.16,0.58
				c-3.69,2.46-7.8,4-12.04,5.12c-4.7,1.26-9.53,2.02-14.18,3.439c-5.74,1.76-11.69,2.311-17.53,3.46
				c-2.27,0.45-4.54,0.92-6.83,1.21c-1.93,0.24-3.89,0.181-5.84,0.32c-1.7,0.13-3.4,0.34-5.2,0.35c0.24-0.14,0.45-0.34,0.7-0.409
				c3.06-0.881,6.15-1.69,9.19-2.631c2.82-0.88,5.58-1.939,8.4-2.81c0.6-0.19,1.48-0.13,1.98,0.19c2.44,1.56,3.22,1.729,5.2-0.4
				c1.24-1.34,2.71-1.34,4.14-1.73c2.61-0.72,5.24-1.34,7.86-2.029c0.33-0.08,0.62-0.32,0.93-0.49c-0.01-0.11-0.03-0.22-0.05-0.33
				c-0.65,0.07-1.3,0.14-1.95,0.22c-2.96,0.37-5.94,1.09-8.89,1.011c-3.41-0.091-6.62,0.42-9.72,1.649
				c-6.14,2.43-12.48,4.141-18.93,5.46C36.291,211.521,33.811,211.951,31.371,212.541z M165.351,133.201
				c-0.24-0.7-0.39-1.12-0.53-1.54c-0.34,0.13-0.89,0.18-0.979,0.42c-0.82,1.92-1.63,3.859-2.24,5.85
				c-0.149,0.51,0.45,1.24,0.7,1.87c0.46-0.37,1.18-0.65,1.35-1.13C164.331,136.831,164.831,134.921,165.351,133.201z
				 M21.261,196.661c0.05,0,0.09-0.11,0.32-0.431c-0.85-0.319-1.61-0.8-2.41-0.88c-1.37-0.12-2.77-0.06-4.14,0.07
				c-0.48,0.05-0.92,0.53-1.39,0.81c0.43,0.351,0.87,1.021,1.28,1C17.031,197.141,19.151,196.881,21.261,196.661z"/>
			<path fill="#FFE971" d="M183.591,99.791l-1.25-1.44c0.97-0.85,1.939-1.7,2.92-2.55c0.15,0.05,0.27,0.06,0.36,0.12
				c2.18,1.31,2.18,1.319,4.229-0.3c1.72-1.37,3.42-2.761,5.13-4.141c0.23-0.189,0.49-0.34,0.73-0.52
				c0.12,0.08,0.24,0.16,0.359,0.229c-0.529,1.03-1.18,2.021-1.569,3.101c-0.36,1-0.45,2.09-0.69,3.319
				c0.26-0.05,0.561-0.04,0.78-0.17c3.03-1.689,5.689-3.8,7.729-6.66c0.83-1.17,1.761-2.279,2.73-3.34
				c0.33-0.35,1.1-0.739,1.36-0.59c0.689,0.4,1.25,1.061,1.779,1.69c0.08,0.09-0.18,0.58-0.37,0.8c-2.46,2.83-4.92,5.649-7.409,8.45
				c-2.23,2.5-4.511,4.96-6.74,7.46c-0.59,0.66-1.101,0.67-1.7,0.06c-1.27-1.27-2.54-2.54-3.83-3.79
				c-0.54-0.52-1.13-1.01-1.729-1.47C185.07,99.011,184.61,98.851,183.591,99.791z"/>
			<path fill="#FFE971" d="M206.681,70.73c1.03-2.12,2.021-4.14,3.01-6.17c0.07,0,0.141,0.01,0.21,0.021
				c-0.09,0.58-0.14,1.159-0.3,1.72c-0.36,1.26-0.77,2.51-1.17,3.76C208.181,70.871,207.74,71.301,206.681,70.73z"/>
			<path fill="#FFE971" d="M195.301,65.471l-0.11-0.11c1.09-1.09,1.05-2.62,0.721-4.1c-0.25-1.15,0.05-1.62,1.1-2.03
				c2.88-1.09,5.71-2.29,8.56-3.45c0.17-0.06,0.36-0.079,0.65,0.07c-1.89,1.561-3.77,3.12-5.66,4.67c1.2,1.58,1.34,1.61,2.92,0.21
				c2.061-1.819,4.09-3.68,6.431-5.43c-0.061,0.36-0.061,0.75-0.19,1.08c-1.46,3.67-2.94,7.33-4.4,11.01
				c-0.38,0.96-0.649,1.97-1.05,2.93c-0.17,0.41-0.54,0.99-0.859,1.021c-0.5,0.05-1.141-0.19-1.53-0.53
				c-2.09-1.84-4.12-3.74-6.17-5.62C195.581,65.291,195.44,65.381,195.301,65.471z"/>
			<path fill="#FFE971" d="M132.411,80.69c3.09,1.57,6.18,3.141,9.43,4.79c-0.55,1.181-1.09,2.351-1.44,3.09
				c-2.79-2.42-5.6-4.859-8.41-7.3C132.131,81.081,132.271,80.881,132.411,80.69z"/>
			<path fill="#FFE971" d="M130.94,95.501l-0.91,0.18c-0.159-0.79-0.27-1.61-0.39-2.4c-0.55-3.649,0.7-7.17,0.79-11.069
				c0.78,0.74,1.35,1.31,1.96,1.85c2.311,2.08,4.65,4.13,6.96,6.21c0.23,0.21,0.44,0.34,0.62,0.41l-0.13,0.36
				C136.971,92.48,133.961,93.99,130.94,95.501z"/>
			<path fill="#FFE971" d="M124.23,92.911c1.19-2.91,2.44-5.811,3.67-8.7c0.04-0.101,0.141-0.181,0.29-0.36
				c0.13,1.521-0.06,3.021,0.42,4.26c0.73,1.891,0.561,3.82,0.801,5.73c0.04,0.38-0.051,0.77-0.07,1.2
				c-1.63-0.44-3.16-0.82-4.67-1.29C124.451,93.681,124.15,93.11,124.23,92.911z"/>
			<path fill="#FFE971" d="M193.69,68.65c-0.63,0.5-1.439,0.891-1.859,1.53c-2.75,4.24-5.42,8.53-8.101,12.81
				c-0.13,0.2-0.18,0.45-0.27,0.671c0.5-0.45,0.85-0.98,1.25-1.48c0.149-0.2,0.37-0.35,0.59-0.47c0.439-0.25,1.05-0.36,1.31-0.721
				c1.98-2.75,3.94-5.5,5.801-8.329c0.72-1.101,1.18-2.381,1.77-3.58C194.011,68.94,193.851,68.801,193.69,68.65z M181.951,92.98
				c1.229-1.16,2.46-2.319,3.68-3.479c-0.08-0.08-0.16-0.16-0.23-0.24c-1.229,1.16-2.46,2.32-3.689,3.479
				C181.791,92.82,181.871,92.9,181.951,92.98z M126.681,95.53c2.34,0.021,3.23,1.301,3.94,3.41c1.56,4.67,3.47,9.221,5.229,13.82
				c0.11-0.04,0.23-0.08,0.34-0.12c-0.27-0.78-0.51-1.56-0.8-2.32c-1.65-4.33-3.35-8.64-4.92-12.989
				c-0.19-0.53-0.33-1.091-0.44-1.65l0.91-0.18c0.07,0.17,0.141,0.33,0.21,0.489c2.87-1.35,5.75-2.699,8.641-4.06
				c1.09,6.09,2.21,12.4,3.35,18.79c0-6.81-0.8-13.4-3.3-19.68l0.13-0.36c0.48,0.17,0.84-0.11,1.19-0.8
				c0.46-0.91,1.04-1.74,1.569-2.61c0.141,0.01,0.271,0.03,0.4,0.04c0.92,6.25,1.85,12.49,2.78,18.74
				c0.149-0.01,0.3-0.021,0.439-0.03c0-1.08,0.05-2.16,0-3.229c-0.22-4.38-0.46-8.761-0.72-13.13
				c-0.101-1.641-0.271-3.271-0.48-4.891c-0.18-1.35-1.109-2.01-2.35-2.42c-2-0.66-1.89-0.81-1.85-2.939
				c0.039-2.46-0.24-4.931-0.391-7.4c-0.27-4.5-0.55-9.01-0.81-13.51c-0.181-2.98-0.29-5.971-0.49-8.95
				c-0.09-1.271-0.38-2.521-0.49-3.79c-0.03-0.44,0.11-0.97,0.351-1.34c1.399-2.23,2.84-4.44,4.3-6.63
				c1.939-2.91,3.92-5.811,6.17-8.65c0.05,0.45,0.11,0.89,0.14,1.33c0.29,4.66,0.62,9.32,0.86,13.98
				c0.41,7.819,0.76,15.649,1.12,23.47c0.069,1.52,0.04,3.04,0.1,4.56c0.01,0.21,0.12,0.42,0.22,0.63
				c0.03,0.061,0.051,0.12,0.08,0.181c0,0.01,0,0.029,0,0.04c0,0.01,0,0.029,0,0.04c-0.05,0.33-0.149,0.68-0.14,1.01
				c0.19,5.859,0.38,11.72,0.58,17.58c0.04,1.109,0.15,2.21,0.22,3.319c0.05,0,0.101,0,0.15-0.01c-0.271-7.3-0.54-14.6-0.811-21.899
				c0-0.021,0.011-0.03,0.011-0.051c0-0.01-0.011-0.02-0.011-0.029V73.28c-0.12-2.449-0.26-4.909-0.34-7.369
				c-0.149-4.671-0.319-9.351-0.35-14.021c-0.01-1.11,0.67-2.22,0.7-3.34c0.119-3.83,0.069-7.67,0.13-11.5
				c0.02-1.34,0.149-2.68,0.239-4.22c0.41,0.29,0.671,0.439,0.891,0.64c3.729,3.31,7.47,6.6,11.149,9.96
				c0.4,0.37,0.671,1.09,0.671,1.65c0,2.47-0.091,4.939-0.19,7.409c-0.25,6.101-0.44,12.2-0.84,18.28c-0.3,4.58-0.88,9.13-1.34,13.7
				c-0.021,0.15,0,0.3,0.189,0.48c0.431-4.221,0.86-8.44,1.29-12.65c0.101,0,0.2,0.01,0.3,0.02c-0.6,6.83-1.189,13.66-1.779,20.48
				c0.029,0.01,0.069,0.01,0.1,0.01c0.22-1.64,0.44-3.28,0.66-4.92c0.07,0,0.14,0.01,0.21,0.021c-0.4,4.06-0.8,8.109-1.2,12.17
				c0.061,0.01,0.12,0.02,0.18,0.02c0.19-1.59,0.33-3.189,0.58-4.77c0.33-2.011,0.851-3.98,1.11-5.99c0.47-3.68,0.86-7.37,1.2-11.07
				c0.649-7.189,1.189-14.399,1.88-21.59c0.67-6.979,1.39-13.97,2.24-20.94c0.59-4.859,1.439-9.699,2.17-14.55
				c0.09-0.64,0.069-1.3,0.26-1.899c0.18-0.62,0.42-1.301,0.86-1.74c2.43-2.5,5.31-4.43,8.21-6.36c2.42-1.6,4.58-3.609,6.85-5.439
				c0.3-0.25,0.6-0.5,1.13-0.931c0,0.66,0.061,1.12-0.01,1.561c-0.54,3.54-0.99,7.1-1.69,10.609c-0.939,4.69-1.97,9.36-2.989,14.03
				c-0.341,1.55-0.681,3.101-1.011,4.65c0,0-0.01,0-0.01,0.01c-0.01,0-0.01,0-0.02,0c0,0.06-0.011,0.13-0.011,0.19
				c-0.54,2.42-1.069,4.85-1.619,7.27c0.659-1.76,1.109-3.56,1.489-5.38c0.13-0.62,0.11-1.26,0.13-1.89
				c0.011-0.061,0.03-0.11,0.04-0.17c0-0.011,0-0.021,0.011-0.03c0.189-0.05,0.39-0.08,0.63-0.13c0,1.569,0,3.13,0,4.689
				c0.14,0.021,0.29,0.03,0.43,0.05c2.271-5.6,3.53-11.5,4.59-17.42c1.05-5.92,1.8-11.909,2.7-17.97c0.21,0.15,0.43,0.271,0.6,0.44
				c1.74,1.76,3.49,3.51,5.19,5.31c0.06,0.061,0.12,0.12,0.18,0.18c0.41,0.44,0.851,0.95,0.931,1.471
				c0.319,2.029,1.62,3.439,2.81,4.93c2.54,3.18,5.12,6.33,7.65,9.51c0.17,0.221,0.229,0.681,0.12,0.92
				c-1.19,2.471-2.311,4.98-3.671,7.36c-2.38,4.18-4.899,8.28-7.369,12.4c-3.101,5.159-6.29,10.27-9.311,15.47
				c-1.859,3.2-3.49,6.53-5.21,9.81c-1.51,2.9-3,5.8-4.51,8.7c-0.55,1.05-1.14,2.08-1.68,3.14c-0.181,0.33-0.28,0.7-0.431,1.101
				c0.181-0.01,0.24,0,0.25-0.021c2.181-3.27,4.48-6.47,6.5-9.84c2.311-3.83,4.29-7.85,6.58-11.68c0.69-1.16,1.95-1.96,3.05-3.021
				c0.49,1.61,0.92,3.051,1.36,4.5c0.08-0.069,0.15-0.13,0.22-0.21l0.11,0.11c0.43,0.78,0.689,1.74,1.32,2.28
				c1.5,1.29,3.18,2.37,4.77,3.56c0.47,0.351,0.89,0.76,1.521,1.3c-0.24,0.221-0.49,0.44-0.73,0.65c-1.67,1.5-3.3,2.92-4.85,4.4
				c-2.62,2.52-5.17,5.09-7.721,7.68c-0.18,0.18-0.06,0.64-0.08,0.97c0.391,0.021,0.91,0.2,1.171,0.021
				c1.159-0.841,2.359-1.67,3.35-2.7c2.2-2.26,4.3-4.62,6.38-7c0.56-0.63,0.87-1.48,1.35-2.2c0.221-0.32,0.46-0.59,0.721-0.81
				c1.13-0.96,2.64-1.061,4.1-1.25c0.43-0.061,0.87-0.011,1.51-0.011c-0.27,0.351-0.42,0.61-0.63,0.801
				c-3.43,3.09-6.91,6.14-10.3,9.279c-3.37,3.12-6.72,6.25-10.05,9.431c-1.311,1.229-2.62,2.479-3.93,3.729
				c-2.23,2.13-4.32,4.4-6.48,6.61c0.06,0.09,0.12,0.189,0.18,0.29c0.62-0.351,1.311-0.601,1.84-1.05
				c1.211-1.021,2.41-2.061,3.601-3.101l1.25,1.44c-0.15,0.14-0.311,0.3-0.49,0.489c-2.31,2.421-4.51,4.94-6.76,7.421
				c-0.351,0.38-0.71,0.76-1.061,1.14c-0.26,0.29-0.47,0.51-0.649,0.689c-0.74,0.7-1,0.511-2.34-0.39
				c-1.53-1.02-3.061-2.04-4.641-2.96c-1.08-0.64-2.26-1.14-3.41-1.67c-0.89-0.41-1.619-0.36-2.26,0.57
				c-2.52,3.64-5.16,7.189-7.63,10.85c-0.84,1.24-1.29,2.72-1.939,4.08c-0.271,0.55-0.601,1.08-0.7,1.76l-0.891,0.97
				c-1.989-1.52-3.989-3.029-5.97-4.56c-1.05-0.82-2.82-1.08-3.42-0.35c-0.99,1.199-1.97,2.409-2.88,3.67l-2.12-0.87
				c0.15-0.061,0.3-0.13,0.45-0.19c-0.271-0.95-0.37-1.989-0.83-2.84c-3.55-6.7-7.17-13.36-10.78-20.03
				c-0.43-0.8-0.97-1.55-1.62-2.58C124.801,95.211,125.74,95.521,126.681,95.53z"/>
			<path d="M213.201,125.091c-0.19,0.11-0.44,0.09-0.86-0.07c0.41-0.49,0.79-1.01,1.25-1.45c1.21-1.14,2.47-2.239,3.7-3.38
				c0.91-0.83,1.76-0.93,3.02-0.47c1.891,0.69,2.93,2.01,3.94,3.59c0.96,1.5,2.14,2.86,3.2,4.3c0.399,0.54,0.789,1.101,1.09,1.7
				c0.109,0.24-0.04,0.62-0.061,0.94c-0.33-0.07-0.77-0.03-0.97-0.23c-0.87-0.87-1.65-1.84-2.5-2.729
				c-1.85-1.91-3.72-3.79-5.55-5.65C217.32,122.82,215.271,123.971,213.201,125.091z"/>
			<path d="M195.28,136.751c-1.22,0.88-2.369,1.859-3.569,2.77c-0.221,0.181-0.54,0.23-0.811,0.34c-0.06-0.08-0.12-0.159-0.18-0.239
				c1.92-2.49,3.6-5.2,6.07-6.971c1.3,1.38,2.41,2.54,3.54,3.721c0.72-0.94,1.38-1.891,2.13-2.75c0.819-0.96,1.12-0.841,1.649,0.26
				c0.311,0.63,0.87,1.13,1.33,1.68c1.7,2.021,3.03,4.25,3.79,6.88c-2.479-1.64-4-4.359-6.66-6.069
				c-0.359,0.529-0.729,1.13-1.159,1.68c-0.79,0.99-1.601,1.979-2.45,2.92c-0.17,0.19-0.55,0.18-0.83,0.26
				c-0.01-0.29-0.11-0.609-0.01-0.859c0.92-2.4,0.819-2.75-1.54-3.94C196.271,136.28,195.631,136.501,195.28,136.751z"/>
			<path d="M190.701,86.331c-0.261,0.18-0.78,0-1.171-0.021c0.021-0.33-0.1-0.79,0.08-0.97c2.551-2.59,5.101-5.16,7.721-7.68
				c1.55-1.48,3.18-2.9,4.85-4.4l0.32,0.36c-0.261,0.22-0.5,0.489-0.721,0.81c-0.479,0.72-0.79,1.57-1.35,2.2
				c-2.08,2.38-4.18,4.74-6.38,7C193.061,84.661,191.86,85.49,190.701,86.331z"/>
			<path d="M190.65,117.831c-1.34,1.09-2.649,2.159-3.97,3.239c-0.15-0.159-0.29-0.31-0.44-0.47c1.051-1.22,2.04-2.479,3.141-3.649
				c2.22-2.351,2.28-2.351,3.82,0.52c0.649,1.23,1.17,2.53,1.649,3.83c0.15,0.41-0.01,0.939-0.03,1.41
				c-0.449-0.23-1.029-0.36-1.34-0.71c-0.55-0.62-0.93-1.391-1.39-2.08C191.65,119.261,191.19,118.61,190.65,117.831z"/>
			<path d="M185.631,89.501c-1.22,1.16-2.45,2.319-3.68,3.479c-0.08-0.08-0.16-0.16-0.24-0.24c1.229-1.159,2.46-2.319,3.689-3.479
				C185.471,89.341,185.551,89.421,185.631,89.501z"/>
			<path d="M184.711,82.181c-0.4,0.5-0.75,1.03-1.25,1.48c0.09-0.221,0.14-0.471,0.27-0.671c2.681-4.279,5.351-8.569,8.101-12.81
				c0.42-0.64,1.229-1.03,1.859-1.53c0.16,0.15,0.32,0.29,0.49,0.431c-0.59,1.199-1.05,2.479-1.77,3.58
				c-1.86,2.829-3.82,5.579-5.801,8.329c-0.26,0.36-0.87,0.471-1.31,0.721C185.081,81.831,184.86,81.98,184.711,82.181z"/>
			<path d="M184.581,31.021c-0.33,1.55-0.67,3.101-1,4.65h-0.011C183.9,34.121,184.24,32.57,184.581,31.021z"/>
			<path d="M183.57,35.701c-0.01,0.06-0.029,0.109-0.04,0.17c0-0.061,0.011-0.131,0.011-0.19c0,0,0.01,0.01,0.02,0.021H183.57z"/>
			<path d="M183.57,35.671c0,0,0,0.01-0.01,0.01C183.561,35.671,183.57,35.671,183.57,35.671z"/>
			<path d="M183.541,35.681c0.01,0,0.01,0,0.02,0c0,0.01,0,0.01,0,0.021C183.551,35.69,183.541,35.681,183.541,35.681z"/>
			<path d="M181.911,43.141c0.55-2.42,1.079-4.85,1.619-7.27c-0.02,0.63,0,1.27-0.13,1.89
				C183.021,39.581,182.57,41.381,181.911,43.141z"/>
			<path d="M209.69,64.561c-0.989,2.03-1.979,4.05-3.01,6.17c1.06,0.57,1.5,0.141,1.75-0.67c0.4-1.25,0.81-2.5,1.17-3.76
				c0.16-0.561,0.21-1.14,0.3-1.72C209.831,64.57,209.761,64.561,209.69,64.561z M179.341,81.391c1.51-2.9,3-5.8,4.51-8.7
				c1.72-3.279,3.351-6.609,5.21-9.81c3.021-5.2,6.21-10.311,9.311-15.47c2.47-4.12,4.989-8.221,7.369-12.4
				c1.36-2.38,2.48-4.89,3.671-7.36c0.109-0.239,0.05-0.699-0.12-0.92c-2.53-3.18-5.11-6.33-7.65-9.51
				c-1.189-1.49-2.49-2.9-2.81-4.93c-0.08-0.521-0.521-1.03-0.931-1.471l0.91-0.93c4.07,3.83,7.54,8.11,10.45,12.87
				c0.58,0.95,1.229,1.87,1.93,2.74c0.87,1.1,1.021,2.239,0.34,3.45c-1.21,2.199-2.439,4.39-3.71,6.55
				c-3.439,5.91-6.92,11.79-10.369,17.689c-0.721,1.24-1.41,2.49-2.23,3.94c0.65-0.24,1.12-0.391,1.56-0.58
				c3.86-1.68,7.7-3.42,11.591-5.021c1.83-0.76,3.76-1.29,5.659-1.85c1.061-0.31,1.801,0.18,1.75,1.271
				c-0.079,1.819-0.1,3.71-0.579,5.439c-1.45,5.24-3.16,10.4-4.65,15.63c-0.43,1.521-1.311,2.54-2.45,3.55
				c-6.05,5.32-12.06,10.71-18.09,16.07c-0.55,0.49-1.14,0.96-1.7,1.47l-1.18-1.239c3.33-3.181,6.68-6.311,10.05-9.431
				c3.39-3.14,6.87-6.189,10.3-9.279c0.21-0.19,0.36-0.45,0.63-0.801c-0.64,0-1.08-0.05-1.51,0.011c-1.46,0.189-2.97,0.29-4.1,1.25
				l-0.32-0.36c0.24-0.21,0.49-0.43,0.73-0.65c-0.631-0.54-1.051-0.949-1.521-1.3c-1.59-1.189-3.27-2.27-4.77-3.56
				c-0.631-0.54-0.891-1.5-1.32-2.28c0.14-0.09,0.28-0.18,0.41-0.28c2.05,1.88,4.08,3.78,6.17,5.62c0.39,0.34,1.03,0.58,1.53,0.53
				c0.319-0.03,0.689-0.61,0.859-1.021c0.4-0.96,0.67-1.97,1.05-2.93c1.46-3.68,2.94-7.34,4.4-11.01c0.13-0.33,0.13-0.72,0.19-1.08
				c-2.341,1.75-4.37,3.61-6.431,5.43c-1.58,1.4-1.72,1.37-2.92-0.21c1.891-1.55,3.771-3.109,5.66-4.67
				c-0.29-0.149-0.48-0.13-0.65-0.07c-2.85,1.16-5.68,2.36-8.56,3.45c-1.05,0.41-1.35,0.88-1.1,2.03
				c0.329,1.479,0.369,3.01-0.721,4.1c-0.069,0.08-0.14,0.141-0.22,0.21c-0.44-1.449-0.87-2.89-1.36-4.5
				c-1.1,1.061-2.359,1.86-3.05,3.021c-2.29,3.83-4.27,7.85-6.58,11.68c-2.02,3.37-4.319,6.57-6.5,9.84
				c-0.01,0.021-0.069,0.011-0.25,0.021c0.15-0.4,0.25-0.771,0.431-1.101C178.201,83.471,178.791,82.44,179.341,81.391z"/>
			<path d="M248.971,255.221c1.89,2.46,3.84,4.87,5.79,7.29c0.26,0.31,0.59,0.56,0.88,0.84c0.22-0.39,0.61-0.77,0.64-1.17
				c0.181-2.45,0.421-4.91,0.391-7.37c-0.03-3.22-0.29-6.45-0.46-9.67c-0.021-0.32-0.13-0.64-0.28-1.35
				c-0.65,1.02-1.06,1.72-1.53,2.39c-1.81,2.62-3.649,5.22-5.43,7.87C248.78,254.331,248.771,254.971,248.971,255.221z
				 M178.74,101.451c-0.529,0.449-1.22,0.699-1.84,1.05c-0.06-0.101-0.12-0.2-0.18-0.29c2.16-2.21,4.25-4.48,6.48-6.61
				c1.31-1.25,2.619-2.5,3.93-3.729l1.18,1.239c-0.18,0.17-0.37,0.341-0.54,0.521c-0.24,0.25-0.229,0.75-0.33,1.13
				c0.13,0.06,0.261,0.11,0.38,0.17c1.341-1.24,2.641-2.51,4.021-3.69c1.96-1.689,3.95-3.359,5.99-4.96
				c0.43-0.34,1.1-0.5,1.67-0.529c1.439-0.08,1.81,0.58,1.229,1.88c-0.14,0.33,0.01,0.8,0.03,1.2c0.37-0.13,0.85-0.15,1.07-0.4
				c1.13-1.29,2.21-2.63,3.27-3.979c0.41-0.53,0.75-0.62,1.271-0.181c1.619,1.36,3.26,2.71,4.899,4.04
				c0.78,0.63,0.75,1.25,0.11,1.93c-1.65,1.73-3.311,3.461-4.97,5.19c-0.65,0.68-1.311,1.34-1.971,2.01
				c0.061,0.11,0.12,0.221,0.181,0.33c0.33-0.069,0.729-0.04,0.989-0.22c0.851-0.58,1.801-1.12,2.44-1.89
				c1.11-1.341,3.189-0.851,4.15,0.329c1.76,2.141,3.47,4.32,5.27,6.57c0.81-0.62,1.32-1.05,1.86-1.439
				c1.58-1.141,2.46-0.71,2.729,1.189c0.33,2.28,0.75,4.55,1.17,6.811c0.12,0.659,0.38,1.29,0.59,2.01
				c1.33-0.87,2.591-1.69,3.851-2.5c0.939-0.61,1.72-0.561,2.49,0.39c0.92,1.15,1.93,2.24,2.989,3.25
				c0.49,0.47,1.17,0.94,1.811,1.021c3.85,0.43,7.45,1.76,11.05,3.06c2.93,1.05,5.86,2.07,8.78,3.15c0.93,0.35,1.77,0.939,2.71,1.27
				c5.18,1.84,9.38,5.351,13.97,8.19c2.54,1.569,5.05,3.22,7.43,5.029c2.69,2.04,5.141,4.41,7.86,6.421
				c4.53,3.34,8.02,7.68,11.28,12.119c2.89,3.931,5.069,8.37,7.569,12.591c1.63,2.76,3.04,5.619,3.88,8.72
				c0.15,0.53,0.15,1.16-0.01,1.68c-0.069,0.22-0.8,0.45-1.109,0.34c-6.341-2.199-12.011-5.739-17.811-9.02
				c-0.729-0.41-1.399-0.93-2.08-1.41c-1.79-1.27-1.96-1.35-3.939-1.479c0.13,2.42,0.199,4.85,0.399,7.26
				c0.61,7.31-0.27,14.49-1.66,21.66c-0.93,4.739-2.54,9.26-4.399,13.659c-1.98,4.69-4.18,9.32-6.75,13.71
				c-2.62,4.461-5.8,8.601-8.74,12.87c-1.97,2.86-3.96,5.7-5.91,8.57c-0.16,0.24-0.24,0.62-0.17,0.9c1.2,5.02,1.12,10.13,0.91,15.22
				c-0.07,1.82-0.56,3.63-0.93,5.42c-0.25,1.26-1.48,1.67-2.471,0.77c-1.06-0.949-2.04-2-2.989-3.06c-1.38-1.54-2.71-3.13-4.21-4.87
				c-0.851,1.25-1.721,2.46-2.53,3.7l-0.8-0.55c0.979-1.471,1.91-2.98,2.899-4.44c2.08-3.06,4.221-6.08,6.32-9.12
				c1.11-1.6,2.16-3.239,3.27-4.84c2.091-3.01,4.24-5.96,6.29-9c1.801-2.67,3.37-5.5,5.271-8.1c3.51-4.8,5.62-10.271,7.75-15.73
				c0.71-1.819,1.31-3.68,1.99-5.51c0.87-2.31,1.93-4.55,2.64-6.9c1.71-5.64,2.07-11.489,2.28-17.33
				c0.189-5.13,0.359-10.279-0.601-15.38c-0.47-2.47-0.64-5.01-1.35-7.399c-1.03-3.431-2.43-6.75-3.67-10.12
				c-0.12-0.33-0.19-0.67-0.28-1.01c0.38,0.04,0.53,0.159,0.61,0.31c1.17,2.23,2.46,4.4,3.46,6.7c1.04,2.37,1.95,4.78,3.51,6.87
				c0.94,1.279,1.79,2.64,2.83,3.819c0.67,0.761,1.57,1.381,2.47,1.891c5.34,3.04,10.71,6.03,16.08,9.03
				c0.11,0.069,0.271,0.05,0.46,0.09c-0.01-0.23,0.01-0.36-0.04-0.45c-2.029-3.91-4.02-7.851-6.12-11.72
				c-1.08-1.99-2.25-3.96-3.59-5.78c-4.67-6.39-10.979-11.09-17.04-16.021c-3-2.439-6.22-4.609-9.34-6.89
				c-0.27-0.2-0.58-0.32-1.06-0.58c0.26,0.64,0.42,1.03,0.58,1.43c-0.091,0.061-0.181,0.12-0.271,0.19
				c-0.29-0.24-0.64-0.43-0.85-0.72c-2.221-2.98-5.34-4.91-8.28-7.011c-3.51-2.5-7.44-4.329-11.57-5.579
				c-3.55-1.08-7.189-1.841-10.779-2.78c-0.811-0.21-1.57-0.601-1.971-0.76c-0.399,0.47-0.81,1.06-0.89,1.02
				c-0.89-0.479-1.88-0.92-2.57-1.64c-1.5-1.54-2.83-3.24-4.319-4.971c-1.48,1.25-2.891,2.471-4.33,3.65
				c-1.19,0.96-2.04,0.79-2.57-0.67c-0.61-1.67-1.07-3.4-1.54-5.11c-0.39-1.42-0.7-2.87-1.09-4.439c-0.391,0.34-0.67,0.62-0.98,0.84
				c-1.189,0.86-2.38,1.74-3.609,2.53c-0.21,0.14-0.641-0.08-0.971-0.13c0.08-0.29,0.091-0.641,0.271-0.851
				c0.49-0.62,1.05-1.17,1.7-1.87c-1.53-1.84-2.98-3.689-4.54-5.439c-1.38-1.551-1.57-1.54-3.3-0.34
				c-2.261,1.569-4.461,3.229-6.74,4.779c-1.04,0.721-2.17,1.66-3.33,1.771c-1.29,0.12-1.72,0.979-2.46,1.62
				c-0.141,0.119-0.12,0.649,0.03,0.84c0.539,0.71,1.159,1.359,1.85,2.13c0.25-0.351,0.43-0.65,0.65-0.91
				c1.06-1.22,2.05-2.53,3.22-3.63c1.25-1.18,2.58-0.66,3,1.02c0.069,0.29,0.24,0.561,0.25,0.57c0.87,0.12,1.64-0.01,2.109,0.311
				c2.5,1.699,4.931,3.5,7.36,5.3c0.23,0.16,0.45,0.72,0.35,0.859c-0.22,0.311-0.64,0.61-1.01,0.66c-0.35,0.04-0.77-0.2-1.1-0.41
				c-1.82-1.149-3.641-2.31-5.42-3.529c-0.84-0.58-1.49-0.591-2.21,0.159c-0.57,0.61-1.2,1.181-1.87,1.69
				c-0.53,0.41-1.12,0.78-1.74,1.021c-0.3,0.109-0.729-0.11-1.11-0.181c0.091-0.359,0.091-0.78,0.29-1.06
				c0.341-0.49,0.75-0.96,1.23-1.3c0.92-0.65,0.71-1.24,0.06-1.971c-0.279,0.24-0.51,0.45-0.739,0.66
				c-0.931,0.82-1.83,1.68-2.811,2.43c-0.63,0.48-1.35,1.16-1.85-0.31c-0.2-0.58-1.021-0.96-1.59-1.39
				c-0.65-0.5-1.37-0.91-2.011-1.42c-0.71-0.57-1.3-1.65-2.05-1.75c-1.7-0.23-2.35-1.511-3.32-2.521
				c-0.659-0.67-1.329-1.32-1.899-1.89c-3.08,2.77-6.021,5.41-9,8.09l-0.96-1.061c0.18-0.18,0.39-0.399,0.649-0.689
				c0.351-0.38,0.71-0.76,1.061-1.14c2.25-2.48,4.45-5,6.76-7.421c0.18-0.189,0.34-0.35,0.49-0.489c1.02-0.94,1.479-0.78,2.82,0.26
				c0.6,0.46,1.189,0.95,1.729,1.47c1.29,1.25,2.561,2.521,3.83,3.79c0.6,0.61,1.11,0.601,1.7-0.06c2.229-2.5,4.51-4.96,6.74-7.46
				c2.489-2.801,4.949-5.62,7.409-8.45c0.19-0.22,0.45-0.71,0.37-0.8c-0.529-0.63-1.09-1.29-1.779-1.69
				c-0.261-0.149-1.03,0.24-1.36,0.59c-0.97,1.061-1.9,2.17-2.73,3.34c-2.04,2.86-4.699,4.971-7.729,6.66
				c-0.22,0.13-0.521,0.12-0.78,0.17c0.24-1.229,0.33-2.319,0.69-3.319c0.39-1.08,1.04-2.07,1.569-3.101
				c-0.119-0.069-0.239-0.149-0.359-0.229c-0.24,0.18-0.5,0.33-0.73,0.52c-1.71,1.38-3.41,2.771-5.13,4.141
				c-2.05,1.619-2.05,1.609-4.229,0.3c-0.091-0.061-0.21-0.07-0.36-0.12c-0.98,0.85-1.95,1.7-2.92,2.55
				C181.15,99.391,179.951,100.431,178.74,101.451z"/>
			<path d="M169.261,129.881c0.21-1.021,0.59-1.49,1.72-0.99c1.73,0.771,3.521,1.41,5.25,2.16c0.57,0.24,1.05,0.66,1.58,1
				c0.33-0.54,0.69-1.07,1-1.63c1.351-2.36,3.41-2.41,4.83-0.05c0.2,0.319,0.21,1.029-0.01,1.25c-0.28,0.29-0.9,0.39-1.33,0.319
				c-0.47-0.069-0.9-0.439-1.45-0.739c-0.3,0.659-0.55,1.239-0.83,1.8c-0.75,1.489-1.87,1.83-3.34,1.1
				c-1.76-0.86-3.53-1.689-5.43-2.6c-1.28,4.79-2.55,9.529-3.811,14.27c-0.229-0.02-0.45-0.05-0.68-0.069
				c0-1.33-0.2-2.69,0.04-3.971C167.53,137.761,168.451,133.831,169.261,129.881z"/>
			<path d="M161.601,137.931c0.61-1.99,1.42-3.93,2.24-5.85c0.09-0.24,0.64-0.29,0.979-0.42c0.141,0.42,0.29,0.84,0.53,1.54
				c-0.52,1.72-1.02,3.63-1.7,5.47c-0.17,0.479-0.89,0.76-1.35,1.13C162.051,139.171,161.451,138.44,161.601,137.931z"/>
			<path d="M212.99,214.201c1.961,3.109,3.761,6.039,6.24,8.529c3.101,3.12,5.98,6.431,9.01,9.61c1.261,1.32,2.65,2.52,3.971,3.78
				c1.92,1.83,3.83,3.68,5.74,5.52c0.01-0.04,0.119-0.34,0.119-0.64c-0.04-1.66-0.029-3.32-0.189-4.971
				c-0.36-3.72-0.97-7.39-2.4-10.89c-1.859-4.55-4.91-8.27-7.99-11.99c-1.279-1.56-3.359-1.91-5.31-1.229
				c-1.39,0.479-2.83,0.819-4.25,1.17C216.331,213.48,214.711,213.82,212.99,214.201z M165.44,230.61c-1.3,2.44-2.43,4.94-3.47,7.48
				l-0.9-0.36c1.11-2.71,2.24-5.41,3.5-8.05c1.761-3.71,4.351-6.88,7.69-9.41c1.59-1.21,3.14-2.33,5.27-2.149
				c0.141,0.01,0.301-0.101,0.45-0.15c1.86-0.57,3.681-1.3,5.58-1.66c3.9-0.74,7.83-1.33,11.771-1.89c2.67-0.37,5.37-0.51,8.04-0.9
				c3.449-0.51,6.88-1.26,10.34-1.729c3.24-0.44,6.39-1.13,9.47-2.23c1.22-0.43,2.48-0.78,3.69-1.26
				c0.609-0.24,1.449-0.55,1.63-1.04c0.27-0.75,0.68-0.93,1.33-1.13c0.779-0.24,1.5-0.66,2.25-1c0.51-0.22,1-0.53,1.529-0.62
				c3.38-0.56,6.271-2.08,8.221-4.85c2.22-3.15,4.1-6.54,6.14-9.82c0.56-0.9,1.3-1.72,1.66-2.69c0.729-1.979,1.25-4.029,1.88-6.04
				c0.58-1.81,0.88-3.75,2.47-5.31c-0.09,1.25-0.14,2.32-0.24,3.39c-0.21,2.25-0.13,4.601-0.76,6.74c-0.79,2.7-2.12,5.25-3.3,7.82
				c-0.81,1.77-1.97,3.229-3.49,4.55c-1.71,1.5-2.92,3.5-4.83,4.92c-3.25,2.42-6.649,4.48-10.42,5.95
				c-0.7,0.27-1.89,0.67-1.899,1.03c-0.021,0.869-0.601,1-1.061,1.319c2.45,3.061,5.38,5.7,6.891,9.36c1.17,2.83,2.72,5.6,3.3,8.55
				c0.89,4.55,1.8,9.18,1.22,13.9c-0.13,1.069-0.18,2.149-0.14,3.229c0.09,2.891,0.08,5.771-0.33,8.66
				c-0.36,2.59-0.34,5.24-0.4,7.86c-0.01,0.47,0.34,1.06,0.71,1.37c0.17,0.14,0.92-0.181,1.2-0.48c1.01-1.06,2.03-2.14,2.88-3.33
				c0.34-0.47,0.66-0.95,0.98-1.43l0.8,0.55c-0.93,1.44-1.8,2.91-2.71,4.36c-1.32,2.1-3.23,2.64-4.75,1.239
				c-0.43-0.38-0.75-1.159-0.71-1.729c0.31-4.49,0.729-8.97,1.08-13.46c0.09-1.19,0-2.391,0.05-3.58c0.09-2.271-1.48-3.67-2.6-5.36
				c-1.511-2.27-3.99-3.359-5.87-5.16c-2.03-1.939-4.41-3.55-5.83-6.1c-0.48-0.85-1.271-1.54-1.98-2.24
				c-1.46-1.41-2.92-2.819-4.45-4.149c-2.13-1.841-3.04-4.46-4.51-6.721c-0.47-0.72-0.83-1.51-1.399-2.569
				c-0.801,0.279-1.75,0.66-2.73,0.93c-0.69,0.18-1.41,0.22-2.12,0.3c-1.74,0.19-3.49,0.311-5.21,0.57c-4.1,0.6-8.18,1.3-12.28,1.89
				c-3.97,0.58-7.819,1.561-11.52,3.12c-0.29,0.12-0.59,0.311-0.89,0.34c-2.671,0.23-4.631,1.771-6.57,3.44
				C168.19,226.521,166.661,228.32,165.44,230.61z"/>
			<path d="M162.4,109.28c-3.13,4.57-6.68,8.71-10.689,12.49c0.1-0.68,0.43-1.21,0.7-1.76c0.649-1.36,1.1-2.84,1.939-4.08
				c2.47-3.66,5.11-7.21,7.63-10.85c0.641-0.931,1.37-0.98,2.26-0.57c1.15,0.53,2.33,1.03,3.41,1.67c1.58,0.92,3.11,1.94,4.641,2.96
				c1.34,0.9,1.6,1.09,2.34,0.39l0.96,1.061c-0.17,0.149-0.34,0.31-0.51,0.46c0.779,1.15,2.64,1.59,2.93,3.41
				c-3.18,0.08-4.86-2.78-7.7-3.42c1.44,2.14,2.88,4.279,4.32,6.42c-0.101,0.08-0.19,0.149-0.29,0.229
				c-0.72-0.72-1.44-1.439-2.17-2.149c-0.42-0.41-0.86-0.82-1.32-1.19c-0.649-0.51-1.399-0.92-1.96-1.5
				c-1.03-1.06-1.97-2.2-2.93-3.33c-0.26-0.31-0.431-0.7-0.65-1.05c-0.09,0.11-0.189,0.23-0.28,0.35c-0.8,3.23-1.59,6.46-2.39,9.69
				c-0.13-0.03-0.26-0.05-0.39-0.07C162.051,115.411,163.141,112.371,162.4,109.28z"/>
			<path d="M152.921,133.181c0.63-1.24,1.38-2.42,2.13-3.6c0.4-0.641,1.04-0.721,1.47-0.11c0.98,1.39,1.9,2.83,2.73,4.31
				c0.16,0.271-0.19,0.841-0.311,1.271c-0.359-0.19-0.819-0.28-1.06-0.561c-0.641-0.75-1.19-1.579-1.87-2.52
				c-1.37,1.47-2.07,3.32-4.18,4.27C152.271,134.98,152.49,134.03,152.921,133.181z"/>
			<path d="M151.591,157.891c0.5-0.9,1.05-1.79,1.71-2.57c0.3-0.35,0.939-0.409,1.43-0.6c0.141,0.45,0.351,0.9,0.4,1.36
				c0.08,0.909,0.13,1.83,0.05,2.729c-0.04,0.5-0.38,0.97-0.59,1.46c-0.32-0.39-0.66-0.77-0.96-1.17c-0.11-0.14-0.15-0.34-0.25-0.59
				c-1.03,0.84-1.99,1.63-2.95,2.42c-0.09-0.05-0.17-0.11-0.25-0.16C150.65,159.811,151.07,158.82,151.591,157.891z"/>
			<path d="M152.11,73.371c0.271,7.3,0.54,14.6,0.811,21.899c-0.05,0.01-0.101,0.01-0.15,0.01c-0.069-1.109-0.18-2.21-0.22-3.319
				c-0.2-5.86-0.39-11.721-0.58-17.58C151.961,74.051,152.061,73.701,152.11,73.371z"/>
			<path d="M152.11,73.291c0,0.01,0.011,0.02,0.011,0.029l-0.011,0.011C152.11,73.32,152.11,73.301,152.11,73.291z"/>
			<path d="M152.121,73.32c0,0.021-0.011,0.03-0.011,0.051c0-0.011,0-0.03,0-0.04L152.121,73.32z"/>
			<path d="M138.73,138.391c-1.7,1.57-3.37,3.11-5.029,4.65c-0.101-0.11-0.211-0.21-0.311-0.32c1.28-2.42,2.87-4.62,4.8-6.56
				c0.23-0.23,1.09-0.2,1.33,0.04c1.5,1.5,3.17,2.89,3.561,5.22c0.159,0.96,0.83,1.83,1.26,2.74c-0.101,0.06-0.21,0.119-0.32,0.18
				C141.521,143.021,140.681,140.19,138.73,138.391z"/>
			<path d="M134.19,128.591c1.11-1.97,2.21-3.95,3.471-5.82c0.29-0.43,0.579-0.85,0.89-1.27c0.91-1.261,1.89-2.471,2.88-3.67
				c0.6-0.73,2.37-0.471,3.42,0.35c1.98,1.53,3.98,3.04,5.97,4.56c0.61,0.471,1.07,1.07,0.58,1.83c-0.5,0.771-1.12,0.32-1.66-0.04
				c-1.39-0.93-2.76-1.899-4.14-2.85c-0.29-0.2-0.59-0.38-0.88-0.57c-0.11,0.07-0.22,0.13-0.33,0.2c0.65,1.96,1.29,3.91,1.94,5.87
				c-0.17,0.07-0.341,0.14-0.511,0.21c-1.199-2.4-2.399-4.79-3.68-7.34c-0.24,0.28-0.49,0.54-0.71,0.82
				c-2.09,2.83-4.15,5.68-6.28,8.479c-0.31,0.41-0.899,0.61-1.359,0.91C133.921,129.701,133.921,129.081,134.19,128.591z"/>
			<path d="M139.791,91.931c-2.891,1.36-5.771,2.71-8.641,4.06c-0.069-0.159-0.14-0.319-0.21-0.489c3.021-1.511,6.03-3.021,8.9-4.46
				c2.5,6.279,3.3,12.87,3.3,19.68C142.001,104.331,140.881,98.021,139.791,91.931z"/>
			<path d="M122.07,152.601c1.25-0.96,2.5-1.939,3.79-2.86c0.63-0.46,1.051-0.38,1.2,0.54c0.15,0.931,0.59,1.82,0.72,2.75
				c0.101,0.721-0.029,1.49-0.18,2.221c-0.05,0.25-0.49,0.6-0.74,0.59s-0.609-0.39-0.689-0.67c-0.3-1.061-0.51-2.141-0.78-3.32
				c-1.22,0.521-2.229,0.95-3.43,1.46C122.03,152.82,122.001,152.65,122.07,152.601z"/>
			<path d="M120.961,134.561c0.18-0.21,0.47-0.33,0.63-0.54c1.07-1.43,2.35-1.069,3.25,0.601c0.24,0.449,0.46,0.909,0.77,1.529
				c0.44-0.359,0.83-0.66,1.2-0.979c0.75-0.65,1.54-0.57,2.11,0.12c0.5,0.59,0.859,1.34,1.109,2.08c0.11,0.31-0.239,0.76-0.38,1.14
				c-0.359-0.14-0.76-0.23-1.08-0.44c-0.279-0.18-0.479-0.5-0.75-0.81c-0.21,0.13-0.38,0.22-0.529,0.34
				c-1.83,1.5-2.801,1.28-3.851-0.89c-0.27-0.561-0.54-1.12-0.87-1.811c-1.63,1.181-2.46,3.04-4.28,3.58
				c-0.13-0.14-0.26-0.27-0.4-0.41C118.911,136.9,119.931,135.721,120.961,134.561z"/>
			<path d="M104.971,134.771c0.26-1.04,1.08-1.34,1.92-0.68c0.86,0.689,1.61,1.53,2.34,2.37c0.15,0.18,0.1,0.779-0.07,0.92
				c-0.26,0.21-0.73,0.3-1.07,0.229c-0.36-0.069-0.67-0.38-1.07-0.63c-0.29,0.311-0.44,0.57-0.66,0.71
				c-0.28,0.181-0.71,0.44-0.92,0.34c-0.29-0.14-0.59-0.569-0.61-0.89C104.781,136.351,104.781,135.53,104.971,134.771z"/>
			<path d="M69.121,156.921c-0.36,0.29-0.72,0.58-1.37,1.1c0.6,0.561,0.97,1.15,1.26,1.12c0.41-0.04,1.15-0.66,1.09-0.84
				C69.951,157.791,69.471,157.381,69.121,156.921z M54.781,168.961c-0.2,0.02-0.65-0.41-0.66-0.66c-0.05-1.45-0.28-2.98,0.06-4.35
				c0.75-3.011,2.15-5.7,4.72-7.69c1.55-1.2,3.35-1.55,5.14-2.07c3.79-1.109,7.11,0.221,10.23,2.021c3.92,2.26,3.57,7.6,1.85,10.41
				c-1.91,3.119-4.87,4.71-7.9,6.33c-3.14,1.689-6.28,0.939-9.38,0.01c-0.98-0.29-1.88-0.971-2.66-1.66
				c-0.3-0.26-0.36-1.12-0.16-1.53c0.15-0.31,0.94-0.53,1.36-0.43c0.81,0.189,1.57,0.64,2.26,0.95c-1.15-1.801-2.3-3.61-3.62-5.67
				c-0.04,0.92-0.06,1.569-0.11,2.22c-0.04,0.51-0.04,1.07-0.24,1.52C55.551,168.65,55.111,168.931,54.781,168.961z"/>
			<path d="M15.031,195.421c1.37-0.13,2.77-0.19,4.14-0.07c0.8,0.08,1.56,0.561,2.41,0.88c-0.23,0.32-0.27,0.431-0.32,0.431
				c-2.11,0.22-4.23,0.479-6.34,0.569c-0.41,0.021-0.85-0.649-1.28-1C14.111,195.951,14.551,195.471,15.031,195.421z"/>
			<path d="M150.541,264.19c-1.23,1.82-1.45,3.5-0.36,5.48c0.62,1.13,0.771,2.51,1.3,3.71c0.221,0.5,0.88,0.8,1.33,1.2
				c0.38-0.53,1.01-1.021,1.08-1.591c0.6-4.68,0.811-9.38,0.15-14.09c-0.13-0.069-0.261-0.13-0.391-0.199
				C152.621,260.53,151.701,262.451,150.541,264.19z M141.841,85.48c-3.25-1.649-6.34-3.22-9.43-4.79
				c-0.141,0.19-0.28,0.391-0.421,0.58c2.811,2.44,5.62,4.88,8.41,7.3C140.751,87.831,141.291,86.661,141.841,85.48z M127.9,84.211
				c-1.229,2.89-2.479,5.79-3.67,8.7c-0.08,0.199,0.221,0.77,0.44,0.84c1.51,0.47,3.04,0.85,4.67,1.29
				c0.02-0.431,0.11-0.82,0.07-1.2c-0.24-1.91-0.07-3.84-0.801-5.73c-0.479-1.239-0.29-2.739-0.42-4.26
				C128.041,84.03,127.94,84.11,127.9,84.211z M61.431,206.19c1.11,1.05,1.35,1.011,2.38-0.479
				C62.921,205.891,62.23,206.03,61.431,206.19z M63.821,115.831c-5.6,5.699-8.45,12.54-11.08,19.899
				c3.44-1.99,6.58-3.779,9.68-5.63c0.31-0.189,0.51-0.76,0.55-1.17c0.09-1.11,0.02-2.24,0.11-3.35c0.22-2.49,0.51-4.98,0.74-7.471
				C63.881,117.461,63.821,116.801,63.821,115.831z M9.421,179.751c3.72-3.601,7.51-7.12,11.04-10.891c2.09-2.22,3.8-4.81,5.56-7.31
				c1.85-2.65,3.74-5.3,5.27-8.13c1.97-3.63,4.89-6.22,8.17-8.5c3.23-2.25,6.51-4.41,9.73-6.67c0.42-0.29,0.66-0.87,0.9-1.36
				c2.12-4.229,4.2-8.479,6.33-12.71c1.04-2.06,2.13-4.1,3.27-6.1c1.66-2.91,3.38-5.78,5.08-8.66c0.16-0.26,0.41-0.48,0.81-0.69
				c0.43,6.62-0.42,13.2-0.48,19.94c1.8-0.49,3.35-1.26,4.27-2.75c1.98-3.23,3.83-6.54,5.69-9.84c2.09-3.721,4.16-7.45,6.18-11.21
				c1.09-2.04,2.06-4.141,3.09-6.21c0.12-0.25,0.21-0.521,0.35-0.761c0.59-1.08,1.19-1.16,1.63-0.05c0.72,1.8,1.31,3.67,1.73,5.57
				c1.42,6.47,2.92,12.93,5.06,19.22c0.28,0.8,0.6,1.11,1.5,1.11c2.43-0.011,4.86,0.109,7.29,0.22c1.94,0.09,3.88,0.37,5.81,0.29
				c0.72-0.03,1.58-0.68,2.09-1.29c0.93-1.08,1.66-2.34,2.45-3.54c0.47-0.729,1.05-1.03,1.78-0.44c0.79,0.641,1.53,1.351,2.25,2.08
				c0.52,0.53,0.96,1.131,1.59,1.87c0.68-1.91,1.29-3.59,1.89-5.27c0.149-0.41,0.27-0.84,0.439-1.24c0.561-1.34,1.3-1.47,2.55-0.74
				c1.32,0.771,2.75,1.37,4.261,2.101c0.12-1.07,0.229-1.971,0.319-2.88c0.181-1.721,0.521-2.03,2.23-2.021
				c0.24,0.01,0.479-0.02,0.88-0.04c-0.64-1.11-1.26-2.1-1.79-3.14c-2.229-4.32-4.37-8.7-6.67-12.98
				c-0.95-1.75-0.42-3.439,0.06-4.979c1.11-3.62,1.94-7.38,4.181-10.601c0.6-0.859,0.63-2.16,0.76-3.279c0.12-1,0.67-1.46,1.89-1.12
				c1.65,0.46,3.271,1,4.891,1.569c0.819,0.29,1.609,0.7,2.399,1.07s1.58,0.76,2.58,1.25c-0.069-1.5-0.109-2.85-0.21-4.21
				c-0.21-2.89-0.47-5.78-0.66-8.67c-0.239-3.7-0.39-7.41-0.649-11.11c-0.25-3.649-0.601-7.3-0.851-10.96
				c-0.09-1.359,0.311-2.58,1.17-3.76c1.45-2.02,2.591-4.27,3.98-6.34c2.1-3.101,4.26-6.15,6.479-9.17
				c0.54-0.73,1.311-1.42,2.131-1.771c0.569-0.25,1.55-0.109,2.08,0.25c0.84,0.561,1.489,1.431,2.149,2.221
				c3.21,3.859,6.4,7.739,9.59,11.609c0.4,0.49,0.75,1.01,1.32,1.79c0.21-1.12,0.38-1.939,0.51-2.78c0.41-2.64,0.83-5.279,1.2-7.92
				c0.27-1.859,0.42-3.729,0.71-5.58c0.33-2.109,0.46-4.329,1.26-6.27c0.601-1.46,1.98-2.73,3.271-3.76
				c5.71-4.51,11.52-8.87,17.26-13.34c1.58-1.23,2.03-1.21,3.17,0.399c0.88,1.23,1.92,2.351,2.79,3.59
				c0.75,1.07,1.31,2.261,2.01,3.36c0.391,0.6,0.851,1.17,1.36,1.66l0.01,0.01l-0.91,0.93c-0.06-0.06-0.12-0.119-0.18-0.18
				c-1.7-1.8-3.45-3.55-5.19-5.31c-0.17-0.17-0.39-0.29-0.6-0.44c-0.9,6.061-1.65,12.05-2.7,17.97
				c-1.06,5.92-2.319,11.82-4.59,17.42c-0.14-0.02-0.29-0.029-0.43-0.05c0-1.56,0-3.12,0-4.689c-0.24,0.05-0.44,0.08-0.63,0.13
				c0.33-1.55,0.67-3.101,1-4.65c1.02-4.67,2.05-9.34,2.989-14.03c0.7-3.51,1.15-7.069,1.69-10.609c0.07-0.44,0.01-0.9,0.01-1.561
				c-0.53,0.431-0.83,0.681-1.13,0.931c-2.27,1.83-4.43,3.84-6.85,5.439c-2.9,1.931-5.78,3.86-8.21,6.36
				c-0.44,0.439-0.681,1.12-0.86,1.74c-0.19,0.6-0.17,1.26-0.26,1.899c-0.73,4.851-1.58,9.69-2.17,14.55
				c-0.851,6.971-1.57,13.961-2.24,20.94c-0.69,7.19-1.23,14.4-1.88,21.59c-0.34,3.7-0.73,7.391-1.2,11.07
				c-0.26,2.01-0.78,3.979-1.11,5.99c-0.25,1.58-0.39,3.18-0.58,4.77c-0.06,0-0.119-0.01-0.18-0.02c0.4-4.061,0.8-8.11,1.2-12.17
				c-0.07-0.011-0.14-0.021-0.21-0.021c-0.22,1.64-0.44,3.28-0.66,4.92c-0.03,0-0.07,0-0.1-0.01c0.59-6.82,1.18-13.65,1.779-20.48
				c-0.1-0.01-0.199-0.02-0.3-0.02c-0.43,4.21-0.859,8.43-1.29,12.65c-0.189-0.181-0.21-0.33-0.189-0.48
				c0.46-4.57,1.04-9.12,1.34-13.7c0.399-6.08,0.59-12.18,0.84-18.28c0.1-2.47,0.19-4.939,0.19-7.409c0-0.561-0.271-1.28-0.671-1.65
				c-3.68-3.36-7.42-6.65-11.149-9.96c-0.22-0.2-0.48-0.35-0.891-0.64c-0.09,1.54-0.22,2.88-0.239,4.22
				c-0.061,3.83-0.011,7.67-0.13,11.5c-0.03,1.12-0.71,2.229-0.7,3.34c0.03,4.67,0.2,9.35,0.35,14.021
				c0.08,2.46,0.22,4.92,0.34,7.369c-0.029-0.06-0.06-0.119-0.08-0.17c-0.1-0.21-0.21-0.42-0.22-0.63c-0.06-1.52-0.03-3.04-0.1-4.56
				c-0.36-7.82-0.71-15.65-1.12-23.47c-0.24-4.66-0.57-9.32-0.86-13.98c-0.029-0.44-0.09-0.88-0.14-1.33
				c-2.25,2.84-4.23,5.74-6.17,8.65c-1.46,2.189-2.9,4.399-4.3,6.63c-0.24,0.37-0.381,0.899-0.351,1.34
				c0.11,1.27,0.4,2.52,0.49,3.79c0.2,2.979,0.31,5.97,0.49,8.95c0.26,4.5,0.54,9.01,0.81,13.51c0.15,2.47,0.43,4.94,0.391,7.4
				c-0.04,2.13-0.15,2.279,1.85,2.939c1.24,0.41,2.17,1.07,2.35,2.42c0.21,1.62,0.38,3.25,0.48,4.891
				c0.26,4.369,0.5,8.75,0.72,13.13c0.05,1.069,0,2.149,0,3.229c-0.14,0.01-0.29,0.021-0.439,0.03
				c-0.931-6.25-1.86-12.49-2.78-18.74c-0.13-0.01-0.26-0.03-0.4-0.04c-0.529,0.87-1.109,1.7-1.569,2.61
				c-0.351,0.689-0.71,0.97-1.19,0.8c-0.18-0.07-0.39-0.2-0.62-0.41c-2.31-2.08-4.649-4.13-6.96-6.21
				c-0.61-0.54-1.18-1.109-1.96-1.85c-0.09,3.899-1.34,7.42-0.79,11.069c0.12,0.79,0.23,1.61,0.39,2.4
				c0.11,0.56,0.25,1.12,0.44,1.65c1.57,4.35,3.27,8.659,4.92,12.989c0.29,0.761,0.53,1.54,0.8,2.32
				c-0.109,0.04-0.229,0.08-0.34,0.12c-1.76-4.6-3.67-9.15-5.229-13.82c-0.71-2.109-1.601-3.39-3.94-3.41
				c-0.94-0.01-1.88-0.319-3.03-0.54c0.65,1.03,1.19,1.78,1.62,2.58c3.61,6.67,7.23,13.33,10.78,20.03
				c0.46,0.851,0.56,1.89,0.83,2.84c-0.15,0.061-0.3,0.13-0.45,0.19c-0.6-0.771-1.21-1.521-1.77-2.311
				c-1.21-1.689-2.511-3.199-5.08-2.89c0,0.61,0.109,1.26-0.021,1.86c-0.63,2.93-0.729,3.37-3.52,3.149
				c-0.311-0.029-0.61-0.18-0.9-0.29c-0.99-0.39-1.979-0.79-3.06-1.22c-0.16,0.521-0.28,0.94-0.431,1.34
				c-0.62,1.69-1.199,3.391-1.89,5.04c-0.4,0.98-1.2,1.01-1.95,0.391c-0.48-0.4-0.86-0.94-1.26-1.431c-0.83-1.04-1.63-2.1-2.89-2.71
				c-0.55,0.99-1.01,1.88-1.52,2.73c-0.61,1.05-0.46,1.34,0.57,1.93c1.06,0.61,2.02,1.4,3.02,2.11c-0.07,0.149-0.15,0.31-0.22,0.46
				c-0.7-0.16-1.4-0.34-2.1-0.49c-2.18-0.46-4.34-1.15-6.54-1.311c-4.3-0.319-8.62-0.38-12.93-0.47c-0.92-0.02-1.54-0.24-1.84-1.13
				c-0.27-0.79-0.56-1.57-0.83-2.36c-1.07-3.22-2.25-6.399-3.17-9.659c-0.95-3.37-1.65-6.82-2.47-10.24
				c-0.17-0.67-0.39-1.33-0.57-1.93c-4.45,8.069-8.87,16.069-13.32,24.14c3,0.47,5.17-0.061,8.15-1.811
				c1.07-0.63,1.63-1.56,2.06-2.67c0.42-1.13,1-2.189,1.51-3.279c0.16-0.011,0.32-0.03,0.48-0.04c-0.11,1.18-0.13,2.31,1.42,2.6
				c-0.9,0.97-1.62,1.76-2.35,2.54c0.08,0.09,0.16,0.18,0.24,0.271c0.78-0.04,1.56-0.091,2.34-0.131c-1.47,2.07-3.88,1.79-5.78,2.86
				c1.64,0.32,3.56-0.32,4.52,1.82c-0.39,0.149-0.77,0.399-1.16,0.439c-2.9,0.28-5.8,0.561-8.71,0.771
				c-3.78,0.26-7.27,1.46-10.52,3.319c-2.57,1.46-4.97,3.2-7.54,4.641c-3.91,2.17-7.83,4.33-11.34,7.109
				c-2.25,1.79-4.3,3.851-6.65,5.48c-2.34,1.61-3.8,3.81-5.19,6.15c-1.81,3.06-3.61,6.119-5.5,9.13
				c-3.87,6.14-9.39,10.72-14.86,15.3c-3.2,2.68-6.37,5.34-8.83,8.74c-1.07,1.479-1.62,3.12-1.23,4.97
				c0.7,3.25,2.26,5.939,4.82,8.16c5.06,4.38,10.95,7.24,17.04,9.8c2.15,0.91,4.3,1.61,6.71,1.03c2.44-0.59,4.92-1.021,7.38-1.521
				c6.45-1.319,12.79-3.03,18.93-5.46c3.1-1.229,6.31-1.74,9.72-1.649c2.95,0.079,5.93-0.641,8.89-1.011
				c0.65-0.08,1.3-0.149,1.95-0.22c0.02,0.11,0.04,0.22,0.05,0.33c-0.31,0.17-0.6,0.41-0.93,0.49c-2.62,0.689-5.25,1.31-7.86,2.029
				c-1.43,0.391-2.9,0.391-4.14,1.73c-1.98,2.13-2.76,1.96-5.2,0.4c-0.5-0.32-1.38-0.381-1.98-0.19c-2.82,0.87-5.58,1.93-8.4,2.81
				c-3.04,0.94-6.13,1.75-9.19,2.631c-0.25,0.069-0.46,0.27-0.7,0.409c1.8-0.01,3.5-0.22,5.2-0.35c1.95-0.14,3.91-0.08,5.84-0.32
				c2.29-0.29,4.56-0.76,6.83-1.21c5.84-1.149,11.79-1.7,17.53-3.46c4.65-1.42,9.48-2.18,14.18-3.439
				c4.24-1.12,8.35-2.66,12.04-5.12c0.36-0.24,0.77-0.391,1.16-0.58c0.1,0.14,0.19,0.28,0.29,0.42c-1.56,1.27-3.12,2.55-4.74,3.88
				c1.51,0.79,3.01,1.32,4.2,2.24c2.33,1.8,4.48,3.81,6.71,5.729c3.01,2.601,5.07,5.95,7.26,9.181c1.84,2.699,3.37,5.609,5.01,8.439
				c2.37,4.101,5.83,7.28,8.931,10.76c2.84,3.19,5.859,6.24,7.739,10.16c0.261,0.54,0.5,1.09,0.75,1.641
				c0.11-0.051,0.21-0.09,0.311-0.13c-1.09-7.25-3.43-14.15-6.16-20.96c0.28,0.13,0.46,0.3,0.56,0.5c1.19,2.479,2.5,4.92,3.511,7.47
				c0.8,2.03,1.25,4.2,1.84,6.3c1.79,6.35,2.5,12.83,2.359,19.4c-0.06,2.79-0.409,5.569-0.529,8.35c-0.021,0.5,0.35,1.21,0.76,1.47
				c0.26,0.17,0.99-0.22,1.41-0.51c0.41-0.29,0.71-0.75,1.02-1.17c2.34-3.19,3.75-6.93,6.19-10.11c1.74-2.26,2.72-5.109,3.93-7.739
				c1.47-3.171,2.86-6.37,4.23-9.591c0.96-2.27,1.88-4.56,2.819-6.84l0.9,0.36c-1.04,2.54-1.99,5.12-2.93,7.7
				c-0.9,2.47-1.87,4.93-2.87,7.359c-0.46,1.141-0.54,2.261-0.5,3.49c0.09,2.67,0,5.35-0.13,8.021
				c-0.13,2.67-0.391,5.329-0.58,7.989c-0.021,0.271,0.01,0.551,0.05,0.82c0.26,1.78-0.68,2.46-2.48,2.47
				c-2.22,0.011-2.869-1.2-3.279-3.01c-0.271-1.15-0.761-2.24-1.21-3.52c-0.37,0.25-0.66,0.369-0.851,0.579
				c-1.029,1.23-1.92,2.61-3.1,3.66c-0.92,0.82-2.16,1.33-3.34,1.75c-0.69,0.24-1.65-1.16-1.601-2.46
				c0.04-1.12,0.431-2.229,0.54-3.35c0.141-1.51,0.23-3.03,0.2-4.54c-0.06-2.62-0.189-5.25-0.34-7.87c-0.18-2.93-1.5-5.49-3.11-7.81
				c-2.91-4.19-6.149-8.12-10.029-11.511c-2.45-2.14-4.32-4.779-5.881-7.67c-1.8-3.359-3.62-6.739-5.78-9.88
				c-1.86-2.71-4.1-5.18-6.37-7.57c-2.31-2.439-4.91-4.659-8.07-5.88c-1.57-0.609-3.44-0.68-5.16-0.6
				c-5.09,0.229-9.96,1.69-14.9,2.86c-5.8,1.39-11.72,2.31-17.57,3.529c-3.35,0.7-6.65,1.641-10,2.36
				c-1.64,0.35-3.32,0.54-4.98,0.64c-4.57,0.301-9.15,0.58-13.73,0.73c-1.37,0.05-2.77-0.28-4.13-0.58c-2.49-0.561-5-1.09-7.42-1.88
				c-1.45-0.47-2.78-1.34-4.1-2.141c-2.96-1.81-6.01-3.5-8.77-5.579c-2.75-2.08-5.39-4.391-7.23-7.41
				c-1.39-2.28-2.29-4.7-2.32-7.431c-0.03-2.6,1.32-4.399,3.09-6.029c1.07-0.99,2.16-1.971,3.26-2.94
				C7.361,181.501,8.451,180.69,9.421,179.751z"/>
		</g>
	</g>
</g>
</svg>
