<?xml version="1.0" encoding="utf-8"?>
<!-- Generator: Adobe Illustrator 16.0.0, SVG Export Plug-In . SVG Version: 6.00 Build 0)  -->
<!DOCTYPE svg PUBLIC "-//W3C//DTD SVG 1.1//EN" "http://www.w3.org/Graphics/SVG/1.1/DTD/svg11.dtd">
<svg version="1.1" id="Layer_1" xmlns="http://www.w3.org/2000/svg" xmlns:xlink="http://www.w3.org/1999/xlink" x="0px" y="0px"
	 width="310.525px" height="275.729px" viewBox="0 0 310.525 275.729" enable-background="new 0 0 310.525 275.729"
	 xml:space="preserve">
<g>
	<g id="XMLID_1_">
		<g>
			<path fill="#FFE971" d="M208.93,88.42c0.14,0.26-0.011,0.86-0.24,1.12c-2.521,2.93-5.08,5.83-7.65,8.72
				c-2.149,2.41-4.34,4.79-6.479,7.21c-0.67,0.75-1.181,0.54-1.79-0.04c-1.94-1.84-3.91-3.64-5.851-5.47
				c-0.739-0.69-1.5-0.78-2.199-0.05c-0.11,0.12-0.23,0.23-0.33,0.35l-1.48-1.42c1.08-0.94,2.16-1.9,3.25-2.84
				c0.15,0.05,0.271,0.07,0.37,0.13c2.14,1.3,2.16,1.32,4.13-0.24c1.96-1.56,3.89-3.17,5.83-4.76c0.12,0.06,0.24,0.13,0.35,0.19
				c-0.29,0.76-0.54,1.54-0.899,2.26c-0.47,0.93-1.4,1.68-0.79,2.95c0.11,0.22-0.34,0.72-0.68,1.4c0.579-0.2,0.909-0.28,1.22-0.43
				c4.13-1.96,6.76-5.5,9.47-8.96c0.13-0.16,0.24-0.33,0.36-0.48c0.979-1.17,1.979-1.33,2.81-0.48
				C208.54,87.79,208.74,88.08,208.93,88.42z"/>
			<path fill="#FFE971" d="M210.589,64.77c0.12,0.02,0.24,0.05,0.36,0.07c-0.62,1.99-1.21,3.99-1.9,5.95
				c-0.079,0.22-0.729,0.25-1.109,0.36c-0.01-0.31-0.15-0.67-0.03-0.92C208.78,68.4,209.69,66.59,210.589,64.77z"/>
			<path fill="#FFE971" d="M210.799,55.51c-0.06,0.36-0.06,0.75-0.189,1.08c-1.46,3.67-2.94,7.33-4.4,11.01
				c-0.37,0.92-0.62,1.9-1.02,2.81c-0.19,0.45-0.561,1.11-0.891,1.13c-0.52,0.04-1.18-0.26-1.6-0.62c-2.06-1.79-4.06-3.65-6.31-5.7
				c0.77-1.07,0.71-2.44,0.409-3.76c-0.25-1.16,0.07-1.62,1.11-2.02c2.84-1.08,5.63-2.27,8.45-3.4c0.2-0.09,0.43-0.12,0.75,0.01
				c-1.88,1.56-3.771,3.12-5.66,4.68c1.22,1.58,1.35,1.6,2.93,0.2C206.44,59.11,208.47,57.26,210.799,55.51z"/>
			<path fill="#FFE971" d="M130.3,94.66c0.01,0.18-0.08,0.37-0.12,0.56c-1.55-0.41-3.05-0.78-4.51-1.24
				c-0.26-0.08-0.61-0.67-0.53-0.87c1.16-2.89,2.39-5.75,3.6-8.61c0.06-0.13,0.16-0.24,0.33-0.5c0.15,1.63-0.02,3.16,0.46,4.45
				C130.28,90.5,130.13,92.58,130.3,94.66z"/>
			<path fill="#FFE971" d="M140.8,90.87l-0.07,0.38c-2.86,1.43-5.89,2.96-8.93,4.48l-0.86,0.17c-0.16-0.79-0.27-1.61-0.4-2.41
				c-0.55-3.65,0.69-7.17,0.79-11.14c1.24,1.24,2.22,2.31,3.3,3.27c1.9,1.71,3.85,3.35,5.8,5C140.56,90.73,140.68,90.82,140.8,90.87
				z"/>
			<path fill="#FFE971" d="M142.75,85.7c-0.57,1.19-1.12,2.36-1.79,3.77c-1.42-1.54-2.65-2.93-3.94-4.24
				c-1.31-1.33-2.7-2.59-4.06-3.88c0.11-0.16,0.22-0.32,0.33-0.47C136.36,82.44,139.43,84.01,142.75,85.7z"/>
			<path fill="#FFE971" d="M153.01,73.54c-0.05,0.35-0.15,0.7-0.14,1.04c0.18,5.86,0.37,11.73,0.58,17.59
				c0.03,1.1,0.14,2.21,0.22,3.31c0.05,0,0.1,0,0.15,0C153.55,88.16,153.28,80.85,153.01,73.54z M153.01,73.53l0.01-0.01
				c0-0.01-0.01-0.02-0.01-0.03c-0.12-2.46-0.27-4.92-0.35-7.37c-0.15-4.68-0.31-9.35-0.35-14.03c0-1.11,0.67-2.22,0.71-3.34
				c0.12-3.83,0.07-7.66,0.12-11.49c0.02-1.34,0.15-2.68,0.24-4.22c0.41,0.29,0.67,0.44,0.89,0.63c3.729,3.31,7.47,6.61,11.16,9.97
				c0.399,0.36,0.659,1.08,0.659,1.64c0.011,2.47-0.079,4.95-0.18,7.42c-0.26,6.09-0.439,12.19-0.84,18.28
				c-0.3,4.57-0.89,9.13-1.35,13.69c-0.011,0.15,0,0.31,0.199,0.48c0.431-4.21,0.86-8.43,1.29-12.65c0.101,0.01,0.19,0.02,0.29,0.02
				c-0.59,6.83-1.18,13.66-1.77,20.49c0.03,0,0.06,0.01,0.1,0.01c0.22-1.64,0.44-3.29,0.66-4.93c0.07,0.01,0.13,0.01,0.2,0.02
				c-0.4,4.06-0.79,8.12-1.19,12.18c0.061,0,0.11,0.01,0.17,0.02c0.19-1.59,0.33-3.2,0.591-4.78c0.319-2,0.85-3.98,1.109-5.99
				c0.47-3.68,0.851-7.37,1.19-11.06c0.66-7.2,1.2-14.4,1.89-21.59c0.67-6.99,1.38-13.97,2.23-20.94
				c0.59-4.87,1.439-9.71,2.17-14.56c0.1-0.63,0.08-1.29,0.26-1.9c0.18-0.61,0.43-1.3,0.86-1.74c2.439-2.5,5.319-4.42,8.22-6.35
				c2.42-1.61,4.57-3.62,6.84-5.45c0.31-0.24,0.61-0.49,1.13-0.92c0,0.66,0.061,1.12-0.01,1.55c-0.54,3.55-0.99,7.11-1.69,10.62
				c-1.25,6.24-2.649,12.44-3.989,18.67c-0.011,0.01-0.021,0.01-0.03,0.01c0,0.05,0,0.09-0.01,0.14c-0.54,2.44-1.08,4.89-1.62,7.33
				c0.649-1.77,1.109-3.57,1.489-5.39c0.131-0.63,0.101-1.29,0.131-1.94c0.01-0.04,0.02-0.07,0.029-0.11V35.9
				c0-0.01,0.011-0.02,0.011-0.03c0.189-0.03,0.38-0.07,0.63-0.13c0,1.58,0,3.14,0,4.7c0.17,0.01,0.33,0.03,0.489,0.05
				c4.131-11.4,5.671-23.35,7.12-35.48c0.33,0.23,0.551,0.35,0.721,0.53c1.739,1.76,3.479,3.51,5.18,5.3
				c0.46,0.49,1.02,1.06,1.12,1.66c0.319,2.03,1.62,3.44,2.81,4.93c2.54,3.17,5.11,6.33,7.65,9.51c0.16,0.21,0.229,0.68,0.109,0.91
				c-1.18,2.47-2.31,4.98-3.659,7.36c-2.38,4.18-4.9,8.28-7.38,12.41c-3.101,5.15-6.28,10.26-9.311,15.47
				c-1.85,3.2-3.49,6.53-5.21,9.81c-1.51,2.9-3,5.8-4.51,8.7c-0.55,1.05-1.13,2.08-1.681,3.14c-0.17,0.33-0.27,0.69-0.289,1.09
				c2.22-3.28,4.569-6.48,6.619-9.86c2.311-3.82,4.29-7.85,6.58-11.68c0.69-1.15,1.95-1.96,3.04-3.01c0.49,1.61,0.931,3.05,1.37,4.5
				c0.19-0.17,0.36-0.35,0.5-0.53c0.12,1.32,0.36,2.2,1.21,2.82c1.57,1.15,3.15,2.29,4.71,3.45c0.471,0.35,0.891,0.77,1.48,1.27
				c-0.33,0.3-0.65,0.6-0.971,0.9c-1.409,1.3-2.77,2.55-4.1,3.83c-2.729,2.62-5.43,5.27-8.11,7.95c-0.21,0.2-0.119,0.7-0.17,1.06
				c0.37,0.02,0.851,0.21,1.07,0.05c1.2-0.86,2.44-1.7,3.46-2.75c2.2-2.26,4.3-4.62,6.38-7c0.561-0.63,0.87-1.48,1.351-2.2
				c0.14-0.21,0.3-0.41,0.46-0.57c1.159-1.18,2.79-1.3,4.37-1.49c0.42-0.05,0.859-0.01,1.5-0.01c-0.28,0.36-0.431,0.62-0.641,0.81
				c-3.35,3.01-6.72,5.99-10.05,9.02c-3.49,3.18-6.96,6.4-10.42,9.62c-1.92,1.79-3.88,3.56-5.71,5.45
				c-1.57,1.61-2.99,3.36-4.391,5.25c0.62-0.35,1.311-0.61,1.841-1.06c1.1-0.93,2.189-1.87,3.27-2.81l1.48,1.42
				c-1.99,2.05-3.96,4.12-5.91,6.21c-1.04,1.11-2.04,2.24-3.01,3.41c-0.061,0.07-0.11,0.13-0.171,0.18
				c-0.359,0.34-0.67,0.26-1.13-0.06c-1.569-1.09-3.149-2.18-4.8-3.15c-1.399-0.82-2.89-1.49-4.35-2.18
				c-0.87-0.41-1.55-0.24-2.16,0.63c-2.521,3.63-5.15,7.18-7.63,10.85c-0.83,1.23-1.28,2.72-1.93,4.07
				c-0.27,0.56-0.6,1.08-0.69,1.75l-0.89,0.99c-1.98-1.53-3.98-3.04-5.97-4.57c-1.04-0.81-2.81-1.09-3.42-0.36
				c-0.99,1.19-1.97,2.4-2.88,3.66l-2.12-0.86c0.15-0.06,0.29-0.12,0.44-0.18c-0.26-0.95-0.37-1.99-0.82-2.84
				c-3.55-6.69-7.17-13.36-10.78-20.03c-0.44-0.8-0.97-1.55-1.62-2.58c1.15,0.21,2.08,0.53,3.01,0.53c2.36,0.01,3.24,1.31,3.95,3.41
				c1.57,4.67,3.47,9.22,5.24,13.83c0.09-0.04,0.19-0.07,0.29-0.11c-0.05-0.21-0.08-0.43-0.16-0.64c-1.83-4.85-3.71-9.69-5.47-14.57
				c-0.21-0.56-0.35-1.15-0.47-1.75l0.86-0.17c3.17-0.62,6.11-1.75,8.8-4.09c1.17,6.58,2.3,12.9,3.45,19.36
				c-0.03-6.85-0.79-13.46-3.32-19.75l0.07-0.38c0.44,0.21,0.81,0.05,1.13-0.58c0.51-0.97,1.13-1.88,1.69-2.82
				c0.14,0.02,0.27,0.03,0.41,0.05c0.92,6.24,1.84,12.49,2.77,18.73c0.15-0.01,0.3-0.02,0.45-0.03c0-1.07,0.05-2.15-0.01-3.22
				c-0.22-4.38-0.45-8.76-0.72-13.13c-0.1-1.64-0.26-3.27-0.48-4.89c-0.18-1.35-1.1-2.02-2.34-2.43c-2-0.66-1.9-0.8-1.86-2.93
				c0.05-2.46-0.23-4.93-0.38-7.4c-0.27-4.51-0.56-9.01-0.82-13.51c-0.17-2.99-0.29-5.97-0.49-8.95c-0.09-1.27-0.37-2.53-0.48-3.8
				c-0.04-0.43,0.1-0.96,0.34-1.34c1.4-2.23,2.84-4.43,4.3-6.62c1.95-2.92,3.92-5.82,6.17-8.65c0.05,0.44,0.11,0.88,0.14,1.32
				c0.3,4.66,0.63,9.32,0.87,13.98c0.4,7.82,0.76,15.65,1.11,23.48c0.07,1.51,0.05,3.03,0.1,4.55c0.01,0.14,0.06,0.28,0.12,0.42
				c0.07,0.14,0.14,0.28,0.19,0.42V73.53z M194.91,69.12c-0.12-0.09-0.229-0.18-0.35-0.27c-0.63,0.52-1.44,0.92-1.86,1.57
				c-2.72,4.2-5.37,8.47-8.03,12.71c-0.14,0.22-0.239,0.46-0.35,0.69c0.05,0.04,0.11,0.07,0.17,0.11c0.37-0.53,0.74-1.07,1.13-1.59
				c0.13-0.17,0.391-0.47,0.49-0.43c0.93,0.34,1.189-0.44,1.59-0.92c0.46-0.55,0.84-1.16,1.23-1.77c1.92-3.01,3.84-6.03,5.729-9.06
				C194.839,69.87,194.83,69.47,194.91,69.12z M182.83,93.18c1.24-1.16,2.47-2.32,3.71-3.48c-0.08-0.08-0.16-0.16-0.25-0.24
				c-1.229,1.16-2.46,2.32-3.689,3.48C182.68,93.02,182.76,93.1,182.83,93.18z"/>
			<path d="M310.53,174.97c0,0.24-0.03,0.48-0.1,0.69c-0.16,0.53-0.54,0.68-1.221,0.439c-6.279-2.26-11.92-5.77-17.689-9.02
				c-0.62-0.35-1.21-0.771-1.79-1.2c-1.26-0.93-2.54-1.79-4.28-1.75c0.15,3.08,0.25,6.11,0.46,9.13c0.4,5.66-0.14,11.24-1.2,16.79
				c-0.72,3.76-1.779,7.49-2.14,11.28c-0.56,6.04-2.37,11.74-4.21,17.42c-2.42,7.47-5.05,14.88-8.91,21.79
				c-1.83,3.27-3.1,6.83-4.86,10.14c-1.079,2.021-2.239,4-3.449,5.95l-1.141-0.7c0.511-0.83,0.98-1.689,1.41-2.58
				c1.46-3.01,2.92-6.02,4.42-9.01c1.72-3.41,3.7-6.71,5.17-10.22c2.061-4.91,3.84-9.95,5.57-15c1.09-3.19,2.03-6.45,2.75-9.75
				c1.14-5.26,2.07-10.57,3.03-15.87c0.489-2.66,0.97-5.33,1.22-8.02c0.26-2.801,0.15-5.631,0.35-8.44
				c0.521-7.15-0.43-14.18-1.93-21.12c-0.68-3.17-2.12-6.18-3.22-9.26c-0.26-0.7-0.58-1.38-0.87-2.07
				c0.11-0.05,0.22-0.109,0.33-0.16c0.13,0.13,0.29,0.24,0.37,0.4c1.17,2.22,2.46,4.39,3.46,6.69c1.04,2.369,1.95,4.779,3.5,6.88
				c0.92,1.239,1.649,2.67,2.75,3.72c1.319,1.26,2.85,2.34,4.43,3.26c3.97,2.311,8.01,4.5,12.03,6.73
				c0.819,0.449,1.68,0.81,2.729,1.319c-0.1-0.439-0.1-0.6-0.17-0.72c-1.96-3.81-3.88-7.65-5.93-11.42
				c-1.12-2.06-2.34-4.09-3.72-5.98c-4.67-6.39-10.98-11.09-17.04-16.02c-3-2.44-6.221-4.61-9.341-6.9
				c-0.27-0.19-0.579-0.32-1.09-0.61c0.271,0.66,0.44,1.05,0.601,1.44c-0.101,0.08-0.2,0.15-0.3,0.22
				c-0.37-0.37-0.761-0.72-1.11-1.1c-0.33-0.35-0.57-0.78-0.93-1.09c-4.641-3.98-9.471-7.61-15.28-9.84
				c-3.37-1.29-6.72-2.5-10.25-3.23c-2.11-0.44-4.2-1-6.22-1.48c0.17,0.85-0.04,1.22-0.631,0.88c-0.939-0.55-1.92-1.13-2.67-1.9
				c-1.439-1.47-2.729-3.08-4.06-4.6c-0.2,0.08-0.29,0.09-0.34,0.14c-1.221,1.03-2.44,2.07-3.65,3.11
				c-1.57,1.35-2.71,0.99-3.24-1.01c-0.52-1.95-1.1-3.88-1.619-5.84c-0.261-0.96-0.44-1.95-0.7-3.08c-0.38,0.32-0.63,0.56-0.91,0.77
				c-1.15,0.86-2.28,1.75-3.47,2.54c-0.28,0.18-0.801-0.02-1.21-0.04c0.13-0.35,0.189-0.76,0.409-1.04
				c0.431-0.56,0.96-1.04,1.561-1.69c-1.521-1.84-2.97-3.69-4.54-5.44c-1.39-1.56-1.58-1.55-3.29-0.36
				c-2.26,1.58-4.46,3.24-6.74,4.79c-1.05,0.71-2.17,1.66-3.33,1.77c-1.29,0.12-1.729,0.97-2.46,1.61c-0.149,0.12-0.14,0.65,0,0.84
				c0.54,0.71,1.17,1.36,1.86,2.14c0.24-0.34,0.42-0.63,0.649-0.89c1.061-1.23,2.04-2.53,3.221-3.64c1.26-1.19,2.59-0.67,3,1
				c0.069,0.29,0.229,0.56,0.25,0.6c0.85,0.1,1.63-0.03,2.1,0.29c2.5,1.7,4.93,3.49,7.36,5.29c0.229,0.17,0.47,0.72,0.37,0.86
				c-0.221,0.32-0.63,0.62-1,0.67c-0.341,0.05-0.771-0.18-1.101-0.39c-1.85-1.18-3.7-2.37-5.52-3.6c-0.75-0.5-1.36-0.54-2.021,0.13
				c-0.64,0.65-1.31,1.3-2.06,1.83c-0.59,0.44-1.3,0.75-1.99,1.01c-0.21,0.08-0.63-0.13-0.8-0.34c-0.101-0.13,0.01-0.56,0.16-0.74
				c0.42-0.54,0.84-1.1,1.38-1.49c0.89-0.65,0.729-1.24,0.08-1.98c-0.19,0.15-0.351,0.26-0.49,0.39c-1.08,0.95-2.11,1.96-3.25,2.83
				c-0.49,0.37-1.19,0.97-1.62-0.33c-0.21-0.61-1.04-1.04-1.63-1.5c-0.68-0.53-1.42-0.97-2.1-1.5c-0.75-0.57-1.42-1.24-2.19-1.8
				c-0.71-0.51-1.59-0.82-2.229-1.4c-1.011-0.92-1.881-1.99-2.74-2.92c-3.2,2.88-6.24,5.61-9.32,8.39l-0.9-1
				c0.061-0.05,0.11-0.11,0.171-0.18c0.97-1.17,1.97-2.3,3.01-3.41c1.95-2.09,3.92-4.16,5.91-6.21c0.1-0.12,0.22-0.23,0.33-0.35
				c0.699-0.73,1.46-0.64,2.199,0.05c1.94,1.83,3.91,3.63,5.851,5.47c0.609,0.58,1.12,0.79,1.79,0.04c2.14-2.42,4.33-4.8,6.479-7.21
				c2.57-2.89,5.13-5.79,7.65-8.72c0.229-0.26,0.38-0.86,0.24-1.12c-0.19-0.34-0.391-0.63-0.601-0.84l1.13-1.32
				c1.03,0.88,2.051,1.76,3.03,2.68c0.21,0.2,0.03,1.17-0.27,1.51c-1.601,1.79-3.28,3.49-4.94,5.21c-0.65,0.67-1.3,1.33-1.95,2
				c0.07,0.12,0.141,0.23,0.21,0.35c0.34-0.09,0.74-0.09,1-0.28c0.88-0.62,1.811-1.21,2.521-1.99c1.109-1.22,3.189-0.6,4,0.39
				c1.739,2.15,3.46,4.33,5.29,6.63c0.8-0.62,1.34-1.06,1.91-1.46c1.579-1.11,2.409-0.66,2.71,1.26c0.399,2.63,0.949,5.23,1.46,7.85
				c0.05,0.3,0.21,0.57,0.33,0.88c1.35-0.86,2.649-1.7,3.949-2.53c0.88-0.56,1.641-0.45,2.28,0.41c0.19,0.25,0.51,0.41,0.68,0.67
				c1.801,2.86,4.48,3.92,7.75,4.37c2.41,0.32,4.73,1.42,7.07,2.22c3.09,1.07,6.17,2.16,9.23,3.29c0.939,0.34,1.779,0.94,2.71,1.27
				c5.18,1.85,9.369,5.37,13.97,8.2c2.51,1.55,4.979,3.18,7.33,4.96c2.7,2.04,5.14,4.41,7.859,6.41
				c4.54,3.341,8.04,7.671,11.301,12.11c2.909,3.96,5.12,8.44,7.63,12.7c1.63,2.75,3.029,5.61,3.88,8.71
				C310.48,174.36,310.53,174.67,310.53,174.97z"/>
			<path fill="#D6CFF3" d="M307.33,172.71c0.07,0.12,0.07,0.28,0.17,0.72c-1.05-0.51-1.91-0.87-2.729-1.319
				c-4.021-2.23-8.061-4.42-12.03-6.73c-1.58-0.92-3.11-2-4.43-3.26c-1.101-1.05-1.83-2.48-2.75-3.72
				c-1.55-2.101-2.46-4.511-3.5-6.88c-1-2.301-2.29-4.471-3.46-6.69c-0.08-0.16-0.24-0.271-0.37-0.4
				c-0.11,0.051-0.22,0.11-0.33,0.16c0.29,0.69,0.61,1.37,0.87,2.07c1.1,3.08,2.54,6.09,3.22,9.26c1.5,6.94,2.45,13.97,1.93,21.12
				c-0.199,2.81-0.09,5.64-0.35,8.44c-0.25,2.689-0.73,5.359-1.22,8.02c-0.96,5.3-1.891,10.61-3.03,15.87
				c-0.72,3.3-1.66,6.56-2.75,9.75c-1.73,5.05-3.51,10.09-5.57,15c-1.47,3.51-3.45,6.81-5.17,10.22c-1.5,2.99-2.96,6-4.42,9.01
				c-0.43,0.891-0.899,1.75-1.41,2.58c-1.529,2.49-3.38,4.74-5.439,6.851c-0.7,0.71-1.24,1.569-1.92,2.29
				c-0.601,0.63-1.25,1.22-1.95,1.75c-0.97,0.739-1.92,0.279-2.771-0.28c-0.77-0.5-0.29-1.2-0.14-1.84
				c1.01-4.21,1.26-8.48,1.06-12.8c-0.149-3.13-0.329-6.23-1.359-9.2c-1.181-3.42-2.431-6.83-3.8-10.19
				c-1.44-3.55-2.98-7.05-4.641-10.5c-0.51-1.069-1.609-1.84-2.35-2.81c-1.391-1.82-2.67-3.73-4.101-5.53
				c-0.85-1.08-1.89-2.02-3.01-3.2c0.84-0.399,1.61-0.76,2.36-1.13c2.25-1.109,4.609-2.04,6.7-3.38c2.26-1.46,4.3-3.26,6.359-5
				c0.721-0.61,1.07-1.66,1.811-2.21c3.14-2.33,4.08-5.91,5.68-9.17c1.31-2.64,1.62-5.37,1.94-8.16c0.199-1.74,0.31-3.49,0.479-5.45
				c-1.63,1.59-1.93,3.53-2.5,5.34c-0.63,2.011-1.149,4.061-1.88,6.04c-0.36,0.971-1.11,1.79-1.66,2.69
				c-2.04,3.28-3.92,6.67-6.14,9.82c-1.95,2.77-4.851,4.29-8.22,4.85c-0.49,0.08-0.961,0.35-1.44,0.55
				c-0.82,0.36-1.61,0.82-2.46,1.09c-0.62,0.21-0.93,0.46-1.21,1.11c-0.22,0.5-1.03,0.811-1.63,1.04
				c-1.21,0.48-2.471,0.83-3.7,1.271c-3.07,1.09-6.23,1.779-9.46,2.22c-3.46,0.47-6.89,1.229-10.34,1.729
				c-2.67,0.4-5.37,0.53-8.04,0.91c-3.94,0.55-7.87,1.141-11.771,1.88c-1.899,0.36-3.72,1.141-5.59,1.65
				c-0.939,0.26-1.99,0.22-2.89,0.57c-1.47,0.56-2.86,1.329-4.311,2.02c-0.199-0.34-0.46-0.81-0.71-1.26
				c-1.91,1.58-1.649,3.92-2.17,5.93c-0.939,3.59-1.58,7.24-2.439,10.851c-0.21,0.85-0.891,1.59-1.15,2.439
				c-0.63,2.05-1.17,4.13-1.689,6.21c-1.141,4.63-2.53,9.17-4.08,13.68c-1.24,3.61-2.03,7.36-3.141,11.021
				c-0.45,1.51-1.14,2.95-1.8,4.39c-0.18,0.4-0.44,0.61-0.7,0.61c-0.25,0-0.5-0.21-0.67-0.63c-0.43-1.13-0.7-2.33-0.95-3.521
				c-1.04-4.84-2.11-9.68-3.06-14.54c-0.94-4.83-2.75-9.359-4.92-13.71c-1.58-3.16-3.62-6.1-5.55-9.069
				c-0.95-1.46-2.12-2.79-3.23-4.16c-0.28-0.34-0.68-0.601-1.02-0.9c-0.12,0.08-0.25,0.16-0.37,0.24c0.36,0.74,0.6,1.57,1.09,2.21
				c1.79,2.34,3.25,4.84,3.96,7.71c0.18,0.72,0.25,1.5,0.2,2.24c-0.22,2.99-0.45,5.97-0.79,8.95c-0.54,4.71-1.13,9.42-1.78,14.119
				c-0.27,1.931-0.71,3.841-1.12,5.75c-0.08,0.36-0.45,0.65-0.68,0.98c-0.37-0.37-0.98-0.7-1.06-1.12
				c-0.68-3.32-1.21-6.66-1.87-9.97c-1.25-6.26-2.52-12.53-4.78-18.521c-2.66-7.029-5.75-13.88-9.89-20.17
				c-0.2-0.3-0.39-0.59-0.58-0.89c-1.95-2.97-3.95-5.93-6.68-8.29c-2.16-1.87-4.26-3.83-6.5-5.6c-1.04-0.83-2.35-1.351-3.59-1.891
				c-0.86-0.359-0.91-0.63-0.17-1.17c1.09-0.8,2.16-1.63,3.21-2.479c0.31-0.25,0.5-0.62,0.75-0.94c-0.07-0.08-0.15-0.16-0.23-0.25
				c-0.43,0.25-0.88,0.46-1.29,0.73c-3.67,2.42-7.75,3.93-11.95,5.05c-4.66,1.229-9.46,1.99-14.06,3.399
				c-5.75,1.761-11.7,2.311-17.54,3.46c-2.27,0.45-4.53,0.94-6.82,1.21c-2.17,0.25-4.38,0.23-6.56,0.381
				c-1.49,0.109-2.97,0.31-4.52,0.199c1.14-0.409,2.26-0.89,3.42-1.229c1.83-0.54,3.71-0.92,5.54-1.49c3.12-0.97,6.2-2.08,9.33-3.03
				c0.6-0.189,1.48-0.14,1.99,0.181c2.46,1.56,3.19,1.739,5.2-0.391c1.24-1.31,2.69-1.35,4.13-1.739c2.61-0.71,5.24-1.33,7.86-2.021
				c0.35-0.09,0.65-0.35,0.91-0.76c-0.37,0-0.76-0.05-1.12,0.01c-4.06,0.64-8.09,1.34-12.23,1.17c-2.77-0.109-5.35,0.91-7.89,1.87
				c-4.59,1.73-9.24,3.26-14.04,4.28c-3.17,0.68-6.3,1.479-9.48,2.05c-1.94,0.34-4.01,0.729-5.9,0.41
				c-2.07-0.36-4.06-1.42-5.98-2.37c-3.08-1.51-6.23-2.96-9.06-4.85c-2.7-1.801-5.22-3.961-7.5-6.29
				c-2.49-2.54-3.04-7.261-1.41-9.82c0.98-1.54,2.13-3.04,3.46-4.28c3.01-2.79,6.19-5.41,9.3-8.1
				c5.21-4.521,10.01-9.351,13.23-15.59c1.57-3.04,3.52-5.9,5.49-8.7c0.92-1.3,2.27-2.311,3.49-3.37c2.12-1.83,4.25-3.64,6.44-5.38
				c3.51-2.78,7.42-4.94,11.33-7.11c2.58-1.43,4.98-3.18,7.54-4.64c3.25-1.87,6.75-3.06,10.53-3.33c2.9-0.21,5.8-0.48,8.7-0.77
				c0.42-0.04,0.81-0.32,1.19-0.48c-1.04-2.07-2.9-1.48-4.53-1.77c1.9-1.05,4.29-0.83,5.78-2.85c-0.78,0.03-1.56,0.07-2.34,0.11
				c-0.08-0.09-0.16-0.17-0.24-0.26c0.72-0.78,1.45-1.57,2.36-2.55c-1.63-0.24-1.4-1.48-1.53-2.53c-0.12-0.01-0.24-0.01-0.36-0.02
				c-0.51,1.05-1.13,2.05-1.5,3.15c-0.46,1.36-1.34,2.19-2.47,3.05c-2.33,1.77-4.91,1.73-7.82,1.64c0.12-0.22,0.24-0.44,0.36-0.66
				c4.37-7.91,8.67-15.71,12.98-23.51c0.12,0.31,0.35,0.72,0.46,1.16c0.86,3.61,1.59,7.26,2.58,10.83c0.9,3.26,2.07,6.45,3.13,9.67
				c0.28,0.83,0.6,1.64,0.89,2.46c0.31,0.88,0.91,1.13,1.84,1.15c4.31,0.09,8.63,0.14,12.93,0.46c2.2,0.17,4.36,0.85,6.53,1.31
				c0.71,0.15,1.41,0.33,2.12,0.5c0.07-0.16,0.14-0.31,0.22-0.46c-1-0.71-1.95-1.51-3.01-2.11c-1.05-0.6-1.2-0.88-0.59-1.92
				c0.51-0.86,0.97-1.74,1.59-2.87c0.73,0.66,1.45,1.23,2.07,1.9c0.58,0.6,1.02,1.33,1.57,1.96c1.05,1.18,1.92,1.13,2.56-0.3
				c0.68-1.52,1.16-3.14,1.73-4.71c0.14-0.41,0.26-0.83,0.43-1.36c1.07,0.43,2.06,0.83,3.04,1.22c0.3,0.11,0.6,0.27,0.91,0.29
				c2.8,0.22,2.89-0.22,3.53-3.14c0.13-0.6,0.01-1.25,0.01-1.89c2.61-0.25,3.94,1.25,5.14,3.02c0.52,0.77,1.15,1.47,1.72,2.2
				l2.12,0.86c-0.31,0.42-0.6,0.84-0.89,1.27c-1.26,1.88-2.36,3.86-3.47,5.83c-0.27,0.48-0.28,1.11-0.42,1.67
				c0.47-0.29,1.06-0.48,1.37-0.89c2.13-2.8,4.19-5.65,6.28-8.48c0.21-0.29,0.46-0.55,0.71-0.85c1.29,2.56,2.48,4.95,3.68,7.35
				c0.17-0.07,0.34-0.13,0.5-0.2c-0.64-1.96-1.28-3.91-1.92-5.87c0.11-0.07,0.21-0.13,0.32-0.2c0.29,0.19,0.59,0.36,0.87,0.56
				c1.38,0.95,2.76,1.91,4.15,2.85c0.53,0.36,1.15,0.82,1.66,0.06c0.51-0.76,0.04-1.37-0.57-1.83l0.89-0.99
				c4.01-3.78,7.56-7.92,10.689-12.49c0.7,3.1-0.31,6.14-0.189,9.17c0.14,0.02,0.29,0.04,0.43,0.06c0.79-3.23,1.59-6.47,2.5-10.16
				c0.38,0.54,0.61,0.93,0.9,1.28c1.1,1.27,2.149,2.58,3.34,3.76c0.83,0.82,1.89,1.41,2.79,2.18c0.77,0.66,1.45,1.42,2.18,2.13
				c0.09-0.07,0.19-0.15,0.28-0.23c-1.44-2.14-2.88-4.29-4.33-6.43c2.85,0.65,4.53,3.51,7.7,3.43c-0.28-1.83-2.17-2.26-2.92-3.42
				c0.069-0.07,0.149-0.13,0.22-0.19c3.08-2.78,6.12-5.51,9.32-8.39c0.859,0.93,1.729,2,2.74,2.92c0.64,0.58,1.52,0.89,2.229,1.4
				c0.771,0.56,1.44,1.23,2.19,1.8c0.68,0.53,1.42,0.97,2.1,1.5c0.59,0.46,1.42,0.89,1.63,1.5c0.43,1.3,1.13,0.7,1.62,0.33
				c1.14-0.87,2.17-1.88,3.25-2.83c0.14-0.13,0.3-0.24,0.49-0.39c0.649,0.74,0.81,1.33-0.08,1.98c-0.54,0.39-0.96,0.95-1.38,1.49
				c-0.15,0.18-0.261,0.61-0.16,0.74c0.17,0.21,0.59,0.42,0.8,0.34c0.69-0.26,1.4-0.57,1.99-1.01c0.75-0.53,1.42-1.18,2.06-1.83
				c0.66-0.67,1.271-0.63,2.021-0.13c1.819,1.23,3.67,2.42,5.52,3.6c0.33,0.21,0.76,0.44,1.101,0.39c0.37-0.05,0.779-0.35,1-0.67
				c0.1-0.14-0.141-0.69-0.37-0.86c-2.431-1.8-4.86-3.59-7.36-5.29c-0.47-0.32-1.25-0.19-2.1-0.29c-0.021-0.04-0.181-0.31-0.25-0.6
				c-0.41-1.67-1.74-2.19-3-1c-1.181,1.11-2.16,2.41-3.221,3.64c-0.229,0.26-0.409,0.55-0.649,0.89c-0.69-0.78-1.32-1.43-1.86-2.14
				c-0.14-0.19-0.149-0.72,0-0.84c0.73-0.64,1.17-1.49,2.46-1.61c1.16-0.11,2.28-1.06,3.33-1.77c2.28-1.55,4.48-3.21,6.74-4.79
				c1.71-1.19,1.9-1.2,3.29,0.36c1.57,1.75,3.02,3.6,4.54,5.44c-0.601,0.65-1.13,1.13-1.561,1.69c-0.22,0.28-0.279,0.69-0.409,1.04
				c0.409,0.02,0.93,0.22,1.21,0.04c1.189-0.79,2.319-1.68,3.47-2.54c0.28-0.21,0.53-0.45,0.91-0.77c0.26,1.13,0.439,2.12,0.7,3.08
				c0.52,1.96,1.1,3.89,1.619,5.84c0.53,2,1.67,2.36,3.24,1.01c1.21-1.04,2.43-2.08,3.65-3.11c0.05-0.05,0.14-0.06,0.34-0.14
				c1.33,1.52,2.62,3.13,4.06,4.6c0.75,0.77,1.73,1.35,2.67,1.9c0.591,0.34,0.801-0.03,0.631-0.88c2.02,0.48,4.109,1.04,6.22,1.48
				c3.53,0.73,6.88,1.94,10.25,3.23c5.81,2.23,10.64,5.86,15.28,9.84c0.359,0.31,0.6,0.74,0.93,1.09c0.35,0.38,0.74,0.73,1.11,1.1
				c0.1-0.07,0.199-0.14,0.3-0.22c-0.16-0.39-0.33-0.78-0.601-1.44c0.511,0.29,0.82,0.42,1.09,0.61c3.12,2.29,6.341,4.46,9.341,6.9
				c6.06,4.93,12.37,9.63,17.04,16.02c1.38,1.891,2.6,3.921,3.72,5.98C303.45,165.06,305.37,168.9,307.33,172.71z M229.379,130.45
				c-0.01-0.39,0.091-0.84-0.06-1.17c-0.24-0.53-0.62-1-0.98-1.48c-1.069-1.43-2.239-2.8-3.199-4.3c-1.011-1.58-2.061-2.9-3.95-3.58
				c-1.2-0.43-2.04-0.4-2.93,0.41c-1.32,1.2-2.66,2.39-3.961,3.62c-0.399,0.38-0.689,0.87-1.239,1.56
				c0.609-0.12,0.859-0.11,1.05-0.22c2.06-1.13,4.12-2.27,5.91-3.26c1.71,1.53,3.41,2.97,5,4.51c1.14,1.11,2.12,2.38,3.229,3.52
				C228.5,130.32,229,130.33,229.379,130.45z M210.16,142.63c-0.39-1.28-0.86-2.45-1.5-3.53c-0.67-1.129-1.47-2.18-2.25-3.24
				c-0.439-0.61-1.07-1.11-1.399-1.76c-0.551-1.11-0.83-1.23-1.65-0.28c-0.75,0.86-1.41,1.81-2.13,2.75
				c-1.13-1.17-2.24-2.33-3.53-3.69c-2.5,1.72-4.14,4.47-6,7.061c0.36,0.01,0.67-0.04,0.9-0.21c1.199-0.91,2.35-1.891,3.569-2.771
				c0.351-0.25,0.99-0.48,1.301-0.32c2.35,1.16,2.46,1.56,1.55,3.93c-0.101,0.25-0.01,0.569-0.01,0.859
				c0.289-0.08,0.67-0.06,0.84-0.25c0.85-0.939,1.66-1.92,2.449-2.92c0.431-0.55,0.801-1.15,1.16-1.68
				C206.129,138.28,207.64,141,210.16,142.63z M195.709,122.92c0.04-0.44,0.221-0.94,0.07-1.29c-0.73-1.76-1.53-3.49-2.34-5.22
				c-0.54-1.14-1.34-1.25-2.2-0.33c-0.979,1.04-1.96,2.1-2.89,3.19c-0.44,0.51-0.78,1.1-1.16,1.65c0.13,0.12,0.26,0.24,0.38,0.36
				c1.32-1.08,2.64-2.15,3.99-3.26c1.01,1.52,1.89,2.94,2.88,4.28C194.69,122.64,195.28,122.72,195.709,122.92z M184.49,131.86
				c0.22-0.27,0.21-1.01,0-1.34c-1.49-2.32-3.44-2.26-4.76,0.07c-0.311,0.56-0.66,1.09-0.99,1.64c-0.52-0.32-1.02-0.71-1.57-0.95
				c-1.739-0.75-3.529-1.39-5.25-2.17c-1.21-0.55-1.56-0.01-1.779,1.05c-0.811,3.91-1.71,7.8-2.44,11.729
				c-0.229,1.29-0.03,2.67-0.03,4.011c0.15,0.01,0.311,0.02,0.46,0.029c1.91-4.54,2.431-9.51,4.07-14.2
				c1.84,0.89,3.65,1.74,5.43,2.61c1.36,0.67,2.5,0.34,3.21-0.99c0.32-0.59,0.57-1.21,0.921-1.96c0.569,0.32,0.96,0.67,1.399,0.74
				C183.589,132.2,184.26,132.14,184.49,131.86z M166.25,133.4c-0.25-0.7-0.39-1.12-0.54-1.54c-0.34,0.14-0.88,0.18-0.979,0.42
				c-0.811,1.93-1.62,3.86-2.23,5.859c-0.149,0.5,0.44,1.23,0.69,1.86c0.47-0.37,1.18-0.65,1.359-1.13
				C165.22,137.03,165.73,135.13,166.25,133.4z M159.86,135.24c0.1-0.43,0.439-0.99,0.28-1.28c-0.811-1.45-1.7-2.86-2.65-4.22
				c-0.45-0.64-1.14-0.67-1.56,0.07c-1.13,2.02-2.2,4.07-3.3,6.11c0.17,0.13,0.34,0.26,0.51,0.39c1.67-0.85,2.4-2.67,3.76-4.11
				c0.66,0.89,1.229,1.74,1.89,2.51C159.03,134.99,159.49,135.07,159.86,135.24z M156.07,158.98c0.1-0.86,0.03-1.75-0.06-2.62
				c-0.05-0.49-0.28-0.971-0.42-1.45c-0.48,0.2-1.14,0.28-1.42,0.64c-0.82,1.07-1.55,2.221-2.21,3.391
				c-0.37,0.63-0.54,1.369-0.8,2.06c0.06,0.04,0.13,0.08,0.19,0.12c0.94-0.771,1.88-1.54,2.92-2.41c0.1,0.24,0.14,0.4,0.23,0.521
				c0.29,0.43,0.6,0.84,0.91,1.26C155.64,159.99,156.02,159.5,156.07,158.98z M145.02,144.6c0.04-0.229,0.13-0.409,0.08-0.51
				c-1.17-2.14-1.47-4.71-3.4-6.48c-2.09-1.91-1.91-2.31-3.77-0.01c-1.35,1.67-2.53,3.48-3.78,5.23c0.15,0.14,0.3,0.28,0.46,0.42
				c1.64-1.52,3.28-3.04,5.02-4.66C141.58,140.42,142.42,143.24,145.02,144.6z M130.56,138.71c0.11-0.47,0.37-0.96,0.3-1.39
				c-0.1-0.52-0.42-1.03-0.74-1.49c-0.75-1.08-1.62-1.15-2.61-0.29c-0.31,0.27-0.64,0.51-1.01,0.8c-0.26-0.51-0.45-0.86-0.61-1.22
				c-0.76-1.65-2.11-2.63-3.6-0.73c-0.12,0.15-0.32,0.23-0.45,0.38c-1.02,1.17-2.04,2.34-3.05,3.51c0.13,0.14,0.27,0.27,0.4,0.41
				c1.85-0.54,2.65-2.51,4.21-3.49c0.67,1.12,1.1,2.39,1.97,3.16c1.2,1.06,2.26-0.061,3.29-0.94c0.31,0.33,0.49,0.62,0.75,0.78
				C129.76,138.42,130.17,138.54,130.56,138.71z M128.5,155.45c0.15-0.72,0.27-1.5,0.17-2.22c-0.12-0.891-0.54-1.73-0.72-2.62
				c-0.22-1.061-0.49-1.2-1.39-0.53c-1.15,0.84-2.29,1.7-3.43,2.56c-0.13,0.101-0.18,0.301-0.27,0.45c0.06,0.11,0.13,0.22,0.19,0.34
				c1.01-0.43,2.02-0.859,3.23-1.37c0.27,1.171,0.48,2.25,0.79,3.311c0.08,0.29,0.43,0.67,0.68,0.68S128.44,155.71,128.5,155.45z
				 M110.1,137.54c0.16-0.15,0.15-0.74-0.01-0.93c-0.7-0.81-1.43-1.62-2.26-2.28c-0.89-0.71-1.67-0.38-2,0.71
				c-0.12,0.37-0.21,0.8-0.14,1.17c0.13,0.69,0.38,1.36,0.57,2.04c0.57-0.26,1.14-0.53,1.93-0.91c0.18,0.12,0.49,0.44,0.85,0.5
				C109.38,137.9,109.85,137.77,110.1,137.54z M77.03,166.8c1.72-2.819,2.04-8.16-1.89-10.399c-3.12-1.78-6.43-3.11-10.22-2
				c-1.8,0.529-3.6,0.88-5.15,2.08c-2.53,1.96-3.91,4.619-4.68,7.579c-0.36,1.37-0.14,2.9-0.1,4.351c0.01,0.28,0.52,0.79,0.71,0.75
				c0.35-0.061,0.79-0.4,0.92-0.73c0.19-0.5,0.15-1.09,0.19-1.649c0.04-0.57,0.07-1.13,0.11-1.931c1.31,2.051,2.46,3.851,3.62,5.671
				c-0.6-0.29-1.26-0.62-1.95-0.9c-0.63-0.26-1.28-0.5-1.76,0.34c-0.44,0.75-0.21,1.33,0.41,1.76c0.8,0.551,1.61,1.2,2.51,1.46
				c3.11,0.9,6.25,1.66,9.39-0.029C72.17,171.521,75.12,169.92,77.03,166.8z M22.05,196.93c0.09-0.01,0.17-0.149,0.52-0.449
				c-0.94-0.36-1.7-0.851-2.5-0.921c-1.33-0.13-2.69-0.069-4.02,0.061c-0.53,0.06-1.01,0.53-1.51,0.81c0.5,0.37,1.01,1.051,1.5,1.04
				C18.05,197.41,20.05,197.13,22.05,196.93z"/>
			<path d="M260,255.93l1.141,0.7c-0.721,1.17-1.46,2.33-2.2,3.49c-1.34,2.11-2.82,4.16-4.42,6.08c-1.3,1.57-2.96,2.79-5.07,3.12
				c-0.41,0.069-0.88-0.05-1.28-0.21c-1.479-0.601-2.56-1.78-2.989-3.21c-0.271-0.91,0.22-2.051,0.43-3.08
				c0.13-0.61,0.43-1.2,0.53-1.811c0.93-6.05,0.239-12.02-1.141-17.91c-1.06-4.52-2.7-8.869-4.84-13.069
				c0,1.99,0.04,3.99-0.01,5.979c-0.11,4.59-0.09,9.19-0.46,13.75c-0.28,3.4-0.87,6.811-1.73,10.11c-0.72,2.71-2,5.28-3.109,7.87
				c-0.45,1.05-1.38,1.52-2.561,1.359c-0.359-0.05-0.729-0.119-1.08-0.079c-0.91,0.109-1.34-0.381-1.529-1.171
				c-0.74-3-1.45-6.02-2.181-9.029c-0.06-0.271-0.12-0.54-0.21-0.8c-1.26-3.57-2.46-7.16-3.81-10.69
				c-0.931-2.41-2.08-4.74-3.141-7.1c-0.449-1.011-0.89-2.04-1.43-3.011c-0.57-1.02-1.31-1.939-1.88-2.96
				c-0.45-0.79-0.78-1.66-1.13-2.5c-1.25-2.96-2.351-6-3.78-8.87c-0.87-1.76-2.25-3.27-3.399-4.89c-0.181-0.26-0.41-0.49-0.57-0.77
				c-1.03-1.74-1.03-1.78-3.01-1.46c-3.57,0.59-7.141,1.27-10.71,1.859c-2.83,0.47-5.69,0.771-8.511,1.29
				c-3.59,0.67-6.93,2.14-10.18,3.76c-0.92,0.46-1.8,1-2.69,1.5c-1.229,0.71-1.63,1.9-1.859,3.19c-1.29,7.54-3.33,14.88-5.84,22.09
				c-0.891,2.55-2.2,4.96-3.11,7.51c-1.6,4.431-3.02,8.931-4.56,13.38c-0.44,1.28-1,2.521-1.551,3.75
				c-0.479,1.07-1.2,1.58-2.29,1.62l-0.05-1.1c0.26,0,0.52-0.21,0.7-0.61c0.66-1.439,1.35-2.88,1.8-4.39
				c1.11-3.66,1.9-7.41,3.141-11.021c1.55-4.51,2.939-9.05,4.08-13.68c0.52-2.08,1.06-4.16,1.689-6.21
				c0.26-0.85,0.94-1.59,1.15-2.439c0.859-3.61,1.5-7.261,2.439-10.851c0.521-2.01,0.26-4.35,2.17-5.93
				c0.25,0.45,0.511,0.92,0.71,1.26c1.45-0.69,2.841-1.46,4.311-2.02c0.899-0.351,1.95-0.311,2.89-0.57
				c1.87-0.51,3.69-1.29,5.59-1.65c3.9-0.739,7.83-1.33,11.771-1.88c2.67-0.38,5.37-0.51,8.04-0.91c3.45-0.5,6.88-1.26,10.34-1.729
				c3.229-0.44,6.39-1.13,9.46-2.22c1.229-0.44,2.49-0.79,3.7-1.271c0.6-0.229,1.41-0.54,1.63-1.04c0.28-0.65,0.59-0.9,1.21-1.11
				c0.85-0.27,1.64-0.729,2.46-1.09c0.479-0.2,0.95-0.47,1.44-0.55c3.369-0.56,6.27-2.08,8.22-4.85c2.22-3.15,4.1-6.54,6.14-9.82
				c0.55-0.9,1.3-1.72,1.66-2.69c0.73-1.979,1.25-4.029,1.88-6.04c0.57-1.81,0.87-3.75,2.5-5.34c-0.17,1.96-0.28,3.71-0.479,5.45
				c-0.32,2.79-0.631,5.521-1.94,8.16c-1.6,3.26-2.54,6.84-5.68,9.17c-0.74,0.55-1.09,1.6-1.811,2.21c-2.06,1.74-4.1,3.54-6.359,5
				c-2.091,1.34-4.45,2.271-6.7,3.38c-0.75,0.37-1.521,0.73-2.36,1.13c1.12,1.181,2.16,2.12,3.01,3.2
				c1.431,1.8,2.71,3.71,4.101,5.53c0.74,0.97,1.84,1.74,2.35,2.81c1.66,3.45,3.2,6.95,4.641,10.5c1.369,3.36,2.619,6.771,3.8,10.19
				c1.03,2.97,1.21,6.07,1.359,9.2c0.2,4.319-0.05,8.59-1.06,12.8c-0.15,0.64-0.63,1.34,0.14,1.84c0.851,0.56,1.801,1.02,2.771,0.28
				c0.7-0.53,1.35-1.12,1.95-1.75c0.68-0.721,1.22-1.58,1.92-2.29C256.62,260.67,258.47,258.42,260,255.93z M237.06,241.92
				c0.13-4.729,0.13-9.46,0.109-14.189c0-0.94-0.38-1.881-0.449-2.83c-0.15-1.83-0.811-3.37-1.881-4.9
				c-1.43-2.07-3.479-3.34-5.359-4.82c-1.3-1.02-2.891-1.67-4.24-2.649c-0.7-0.51-1.26-0.561-2.04-0.36
				c-2.43,0.64-4.87,1.24-7.32,1.771c-2.02,0.43-4.06,0.75-6.29,1.149c0.28,0.4,0.421,0.59,0.551,0.78
				c1.069,1.479,2.359,2.84,3.17,4.45c1.63,3.22,3.01,6.569,4.479,9.88c3.03,6.8,6.23,13.54,8.99,20.45
				c1.71,4.27,2.75,8.81,4.07,13.229c0.229,0.76,0.359,1.55,0.52,2.33c0.21,0.99,0.95,0.89,1.69,0.88c0.779,0,0.83-0.51,0.93-1.109
				c0.15-0.9,0.44-1.78,0.63-2.671c0.62-2.909,1.46-5.8,1.771-8.739C236.82,250.37,236.95,246.14,237.06,241.92z"/>
			<path fill="#9F8CE2" d="M237.169,227.73c0.021,4.729,0.021,9.46-0.109,14.189c-0.11,4.22-0.24,8.45-0.67,12.65
				c-0.311,2.939-1.15,5.83-1.771,8.739c-0.189,0.891-0.479,1.771-0.63,2.671c-0.1,0.6-0.15,1.109-0.93,1.109
				c-0.74,0.01-1.48,0.11-1.69-0.88c-0.16-0.78-0.29-1.57-0.52-2.33c-1.32-4.42-2.36-8.96-4.07-13.229
				c-2.76-6.91-5.96-13.65-8.99-20.45c-1.47-3.311-2.85-6.66-4.479-9.88c-0.811-1.61-2.101-2.971-3.17-4.45
				c-0.13-0.19-0.271-0.38-0.551-0.78c2.23-0.399,4.271-0.72,6.29-1.149c2.45-0.53,4.891-1.131,7.32-1.771
				c0.78-0.2,1.34-0.149,2.04,0.36c1.35,0.979,2.94,1.63,4.24,2.649c1.88,1.48,3.93,2.75,5.359,4.82c1.07,1.53,1.73,3.07,1.881,4.9
				C236.79,225.85,237.169,226.79,237.169,227.73z"/>
			<path d="M229.32,129.28c0.15,0.33,0.05,0.78,0.06,1.17c-0.38-0.12-0.88-0.13-1.13-0.39c-1.109-1.14-2.09-2.41-3.229-3.52
				c-1.59-1.54-3.29-2.98-5-4.51c-1.79,0.99-3.851,2.13-5.91,3.26c-0.19,0.11-0.44,0.1-1.05,0.22c0.55-0.69,0.84-1.18,1.239-1.56
				c1.301-1.23,2.641-2.42,3.961-3.62c0.89-0.81,1.729-0.84,2.93-0.41c1.89,0.68,2.939,2,3.95,3.58c0.96,1.5,2.13,2.87,3.199,4.3
				C228.7,128.28,229.08,128.75,229.32,129.28z"/>
			<path d="M216.73,51.44c0.22,3.48-0.94,6.71-1.88,9.96c-1.13,3.95-2.44,7.86-3.721,11.77c-0.18,0.55-0.489,1.13-0.909,1.51
				c-2.82,2.6-5.671,5.17-8.54,7.71c-4.25,3.75-8.53,7.48-12.79,11.21c-0.5,0.43-1.061,0.85-0.19,1.5c1.99-1.79,3.95-3.6,5.96-5.34
				c1.32-1.15,2.67-2.29,4.101-3.29c0.539-0.37,1.35-0.5,2.029-0.49c1.11,0.02,1.391,0.7,0.95,1.7c-0.17,0.39-0.04,0.91-0.05,1.38
				c0.39-0.18,0.89-0.26,1.14-0.55c1.26-1.43,2.46-2.93,3.851-4.62c0.939,0.8,1.869,1.58,2.779,2.37l-1.13,1.32
				c-0.83-0.85-1.83-0.69-2.81,0.48c-0.12,0.15-0.23,0.32-0.36,0.48c-2.71,3.46-5.34,7-9.47,8.96c-0.311,0.15-0.641,0.23-1.22,0.43
				c0.34-0.68,0.79-1.18,0.68-1.4c-0.61-1.27,0.32-2.02,0.79-2.95c0.359-0.72,0.609-1.5,0.899-2.26
				c-0.109-0.06-0.229-0.13-0.35-0.19c-1.94,1.59-3.87,3.2-5.83,4.76c-1.97,1.56-1.99,1.54-4.13,0.24c-0.1-0.06-0.22-0.08-0.37-0.13
				c-1.09,0.94-2.17,1.9-3.25,2.84c-1.08,0.94-2.17,1.88-3.27,2.81c-0.53,0.45-1.221,0.71-1.841,1.06c1.4-1.89,2.82-3.64,4.391-5.25
				c1.83-1.89,3.79-3.66,5.71-5.45c3.46-3.22,6.93-6.44,10.42-9.62c3.33-3.03,6.7-6.01,10.05-9.02c0.21-0.19,0.36-0.45,0.641-0.81
				c-0.641,0-1.08-0.04-1.5,0.01c-1.58,0.19-3.211,0.31-4.37,1.49l-0.341-0.37c0.32-0.3,0.641-0.6,0.971-0.9
				c-0.59-0.5-1.01-0.92-1.48-1.27c-1.56-1.16-3.14-2.3-4.71-3.45c-0.85-0.62-1.09-1.5-1.21-2.82c0.01-0.01,0.01-0.02,0.021-0.03
				c2.25,2.05,4.25,3.91,6.31,5.7c0.42,0.36,1.08,0.66,1.6,0.62c0.33-0.02,0.7-0.68,0.891-1.13c0.399-0.91,0.649-1.89,1.02-2.81
				c1.46-3.68,2.94-7.34,4.4-11.01c0.13-0.33,0.13-0.72,0.189-1.08c-2.329,1.75-4.359,3.6-6.42,5.42c-1.58,1.4-1.71,1.38-2.93-0.2
				c1.89-1.56,3.78-3.12,5.66-4.68c-0.32-0.13-0.55-0.1-0.75-0.01c-2.82,1.13-5.61,2.32-8.45,3.4c-1.04,0.4-1.36,0.86-1.11,2.02
				c0.301,1.32,0.36,2.69-0.409,3.76c-0.011-0.01-0.021-0.02-0.03-0.03c0,0.02,0,0.04,0.01,0.06c-0.14,0.18-0.31,0.36-0.5,0.53
				c-0.439-1.45-0.88-2.89-1.37-4.5c-1.09,1.05-2.35,1.86-3.04,3.01c-2.29,3.83-4.27,7.86-6.58,11.68
				c-2.05,3.38-4.399,6.58-6.619,9.86c0.02-0.4,0.119-0.76,0.289-1.09c0.551-1.06,1.131-2.09,1.681-3.14c1.51-2.9,3-5.8,4.51-8.7
				c1.72-3.28,3.36-6.61,5.21-9.81c3.03-5.21,6.21-10.32,9.311-15.47c2.479-4.13,5-8.23,7.38-12.41c1.35-2.38,2.479-4.89,3.659-7.36
				c0.12-0.23,0.051-0.7-0.109-0.91c-2.54-3.18-5.11-6.34-7.65-9.51c-1.189-1.49-2.49-2.9-2.81-4.93c-0.101-0.6-0.66-1.17-1.12-1.66
				l1.26-0.77c1.26,1.45,2.65,2.79,3.95,4.24c2.37,2.62,4.22,5.71,6.28,8.6c0.699,0.97,1.34,1.99,2.069,2.93
				c0.771,1,0.931,2.04,0.33,3.13c-1.239,2.27-2.5,4.54-3.8,6.78c-3.45,5.9-6.92,11.78-10.38,17.68c-0.72,1.23-1.39,2.48-2.271,4.04
				c2.94-1.3,5.54-2.52,8.211-3.59c3.42-1.37,6.89-2.66,10.359-3.9C216.03,49.48,216.64,49.97,216.73,51.44z M210.95,64.84
				c-0.12-0.02-0.24-0.05-0.36-0.07c-0.899,1.82-1.81,3.63-2.68,5.46c-0.12,0.25,0.021,0.61,0.03,0.92
				c0.38-0.11,1.03-0.14,1.109-0.36C209.74,68.83,210.33,66.83,210.95,64.84z"/>
			<path d="M208.66,139.1c0.64,1.08,1.11,2.25,1.5,3.53c-2.52-1.63-4.03-4.35-6.7-6.05c-0.359,0.53-0.729,1.13-1.16,1.68
				c-0.789,1-1.6,1.98-2.449,2.92c-0.17,0.19-0.551,0.17-0.84,0.25c0-0.29-0.091-0.609,0.01-0.859c0.91-2.37,0.8-2.771-1.55-3.93
				c-0.311-0.16-0.95,0.07-1.301,0.32c-1.22,0.88-2.37,1.86-3.569,2.771c-0.23,0.17-0.54,0.22-0.9,0.21c1.86-2.59,3.5-5.34,6-7.061
				c1.29,1.36,2.4,2.52,3.53,3.69c0.72-0.94,1.38-1.89,2.13-2.75c0.82-0.95,1.1-0.83,1.65,0.28c0.329,0.65,0.96,1.15,1.399,1.76
				C207.19,136.92,207.99,137.97,208.66,139.1z"/>
			<path d="M202.799,73.69l0.341,0.37c-0.16,0.16-0.32,0.36-0.46,0.57c-0.48,0.72-0.79,1.57-1.351,2.2c-2.08,2.38-4.18,4.74-6.38,7
				c-1.02,1.05-2.26,1.89-3.46,2.75c-0.22,0.16-0.7-0.03-1.07-0.05c0.051-0.36-0.04-0.86,0.17-1.06c2.681-2.68,5.381-5.33,8.11-7.95
				C200.03,76.24,201.39,74.99,202.799,73.69z"/>
			<path d="M199.87,10.07l-1.26,0.77c-1.7-1.79-3.44-3.54-5.18-5.3c-0.17-0.18-0.391-0.3-0.721-0.53
				c-1.449,12.13-2.989,24.08-7.12,35.48c-0.159-0.02-0.319-0.04-0.489-0.05c0-1.56,0-3.12,0-4.7c-0.25,0.06-0.44,0.1-0.63,0.13
				c1.34-6.23,2.739-12.43,3.989-18.67c0.7-3.51,1.15-7.07,1.69-10.62c0.07-0.43,0.01-0.89,0.01-1.55
				c-0.52,0.43-0.82,0.68-1.13,0.92c-2.27,1.83-4.42,3.84-6.84,5.45c-2.9,1.93-5.78,3.85-8.22,6.35
				c-0.431,0.44-0.681,1.13-0.86,1.74c-0.18,0.61-0.16,1.27-0.26,1.9c-0.73,4.85-1.58,9.69-2.17,14.56
				c-0.851,6.97-1.561,13.95-2.23,20.94c-0.689,7.19-1.229,14.39-1.89,21.59c-0.34,3.69-0.721,7.38-1.19,11.06
				c-0.26,2.01-0.79,3.99-1.109,5.99c-0.261,1.58-0.4,3.19-0.591,4.78c-0.06-0.01-0.109-0.02-0.17-0.02
				c0.4-4.06,0.79-8.12,1.19-12.18c-0.07-0.01-0.13-0.01-0.2-0.02c-0.22,1.64-0.44,3.29-0.66,4.93c-0.04,0-0.069-0.01-0.1-0.01
				c0.59-6.83,1.18-13.66,1.77-20.49c-0.1,0-0.189-0.01-0.29-0.02c-0.43,4.22-0.859,8.44-1.29,12.65
				c-0.199-0.17-0.21-0.33-0.199-0.48c0.46-4.56,1.05-9.12,1.35-13.69c0.4-6.09,0.58-12.19,0.84-18.28
				c0.101-2.47,0.19-4.95,0.18-7.42c0-0.56-0.26-1.28-0.659-1.64c-3.69-3.36-7.431-6.66-11.16-9.97c-0.22-0.19-0.48-0.34-0.89-0.63
				c-0.09,1.54-0.22,2.88-0.24,4.22c-0.05,3.83,0,7.66-0.12,11.49c-0.04,1.12-0.71,2.23-0.71,3.34c0.04,4.68,0.2,9.35,0.35,14.03
				c0.08,2.45,0.23,4.91,0.35,7.37c-0.06-0.13-0.13-0.26-0.19-0.39c-0.06-0.14-0.11-0.28-0.12-0.42c-0.05-1.52-0.03-3.04-0.1-4.55
				c-0.35-7.83-0.71-15.66-1.11-23.48c-0.24-4.66-0.57-9.32-0.87-13.98c-0.03-0.44-0.09-0.88-0.14-1.32
				c-2.25,2.83-4.22,5.73-6.17,8.65c-1.46,2.19-2.9,4.39-4.3,6.62c-0.24,0.38-0.38,0.91-0.34,1.34c0.11,1.27,0.39,2.53,0.48,3.8
				c0.2,2.98,0.32,5.96,0.49,8.95c0.26,4.5,0.55,9,0.82,13.51c0.15,2.47,0.43,4.94,0.38,7.4c-0.04,2.13-0.14,2.27,1.86,2.93
				c1.24,0.41,2.16,1.08,2.34,2.43c0.22,1.62,0.38,3.25,0.48,4.89c0.27,4.37,0.5,8.75,0.72,13.13c0.06,1.07,0.01,2.15,0.01,3.22
				c-0.15,0.01-0.3,0.02-0.45,0.03c-0.93-6.24-1.85-12.49-2.77-18.73c-0.14-0.02-0.27-0.03-0.41-0.05
				c-0.56,0.94-1.18,1.85-1.69,2.82c-0.32,0.63-0.69,0.79-1.13,0.58c-0.12-0.05-0.24-0.14-0.37-0.25c-1.95-1.65-3.9-3.29-5.8-5
				c-1.08-0.96-2.06-2.03-3.3-3.27c-0.1,3.97-1.34,7.49-0.79,11.14c0.13,0.8,0.24,1.62,0.4,2.41c0.12,0.6,0.26,1.19,0.47,1.75
				c1.76,4.88,3.64,9.72,5.47,14.57c0.08,0.21,0.11,0.43,0.16,0.64c-0.1,0.04-0.2,0.07-0.29,0.11c-1.77-4.61-3.67-9.16-5.24-13.83
				c-0.71-2.1-1.59-3.4-3.95-3.41c-0.93,0-1.86-0.32-3.01-0.53c0.65,1.03,1.18,1.78,1.62,2.58c3.61,6.67,7.23,13.34,10.78,20.03
				c0.45,0.85,0.56,1.89,0.82,2.84c-0.15,0.06-0.29,0.12-0.44,0.18c-0.57-0.73-1.2-1.43-1.72-2.2c-1.2-1.77-2.53-3.27-5.14-3.02
				c0,0.64,0.12,1.29-0.01,1.89c-0.64,2.92-0.73,3.36-3.53,3.14c-0.31-0.02-0.61-0.18-0.91-0.29c-0.98-0.39-1.97-0.79-3.04-1.22
				c-0.17,0.53-0.29,0.95-0.43,1.36c-0.57,1.57-1.05,3.19-1.73,4.71c-0.64,1.43-1.51,1.48-2.56,0.3c-0.55-0.63-0.99-1.36-1.57-1.96
				c-0.62-0.67-1.34-1.24-2.07-1.9c-0.62,1.13-1.08,2.01-1.59,2.87c-0.61,1.04-0.46,1.32,0.59,1.92c1.06,0.6,2.01,1.4,3.01,2.11
				c-0.08,0.15-0.15,0.3-0.22,0.46c-0.71-0.17-1.41-0.35-2.12-0.5c-2.17-0.46-4.33-1.14-6.53-1.31c-4.3-0.32-8.62-0.37-12.93-0.46
				c-0.93-0.02-1.53-0.27-1.84-1.15c-0.29-0.82-0.61-1.63-0.89-2.46c-1.06-3.22-2.23-6.41-3.13-9.67
				c-0.99-3.57-1.72-7.22-2.58-10.83c-0.11-0.44-0.34-0.85-0.46-1.16c-4.31,7.8-8.61,15.6-12.98,23.51l-1.4-0.77
				c2.65-4.87,5.25-9.77,7.9-14.64c0.64-1.19,1.45-2.3,2.08-3.49c1.28-2.44,2.48-4.91,3.77-7.35c0.27-0.53,0.75-0.96,1.13-1.43
				c0.38,0.44,0.94,0.81,1.1,1.31c0.61,1.98,1.09,4,1.62,6c1.65,6.17,3.31,12.33,4.94,18.5c0.18,0.67,0.54,0.84,1.2,0.84
				c3.5,0.03,7,0.11,10.5,0.2c0.6,0.02,1.21,0.08,1.78,0.26c1.42,0.45,2.39-0.14,3.17-1.23c0.81-1.14,1.61-2.29,2.34-3.47
				c0.54-0.87,1.21-1.07,1.98-0.44c0.76,0.62,1.45,1.34,2.13,2.05c0.49,0.51,0.92,1.08,1.55,1.83c0.68-1.87,1.28-3.53,1.88-5.19
				c0.06-0.15,0.09-0.31,0.14-0.46c0.82-2.33,1.11-2.41,3.27-1.27c1.2,0.63,2.47,1.1,3.84,1.7c0.12-0.83,0.25-1.6,0.33-2.37
				c0.21-2.27,0.33-2.4,2.53-2.45c0.15,0,0.31-0.04,0.57-0.09c-0.66-1.15-1.34-2.22-1.91-3.34c-2.29-4.47-4.66-8.91-6.73-13.48
				c-0.5-1.11-0.22-2.79,0.19-4.05c1.18-3.64,1.96-7.46,4.21-10.72c0.6-0.86,0.68-2.15,0.81-3.27c0.11-1.03,0.63-1.58,1.81-1.21
				c2.31,0.72,4.6,1.56,6.87,2.42c0.99,0.37,1.93,0.92,3.14,1.51c-0.14-1.7-0.3-3.22-0.39-4.74c-0.21-3.29-0.39-6.59-0.59-9.88
				c-0.26-4.26-0.52-8.51-0.82-12.77c-0.17-2.5-0.47-5-0.63-7.5c-0.09-1.42,0.29-2.66,1.19-3.88c1.4-1.91,2.46-4.07,3.79-6.03
				c2.14-3.17,4.34-6.3,6.61-9.38c0.56-0.76,1.35-1.47,2.2-1.85c0.56-0.25,1.55-0.08,2.08,0.29c0.83,0.57,1.48,1.43,2.14,2.23
				c3.18,3.83,6.34,7.68,9.51,11.53c0.42,0.51,0.81,1.04,1.4,1.81c0.189-1.07,0.35-1.87,0.47-2.68c0.35-2.24,0.689-4.49,1.01-6.74
				c0.3-2.13,0.54-4.27,0.88-6.4c0.36-2.23,0.721-4.46,1.24-6.65c0.17-0.69,0.78-1.33,1.33-1.83c6.21-5.71,13.64-9.89,19.76-15.72
				c0.351-0.34,0.7-0.49,1.04-0.49c0.53,0,1.04,0.37,1.48,1c1.229,1.77,2.83,3.31,3.84,5.18C197.97,7.74,198.879,8.94,199.87,10.07z
				 M140.96,89.47c0.67-1.41,1.22-2.58,1.79-3.77c-3.32-1.69-6.39-3.26-9.46-4.82c-0.11,0.15-0.22,0.31-0.33,0.47
				c1.36,1.29,2.75,2.55,4.06,3.88C138.31,86.54,139.54,87.93,140.96,89.47z M130.18,95.22c0.04-0.19,0.13-0.38,0.12-0.56
				c-0.17-2.08-0.02-4.16-0.77-6.21c-0.48-1.29-0.31-2.82-0.46-4.45c-0.17,0.26-0.27,0.37-0.33,0.5c-1.21,2.86-2.44,5.72-3.6,8.61
				c-0.08,0.2,0.27,0.79,0.53,0.87C127.13,94.44,128.63,94.81,130.18,95.22z"/>
			<path d="M195.78,121.63c0.15,0.35-0.03,0.85-0.07,1.29c-0.43-0.2-1.02-0.28-1.27-0.62c-0.99-1.34-1.87-2.76-2.88-4.28
				c-1.351,1.11-2.67,2.18-3.99,3.26c-0.12-0.12-0.25-0.24-0.38-0.36c0.38-0.55,0.72-1.14,1.16-1.65c0.93-1.09,1.91-2.15,2.89-3.19
				c0.86-0.92,1.66-0.81,2.2,0.33C194.25,118.14,195.049,119.87,195.78,121.63z"/>
			<path d="M194.56,68.85c0.12,0.09,0.229,0.18,0.35,0.27c-0.08,0.35-0.07,0.75-0.25,1.04c-1.89,3.03-3.81,6.05-5.729,9.06
				c-0.391,0.61-0.771,1.22-1.23,1.77c-0.4,0.48-0.66,1.26-1.59,0.92c-0.1-0.04-0.36,0.26-0.49,0.43c-0.39,0.52-0.76,1.06-1.13,1.59
				c-0.06-0.04-0.12-0.07-0.17-0.11c0.11-0.23,0.21-0.47,0.35-0.69c2.66-4.24,5.311-8.51,8.03-12.71
				C193.12,69.77,193.93,69.37,194.56,68.85z"/>
			<path d="M186.54,89.7c-1.24,1.16-2.47,2.32-3.71,3.48c-0.069-0.08-0.149-0.16-0.229-0.24c1.229-1.16,2.46-2.32,3.689-3.48
				C186.379,89.54,186.459,89.62,186.54,89.7z"/>
			<path d="M184.49,130.52c0.21,0.33,0.22,1.07,0,1.34c-0.229,0.28-0.9,0.34-1.33,0.27c-0.439-0.07-0.83-0.42-1.399-0.74
				c-0.351,0.75-0.601,1.37-0.921,1.96c-0.71,1.33-1.85,1.66-3.21,0.99c-1.779-0.87-3.59-1.72-5.43-2.61
				c-1.64,4.69-2.16,9.66-4.07,14.2c-0.149-0.01-0.31-0.02-0.46-0.029c0-1.341-0.199-2.721,0.03-4.011
				c0.73-3.93,1.63-7.82,2.44-11.729c0.22-1.06,0.569-1.6,1.779-1.05c1.721,0.78,3.511,1.42,5.25,2.17
				c0.551,0.24,1.051,0.63,1.57,0.95c0.33-0.55,0.68-1.08,0.99-1.64C181.049,128.26,183,128.2,184.49,130.52z"/>
			<path d="M184.44,35.88c0.01,0,0.02,0,0.03-0.01c0,0.01-0.011,0.02-0.011,0.03C184.45,35.89,184.44,35.88,184.44,35.88z"/>
			<path d="M184.459,35.9v0.01c-0.01,0.04-0.02,0.07-0.029,0.11c0.01-0.05,0.01-0.09,0.01-0.14
				C184.44,35.88,184.45,35.89,184.459,35.9z"/>
			<path d="M182.81,43.35c0.54-2.44,1.08-4.89,1.62-7.33c-0.03,0.65,0,1.31-0.131,1.94C183.919,39.78,183.459,41.58,182.81,43.35z"
				/>
			<path d="M178.9,114.67c-3.17,0.08-4.851-2.78-7.7-3.43c1.45,2.14,2.89,4.29,4.33,6.43c-0.09,0.08-0.19,0.16-0.28,0.23
				c-0.729-0.71-1.41-1.47-2.18-2.13c-0.9-0.77-1.96-1.36-2.79-2.18c-1.19-1.18-2.24-2.49-3.34-3.76c-0.29-0.35-0.521-0.74-0.9-1.28
				c-0.91,3.69-1.71,6.93-2.5,10.16c-0.14-0.02-0.29-0.04-0.43-0.06c-0.12-3.03,0.89-6.07,0.189-9.17
				c-3.13,4.57-6.68,8.71-10.689,12.49c0.09-0.67,0.42-1.19,0.69-1.75c0.65-1.35,1.1-2.84,1.93-4.07
				c2.479-3.67,5.109-7.22,7.63-10.85c0.61-0.87,1.29-1.04,2.16-0.63c1.46,0.69,2.95,1.36,4.35,2.18c1.65,0.97,3.23,2.06,4.8,3.15
				c0.46,0.32,0.771,0.4,1.13,0.06l0.9,1c-0.07,0.06-0.15,0.12-0.22,0.19C176.73,112.41,178.62,112.84,178.9,114.67z"/>
			<path d="M165.709,131.86c0.15,0.42,0.29,0.84,0.54,1.54c-0.52,1.73-1.029,3.63-1.7,5.47c-0.18,0.479-0.89,0.76-1.359,1.13
				c-0.25-0.63-0.84-1.36-0.69-1.86c0.61-2,1.42-3.93,2.23-5.859C164.83,132.04,165.37,132,165.709,131.86z"/>
			<path d="M160.14,133.96c0.159,0.29-0.181,0.85-0.28,1.28c-0.37-0.17-0.83-0.25-1.07-0.53c-0.66-0.77-1.229-1.62-1.89-2.51
				c-1.36,1.44-2.09,3.26-3.76,4.11c-0.17-0.13-0.34-0.26-0.51-0.39c1.1-2.04,2.17-4.09,3.3-6.11c0.42-0.74,1.11-0.71,1.56-0.07
				C158.44,131.1,159.33,132.51,160.14,133.96z"/>
			<path d="M156.01,156.36c0.09,0.87,0.16,1.76,0.06,2.62c-0.05,0.52-0.43,1.01-0.66,1.51c-0.31-0.42-0.62-0.83-0.91-1.26
				c-0.09-0.12-0.13-0.28-0.23-0.521c-1.04,0.87-1.98,1.64-2.92,2.41c-0.06-0.04-0.13-0.08-0.19-0.12c0.26-0.69,0.43-1.43,0.8-2.06
				c0.66-1.17,1.39-2.32,2.21-3.391c0.28-0.359,0.94-0.439,1.42-0.64C155.73,155.39,155.96,155.87,156.01,156.36z"/>
			<path d="M153.79,274.62l0.05,1.1c-0.05,0.011-0.1,0.011-0.15,0.011c-0.25,0-0.53-0.021-0.82-0.07c-1.23-0.18-1.91-0.96-2.15-2.37
				c-0.8-4.68-1.31-9.44-2.49-14.02c-1.24-4.851-3.09-9.551-4.75-14.29c-0.29-0.811-0.94-1.49-1.43-2.23
				c-0.17,0.03-0.34,0.06-0.52,0.09c-0.14,0.95-0.41,1.891-0.41,2.84c-0.01,7.03-1.03,13.931-2.55,20.761
				c-0.32,1.46-1,2.859-1.69,4.199c-0.24,0.471-0.96,0.86-1.52,0.96c-1.5,0.28-2.81-1.06-3.11-2.55
				c-0.75-3.779-1.67-7.52-2.5-11.279c-0.39-1.78-0.64-3.61-1.13-5.36c-0.7-2.521-1.64-4.96-2.34-7.48
				c-1.42-5.12-3.6-9.949-5.59-14.859c-1.39-3.42-3-6.721-5.03-9.761l1.06-0.689c0.19,0.3,0.38,0.59,0.58,0.89
				c4.14,6.29,7.23,13.141,9.89,20.17c2.26,5.99,3.53,12.261,4.78,18.521c0.66,3.31,1.19,6.649,1.87,9.97
				c0.08,0.42,0.69,0.75,1.06,1.12c0.23-0.33,0.6-0.62,0.68-0.98c0.41-1.909,0.85-3.819,1.12-5.75
				c0.65-4.699,1.24-9.409,1.78-14.119c0.34-2.98,0.57-5.96,0.79-8.95c0.05-0.74-0.02-1.521-0.2-2.24
				c-0.71-2.87-2.17-5.37-3.96-7.71c-0.49-0.64-0.73-1.47-1.09-2.21c0.12-0.08,0.25-0.16,0.37-0.24c0.34,0.3,0.74,0.561,1.02,0.9
				c1.11,1.37,2.28,2.7,3.23,4.16c1.93,2.97,3.97,5.909,5.55,9.069c2.17,4.351,3.98,8.88,4.92,13.71c0.95,4.86,2.02,9.7,3.06,14.54
				c0.25,1.19,0.52,2.391,0.95,3.521C153.29,274.41,153.54,274.62,153.79,274.62z"/>
			<path d="M153.01,73.54c0.27,7.31,0.54,14.62,0.81,21.94c-0.05,0-0.1,0-0.15,0c-0.08-1.1-0.19-2.21-0.22-3.31
				c-0.21-5.86-0.4-11.73-0.58-17.59C152.86,74.24,152.96,73.89,153.01,73.54z"/>
			<path d="M153.01,73.49c0,0.01,0.01,0.02,0.01,0.03l-0.01,0.01v-0.01C153.01,73.51,153.01,73.5,153.01,73.49z"/>
			<path d="M151.72,122.96c0.61,0.46,1.08,1.07,0.57,1.83c-0.51,0.76-1.13,0.3-1.66-0.06c-1.39-0.94-2.77-1.9-4.15-2.85
				c-0.28-0.2-0.58-0.37-0.87-0.56c-0.11,0.07-0.21,0.13-0.32,0.2c0.64,1.96,1.28,3.91,1.92,5.87c-0.16,0.07-0.33,0.13-0.5,0.2
				c-1.2-2.4-2.39-4.79-3.68-7.35c-0.25,0.3-0.5,0.56-0.71,0.85c-2.09,2.83-4.15,5.68-6.28,8.48c-0.31,0.41-0.9,0.6-1.37,0.89
				c0.14-0.56,0.15-1.19,0.42-1.67c1.11-1.97,2.21-3.95,3.47-5.83c0.29-0.43,0.58-0.85,0.89-1.27c0.91-1.26,1.89-2.47,2.88-3.66
				c0.61-0.73,2.38-0.45,3.42,0.36C147.74,119.92,149.74,121.43,151.72,122.96z"/>
			<path d="M145.1,144.09c0.05,0.101-0.04,0.28-0.08,0.51c-2.6-1.359-3.44-4.18-5.39-6.01c-1.74,1.62-3.38,3.141-5.02,4.66
				c-0.16-0.14-0.31-0.28-0.46-0.42c1.25-1.75,2.43-3.56,3.78-5.23c1.86-2.3,1.68-1.9,3.77,0.01
				C143.63,139.38,143.93,141.95,145.1,144.09z"/>
			<path d="M140.73,91.25c2.53,6.29,3.29,12.9,3.32,19.75c-1.15-6.46-2.28-12.78-3.45-19.36c-2.69,2.34-5.63,3.47-8.8,4.09
				C134.84,94.21,137.87,92.68,140.73,91.25z"/>
			<path d="M130.86,137.32c0.07,0.43-0.19,0.92-0.3,1.39c-0.39-0.17-0.8-0.29-1.15-0.51c-0.26-0.16-0.44-0.45-0.75-0.78
				c-1.03,0.88-2.09,2-3.29,0.94c-0.87-0.771-1.3-2.041-1.97-3.16c-1.56,0.98-2.36,2.95-4.21,3.49c-0.13-0.141-0.27-0.271-0.4-0.41
				c1.01-1.17,2.03-2.34,3.05-3.51c0.13-0.15,0.33-0.23,0.45-0.38c1.49-1.9,2.84-0.92,3.6,0.73c0.16,0.36,0.35,0.71,0.61,1.22
				c0.37-0.29,0.7-0.53,1.01-0.8c0.99-0.86,1.86-0.79,2.61,0.29C130.44,136.29,130.76,136.8,130.86,137.32z"/>
			<path d="M128.67,153.23c0.1,0.72-0.02,1.5-0.17,2.22c-0.06,0.26-0.5,0.609-0.75,0.6s-0.6-0.39-0.68-0.68
				c-0.31-1.061-0.52-2.14-0.79-3.311c-1.21,0.511-2.22,0.94-3.23,1.37c-0.06-0.12-0.13-0.229-0.19-0.34
				c0.09-0.149,0.14-0.35,0.27-0.45c1.14-0.859,2.28-1.72,3.43-2.56c0.9-0.67,1.17-0.53,1.39,0.53
				C128.13,151.5,128.55,152.34,128.67,153.23z"/>
			<path d="M116.72,219.62l-1.06,0.689c-0.93-1.38-1.95-2.71-3.07-3.979c-3.21-3.63-6.64-7.08-11.12-9.1
				c-1.52-0.69-3.41-0.9-5.11-0.811c-5.16,0.26-10.13,1.67-15.14,2.88c-5.76,1.4-11.64,2.311-17.45,3.53
				c-3.39,0.7-6.73,1.64-10.12,2.36c-1.67,0.359-3.39,0.569-5.1,0.659c-3.98,0.21-7.98,0.141-11.94,0.521
				c-2.09,0.2-4.05,0.09-6.03-0.4c-2.44-0.59-4.92-1.08-7.3-1.85c-1.41-0.46-2.71-1.311-3.99-2.1c-2.99-1.83-6.09-3.53-8.87-5.641
				c-2.75-2.09-5.39-4.39-7.23-7.42c-1.39-2.29-2.27-4.71-2.29-7.439c-0.02-2.641,1.34-4.461,3.22-6.061c1.02-0.88,2-1.81,3-2.7
				c1.08-0.95,2.19-1.85,3.23-2.83c3.13-2.939,6.33-5.819,9.31-8.909c2.97-3.061,5.56-6.45,7.81-10.101
				c1.51-2.439,3.32-4.71,4.67-7.229c1.97-3.67,4.93-6.28,8.25-8.591c3.2-2.22,6.44-4.369,9.63-6.6c0.42-0.3,0.7-0.84,0.94-1.33
				c2.14-4.26,4.15-8.6,6.4-12.81c2.61-4.87,5.43-9.64,8.17-14.44c0.21-0.37,0.49-0.7,0.93-1.01c0.46,6.62-0.41,13.18-0.46,19.91
				c1.7-0.33,3.02-1.2,4.09-2.44c0.57-0.66,1.05-1.41,1.46-2.18l1.4,0.77c-0.12,0.22-0.24,0.44-0.36,0.66
				c2.91,0.09,5.49,0.13,7.82-1.64c1.13-0.86,2.01-1.69,2.47-3.05c0.37-1.1,0.99-2.1,1.5-3.15c0.12,0.01,0.24,0.01,0.36,0.02
				c0.13,1.05-0.1,2.29,1.53,2.53c-0.91,0.98-1.64,1.77-2.36,2.55c0.08,0.09,0.16,0.17,0.24,0.26c0.78-0.04,1.56-0.08,2.34-0.11
				c-1.49,2.02-3.88,1.8-5.78,2.85c1.63,0.29,3.49-0.3,4.53,1.77c-0.38,0.16-0.77,0.44-1.19,0.48c-2.9,0.29-5.8,0.56-8.7,0.77
				c-3.78,0.27-7.28,1.46-10.53,3.33c-2.56,1.46-4.96,3.21-7.54,4.64c-3.91,2.17-7.82,4.33-11.33,7.11
				c-2.19,1.74-4.32,3.55-6.44,5.38c-1.22,1.06-2.57,2.07-3.49,3.37c-1.97,2.8-3.92,5.66-5.49,8.7
				c-3.22,6.239-8.02,11.069-13.23,15.59c-3.11,2.689-6.29,5.31-9.3,8.1c-1.33,1.24-2.48,2.74-3.46,4.28
				c-1.63,2.56-1.08,7.28,1.41,9.82c2.28,2.329,4.8,4.489,7.5,6.29c2.83,1.89,5.98,3.34,9.06,4.85c1.92,0.95,3.91,2.01,5.98,2.37
				c1.89,0.319,3.96-0.07,5.9-0.41c3.18-0.57,6.31-1.37,9.48-2.05c4.8-1.021,9.45-2.55,14.04-4.28c2.54-0.96,5.12-1.979,7.89-1.87
				c4.14,0.17,8.17-0.53,12.23-1.17c0.36-0.06,0.75-0.01,1.12-0.01c-0.26,0.41-0.56,0.67-0.91,0.76
				c-2.62,0.69-5.25,1.311-7.86,2.021c-1.44,0.39-2.89,0.43-4.13,1.739c-2.01,2.13-2.74,1.95-5.2,0.391
				c-0.51-0.32-1.39-0.37-1.99-0.181c-3.13,0.95-6.21,2.061-9.33,3.03c-1.83,0.57-3.71,0.95-5.54,1.49
				c-1.16,0.34-2.28,0.82-3.42,1.229c1.55,0.11,3.03-0.09,4.52-0.199c2.18-0.15,4.39-0.131,6.56-0.381
				c2.29-0.27,4.55-0.76,6.82-1.21c5.84-1.149,11.79-1.699,17.54-3.46c4.6-1.409,9.4-2.17,14.06-3.399
				c4.2-1.12,8.28-2.63,11.95-5.05c0.41-0.271,0.86-0.48,1.29-0.73c0.08,0.09,0.16,0.17,0.23,0.25c-0.25,0.32-0.44,0.69-0.75,0.94
				c-1.05,0.85-2.12,1.68-3.21,2.479c-0.74,0.54-0.69,0.811,0.17,1.17c1.24,0.54,2.55,1.061,3.59,1.891
				c2.24,1.77,4.34,3.729,6.5,5.6C112.77,213.69,114.77,216.65,116.72,219.62z M64.78,117.59c0.03-0.43-0.05-0.86-0.08-1.43
				c-3.55,2.81-10.03,14.5-10.92,19.68c2.96-1.7,5.71-3.35,8.55-4.88c1.2-0.64,1.56-1.41,1.61-2.79
				C64.07,124.64,64.49,121.12,64.78,117.59z M62.27,206.44c1.17,1.199,1.73,0.47,2.24-0.49C63.82,206.1,63.13,206.25,62.27,206.44z
				"/>
			<path d="M110.09,136.61c0.16,0.19,0.17,0.78,0.01,0.93c-0.25,0.23-0.72,0.36-1.06,0.3c-0.36-0.06-0.67-0.38-0.85-0.5
				c-0.79,0.38-1.36,0.65-1.93,0.91c-0.19-0.68-0.44-1.35-0.57-2.04c-0.07-0.37,0.02-0.8,0.14-1.17c0.33-1.09,1.11-1.42,2-0.71
				C108.66,134.99,109.39,135.8,110.09,136.61z"/>
			<path d="M75.14,156.4c3.93,2.239,3.61,7.58,1.89,10.399c-1.91,3.12-4.86,4.721-7.89,6.351c-3.14,1.689-6.28,0.93-9.39,0.029
				c-0.9-0.26-1.71-0.909-2.51-1.46c-0.62-0.43-0.85-1.01-0.41-1.76c0.48-0.84,1.13-0.6,1.76-0.34c0.69,0.28,1.35,0.61,1.95,0.9
				c-1.16-1.82-2.31-3.62-3.62-5.671c-0.04,0.801-0.07,1.36-0.11,1.931c-0.04,0.56,0,1.149-0.19,1.649
				c-0.13,0.33-0.57,0.67-0.92,0.73c-0.19,0.04-0.7-0.47-0.71-0.75c-0.04-1.45-0.26-2.98,0.1-4.351c0.77-2.96,2.15-5.619,4.68-7.579
				c1.55-1.2,3.35-1.551,5.15-2.08C68.71,153.29,72.02,154.62,75.14,156.4z M69.94,159.35c0.41-0.06,1.12-0.699,1.06-0.88
				c-0.17-0.5-0.66-0.899-1.03-1.34c-0.34,0.3-0.69,0.61-1.32,1.16C69.26,158.82,69.65,159.39,69.94,159.35z"/>
			<path fill="#9F8CE2" d="M64.7,116.16c0.03,0.57,0.11,1,0.08,1.43c-0.29,3.53-0.71,7.05-0.84,10.58
				c-0.05,1.38-0.41,2.15-1.61,2.79c-2.84,1.53-5.59,3.18-8.55,4.88C54.67,130.66,61.15,118.97,64.7,116.16z"/>
			<path d="M22.57,196.48c-0.35,0.3-0.43,0.439-0.52,0.449c-2,0.2-4,0.48-6.01,0.54c-0.49,0.011-1-0.67-1.5-1.04
				c0.5-0.279,0.98-0.75,1.51-0.81c1.33-0.13,2.69-0.19,4.02-0.061C20.87,195.63,21.63,196.12,22.57,196.48z"/>
		</g>
	</g>
</g>
</svg>
