<?xml version="1.0" encoding="utf-8"?>
<!-- Generator: Adobe Illustrator 16.0.0, SVG Export Plug-In . SVG Version: 6.00 Build 0)  -->
<!DOCTYPE svg PUBLIC "-//W3C//DTD SVG 1.1//EN" "http://www.w3.org/Graphics/SVG/1.1/DTD/svg11.dtd">
<svg version="1.1" id="Layer_1" xmlns="http://www.w3.org/2000/svg" xmlns:xlink="http://www.w3.org/1999/xlink" x="0px" y="0px"
	 width="309.682px" height="274.505px" viewBox="0 0 309.682 274.505" enable-background="new 0 0 309.682 274.505"
	 xml:space="preserve">
<g>
	<g id="XMLID_4_">
		<g>
			<path fill="#FFE971" d="M183.651,99.812l-1.261-1.43c0.98-0.851,1.95-1.71,2.931-2.561c0.149,0.051,0.27,0.061,0.359,0.12
				c2.17,1.311,2.181,1.33,4.23-0.3c1.93-1.55,3.83-3.13,5.74-4.69c0.12,0.061,0.229,0.12,0.35,0.181c-0.29,0.76-0.54,1.54-0.9,2.27
				c-0.47,0.92-1.39,1.67-0.789,2.94c0.109,0.229-0.33,0.72-0.641,1.33c0.46-0.09,0.76-0.08,0.98-0.21
				c3.069-1.71,5.75-3.86,7.8-6.771c0.6-0.85,1.26-1.67,1.96-2.46c0.229-0.26,0.46-0.51,0.7-0.77c0.319-0.351,1.1-0.74,1.359-0.59
				c0.69,0.399,1.24,1.069,1.771,1.689c0.09,0.1-0.18,0.58-0.37,0.8c-2.44,2.8-4.87,5.601-7.34,8.36
				c-2.25,2.54-4.55,5.03-6.811,7.56c-0.59,0.66-1.1,0.65-1.699,0.051c-1.271-1.28-2.54-2.54-3.83-3.79
				c-0.54-0.521-1.13-1.011-1.73-1.471C185.121,99.031,184.671,98.872,183.651,99.812z"/>
			<path fill="#FFE971" d="M207.171,69.852c0.84-1.78,1.73-3.54,2.601-5.3c0.09,0.02,0.17,0.05,0.26,0.08
				c-0.2,0.779-0.38,1.569-0.601,2.34c-0.319,1.11-0.659,2.21-1.02,3.31c-0.2,0.63-0.66,0.96-1.271,0.65
				C207.001,70.852,207.031,70.161,207.171,69.852z"/>
			<path fill="#FFE971" d="M197.071,59.252c2.84-1.07,5.63-2.261,8.45-3.4c0.199-0.08,0.42-0.12,0.75,0.021
				c-1.881,1.56-3.771,3.119-5.66,4.68c1.21,1.57,1.35,1.59,2.93,0.2c2.06-1.82,4.09-3.681,6.42-5.431
				c-0.06,0.36-0.06,0.75-0.189,1.08c-1.46,3.681-2.94,7.34-4.4,11.01c-0.38,0.961-0.64,1.98-1.05,2.931
				c-0.17,0.41-0.54,1-0.86,1.02c-0.5,0.05-1.14-0.189-1.52-0.529c-2.08-1.83-4.101-3.721-6.38-5.811
				c0.76-1.07,0.689-2.42,0.399-3.75C195.711,60.122,196.021,59.651,197.071,59.252z"/>
			<path fill="#FFE971" d="M193.921,68.832c-0.85,0.149-1.57,0.579-2.05,1.34c-2.66,4.2-5.3,8.42-7.94,12.63
				c-0.18,0.28-0.31,0.57-0.46,0.859c0.54-0.42,0.891-0.949,1.28-1.449c0.16-0.2,0.37-0.36,0.59-0.49c0.44-0.24,1-0.36,1.32-0.7
				c0.57-0.61,1-1.34,1.47-2.03c1.55-2.26,3.141-4.51,4.62-6.81c0.59-0.93,0.95-2,1.41-3
				C194.081,69.062,194.001,68.951,193.921,68.832z M182.011,92.991c1.221-1.159,2.45-2.319,3.681-3.479
				c-0.08-0.08-0.16-0.16-0.24-0.23c-1.23,1.15-2.46,2.311-3.69,3.471C181.841,92.832,181.931,92.911,182.011,92.991z
				 M126.731,95.552c2.35,0.01,3.229,1.31,3.939,3.41c1.57,4.66,3.47,9.22,5.24,13.819c0.09-0.04,0.189-0.069,0.29-0.1
				c-0.05-0.22-0.08-0.44-0.16-0.65c-1.83-4.85-3.71-9.68-5.479-14.56c-0.2-0.561-0.351-1.15-0.461-1.74l0.851-0.18
				c3.25-0.57,6.17-1.86,8.82-4.021c1.17,6.551,2.29,12.851,3.43,19.25c-0.01-6.819-0.79-13.409-3.32-19.71l0.08-0.38
				c0.44,0.21,0.811,0.04,1.13-0.58c0.51-0.97,1.13-1.89,1.69-2.83c0.14,0.021,0.27,0.04,0.399,0.051
				c0.931,6.25,1.86,12.489,2.78,18.739c0.15-0.01,0.3-0.02,0.45-0.029c0-1.08,0.04-2.16-0.01-3.23
				c-0.221-4.38-0.45-8.75-0.721-13.13c-0.1-1.64-0.26-3.271-0.479-4.89c-0.18-1.341-1.11-2.011-2.34-2.42
				c-2-0.66-1.9-0.811-1.86-2.94c0.05-2.46-0.229-4.93-0.38-7.4c-0.271-4.5-0.56-9.01-0.82-13.51c-0.17-2.979-0.29-5.97-0.489-8.95
				c-0.091-1.27-0.381-2.52-0.48-3.79c-0.04-0.439,0.1-0.97,0.34-1.34c1.4-2.229,2.84-4.439,4.3-6.63c1.95-2.91,3.92-5.81,6.17-8.65
				c0.051,0.45,0.11,0.891,0.141,1.33c0.3,4.66,0.63,9.32,0.87,13.98c0.399,7.82,0.75,15.65,1.109,23.47
				c0.07,1.521,0.051,3.04,0.101,4.561c0.01,0.14,0.06,0.279,0.12,0.42c0.06,0.13,0.13,0.26,0.18,0.39c0,0.01,0,0.03,0,0.04
				s0,0.03,0,0.04c-0.05,0.33-0.14,0.68-0.13,1.01c0.18,5.86,0.37,11.721,0.569,17.58c0.04,1.11,0.15,2.21,0.23,3.32
				c0.05,0,0.1,0,0.15-0.01c-0.271-7.301-0.54-14.601-0.82-21.9c0-0.02,0.01-0.03,0.01-0.05l0.01-0.01
				c-0.01-0.021-0.01-0.03-0.02-0.051c-0.11-2.449-0.26-4.899-0.34-7.35c-0.15-4.67-0.311-9.35-0.351-14.021
				c-0.01-1.109,0.67-2.22,0.71-3.35c0.11-3.82,0.07-7.66,0.12-11.49c0.021-1.34,0.15-2.68,0.24-4.22c0.41,0.29,0.67,0.44,0.89,0.63
				c3.73,3.32,7.471,6.61,11.16,9.97c0.4,0.37,0.66,1.091,0.66,1.65c0,2.47-0.08,4.94-0.189,7.41c-0.25,6.1-0.431,12.2-0.83,18.28
				c-0.301,4.58-0.891,9.13-1.351,13.699c-0.01,0.15,0,0.301,0.2,0.48c0.43-4.22,0.86-8.44,1.29-12.66
				c0.1,0.01,0.19,0.021,0.29,0.03c-0.59,6.83-1.18,13.66-1.78,20.479c0.04,0.011,0.07,0.011,0.11,0.011
				c0.22-1.641,0.439-3.28,0.66-4.921c0.06,0,0.13,0.011,0.199,0.021c-0.399,4.05-0.789,8.11-1.189,12.17
				c0.06,0.01,0.11,0.021,0.17,0.021c0.19-1.591,0.33-3.19,0.59-4.771c0.32-2.01,0.851-3.979,1.11-5.99
				c0.47-3.68,0.85-7.38,1.189-11.069c0.65-7.19,1.2-14.4,1.891-21.591c0.67-6.979,1.38-13.97,2.229-20.939
				c0.59-4.87,1.44-9.7,2.17-14.55c0.101-0.641,0.08-1.301,0.261-1.9c0.18-0.62,0.43-1.3,0.859-1.75c2.44-2.49,5.32-4.42,8.22-6.35
				c2.421-1.61,4.57-3.61,6.841-5.44c0.31-0.25,0.609-0.5,1.13-0.93c0,0.66,0.06,1.12-0.01,1.56c-0.54,3.54-0.99,7.101-1.69,10.61
				c-1.25,6.24-2.65,12.439-3.99,18.67c-0.01,0.01-0.02,0.01-0.03,0.01c0,0.05-0.01,0.09-0.01,0.141
				c-0.54,2.439-1.08,4.89-1.62,7.329c0.65-1.76,1.11-3.56,1.49-5.38c0.13-0.64,0.101-1.3,0.13-1.949
				c0.01-0.04,0.021-0.07,0.03-0.11c0-0.01,0.01-0.03,0.01-0.04c0.19-0.03,0.38-0.07,0.63-0.12c0,1.57,0,3.13,0,4.69
				c0.15,0.02,0.29,0.029,0.431,0.05c2.279-5.601,3.54-11.5,4.59-17.42c1.06-5.92,1.81-11.91,2.71-17.971
				c0.21,0.15,0.43,0.271,0.6,0.44c1.74,1.76,3.48,3.51,5.181,5.31c0.46,0.48,1.02,1.051,1.119,1.65c0.32,2.03,1.62,3.44,2.811,4.93
				c2.54,3.181,5.11,6.33,7.649,9.521c0.16,0.21,0.23,0.67,0.11,0.91c-1.18,2.47-2.31,4.979-3.66,7.359
				c-2.38,4.181-4.899,8.28-7.38,12.4c-3.1,5.16-6.28,10.27-9.31,15.47c-1.86,3.2-3.49,6.53-5.21,9.82
				c-1.511,2.89-3,5.8-4.511,8.689c-0.55,1.051-1.13,2.091-1.68,3.141c-0.17,0.33-0.28,0.7-0.29,1.09c2.22-3.28,4.57-6.47,6.61-9.85
				c2.319-3.82,4.3-7.851,6.59-11.69c0.69-1.15,1.95-1.95,3.04-3.01c0.49,1.609,0.93,3.05,1.37,4.5c0.189-0.17,0.359-0.351,0.5-0.53
				c0.109,1.32,0.359,2.2,1.21,2.82c1.57,1.149,3.14,2.29,4.71,3.45c0.47,0.35,0.89,0.77,1.51,1.3
				c-0.24,0.22-0.49,0.439-0.729,0.649c-1.67,1.511-3.301,2.92-4.851,4.4c-2.62,2.52-5.17,5.09-7.72,7.68
				c-0.17,0.181-0.061,0.65-0.08,0.98c0.4,0.01,0.92,0.189,1.18,0c1.16-0.83,2.36-1.67,3.351-2.69c2.2-2.27,4.3-4.63,6.38-7
				c0.56-0.64,0.87-1.479,1.34-2.2c0.22-0.319,0.46-0.59,0.72-0.81c1.141-0.96,2.65-1.07,4.11-1.25c0.43-0.06,0.87-0.01,1.51-0.01
				c-0.28,0.35-0.43,0.609-0.64,0.8c-3.351,3.01-6.72,5.99-10.05,9.02c-3.49,3.181-6.95,6.4-10.41,9.62
				c-1.931,1.79-3.891,3.561-5.721,5.45c-1.569,1.61-2.989,3.36-4.39,5.25c0.61-0.35,1.3-0.6,1.83-1.05
				c1.21-1.021,2.41-2.05,3.6-3.09l1.261,1.43c-0.15,0.14-0.32,0.3-0.5,0.49c-2.311,2.42-4.511,4.939-6.761,7.42
				c-0.329,0.36-0.649,0.71-0.979,1.06c-0.19,0.2-0.35,0.37-0.49,0.521c-0.97,0.979-1.13,0.78-2.689-0.19
				c-2.08-1.31-4.28-2.43-6.41-3.64c-0.53-0.29-0.99-0.68-1.53-0.94c-0.88-0.42-1.62-0.35-2.26,0.58
				c-2.521,3.63-5.16,7.181-7.63,10.851c-0.83,1.229-1.29,2.72-1.94,4.069c-0.26,0.561-0.6,1.08-0.689,1.75l-0.9,1.03
				c-1.92-1.59-3.96-3.06-5.94-4.59c-1.04-0.811-2.819-1.12-3.42-0.39c-1,1.189-1.979,2.399-2.899,3.659l-2.13-0.84
				c0.149-0.06,0.3-0.13,0.449-0.189c-0.26-0.95-0.369-1.98-0.819-2.83c-3.55-6.7-7.17-13.37-10.78-20.04
				c-0.44-0.8-0.97-1.54-1.62-2.58C124.861,95.231,125.791,95.552,126.731,95.552z"/>
			<path fill="#FFE971" d="M132.421,80.852c1.62,0.67,3.29,1.25,4.84,2.04c1.5,0.77,2.87,1.76,4.53,2.8
				c-0.44,0.97-0.99,2.16-1.66,3.61c-1.43-1.55-2.66-2.94-3.95-4.26c-1.3-1.341-2.67-2.62-4-3.931
				C132.261,81.021,132.341,80.941,132.421,80.852z"/>
			<path fill="#FFE971" d="M130.101,95.731c-0.17-0.8-0.279-1.63-0.399-2.43c-0.561-3.65,0.689-7.17,0.79-11.141
				c1.24,1.24,2.22,2.311,3.3,3.28c1.9,1.7,3.85,3.351,5.8,5c0.13,0.11,0.25,0.19,0.37,0.25l-0.08,0.38
				c-2.84,1.431-5.89,2.95-8.93,4.48L130.101,95.731z"/>
			<path fill="#FFE971" d="M129.341,95.042c-1.54-0.41-3.04-0.78-4.51-1.24c-0.25-0.09-0.61-0.67-0.54-0.87
				c1.17-2.89,2.39-5.74,3.61-8.61c0.05-0.13,0.16-0.239,0.34-0.489c0.13,1.609-0.03,3.13,0.439,4.43c0.75,2.05,0.61,4.13,0.78,6.2
				C129.471,94.651,129.381,94.842,129.341,95.042z"/>
			<path fill="#D6CFF3" d="M195.321,136.771c0.33-0.24,0.939-0.52,1.189-0.38c0.86,0.49,1.84,1.02,2.311,1.81
				c0.26,0.44-0.431,1.421-0.641,2.181c-0.08,0.26-0.01,0.569-0.01,0.859c0.28-0.069,0.66-0.06,0.83-0.239
				c0.85-0.94,1.66-1.92,2.45-2.92c0.439-0.551,0.8-1.15,1.17-1.69c2.66,1.71,4.18,4.42,6.54,6.2c0.1-0.101,0.21-0.19,0.32-0.29
				c-0.551-1.13-1.021-2.3-1.66-3.38c-0.66-1.13-1.471-2.181-2.24-3.24c-0.45-0.61-1.08-1.11-1.41-1.76
				c-0.55-1.11-0.83-1.24-1.649-0.29c-0.75,0.859-1.41,1.81-2.131,2.76c-1.13-1.18-2.229-2.34-3.529-3.69
				c-2.511,1.7-4.141,4.471-6,7.07c0.39-0.01,0.739-0.09,0.989-0.28C193.021,138.602,194.141,137.651,195.321,136.771z
				 M190.721,117.842c1.011,1.51,1.891,2.939,2.88,4.28c0.24,0.329,0.841,0.409,1.271,0.609c0.04-0.43,0.22-0.93,0.07-1.29
				c-0.73-1.76-1.53-3.49-2.341-5.21c-0.539-1.14-1.34-1.26-2.199-0.34c-0.99,1.05-1.96,2.11-2.891,3.2
				c-0.439,0.5-0.779,1.09-1.16,1.64c0.131,0.12,0.25,0.24,0.381,0.36C188.051,120.021,189.371,118.941,190.721,117.842z
				 M167.281,145.752c1.95-4.54,2.399-9.54,4.09-14.19c1.86,0.88,3.63,1.71,5.38,2.58c1.42,0.7,2.55,0.37,3.28-1.04
				c0.31-0.59,0.569-1.2,0.87-1.87c0.359,0.19,0.609,0.311,0.85,0.44c0.25,0.13,0.48,0.29,0.74,0.38c0.78,0.27,1.59-0.38,1.47-1.17
				c-0.1-0.74-1.64-2.08-2.63-2.24c-1.06-0.16-1.73,0.43-2.21,1.29c-0.32,0.6-0.6,1.229-1.01,1.76c-0.15,0.21-0.78,0.36-0.891,0.24
				c-1.68-1.74-3.85-2.44-6.1-2.98c-1.47-0.35-1.51-0.359-1.83,1.101c-0.83,3.859-1.7,7.72-2.42,11.609
				c-0.24,1.301-0.03,2.69-0.03,4.04C166.981,145.722,167.131,145.731,167.281,145.752z M156.062,132.012
				c0.659,0.89,1.229,1.74,1.89,2.51c0.24,0.28,0.7,0.37,1.07,0.54c0.1-0.439,0.439-1,0.279-1.28c-0.779-1.43-1.63-2.819-2.56-4.149
				c-0.59-0.83-1.29-0.66-1.8,0.18c-0.67,1.08-1.36,2.16-1.931,3.3c-0.43,0.891-0.689,1.87-1.02,2.811c0.1,0.069,0.2,0.13,0.31,0.2
				C153.971,135.271,154.701,133.451,156.062,132.012z M150.101,160.661c0.141,0.091,0.271,0.181,0.41,0.271
				c0.96-0.79,1.92-1.57,2.931-2.4c0.1,0.25,0.14,0.41,0.22,0.53c0.3,0.42,0.61,0.83,0.92,1.24c0.23-0.5,0.6-1,0.66-1.521
				c0.09-0.859,0.01-1.75-0.07-2.62c-0.04-0.47-0.21-0.93-0.33-1.399c-0.49,0.17-1.2,0.189-1.43,0.53
				C152.231,157.031,151.191,158.861,150.101,160.661z M133.791,143.062c1.64-1.53,3.28-3.06,4.99-4.65
				c1.939,1.78,2.79,4.601,5.62,5.801c-0.79-1.78-1.471-3.61-2.4-5.311c-0.5-0.91-1.47-1.56-2.13-2.399
				c-0.75-0.95-1.43-0.761-2.05,0.029c-1.17,1.5-2.311,3.04-3.431,4.591c-0.359,0.51-0.64,1.09-0.949,1.64
				C133.551,142.861,133.671,142.962,133.791,143.062z M122.211,153.252c1.03-0.44,2.061-0.88,3.21-1.37
				c0.141,0.55,0.26,1.04,0.37,1.529c0.13,0.54,0.2,1.11,0.4,1.62c0.13,0.33,0.449,0.591,0.68,0.88c0.3-0.279,0.77-0.51,0.85-0.829
				c0.17-0.641,0.23-1.351,0.12-2c-0.14-0.851-0.55-1.65-0.729-2.5c-0.271-1.301-0.46-1.381-1.55-0.561
				c-1.07,0.82-2.16,1.601-3.24,2.41c-0.13,0.11-0.21,0.29-0.311,0.43C122.081,152.991,122.151,153.122,122.211,153.252z
				 M118.321,138.462c1.899-0.44,2.66-2.45,4.3-3.5c0.25,0.479,0.5,0.88,0.66,1.3c0.95,2.62,2.52,3.03,4.33,1.16
				c0.04-0.05,0.149-0.04,0.35-0.09c0.16,0.189,0.33,0.479,0.58,0.649c0.34,0.23,0.75,0.38,1.14,0.57
				c0.11-0.5,0.381-1.01,0.311-1.48c-0.09-0.52-0.43-1.02-0.75-1.47c-0.74-1.03-1.58-1.1-2.53-0.28
				c-0.32,0.271-0.64,0.53-1.04,0.851c-0.3-0.59-0.53-1.05-0.76-1.511c-0.89-1.67-2.18-2.05-3.24-0.64
				c-0.18,0.24-0.52,0.37-0.729,0.61c-1,1.14-1.99,2.3-2.98,3.46C118.081,138.212,118.201,138.342,118.321,138.462z
				 M108.191,137.651c0.34,0.061,0.79-0.069,1.069-0.279c0.15-0.12,0.2-0.69,0.061-0.841c-0.8-0.88-1.59-1.8-2.53-2.5
				c-0.729-0.54-1.51-0.25-1.75,0.7c-0.16,0.65-0.24,1.34-0.19,2c0.04,0.46,0.37,0.891,0.561,1.34c0.43-0.22,0.87-0.42,1.28-0.67
				c0.12-0.069,0.17-0.26,0.3-0.46C107.521,137.271,107.831,137.592,108.191,137.651z M219.151,122.031
				c1.739,1.511,3.54,2.971,5.22,4.551c1.13,1.06,2.07,2.31,3.16,3.42c0.21,0.22,0.7,0.159,1.06,0.239c0-0.33,0.101-0.71-0.02-0.97
				c-0.28-0.57-0.65-1.1-1.021-1.61c-1.069-1.43-2.26-2.789-3.21-4.289c-1.029-1.62-2.109-2.98-4.04-3.66
				c-1.14-0.41-1.97-0.38-2.83,0.39c-1.359,1.22-2.72,2.45-4.05,3.7c-0.38,0.37-0.67,0.83-1,1.25c0.07,0.09,0.15,0.189,0.22,0.29
				c0.421-0.22,0.851-0.431,1.271-0.66c0.76-0.41,1.5-0.85,2.27-1.25c0.66-0.34,1.37-0.59,2.011-0.95
				c0.46-0.27,0.85-0.649,1.279-0.979C219.361,121.682,219.251,121.861,219.151,122.031z M76.221,166.552
				c1.681-2.79,2-8.05-1.88-10.311c-3.12-1.81-6.42-3.08-10.22-2.06c-2.271,0.61-4.53,1.15-6.12,2.979
				c-1.06,1.221-2.07,2.551-2.79,3.99c-0.93,1.88-1.62,3.91-1.27,6.09c0.12,0.71-0.051,1.761,1,1.75c1.01,0,0.97-1,1.01-1.75
				c0.04-0.77,0.01-1.55,0.01-2.33c0.09,0,0.18-0.01,0.271-0.02c1.149,1.81,2.31,3.61,3.489,5.46c-0.699-0.33-1.399-0.78-2.149-0.95
				c-0.471-0.109-1.181,0.05-1.521,0.37c-0.55,0.51-0.38,1.22,0.23,1.65c0.819,0.58,1.649,1.279,2.59,1.56
				c3.14,0.93,6.31,1.67,9.5-0.05C71.401,171.302,74.341,169.682,76.221,166.552z M93.991,126.542c4.31,0.09,8.63,0.149,12.93,0.47
				c2.2,0.16,4.36,0.85,6.54,1.31c0.7,0.15,1.41,0.33,2.11,0.49c0.069-0.15,0.14-0.31,0.22-0.46c-1-0.71-1.96-1.5-3.02-2.11
				c-1.04-0.59-1.19-0.869-0.57-1.92c0.5-0.859,0.96-1.739,1.62-2.93c0.96,0.98,1.85,1.87,2.72,2.8c0.4,0.431,0.7,0.98,1.13,1.38
				c0.91,0.86,1.69,0.78,2.2-0.35c0.71-1.59,1.24-3.28,1.84-4.92c0.14-0.41,0.26-0.83,0.43-1.351c1.07,0.431,2.061,0.83,3.051,1.21
				c0.29,0.12,0.6,0.271,0.899,0.301c2.8,0.22,2.891-0.23,3.53-3.15c0.13-0.6,0.01-1.25,0.01-1.87c2.57-0.29,3.88,1.2,5.08,2.9
				c0.561,0.79,1.18,1.54,1.771,2.31l2.13,0.84c-0.3,0.42-0.601,0.841-0.891,1.271c-1.229,1.84-2.3,3.79-3.38,5.729
				c-0.29,0.53-0.35,1.181-0.52,1.771c0.51-0.34,1.16-0.59,1.51-1.05c2.11-2.771,4.14-5.59,6.2-8.391c0.2-0.26,0.42-0.5,0.66-0.77
				c1.279,2.55,2.479,4.95,3.68,7.35c0.17-0.06,0.33-0.13,0.5-0.189c-0.64-1.96-1.28-3.91-1.91-5.87c0.09-0.07,0.19-0.141,0.29-0.21
				c0.29,0.18,0.59,0.359,0.87,0.55c1.39,0.95,2.76,1.92,4.15,2.86c0.569,0.39,1.329,0.859,1.689-0.03
				c0.18-0.43-0.17-1.351-0.59-1.7l0.9-1.03c4.01-3.77,7.55-7.909,10.68-12.479c0.729,3.09-0.33,6.13-0.16,9.16
				c0.13,0.02,0.271,0.05,0.41,0.069c0.79-3.239,1.59-6.47,2.5-10.17c0.38,0.54,0.61,0.94,0.899,1.28
				c1.091,1.27,2.15,2.58,3.33,3.76c0.841,0.82,1.9,1.41,2.79,2.181c0.78,0.659,1.46,1.42,2.181,2.13c0.1-0.07,0.189-0.15,0.29-0.23
				c-1.44-2.14-2.891-4.28-4.33-6.42c2.84,0.65,4.529,3.5,7.7,3.42c-0.28-1.82-2.16-2.25-2.921-3.42c0.25-0.22,0.5-0.45,0.75-0.68
				c2.891-2.59,5.761-5.17,8.75-7.86c0.58,0.58,1.261,1.23,1.9,1.9c0.97,1.01,1.64,2.279,3.33,2.51c0.75,0.1,1.34,1.18,2.05,1.75
				c0.641,0.52,1.36,0.93,2.021,1.42c0.56,0.43,1.38,0.82,1.58,1.4c0.51,1.47,1.229,0.77,1.85,0.3c0.979-0.75,1.88-1.62,2.81-2.44
				c0.23-0.2,0.46-0.41,0.74-0.649c0.65,0.739,0.83,1.319-0.07,1.979c-0.529,0.391-0.96,0.95-1.38,1.48
				c-0.149,0.189-0.26,0.62-0.159,0.75c0.159,0.21,0.579,0.42,0.789,0.35c0.7-0.26,1.4-0.57,2-1.01c0.74-0.53,1.41-1.18,2.061-1.83
				c0.66-0.67,1.26-0.64,2.01-0.14c1.82,1.229,3.67,2.42,5.53,3.6c0.32,0.21,0.75,0.44,1.09,0.4c0.37-0.051,0.79-0.351,1.01-0.66
				c0.101-0.15-0.14-0.7-0.359-0.87c-2.431-1.8-4.87-3.601-7.37-5.29c-0.471-0.32-1.24-0.2-2.101-0.3c-0.01-0.03-0.18-0.3-0.25-0.59
				c-0.42-1.681-1.739-2.19-3-1.011c-1.17,1.11-2.159,2.41-3.22,3.641c-0.22,0.26-0.4,0.55-0.65,0.899
				c-0.689-0.779-1.31-1.43-1.859-2.14c-0.141-0.19-0.15-0.72-0.01-0.84c0.739-0.641,1.18-1.49,2.47-1.61
				c1.149-0.12,2.28-1.06,3.32-1.77c2.279-1.551,4.479-3.21,6.739-4.79c1.721-1.19,1.86-1.15,3.311,0.34
				c0.529,0.55,1.1,1.06,1.56,1.66c0.98,1.26,1.9,2.56,2.88,3.89c-0.54,0.57-1.08,1.1-1.55,1.68c-0.2,0.25-0.229,0.63-0.33,0.95
				c0.37,0.04,0.84,0.24,1.08,0.08c1.2-0.77,2.351-1.64,3.5-2.49c0.311-0.229,0.59-0.51,0.98-0.84c0.38,1.58,0.699,3.021,1.09,4.45
				c0.47,1.71,0.93,3.44,1.54,5.11c0.529,1.449,1.38,1.619,2.569,0.649c1.421-1.16,2.801-2.359,4.311-3.63
				c1.39,1.6,2.68,3.21,4.12,4.68c0.76,0.771,1.76,1.301,2.67,1.91c0.13,0.09,0.53,0.04,0.54,0c0.069-0.35,0.08-0.71,0.109-1.149
				c0.761,0.3,1.521,0.689,2.33,0.899c3.63,0.95,7.311,1.721,10.9,2.811c4.08,1.26,7.979,3.08,11.45,5.56
				c2.939,2.09,6.06,4.03,8.279,7.01c0.211,0.29,0.57,0.471,0.86,0.71c0.08-0.069,0.17-0.13,0.26-0.199
				c-0.159-0.391-0.33-0.78-0.6-1.431c0.5,0.271,0.81,0.4,1.08,0.59c3.13,2.29,6.34,4.46,9.34,6.9
				c6.07,4.93,12.36,9.63,17.05,16.021c1.311,1.789,2.46,3.71,3.521,5.67c2.13,3.909,4.13,7.88,6.18,11.84
				c0.05,0.08,0.021,0.21,0.03,0.529c-0.73-0.34-1.38-0.579-1.98-0.92c-4.8-2.71-9.6-5.42-14.37-8.18
				c-0.93-0.53-1.88-1.15-2.58-1.93c-1.079-1.21-1.939-2.601-2.909-3.91c-1.561-2.09-2.471-4.51-3.511-6.87
				c-1-2.3-2.29-4.47-3.46-6.7c-0.08-0.149-0.239-0.27-0.62-0.29c0.101,0.33,0.181,0.681,0.301,1.011
				c1.239,3.369,2.859,6.649,3.63,10.119c1.02,4.61,1.71,9.351,1.939,14.061c0.25,5.189-0.08,10.42-0.38,15.62
				c-0.149,2.689-0.81,5.359-1.22,8.029c-0.47,3.101-0.771,6.221-1.42,9.271c-0.65,3.04-1.61,6.01-2.521,8.979
				c-1.14,3.74-2.279,7.48-3.59,11.16c-0.99,2.78-2.17,5.49-3.38,8.181c-1.93,4.3-3.8,8.63-5.979,12.8
				c-2.36,4.53-5.04,8.89-8.33,12.85c-1.931,2.33-3.67,4.811-5.53,7.2c-0.59,0.74-1.271,1.42-1.97,2.06
				c-0.21,0.19-0.721,0.29-0.92,0.16c-0.45-0.29-1.061-0.71-1.131-1.149c-0.29-1.771-0.3-3.58-0.579-5.36
				c-0.9-5.71-1.671-11.44-2.86-17.09c-0.97-4.59-2.28-9.14-4.48-13.34c-0.55-1.05-1.359-1.96-1.909-3.011
				c-0.4-0.77-0.771-1.56-1.131-2.35c-0.359-0.8-0.699-1.6-1.04-2.4c-0.329-0.76-0.35-1.689-0.81-2.34
				c-1.78-2.489-3.68-4.899-5.4-7.16c0.181-0.489,0.221-1.09,0.54-1.34c0.601-0.489,1.341-0.85,2.07-1.14
				c3.72-1.46,7.11-3.48,10.31-5.89c1.82-1.37,3.08-3.221,4.69-4.73c1.54-1.43,2.87-2.93,3.72-4.82c1.16-2.58,2.5-5.13,3.29-7.83
				c0.62-2.14,0.54-4.489,0.75-6.739c0.101-1.07,0.15-2.13,0.23-3.34c-1.88,1.88-2.05,4.31-2.811,6.479
				c-0.55,1.58-0.89,3.23-1.51,4.78c-0.399,1-1.13,1.87-1.7,2.81c-2.01,3.25-3.89,6.59-6.08,9.721c-1.97,2.819-4.88,4.359-8.3,4.909
				c-0.46,0.07-0.899,0.311-1.34,0.5c-0.89,0.391-1.79,0.79-2.67,1.2c-0.31,0.141-0.85,0.36-0.85,0.53
				c0.06,1.14-0.87,1.18-1.551,1.45c-1.77,0.68-3.52,1.439-5.35,1.93c-2.4,0.66-4.86,1.16-7.32,1.61c-2.649,0.489-5.33,0.89-8,1.25
				c-4.37,0.58-8.76,1.01-13.109,1.68c-4.351,0.68-8.681,1.54-13,2.38c-1.58,0.311-3.2,0.64-4.67,1.271
				c-1.431,0.609-2.83,1.46-4.021,2.46c-1.71,1.449-3.61,2.77-4.57,4.939c-0.8,1.811-1.689,3.58-2.439,5.41
				c-1.101,2.68-2.12,5.39-3.13,8.1c-0.54,1.46-1.011,2.94-1.44,4.431c-1.6,5.55-3.149,11.12-4.76,16.67
				c-0.71,2.439-1.5,4.859-2.3,7.28c-0.53,1.579-1.11,3.14-1.74,4.68c-0.12,0.29-0.61,0.63-0.88,0.6c-0.26-0.029-0.59-0.5-0.66-0.83
				c-0.51-2.66-0.83-5.37-1.48-8c-1.159-4.68-2.539-9.3-3.779-13.96c-0.92-3.45-2.28-6.72-4.08-9.8c-0.45-0.78-1.05-1.47-1.84-2.08
				c0.319,0.78,0.55,1.61,0.97,2.32c2.42,4.08,2.5,8.55,2.47,13.109c-0.02,3.08-0.38,6.061-1.06,8.971
				c-0.67,2.91-1.66,5.74-2.94,8.51c-0.34,0.76-0.859,1.43-1.3,2.15c-0.13-0.03-0.26-0.07-0.39-0.101
				c-0.17-0.51-0.36-1.01-0.48-1.53c-1.22-5.359-2.14-10.81-3.729-16.05c-1.74-5.71-4.221-11.189-6.12-16.859
				c-0.471-1.4-0.521-2.98-1.271-4.32c-1.31-2.33-2.64-4.65-4.06-6.91c-2.58-4.13-5.19-8.24-7.86-12.3
				c-0.74-1.12-1.68-2.15-2.67-3.061c-2.46-2.27-4.93-4.52-7.52-6.619c-1.03-0.841-2.38-1.28-3.57-1.91
				c-0.24-0.12-0.45-0.28-0.68-0.41c0.17-0.25,0.3-0.55,0.52-0.72c1.021-0.83,2.09-1.601,3.11-2.42c0.319-0.261,0.56-0.62,0.84-0.94
				c-0.061-0.09-0.12-0.19-0.18-0.28c-0.46,0.23-0.94,0.42-1.36,0.69c-3.67,2.42-7.75,3.93-11.95,5.04c-4.66,1.24-9.46,2-14.06,3.41
				c-5.75,1.76-11.7,2.31-17.54,3.46c-2.26,0.449-4.53,0.91-6.82,1.199c-1.729,0.221-3.5,0.131-5.25,0.261
				c-1.9,0.149-3.8,0.39-5.81,0.38c0.35-0.16,0.68-0.36,1.04-0.47c2.64-0.771,5.29-1.49,7.909-2.311c3.12-0.97,6.21-2.08,9.33-3.03
				c0.601-0.18,1.48-0.14,1.99,0.19c2.45,1.56,3.2,1.74,5.2-0.4c1.24-1.319,2.7-1.34,4.14-1.729c2.601-0.72,5.24-1.34,7.86-2.021
				c0.34-0.1,0.65-0.359,0.9-0.77c-0.381,0-0.771-0.05-1.131,0.01c-4.05,0.66-8.09,1.34-12.229,1.18
				c-2.771-0.109-5.34,0.9-7.89,1.86c-4.591,1.74-9.24,3.271-14.04,4.29c-3.16,0.67-6.311,1.43-9.48,2.06
				c-1.59,0.311-3.31,0.801-4.83,0.49c-2.38-0.479-4.72-1.399-6.93-2.439c-3.141-1.46-6.311-2.971-9.181-4.88
				c-2.699-1.801-5.22-3.96-7.489-6.29c-2.49-2.54-3.04-7.261-1.41-9.82c0.979-1.54,2.13-3.04,3.46-4.28c3.02-2.79,6.2-5.41,9.3-8.1
				c5.21-4.521,10.01-9.351,13.23-15.59c1.569-3.04,3.52-5.91,5.5-8.7c0.939-1.33,2.319-2.37,3.58-3.45
				c2.079-1.8,4.18-3.59,6.34-5.29c3.52-2.79,7.43-4.95,11.33-7.12c2.58-1.43,4.979-3.18,7.55-4.64c3.25-1.86,6.74-3.05,10.52-3.32
				c2.91-0.21,5.811-0.49,8.71-0.77c0.391-0.04,0.771-0.28,1.16-0.431c-0.93-2.229-2.91-1.43-4.5-1.87
				c1.891-1.02,4.29-0.77,5.76-2.81c-0.77,0.04-1.55,0.08-2.329,0.11c-0.08-0.08-0.16-0.17-0.24-0.261
				c0.72-0.779,1.45-1.56,2.359-2.55c-1.64-0.229-1.39-1.49-1.54-2.529c-0.119,0-0.25-0.011-0.369-0.021
				c-0.521,1.09-1.091,2.15-1.521,3.271c-0.42,1.119-1.06,1.949-2.03,2.689c-2.409,1.83-5.1,2.15-8.189,1.82
				c4.46-8.08,8.88-16.09,13.31-24.11c0.12,0.311,0.351,0.73,0.46,1.17c0.86,3.61,1.59,7.26,2.58,10.83
				c0.9,3.26,2.07,6.45,3.141,9.67c0.27,0.83,0.59,1.641,0.88,2.46C92.461,126.292,93.062,126.521,93.991,126.542z M165.451,133.191
				c-0.28-0.67-0.47-1.1-0.65-1.54c-0.31,0.13-0.8,0.19-0.89,0.41c-0.811,2.01-1.62,4.021-2.26,6.09
				c-0.141,0.44,0.42,1.101,0.66,1.65c0.46-0.32,1.159-0.54,1.319-0.97C164.331,136.951,164.871,135.021,165.451,133.191z
				 M21.301,196.691c0.05,0,0.101-0.109,0.351-0.42c-0.86-0.33-1.61-0.82-2.4-0.899c-1.37-0.12-2.77-0.061-4.14,0.069
				c-0.49,0.05-0.94,0.51-1.41,0.79c0.46,0.36,0.93,1.05,1.37,1.03C17.151,197.182,19.221,196.911,21.301,196.691z"/>
			<path fill="#9F8CE2" d="M63.861,115.872c0,1.31,0.069,2.359-0.021,3.399c-0.229,2.93-0.66,5.86-0.74,8.79
				c-0.039,1.34-0.409,2.07-1.579,2.69c-2.69,1.449-5.32,3.029-7.971,4.56c-0.16,0.09-0.34,0.13-0.7,0.271
				C55.421,128.361,58.301,121.542,63.861,115.872z"/>
			<path fill="#9F8CE2" d="M228.401,214.212c2.189,2.83,4.55,5.56,6,8.88c0.13,0.29,0.25,0.58,0.38,0.859
				c1.24,2.851,2.46,5.721,3.46,8.65c1.29,3.78,2.5,7.62,3.32,11.53c0.439,2.12,0.13,4.439-0.08,6.649
				c-0.271,2.761-0.66,5.53-1.24,8.24c-0.15,0.69-0.351,1.38-0.58,2.05c-0.38,1.13-0.84,2.24-1.29,3.34
				c-0.29,0.7-1.14,0.86-1.521,0.16c-0.619-1.16-1.199-2.42-1.43-3.699c-0.81-4.561-2.54-8.801-4.16-13.08
				c-1.109-2.95-2.14-5.94-3.529-8.75c-1.721-3.49-3.681-6.87-5.71-10.2c-1.681-2.74-3.7-5.28-5.381-8.021
				c-1.47-2.38-3.489-4.1-5.729-5.66c-0.16-0.109-0.36-0.17-0.54-0.26c0.05-0.14,0.1-0.279,0.15-0.42
				c1.149-0.2,2.31-0.37,3.449-0.609c2.57-0.54,5.17-0.98,7.69-1.721C225.101,211.151,226.241,211.401,228.401,214.212z"/>
			<path d="M224.371,126.582c-1.68-1.58-3.48-3.04-5.22-4.551c0.1-0.17,0.21-0.35,0.319-0.529c-0.43,0.33-0.819,0.71-1.279,0.979
				c-0.641,0.36-1.351,0.61-2.011,0.95c-0.77,0.4-1.51,0.84-2.27,1.25c-0.42,0.229-0.85,0.44-1.271,0.66
				c-0.069-0.101-0.149-0.2-0.22-0.29c0.33-0.42,0.62-0.88,1-1.25c1.33-1.25,2.69-2.48,4.05-3.7c0.86-0.77,1.69-0.8,2.83-0.39
				c1.931,0.68,3.011,2.04,4.04,3.66c0.95,1.5,2.141,2.859,3.21,4.289c0.37,0.511,0.74,1.04,1.021,1.61
				c0.12,0.26,0.02,0.64,0.02,0.97c-0.359-0.08-0.85-0.02-1.06-0.239C226.441,128.892,225.501,127.642,224.371,126.582z"/>
			<path d="M195.321,136.771c-1.181,0.88-2.3,1.83-3.471,2.72c-0.25,0.19-0.6,0.271-0.989,0.28c1.859-2.6,3.489-5.37,6-7.07
				c1.3,1.351,2.399,2.511,3.529,3.69c0.721-0.95,1.381-1.9,2.131-2.76c0.819-0.95,1.1-0.82,1.649,0.29
				c0.33,0.649,0.96,1.149,1.41,1.76c0.77,1.06,1.58,2.11,2.24,3.24c0.64,1.08,1.109,2.25,1.66,3.38
				c-0.11,0.1-0.221,0.189-0.32,0.29c-2.36-1.78-3.88-4.49-6.54-6.2c-0.37,0.54-0.73,1.14-1.17,1.69c-0.79,1-1.601,1.979-2.45,2.92
				c-0.17,0.18-0.55,0.17-0.83,0.239c0-0.29-0.07-0.6,0.01-0.859c0.21-0.76,0.9-1.74,0.641-2.181c-0.471-0.79-1.45-1.319-2.311-1.81
				C196.261,136.252,195.651,136.531,195.321,136.771z"/>
			<path d="M190.761,86.342c-0.26,0.189-0.779,0.01-1.18,0c0.02-0.33-0.09-0.8,0.08-0.98c2.55-2.59,5.1-5.16,7.72-7.68
				c1.55-1.48,3.181-2.89,4.851-4.4l0.319,0.36c-0.26,0.22-0.5,0.49-0.72,0.81c-0.47,0.721-0.78,1.561-1.34,2.2
				c-2.08,2.37-4.18,4.73-6.38,7C193.121,84.672,191.921,85.512,190.761,86.342z"/>
			<path d="M187.511,119.092c0.931-1.09,1.9-2.15,2.891-3.2c0.859-0.92,1.66-0.8,2.199,0.34c0.811,1.72,1.61,3.45,2.341,5.21
				c0.149,0.36-0.03,0.86-0.07,1.29c-0.43-0.2-1.03-0.28-1.271-0.609c-0.989-1.341-1.869-2.771-2.88-4.28
				c-1.35,1.1-2.67,2.18-3.989,3.25c-0.131-0.12-0.25-0.24-0.381-0.36C186.731,120.182,187.071,119.592,187.511,119.092z"/>
			<path d="M185.451,89.281c0.08,0.07,0.16,0.15,0.24,0.23c-1.23,1.16-2.46,2.32-3.681,3.479c-0.08-0.08-0.17-0.159-0.25-0.239
				C182.991,91.592,184.221,90.432,185.451,89.281z"/>
			<path d="M184.751,82.212c-0.39,0.5-0.74,1.029-1.28,1.449c0.15-0.289,0.28-0.579,0.46-0.859c2.641-4.21,5.28-8.43,7.94-12.63
				c0.479-0.761,1.2-1.19,2.05-1.34c0.08,0.119,0.16,0.229,0.24,0.35c-0.46,1-0.82,2.07-1.41,3c-1.479,2.3-3.07,4.55-4.62,6.81
				c-0.47,0.69-0.899,1.42-1.47,2.03c-0.32,0.34-0.88,0.46-1.32,0.7C185.121,81.852,184.911,82.012,184.751,82.212z"/>
			<path d="M183.601,35.691c0.011,0,0.021,0,0.03-0.01c0,0.01-0.01,0.03-0.01,0.04L183.601,35.691z"/>
			<path d="M183.601,35.691l0.021,0.03c-0.01,0.04-0.021,0.07-0.03,0.11C183.591,35.781,183.601,35.741,183.601,35.691z"/>
			<path d="M181.971,43.161c0.54-2.439,1.08-4.89,1.62-7.329c-0.029,0.649,0,1.31-0.13,1.949
				C183.081,39.602,182.621,41.401,181.971,43.161z"/>
			<path d="M209.771,64.552c-0.87,1.76-1.761,3.52-2.601,5.3c-0.14,0.31-0.17,1-0.03,1.08c0.61,0.31,1.07-0.021,1.271-0.65
				c0.36-1.1,0.7-2.199,1.02-3.31c0.221-0.771,0.4-1.561,0.601-2.34C209.941,64.602,209.861,64.571,209.771,64.552z M184.031,75.792
				c-2.04,3.38-4.391,6.569-6.61,9.85c0.01-0.39,0.12-0.76,0.29-1.09c0.55-1.05,1.13-2.09,1.68-3.141c1.511-2.89,3-5.8,4.511-8.689
				c1.72-3.29,3.35-6.62,5.21-9.82c3.029-5.2,6.21-10.31,9.31-15.47c2.48-4.12,5-8.22,7.38-12.4c1.351-2.38,2.48-4.89,3.66-7.359
				c0.12-0.24,0.05-0.7-0.11-0.91c-2.539-3.19-5.109-6.34-7.649-9.521c-1.19-1.489-2.49-2.899-2.811-4.93
				c-0.1-0.6-0.659-1.17-1.119-1.65l1.229-0.81c1.28,1.47,2.68,2.83,4,4.29c2.37,2.62,4.21,5.71,6.28,8.6
				c0.74,1.04,1.45,2.101,2.189,3.141c0.591,0.819,0.79,1.689,0.301,2.59c-1.311,2.42-2.61,4.84-3.99,7.21
				c-3.42,5.88-6.88,11.72-10.311,17.59c-0.72,1.22-1.39,2.47-2.27,4.03c3-1.33,5.64-2.601,8.34-3.68
				c3.43-1.37,6.9-2.631,10.38-3.86c1.26-0.45,1.87,0.06,1.96,1.399c0.25,3.48-0.91,6.711-1.84,9.961
				c-1.14,3.989-2.46,7.939-3.76,11.89c-0.19,0.58-0.561,1.17-1.01,1.58c-2.881,2.649-5.79,5.27-8.721,7.859
				c-4.16,3.681-8.34,7.32-12.52,10.98c-0.521,0.45-0.98,0.87-0.19,1.5c2.021-1.82,3.98-3.62,5.99-5.37
				c1.33-1.15,2.68-2.28,4.11-3.29c0.529-0.37,1.35-0.49,2.029-0.47c1.101,0.02,1.36,0.7,0.92,1.71c-0.17,0.39-0.02,0.91-0.02,1.38
				c0.38-0.19,0.88-0.28,1.13-0.58c0.311-0.36,0.63-0.72,0.94-1.09l1.47,1.01c-0.7,0.79-1.36,1.61-1.96,2.46
				c-2.05,2.91-4.73,5.061-7.8,6.771c-0.221,0.13-0.521,0.12-0.98,0.21c0.311-0.61,0.75-1.101,0.641-1.33
				c-0.601-1.271,0.319-2.021,0.789-2.94c0.36-0.729,0.61-1.51,0.9-2.27c-0.12-0.061-0.229-0.12-0.35-0.181
				c-1.91,1.561-3.811,3.141-5.74,4.69c-2.05,1.63-2.061,1.61-4.23,0.3c-0.09-0.06-0.21-0.069-0.359-0.12
				c-0.98,0.851-1.95,1.71-2.931,2.561c-1.189,1.04-2.39,2.069-3.6,3.09c-0.53,0.45-1.22,0.7-1.83,1.05
				c1.4-1.89,2.82-3.64,4.39-5.25c1.83-1.89,3.79-3.66,5.721-5.45c3.46-3.22,6.92-6.439,10.41-9.62
				c3.33-3.029,6.699-6.01,10.05-9.02c0.21-0.19,0.359-0.45,0.64-0.8c-0.64,0-1.08-0.05-1.51,0.01c-1.46,0.18-2.97,0.29-4.11,1.25
				l-0.319-0.36c0.239-0.21,0.489-0.43,0.729-0.649c-0.62-0.53-1.04-0.95-1.51-1.3c-1.57-1.16-3.14-2.301-4.71-3.45
				c-0.851-0.62-1.101-1.5-1.21-2.82c0.01-0.02,0.02-0.03,0.03-0.04c2.279,2.09,4.3,3.98,6.38,5.811
				c0.38,0.34,1.02,0.579,1.52,0.529c0.32-0.02,0.69-0.609,0.86-1.02c0.41-0.95,0.67-1.97,1.05-2.931
				c1.46-3.67,2.94-7.329,4.4-11.01c0.13-0.33,0.13-0.72,0.189-1.08c-2.33,1.75-4.36,3.61-6.42,5.431c-1.58,1.39-1.72,1.37-2.93-0.2
				c1.89-1.561,3.779-3.12,5.66-4.68c-0.33-0.141-0.551-0.101-0.75-0.021c-2.82,1.14-5.61,2.33-8.45,3.4
				c-1.05,0.399-1.36,0.87-1.11,2.02c0.29,1.33,0.36,2.68-0.399,3.75c-0.011-0.01-0.03-0.02-0.04-0.03c0,0.021,0,0.051,0.01,0.07
				c-0.141,0.18-0.311,0.36-0.5,0.53c-0.44-1.45-0.88-2.891-1.37-4.5c-1.09,1.06-2.35,1.859-3.04,3.01
				C188.331,67.941,186.351,71.972,184.031,75.792z"/>
			<path d="M230.671,109.502c1.9,2.989,4.74,4.12,8.16,4.59c2.33,0.319,4.57,1.38,6.83,2.16c3.09,1.069,6.17,2.159,9.24,3.29
				c0.93,0.35,1.77,0.939,2.71,1.27c5.21,1.87,9.43,5.41,14.06,8.271c2.47,1.529,4.91,3.13,7.23,4.89
				c2.699,2.04,5.14,4.41,7.859,6.41c4.54,3.34,8.03,7.68,11.301,12.12c2.909,3.96,5.109,8.439,7.63,12.689
				c1.63,2.76,3.029,5.62,3.88,8.72c0.13,0.5,0.16,1.101,0.01,1.58c-0.16,0.53-0.55,0.66-1.23,0.42
				c-6.279-2.26-11.909-5.77-17.68-9.02c-0.689-0.39-1.29-0.94-1.99-1.32c-1.26-0.689-2.56-1.31-4.09-2.08
				c0.181,3.631,0.471,6.73,0.46,9.83c-0.02,4.15-0.12,8.301-0.45,12.431c-0.34,4.17-0.869,8.35-1.579,12.47
				c-0.54,3.09-1.391,6.14-2.301,9.14c-0.949,3.13-2.359,6.12-3.21,9.271c-2.77,10.189-7.13,19.7-12.27,28.85
				c-2.19,3.9-4.63,7.67-7.29,11.26c-2.51,3.391-5.41,6.49-8.2,9.681c-1.26,1.43-3.74,0.939-4.55-0.75
				c-1.19-2.48-1.2-5.05-0.93-7.71c0.109-1.03-0.11-2.11-0.21-3.16c-0.091-0.87-0.181-1.75-0.341-2.61
				c-0.08-0.41-0.34-0.79-0.649-1.49c-0.46,2.58-0.69,4.801-1.29,6.91c-0.36,1.271-0.771,2.53-1.21,3.78l-0.91-0.32
				c0.229-0.67,0.43-1.359,0.58-2.05c0.58-2.71,0.97-5.479,1.24-8.24c0.21-2.21,0.52-4.529,0.08-6.649
				c-0.82-3.91-2.03-7.75-3.32-11.53c-1-2.93-2.22-5.8-3.46-8.65l0.899-0.39c0.36,0.79,0.73,1.58,1.131,2.35
				c0.55,1.051,1.359,1.961,1.909,3.011c2.2,4.2,3.511,8.75,4.48,13.34c1.189,5.649,1.96,11.38,2.86,17.09
				c0.279,1.78,0.289,3.59,0.579,5.36c0.07,0.439,0.681,0.859,1.131,1.149c0.199,0.13,0.71,0.03,0.92-0.16
				c0.699-0.64,1.38-1.319,1.97-2.06c1.86-2.39,3.6-4.87,5.53-7.2c3.29-3.96,5.97-8.319,8.33-12.85c2.18-4.17,4.05-8.5,5.979-12.8
				c1.21-2.69,2.39-5.4,3.38-8.181c1.311-3.68,2.45-7.42,3.59-11.16c0.91-2.97,1.87-5.939,2.521-8.979
				c0.649-3.05,0.95-6.17,1.42-9.271c0.41-2.67,1.07-5.34,1.22-8.029c0.3-5.2,0.63-10.431,0.38-15.62
				c-0.229-4.71-0.92-9.45-1.939-14.061c-0.771-3.47-2.391-6.75-3.63-10.119c-0.12-0.33-0.2-0.681-0.301-1.011
				c0.381,0.021,0.54,0.141,0.62,0.29c1.17,2.23,2.46,4.4,3.46,6.7c1.04,2.36,1.95,4.78,3.511,6.87c0.97,1.31,1.83,2.7,2.909,3.91
				c0.7,0.779,1.65,1.399,2.58,1.93c4.771,2.76,9.57,5.47,14.37,8.18c0.601,0.341,1.25,0.58,1.98,0.92
				c-0.01-0.319,0.02-0.449-0.03-0.529c-2.05-3.96-4.05-7.931-6.18-11.84c-1.061-1.96-2.21-3.881-3.521-5.67
				c-4.689-6.391-10.979-11.091-17.05-16.021c-3-2.44-6.21-4.61-9.34-6.9c-0.271-0.189-0.58-0.319-1.08-0.59
				c0.27,0.65,0.44,1.04,0.6,1.431c-0.09,0.069-0.18,0.13-0.26,0.199c-0.29-0.239-0.649-0.42-0.86-0.71
				c-2.22-2.979-5.34-4.92-8.279-7.01c-3.471-2.479-7.37-4.3-11.45-5.56c-3.59-1.09-7.271-1.86-10.9-2.811
				c-0.81-0.21-1.569-0.6-2.33-0.899c-0.029,0.439-0.04,0.8-0.109,1.149c-0.01,0.04-0.41,0.09-0.54,0
				c-0.91-0.609-1.91-1.14-2.67-1.91c-1.44-1.47-2.73-3.08-4.12-4.68c-1.51,1.271-2.89,2.47-4.311,3.63
				c-1.189,0.97-2.04,0.8-2.569-0.649c-0.61-1.67-1.07-3.4-1.54-5.11c-0.391-1.43-0.71-2.87-1.09-4.45
				c-0.391,0.33-0.67,0.61-0.98,0.84c-1.149,0.851-2.3,1.721-3.5,2.49c-0.24,0.16-0.71-0.04-1.08-0.08
				c0.101-0.32,0.13-0.7,0.33-0.95c0.47-0.58,1.01-1.109,1.55-1.68c-0.979-1.33-1.899-2.63-2.88-3.89
				c-0.46-0.601-1.03-1.11-1.56-1.66c-1.45-1.49-1.59-1.53-3.311-0.34c-2.26,1.58-4.46,3.239-6.739,4.79
				c-1.04,0.71-2.171,1.649-3.32,1.77c-1.29,0.12-1.73,0.97-2.47,1.61c-0.141,0.12-0.131,0.649,0.01,0.84
				c0.55,0.71,1.17,1.36,1.859,2.14c0.25-0.35,0.431-0.64,0.65-0.899c1.061-1.23,2.05-2.53,3.22-3.641c1.261-1.18,2.58-0.67,3,1.011
				c0.07,0.29,0.24,0.56,0.25,0.59c0.86,0.1,1.63-0.021,2.101,0.3c2.5,1.689,4.939,3.49,7.37,5.29c0.22,0.17,0.46,0.72,0.359,0.87
				c-0.22,0.31-0.64,0.609-1.01,0.66c-0.34,0.04-0.77-0.19-1.09-0.4c-1.86-1.18-3.71-2.37-5.53-3.6c-0.75-0.5-1.35-0.53-2.01,0.14
				c-0.65,0.65-1.32,1.3-2.061,1.83c-0.6,0.439-1.3,0.75-2,1.01c-0.21,0.07-0.63-0.14-0.789-0.35c-0.101-0.13,0.01-0.561,0.159-0.75
				c0.42-0.53,0.851-1.09,1.38-1.48c0.9-0.66,0.721-1.24,0.07-1.979c-0.28,0.239-0.51,0.449-0.74,0.649
				c-0.93,0.82-1.83,1.69-2.81,2.44c-0.62,0.47-1.34,1.17-1.85-0.3c-0.2-0.58-1.021-0.971-1.58-1.4c-0.66-0.49-1.38-0.9-2.021-1.42
				c-0.71-0.57-1.3-1.65-2.05-1.75c-1.69-0.23-2.36-1.5-3.33-2.51c-0.64-0.67-1.32-1.32-1.9-1.9c-2.989,2.69-5.859,5.271-8.75,7.86
				l-0.97-1.08c0.141-0.15,0.3-0.32,0.49-0.521c0.33-0.35,0.65-0.699,0.979-1.06c2.25-2.48,4.45-5,6.761-7.42
				c0.18-0.19,0.35-0.351,0.5-0.49c1.02-0.939,1.47-0.78,2.81,0.26c0.601,0.46,1.19,0.95,1.73,1.471c1.29,1.25,2.56,2.51,3.83,3.79
				c0.6,0.6,1.109,0.609,1.699-0.051c2.261-2.529,4.561-5.02,6.811-7.56c2.47-2.76,4.899-5.561,7.34-8.36
				c0.19-0.22,0.46-0.7,0.37-0.8c-0.53-0.62-1.08-1.29-1.771-1.689c-0.26-0.15-1.04,0.239-1.359,0.59
				c-0.24,0.26-0.471,0.51-0.7,0.77l-1.47-1.01c0.93-1.1,1.87-2.25,2.899-3.51c1.971,1.68,3.891,3.29,5.78,4.93
				c0.63,0.55,0.26,1.11-0.16,1.56c-1.63,1.761-3.27,3.511-4.96,5.2c-0.67,0.67-1.49,1.19-2.24,1.78c0.141,0.2,0.271,0.4,0.41,0.6
				c0.351-0.08,0.771-0.06,1.05-0.25c0.82-0.55,1.761-1.05,2.341-1.81c1.09-1.43,3.449-0.79,4.239,0.33c0.8,1.14,1.58,2.3,2.45,3.39
				c0.85,1.061,1.79,2.04,2.771,3.141c0.739-0.58,1.189-1.04,1.72-1.32c0.609-0.33,1.5-0.86,1.899-0.64
				c0.521,0.289,0.811,1.21,0.95,1.899c0.54,2.521,0.971,5.07,1.46,7.601c0.07,0.34,0.24,0.649,0.38,1
				c1.32-0.86,2.58-1.69,3.851-2.5c0.89-0.57,1.71-0.561,2.38,0.38C230.301,109.191,230.541,109.312,230.671,109.502z"/>
			<path d="M171.371,131.562c-1.69,4.65-2.14,9.65-4.09,14.19c-0.15-0.021-0.3-0.03-0.44-0.051c0-1.35-0.21-2.739,0.03-4.04
				c0.72-3.89,1.59-7.75,2.42-11.609c0.32-1.46,0.36-1.45,1.83-1.101c2.25,0.54,4.42,1.24,6.1,2.98c0.11,0.12,0.74-0.03,0.891-0.24
				c0.41-0.53,0.689-1.16,1.01-1.76c0.479-0.86,1.15-1.45,2.21-1.29c0.99,0.16,2.53,1.5,2.63,2.24c0.12,0.79-0.689,1.439-1.47,1.17
				c-0.26-0.09-0.49-0.25-0.74-0.38c-0.24-0.13-0.49-0.25-0.85-0.44c-0.301,0.67-0.561,1.28-0.87,1.87
				c-0.73,1.41-1.86,1.74-3.28,1.04C175.001,133.271,173.231,132.441,171.371,131.562z"/>
			<path d="M162.312,139.802c-0.24-0.55-0.801-1.21-0.66-1.65c0.64-2.069,1.449-4.08,2.26-6.09c0.09-0.22,0.58-0.28,0.89-0.41
				c0.181,0.44,0.37,0.87,0.65,1.54c-0.58,1.83-1.12,3.76-1.82,5.641C163.471,139.262,162.771,139.481,162.312,139.802z"/>
			<path d="M162.451,109.302c-3.13,4.57-6.67,8.71-10.68,12.479c0.09-0.67,0.43-1.189,0.689-1.75c0.65-1.35,1.11-2.84,1.94-4.069
				c2.47-3.67,5.109-7.221,7.63-10.851c0.64-0.93,1.38-1,2.26-0.58c0.54,0.261,1,0.65,1.53,0.94c2.13,1.21,4.33,2.33,6.41,3.64
				c1.56,0.971,1.72,1.17,2.689,0.19l0.97,1.08c-0.25,0.229-0.5,0.46-0.75,0.68c0.761,1.17,2.641,1.6,2.921,3.42
				c-3.171,0.08-4.86-2.77-7.7-3.42c1.439,2.14,2.89,4.28,4.33,6.42c-0.101,0.08-0.19,0.16-0.29,0.23
				c-0.721-0.71-1.4-1.471-2.181-2.13c-0.89-0.771-1.949-1.36-2.79-2.181c-1.18-1.18-2.239-2.49-3.33-3.76
				c-0.289-0.34-0.52-0.74-0.899-1.28c-0.91,3.7-1.71,6.931-2.5,10.17c-0.14-0.02-0.28-0.05-0.41-0.069
				C162.121,115.432,163.181,112.392,162.451,109.302z"/>
			<path d="M153.011,133.111c0.57-1.14,1.261-2.22,1.931-3.3c0.51-0.84,1.21-1.01,1.8-0.18c0.93,1.33,1.78,2.72,2.56,4.149
				c0.16,0.28-0.18,0.841-0.279,1.28c-0.37-0.17-0.83-0.26-1.07-0.54c-0.66-0.77-1.23-1.62-1.89-2.51
				c-1.36,1.439-2.091,3.26-3.761,4.11c-0.109-0.07-0.21-0.131-0.31-0.2C152.321,134.981,152.581,134.002,153.011,133.111z"/>
			<path d="M152.601,91.981c-0.199-5.859-0.39-11.72-0.569-17.58c-0.01-0.33,0.08-0.68,0.13-1.01c0.28,7.3,0.55,14.6,0.82,21.9
				c-0.051,0.01-0.101,0.01-0.15,0.01C152.751,94.191,152.641,93.092,152.601,91.981z"/>
			<path d="M152.161,73.281c0.01,0.021,0.01,0.03,0.02,0.051l-0.01,0.01c0-0.01-0.01-0.021-0.01-0.03S152.161,73.292,152.161,73.281
				z"/>
			<path d="M152.161,73.312c0,0.01,0.01,0.021,0.01,0.03l-0.01,0.01C152.161,73.342,152.161,73.321,152.161,73.312z"/>
			<path d="M152.171,73.342c0,0.02-0.01,0.03-0.01,0.05c0-0.01,0-0.03,0-0.04L152.171,73.342z"/>
			<path d="M150.101,160.661c1.091-1.8,2.131-3.63,3.311-5.369c0.229-0.341,0.939-0.36,1.43-0.53c0.12,0.47,0.29,0.93,0.33,1.399
				c0.08,0.87,0.16,1.761,0.07,2.62c-0.061,0.521-0.43,1.021-0.66,1.521c-0.31-0.41-0.62-0.82-0.92-1.24
				c-0.08-0.12-0.12-0.28-0.22-0.53c-1.011,0.83-1.971,1.61-2.931,2.4C150.371,160.842,150.241,160.752,150.101,160.661z"/>
			<path d="M234.401,223.092c-1.45-3.32-3.811-6.05-6-8.88c-2.16-2.811-3.301-3.061-6.74-2.061c-2.521,0.74-5.12,1.181-7.69,1.721
				c-1.14,0.239-2.3,0.409-3.449,0.609c-0.051,0.141-0.101,0.28-0.15,0.42c0.18,0.09,0.38,0.15,0.54,0.26
				c2.24,1.561,4.26,3.28,5.729,5.66c1.681,2.74,3.7,5.28,5.381,8.021c2.029,3.33,3.989,6.71,5.71,10.2
				c1.39,2.81,2.42,5.8,3.529,8.75c1.62,4.279,3.351,8.52,4.16,13.08c0.23,1.279,0.811,2.539,1.43,3.699
				c0.381,0.7,1.23,0.54,1.521-0.16c0.45-1.1,0.91-2.21,1.29-3.34l0.91,0.32c-0.521,1.49-1.08,2.98-1.63,4.46
				c-0.391,1.05-2.15,1.09-2.971,0.06c-0.409-0.51-0.699-1.149-0.909-1.779c-2.341-6.94-4.41-13.98-7.07-20.8
				c-1.75-4.48-4.3-8.671-6.58-12.94c-2.94-5.5-6.561-10.48-11.59-14.29c-0.471-0.36-1.16-0.7-1.721-0.66
				c-2.3,0.15-4.6,0.391-6.88,0.72c-3.699,0.54-7.37,1.301-11.09,1.75c-4.31,0.53-8.47,1.521-12.47,3.181
				c-0.3,0.13-0.58,0.31-0.89,0.35c-5.21,0.78-7.94,4.41-9.98,8.76c-2.15,4.561-3.7,9.33-5.04,14.19c-0.83,3.03-2,5.96-2.92,8.97
				c-0.83,2.71-1.44,5.48-2.28,8.181c-0.58,1.859-1.399,3.64-2.08,5.47c-0.58,1.57-1.069,3.16-1.67,4.72
				c-0.25,0.641-0.529,1.41-1.04,1.8c-1.35,1.03-2.66,0.681-3.399-0.88c-0.41-0.85-0.65-1.8-0.83-2.74
				c-0.96-4.75-1.86-9.51-2.82-14.26c-0.229-1.09-0.64-2.14-0.96-3.21c-0.12,0.021-0.24,0.04-0.36,0.061
				c-0.26,2.359-0.38,4.739-0.81,7.069c-0.2,1.09-0.43,2.181-0.68,3.261l-0.87-0.2c0.68-2.91,1.04-5.891,1.06-8.971
				c0.03-4.56-0.05-9.029-2.47-13.109c-0.42-0.71-0.65-1.54-0.97-2.32c0.79,0.61,1.39,1.3,1.84,2.08c1.8,3.08,3.16,6.35,4.08,9.8
				c1.24,4.66,2.62,9.28,3.779,13.96c0.65,2.63,0.971,5.34,1.48,8c0.07,0.33,0.4,0.801,0.66,0.83c0.27,0.03,0.76-0.31,0.88-0.6
				c0.63-1.54,1.21-3.101,1.74-4.68c0.8-2.421,1.59-4.841,2.3-7.28c1.61-5.55,3.16-11.12,4.76-16.67c0.43-1.49,0.9-2.971,1.44-4.431
				c1.01-2.71,2.029-5.42,3.13-8.1c0.75-1.83,1.64-3.6,2.439-5.41c0.96-2.17,2.86-3.49,4.57-4.939c1.19-1,2.59-1.851,4.021-2.46
				c1.47-0.631,3.09-0.96,4.67-1.271c4.319-0.84,8.649-1.7,13-2.38c4.35-0.67,8.739-1.1,13.109-1.68c2.67-0.36,5.351-0.761,8-1.25
				c2.46-0.45,4.92-0.95,7.32-1.61c1.83-0.49,3.58-1.25,5.35-1.93c0.681-0.271,1.61-0.311,1.551-1.45c0-0.17,0.54-0.39,0.85-0.53
				c0.88-0.41,1.78-0.81,2.67-1.2c0.44-0.189,0.88-0.43,1.34-0.5c3.42-0.55,6.33-2.09,8.3-4.909c2.19-3.131,4.07-6.471,6.08-9.721
				c0.57-0.939,1.301-1.81,1.7-2.81c0.62-1.55,0.96-3.2,1.51-4.78c0.761-2.17,0.931-4.6,2.811-6.479c-0.08,1.21-0.13,2.27-0.23,3.34
				c-0.21,2.25-0.13,4.6-0.75,6.739c-0.79,2.7-2.13,5.25-3.29,7.83c-0.85,1.891-2.18,3.391-3.72,4.82
				c-1.61,1.51-2.87,3.36-4.69,4.73c-3.199,2.409-6.59,4.43-10.31,5.89c-0.729,0.29-1.47,0.65-2.07,1.14
				c-0.319,0.25-0.359,0.851-0.54,1.34c1.721,2.261,3.62,4.671,5.4,7.16c0.46,0.65,0.48,1.58,0.81,2.34
				c0.341,0.801,0.681,1.601,1.04,2.4l-0.899,0.39C234.651,223.672,234.531,223.382,234.401,223.092z"/>
			<path d="M134.341,128.491c1.08-1.939,2.15-3.89,3.38-5.729c0.29-0.43,0.591-0.851,0.891-1.271c0.92-1.26,1.899-2.47,2.899-3.659
				c0.601-0.73,2.38-0.421,3.42,0.39c1.98,1.53,4.021,3,5.94,4.59c0.42,0.35,0.77,1.271,0.59,1.7c-0.36,0.89-1.12,0.42-1.689,0.03
				c-1.391-0.94-2.761-1.91-4.15-2.86c-0.28-0.19-0.58-0.37-0.87-0.55c-0.1,0.069-0.2,0.14-0.29,0.21
				c0.63,1.96,1.271,3.91,1.91,5.87c-0.17,0.06-0.33,0.13-0.5,0.189c-1.2-2.399-2.4-4.8-3.68-7.35c-0.24,0.27-0.46,0.51-0.66,0.77
				c-2.061,2.801-4.09,5.62-6.2,8.391c-0.35,0.46-1,0.71-1.51,1.05C133.991,129.672,134.051,129.021,134.341,128.491z"/>
			<path d="M138.781,138.411c-1.71,1.591-3.351,3.12-4.99,4.65c-0.12-0.1-0.24-0.2-0.35-0.3c0.31-0.55,0.59-1.13,0.949-1.64
				c1.12-1.551,2.261-3.091,3.431-4.591c0.62-0.79,1.3-0.979,2.05-0.029c0.66,0.84,1.63,1.489,2.13,2.399
				c0.93,1.7,1.61,3.53,2.4,5.311C141.571,143.012,140.721,140.191,138.781,138.411z"/>
			<path d="M130.951,95.552c3.04-1.53,6.09-3.05,8.93-4.48c2.53,6.301,3.311,12.891,3.32,19.71c-1.14-6.399-2.26-12.699-3.43-19.25
				C137.121,93.691,134.201,94.981,130.951,95.552z"/>
			<path d="M122.321,152.432c1.08-0.81,2.17-1.59,3.24-2.41c1.09-0.82,1.279-0.74,1.55,0.561c0.18,0.85,0.59,1.649,0.729,2.5
				c0.11,0.649,0.05,1.359-0.12,2c-0.08,0.319-0.55,0.55-0.85,0.829c-0.23-0.289-0.55-0.55-0.68-0.88c-0.2-0.51-0.271-1.08-0.4-1.62
				c-0.11-0.489-0.229-0.979-0.37-1.529c-1.149,0.49-2.18,0.93-3.21,1.37c-0.06-0.13-0.13-0.261-0.2-0.391
				C122.111,152.722,122.191,152.542,122.321,152.432z"/>
			<path d="M117.961,138.092c0.99-1.16,1.98-2.32,2.98-3.46c0.21-0.24,0.55-0.37,0.729-0.61c1.061-1.41,2.351-1.03,3.24,0.64
				c0.229,0.461,0.46,0.921,0.76,1.511c0.4-0.32,0.72-0.58,1.04-0.851c0.95-0.819,1.79-0.75,2.53,0.28
				c0.32,0.45,0.66,0.95,0.75,1.47c0.07,0.471-0.2,0.98-0.311,1.48c-0.39-0.19-0.8-0.34-1.14-0.57c-0.25-0.17-0.42-0.46-0.58-0.649
				c-0.2,0.05-0.31,0.04-0.35,0.09c-1.811,1.87-3.38,1.46-4.33-1.16c-0.16-0.42-0.41-0.82-0.66-1.3c-1.64,1.05-2.4,3.06-4.3,3.5
				C118.201,138.342,118.081,138.212,117.961,138.092z"/>
			<path d="M105.411,138.071c-0.19-0.449-0.521-0.88-0.561-1.34c-0.05-0.66,0.03-1.35,0.19-2c0.24-0.95,1.021-1.24,1.75-0.7
				c0.94,0.7,1.73,1.62,2.53,2.5c0.14,0.15,0.09,0.721-0.061,0.841c-0.279,0.21-0.729,0.34-1.069,0.279
				c-0.36-0.06-0.67-0.38-1.2-0.71c-0.13,0.2-0.18,0.391-0.3,0.46C106.281,137.651,105.841,137.852,105.411,138.071z"/>
			<path d="M67.812,158.002c0.59,0.58,1,1.22,1.229,1.159c0.45-0.109,1.13-0.64,1.11-0.96c-0.03-0.43-0.551-0.939-0.99-1.199
				C69.001,156.922,68.461,157.502,67.812,158.002z M74.341,156.241c3.88,2.261,3.561,7.521,1.88,10.311
				c-1.88,3.13-4.819,4.75-7.85,6.38c-3.19,1.72-6.36,0.979-9.5,0.05c-0.94-0.28-1.771-0.979-2.59-1.56
				c-0.61-0.431-0.78-1.141-0.23-1.65c0.34-0.32,1.05-0.479,1.521-0.37c0.75,0.17,1.45,0.62,2.149,0.95
				c-1.18-1.85-2.34-3.65-3.489-5.46c-0.091,0.01-0.181,0.02-0.271,0.02c0,0.78,0.03,1.561-0.01,2.33c-0.04,0.75,0,1.75-1.01,1.75
				c-1.051,0.011-0.88-1.04-1-1.75c-0.351-2.18,0.34-4.21,1.27-6.09c0.72-1.439,1.73-2.77,2.79-3.99
				c1.59-1.829,3.85-2.369,6.12-2.979C67.921,153.161,71.221,154.432,74.341,156.241z"/>
			<path d="M21.651,196.271c-0.25,0.311-0.301,0.42-0.351,0.42c-2.08,0.22-4.149,0.49-6.229,0.57c-0.44,0.02-0.91-0.67-1.37-1.03
				c0.47-0.28,0.92-0.74,1.41-0.79c1.37-0.13,2.77-0.189,4.14-0.069C20.041,195.451,20.791,195.941,21.651,196.271z"/>
			<path d="M61.471,206.231c1.051,1.25,1.65,0.521,2.271-0.13c-0.021-0.12-0.05-0.229-0.07-0.35
				C62.981,205.901,62.281,206.062,61.471,206.231z M63.841,119.271c0.09-1.04,0.021-2.09,0.021-3.399
				c-5.561,5.67-8.44,12.489-11.011,19.71c0.36-0.141,0.54-0.181,0.7-0.271c2.65-1.53,5.28-3.11,7.971-4.56
				c1.17-0.62,1.54-1.351,1.579-2.69C63.181,125.132,63.611,122.201,63.841,119.271z M137.261,82.892
				c-1.55-0.79-3.22-1.37-4.84-2.04c-0.08,0.09-0.16,0.17-0.24,0.26c1.33,1.311,2.7,2.59,4,3.931c1.29,1.319,2.521,2.71,3.95,4.26
				c0.67-1.45,1.22-2.641,1.66-3.61C140.131,84.651,138.761,83.661,137.261,82.892z M127.901,84.321
				c-1.221,2.87-2.44,5.721-3.61,8.61c-0.07,0.2,0.29,0.78,0.54,0.87c1.47,0.46,2.97,0.83,4.51,1.24c0.04-0.2,0.13-0.391,0.12-0.58
				c-0.17-2.07-0.03-4.15-0.78-6.2c-0.47-1.3-0.31-2.82-0.439-4.43C128.062,84.082,127.951,84.191,127.901,84.321z M106.921,127.012
				c-4.3-0.32-8.62-0.38-12.93-0.47c-0.93-0.021-1.53-0.25-1.84-1.141c-0.29-0.819-0.61-1.63-0.88-2.46
				c-1.07-3.22-2.24-6.41-3.141-9.67c-0.99-3.57-1.72-7.22-2.58-10.83c-0.109-0.439-0.34-0.859-0.46-1.17
				c-4.43,8.021-8.85,16.03-13.31,24.11c3.09,0.33,5.78,0.01,8.189-1.82c0.971-0.74,1.61-1.57,2.03-2.689
				c0.43-1.12,1-2.181,1.521-3.271c0.119,0.01,0.25,0.021,0.369,0.021c0.15,1.039-0.1,2.3,1.54,2.529
				c-0.909,0.99-1.64,1.771-2.359,2.55c0.08,0.091,0.16,0.181,0.24,0.261c0.779-0.03,1.56-0.07,2.329-0.11
				c-1.47,2.04-3.869,1.79-5.76,2.81c1.59,0.44,3.57-0.359,4.5,1.87c-0.39,0.15-0.77,0.391-1.16,0.431
				c-2.899,0.279-5.8,0.56-8.71,0.77c-3.779,0.271-7.27,1.46-10.52,3.32c-2.57,1.46-4.97,3.21-7.55,4.64
				c-3.9,2.17-7.811,4.33-11.33,7.12c-2.16,1.7-4.261,3.49-6.34,5.29c-1.261,1.08-2.641,2.12-3.58,3.45
				c-1.98,2.79-3.931,5.66-5.5,8.7c-3.221,6.239-8.021,11.069-13.23,15.59c-3.1,2.689-6.28,5.31-9.3,8.1
				c-1.33,1.24-2.48,2.74-3.46,4.28c-1.63,2.56-1.08,7.28,1.41,9.82c2.27,2.33,4.79,4.489,7.489,6.29
				c2.87,1.909,6.04,3.42,9.181,4.88c2.21,1.04,4.55,1.96,6.93,2.439c1.521,0.311,3.24-0.18,4.83-0.49
				c3.17-0.63,6.32-1.39,9.48-2.06c4.8-1.02,9.449-2.55,14.04-4.29c2.55-0.96,5.119-1.97,7.89-1.86c4.14,0.16,8.18-0.52,12.229-1.18
				c0.36-0.06,0.75-0.01,1.131-0.01c-0.25,0.41-0.561,0.67-0.9,0.77c-2.62,0.681-5.26,1.301-7.86,2.021
				c-1.439,0.39-2.899,0.41-4.14,1.729c-2,2.141-2.75,1.96-5.2,0.4c-0.51-0.33-1.39-0.37-1.99-0.19c-3.12,0.95-6.21,2.061-9.33,3.03
				c-2.619,0.82-5.27,1.54-7.909,2.311c-0.36,0.109-0.69,0.31-1.04,0.47c2.01,0.01,3.909-0.23,5.81-0.38
				c1.75-0.13,3.521-0.04,5.25-0.261c2.29-0.289,4.561-0.75,6.82-1.199c5.84-1.15,11.79-1.7,17.54-3.46
				c4.6-1.41,9.399-2.17,14.06-3.41c4.2-1.11,8.28-2.62,11.95-5.04c0.42-0.271,0.9-0.46,1.36-0.69c0.06,0.09,0.119,0.19,0.18,0.28
				c-0.28,0.32-0.521,0.68-0.84,0.94c-1.021,0.819-2.09,1.59-3.11,2.42c-0.22,0.17-0.35,0.47-0.52,0.72
				c0.229,0.13,0.439,0.29,0.68,0.41c1.19,0.63,2.54,1.069,3.57,1.91c2.59,2.1,5.06,4.35,7.52,6.619c0.99,0.91,1.93,1.94,2.67,3.061
				c2.67,4.06,5.28,8.17,7.86,12.3c1.42,2.26,2.75,4.58,4.06,6.91c0.75,1.34,0.8,2.92,1.271,4.32
				c1.899,5.67,4.38,11.149,6.12,16.859c1.59,5.24,2.51,10.69,3.729,16.05c0.12,0.521,0.311,1.021,0.48,1.53
				c0.13,0.03,0.26,0.07,0.39,0.101c0.44-0.721,0.96-1.391,1.3-2.15c1.28-2.77,2.271-5.6,2.94-8.51l0.87,0.2
				c-0.44,1.979-0.94,3.96-1.44,5.93c-0.399,1.58-0.89,3.14-1.52,4.64c-0.21,0.49-0.931,0.96-1.49,1.061
				c-0.82,0.149-1.76-0.07-2.11-0.99c-0.64-1.65-1.34-3.23-1.27-5.16c0.06-1.61-0.57-3.28-1.03-4.88
				c-1.57-5.39-3.12-10.79-4.83-16.13c-0.8-2.5-2.29-4.811-2.88-7.34c-1.03-4.471-4.01-7.83-5.97-11.771
				c-0.99-1.99-2.05-3.95-3.19-5.859c-2.68-4.49-5.97-8.48-10.109-11.7c-1.631-1.271-3.37-2.41-5.141-3.49
				c-1.7-1.04-3.649-1.06-5.57-0.92c-5.119,0.36-10.039,1.72-15.01,2.91c-5.81,1.39-11.72,2.319-17.569,3.529
				c-3.351,0.7-6.66,1.631-10.011,2.36c-1.55,0.34-3.149,0.51-4.729,0.68c-4.681,0.5-9.4,0.03-14.101,0.65
				c-1.96,0.25-4.09-0.52-6.1-1c-2.32-0.56-4.8-0.94-6.84-2.06c-4.9-2.71-9.93-5.271-14.03-9.25c-2.49-2.41-4.89-4.891-6.11-8.16
				c-0.939-2.53-1.289-5.24-0.06-7.8c0.47-0.971,1.32-1.811,2.14-2.551c3.851-3.5,7.881-6.8,11.591-10.449
				c3.31-3.261,6.52-6.681,9.31-10.37c3.02-3.99,5.37-8.48,8.27-12.561c1.5-2.109,3.351-4.08,5.391-5.66
				c3.74-2.88,7.75-5.42,11.62-8.14c0.42-0.3,0.75-0.81,0.989-1.29c2.15-4.3,4.171-8.67,6.44-12.92c2.63-4.91,5.46-9.71,8.22-14.55
				c0.19-0.33,0.471-0.601,0.9-0.86c0.36,6.62-0.41,13.19-0.521,19.94c1.79-0.471,3.341-1.221,4.261-2.7
				c2.01-3.26,3.87-6.61,5.75-9.94c2.109-3.75,4.199-7.52,6.239-11.31c1.061-1.96,1.99-4,2.98-6c0.14-0.29,0.24-0.6,0.4-0.87
				c0.569-1,1.17-1.07,1.579-0.02c0.721,1.88,1.271,3.84,1.79,5.8c1.721,6.39,3.41,12.8,5.08,19.21c0.19,0.71,0.54,0.91,1.271,0.92
				c2.55,0.03,5.1,0.14,7.649,0.25c1.86,0.09,3.721,0.35,5.57,0.26c0.73-0.03,1.59-0.649,2.11-1.25c0.93-1.08,1.67-2.33,2.439-3.54
				c0.511-0.79,1.12-1.05,1.88-0.439c0.761,0.619,1.48,1.31,2.16,2.01c0.521,0.54,0.971,1.149,1.601,1.91
				c0.689-1.891,1.29-3.561,1.89-5.23c0.18-0.49,0.32-0.99,0.54-1.46c0.51-1.12,1.26-1.27,2.34-0.67
				c1.37,0.78,2.811,1.45,4.351,2.23c0.13-0.99,0.27-1.801,0.35-2.61c0.19-2.08,0.38-2.271,2.43-2.3c0.19-0.011,0.37-0.05,0.67-0.09
				c-0.72-1.25-1.449-2.381-2.06-3.58c-2.271-4.44-4.6-8.851-6.66-13.38c-0.46-1.011-0.17-2.551,0.2-3.711
				c1.189-3.689,1.96-7.55,4.24-10.84c0.569-0.83,0.81-2,0.87-3.029c0.09-1.351,0.479-1.891,1.81-1.53c1.69,0.46,3.35,1.03,5,1.61
				c0.83,0.289,1.61,0.71,2.4,1.079c0.79,0.36,1.569,0.74,2.579,1.23c-0.14-1.71-0.3-3.24-0.399-4.771
				c-0.21-3.289-0.38-6.579-0.58-9.88c-0.26-4.25-0.53-8.51-0.83-12.76c-0.17-2.51-0.47-5-0.62-7.51c-0.09-1.41,0.311-2.66,1.2-3.87
				c1.41-1.91,2.47-4.07,3.8-6.03c2.141-3.17,4.34-6.3,6.601-9.38c0.56-0.76,1.359-1.47,2.21-1.84c0.56-0.25,1.55-0.05,2.08,0.32
				c0.829,0.58,1.47,1.439,2.13,2.239c3.159,3.801,6.3,7.62,9.439,11.44c0.44,0.53,0.851,1.09,1.47,1.87
				c0.2-1.17,0.36-2.05,0.5-2.94c0.351-2.239,0.7-4.489,1.021-6.739c0.3-2.131,0.52-4.271,0.86-6.4c0.34-2.15,0.689-4.3,1.21-6.42
				c0.17-0.68,0.8-1.311,1.35-1.82c6.21-5.7,13.64-9.88,19.76-15.72c0.88-0.84,1.771-0.5,2.511,0.56
				c1.21,1.73,2.789,3.24,3.779,5.08c0.74,1.38,1.66,2.601,2.66,3.74l-1.229,0.81c-1.7-1.8-3.44-3.55-5.181-5.31
				c-0.17-0.17-0.39-0.29-0.6-0.44c-0.9,6.061-1.65,12.051-2.71,17.971c-1.05,5.92-2.311,11.819-4.59,17.42
				c-0.141-0.021-0.28-0.03-0.431-0.05c0-1.561,0-3.12,0-4.69c-0.25,0.05-0.439,0.09-0.63,0.12c1.34-6.23,2.74-12.43,3.99-18.67
				c0.7-3.51,1.15-7.07,1.69-10.61c0.069-0.439,0.01-0.899,0.01-1.56c-0.521,0.43-0.82,0.68-1.13,0.93
				c-2.271,1.83-4.42,3.83-6.841,5.44c-2.899,1.93-5.779,3.859-8.22,6.35c-0.43,0.45-0.68,1.13-0.859,1.75
				c-0.181,0.6-0.16,1.26-0.261,1.9c-0.729,4.85-1.58,9.68-2.17,14.55c-0.85,6.97-1.56,13.96-2.229,20.939
				c-0.69,7.19-1.24,14.4-1.891,21.591c-0.34,3.689-0.72,7.39-1.189,11.069c-0.26,2.011-0.79,3.98-1.11,5.99
				c-0.26,1.58-0.399,3.18-0.59,4.771c-0.06,0-0.11-0.011-0.17-0.021c0.4-4.06,0.79-8.12,1.189-12.17
				c-0.069-0.01-0.14-0.021-0.199-0.021c-0.221,1.641-0.44,3.28-0.66,4.921c-0.04,0-0.07,0-0.11-0.011
				c0.601-6.819,1.19-13.649,1.78-20.479c-0.1-0.01-0.19-0.021-0.29-0.03c-0.43,4.22-0.86,8.44-1.29,12.66
				c-0.2-0.18-0.21-0.33-0.2-0.48c0.46-4.569,1.05-9.119,1.351-13.699c0.399-6.08,0.58-12.181,0.83-18.28
				c0.109-2.47,0.189-4.94,0.189-7.41c0-0.56-0.26-1.28-0.66-1.65c-3.689-3.359-7.43-6.649-11.16-9.97
				c-0.22-0.189-0.479-0.34-0.89-0.63c-0.09,1.54-0.22,2.88-0.24,4.22c-0.05,3.83-0.01,7.67-0.12,11.49
				c-0.04,1.13-0.72,2.24-0.71,3.35c0.04,4.671,0.2,9.351,0.351,14.021c0.08,2.45,0.229,4.9,0.34,7.35
				c-0.05-0.12-0.12-0.239-0.18-0.359c-0.061-0.141-0.11-0.28-0.12-0.42c-0.05-1.521-0.03-3.04-0.101-4.561
				c-0.359-7.819-0.71-15.649-1.109-23.47c-0.24-4.66-0.57-9.32-0.87-13.98c-0.03-0.439-0.09-0.88-0.141-1.33
				c-2.25,2.841-4.22,5.74-6.17,8.65c-1.46,2.19-2.899,4.4-4.3,6.63c-0.24,0.37-0.38,0.9-0.34,1.34c0.1,1.271,0.39,2.521,0.48,3.79
				c0.199,2.98,0.319,5.971,0.489,8.95c0.261,4.5,0.55,9.01,0.82,13.51c0.15,2.471,0.43,4.94,0.38,7.4
				c-0.04,2.13-0.14,2.28,1.86,2.94c1.229,0.409,2.16,1.079,2.34,2.42c0.22,1.619,0.38,3.25,0.479,4.89
				c0.271,4.38,0.5,8.75,0.721,13.13c0.05,1.07,0.01,2.15,0.01,3.23c-0.15,0.01-0.3,0.02-0.45,0.029
				c-0.92-6.25-1.85-12.489-2.78-18.739c-0.13-0.011-0.26-0.03-0.399-0.051c-0.561,0.94-1.181,1.86-1.69,2.83
				c-0.319,0.62-0.689,0.79-1.13,0.58c-0.12-0.06-0.24-0.14-0.37-0.25c-1.95-1.649-3.899-3.3-5.8-5c-1.08-0.97-2.06-2.04-3.3-3.28
				c-0.101,3.971-1.351,7.49-0.79,11.141c0.12,0.8,0.229,1.63,0.399,2.43c0.11,0.59,0.261,1.18,0.461,1.74
				c1.77,4.88,3.649,9.71,5.479,14.56c0.08,0.21,0.11,0.431,0.16,0.65c-0.101,0.03-0.2,0.06-0.29,0.1
				c-1.771-4.6-3.67-9.159-5.24-13.819c-0.71-2.101-1.59-3.4-3.939-3.41c-0.94,0-1.87-0.32-3.021-0.54
				c0.65,1.04,1.18,1.78,1.62,2.58c3.61,6.67,7.23,13.34,10.78,20.04c0.45,0.85,0.56,1.88,0.819,2.83
				c-0.149,0.06-0.3,0.13-0.449,0.189c-0.591-0.77-1.21-1.52-1.771-2.31c-1.2-1.7-2.51-3.19-5.08-2.9c0,0.62,0.12,1.271-0.01,1.87
				c-0.64,2.92-0.73,3.37-3.53,3.15c-0.3-0.03-0.609-0.181-0.899-0.301c-0.99-0.38-1.98-0.779-3.051-1.21
				c-0.17,0.521-0.29,0.94-0.43,1.351c-0.6,1.64-1.13,3.33-1.84,4.92c-0.51,1.13-1.29,1.21-2.2,0.35
				c-0.43-0.399-0.729-0.949-1.13-1.38c-0.87-0.93-1.76-1.819-2.72-2.8c-0.66,1.19-1.12,2.07-1.62,2.93
				c-0.62,1.051-0.47,1.33,0.57,1.92c1.06,0.61,2.02,1.4,3.02,2.11c-0.08,0.15-0.15,0.31-0.22,0.46c-0.7-0.16-1.41-0.34-2.11-0.49
				C111.281,127.861,109.121,127.172,106.921,127.012z"/>
		</g>
	</g>
</g>
</svg>
