<?xml version="1.0" encoding="utf-8"?>
<!-- Generator: Adobe Illustrator 16.0.0, SVG Export Plug-In . SVG Version: 6.00 Build 0)  -->
<!DOCTYPE svg PUBLIC "-//W3C//DTD SVG 1.1//EN" "http://www.w3.org/Graphics/SVG/1.1/DTD/svg11.dtd">
<svg version="1.1" id="Layer_1" xmlns="http://www.w3.org/2000/svg" xmlns:xlink="http://www.w3.org/1999/xlink" x="0px" y="0px"
	 width="309.685px" height="273.116px" viewBox="0 0 309.685 273.116" enable-background="new 0 0 309.685 273.116"
	 xml:space="preserve">
<g>
	<g id="XMLID_2_">
		<g>
			<path fill="#FFE971" d="M183.59,99.791l-1.26-1.43c0.979-0.85,1.95-1.71,2.93-2.56c0.15,0.05,0.271,0.07,0.36,0.12
				c2.17,1.31,2.18,1.33,4.229-0.3c1.931-1.54,3.83-3.12,5.74-4.69c0.12,0.06,0.229,0.12,0.35,0.18
				c-0.29,0.76-0.529,1.54-0.899,2.27c-0.46,0.93-1.391,1.67-0.79,2.94c0.109,0.23-0.33,0.72-0.641,1.33
				c0.46-0.09,0.761-0.08,0.98-0.21c3.07-1.71,5.75-3.86,7.8-6.76c0.601-0.86,1.26-1.68,1.96-2.46c0.23-0.27,0.46-0.52,0.7-0.78
				c0.32-0.35,1.1-0.74,1.36-0.58c0.689,0.39,1.239,1.06,1.77,1.68c0.09,0.1-0.18,0.58-0.37,0.81c-2.43,2.79-4.87,5.59-7.33,8.36
				c-2.26,2.53-4.56,5.02-6.819,7.55c-0.591,0.66-1.101,0.66-1.7,0.05c-1.271-1.27-2.54-2.54-3.83-3.79
				c-0.54-0.52-1.13-1.01-1.72-1.47C185.06,99.011,184.609,98.851,183.59,99.791z"/>
			<path fill="#FFE971" d="M207.99,70.821c-0.271,0.15-0.671,0.11-1,0.06c-0.061-0.01-0.15-0.51-0.061-0.7
				c0.91-1.89,1.851-3.76,2.78-5.64c0.07,0.02,0.14,0.03,0.21,0.05c-0.11,0.59-0.18,1.19-0.351,1.77
				c-0.35,1.22-0.729,2.44-1.13,3.65C208.34,70.301,208.22,70.691,207.99,70.821z"/>
			<path fill="#FFE971" d="M197.01,59.241c2.83-1.08,5.63-2.27,8.45-3.41c0.2-0.08,0.42-0.12,0.75,0.02
				c-1.88,1.56-3.771,3.12-5.66,4.68c1.21,1.57,1.35,1.6,2.93,0.2c2.061-1.82,4.09-3.67,6.42-5.43c-0.06,0.37-0.06,0.75-0.189,1.09
				c-1.45,3.67-2.94,7.33-4.4,11c-0.38,0.96-0.64,1.98-1.05,2.93c-0.17,0.41-0.54,1-0.86,1.03c-0.489,0.04-1.14-0.2-1.52-0.54
				c-2.08-1.83-4.1-3.72-6.38-5.81c0.76-1.06,0.7-2.42,0.41-3.74C195.649,60.101,195.96,59.631,197.01,59.241z"/>
			<path fill="#FFE971" d="M138,83.671c1.2,0.62,2.45,1.15,3.84,1.79c-0.55,1.19-1.1,2.37-1.73,3.74
				c-2.729-2.82-5.31-5.49-7.89-8.16c0.07-0.13,0.15-0.26,0.22-0.39C134.3,81.661,136.13,82.691,138,83.671z"/>
			<path fill="#FFE971" d="M139.52,90.421c0.13,0.11,0.25,0.19,0.37,0.25l-0.07,0.38c-2.84,1.43-5.89,2.96-8.93,4.48l-0.85,0.16
				c-0.17-0.79-0.271-1.6-0.4-2.4c-0.56-3.65,0.69-7.17,0.79-11.14c1.24,1.23,2.22,2.31,3.3,3.27
				C135.63,87.121,137.58,88.771,139.52,90.421z"/>
			<path fill="#FFE971" d="M128.09,83.701c0.54,3.94,1.03,7.58,1.55,11.42c-1.939-0.52-3.51-0.92-5.05-1.39
				c-0.2-0.06-0.46-0.59-0.38-0.78C125.439,89.931,126.729,86.931,128.09,83.701z"/>
			<path fill="#FFE971" d="M183.569,83.721c0.37-0.5,0.721-1.01,1.101-1.5c0.16-0.2,0.36-0.39,0.58-0.52
				c0.479-0.3,1.09-0.47,1.479-0.86c0.521-0.53,0.91-1.2,1.311-1.84c1.92-3.01,3.84-6.03,5.729-9.06c0.17-0.29,0.16-0.69,0.23-1.04
				c-0.13-0.09-0.26-0.18-0.38-0.27c-0.65,0.56-1.45,1.02-1.9,1.7c-1.99,2.98-3.88,6.02-5.78,9.05c-0.88,1.39-1.71,2.81-2.569,4.22
				C183.439,83.641,183.51,83.681,183.569,83.721z M181.939,92.981c1.23-1.16,2.46-2.32,3.69-3.49c-0.08-0.07-0.15-0.15-0.22-0.23
				c-1.24,1.16-2.471,2.31-3.71,3.47C181.78,92.811,181.859,92.901,181.939,92.981z M163.79,87.911c-0.4,4.06-0.79,8.12-1.19,12.17
				c0.061,0.01,0.12,0.02,0.17,0.03c0.19-1.6,0.33-3.2,0.59-4.78c0.32-2.01,0.851-3.98,1.11-5.99c0.47-3.68,0.85-7.37,1.19-11.07
				c0.659-7.19,1.199-14.4,1.89-21.58c0.67-6.99,1.38-13.98,2.23-20.95c0.59-4.86,1.439-9.7,2.17-14.55c0.1-0.63,0.08-1.3,0.26-1.9
				c0.18-0.62,0.43-1.3,0.859-1.74c2.44-2.5,5.32-4.42,8.221-6.35c2.42-1.61,4.569-3.62,6.84-5.45c0.31-0.25,0.61-0.5,1.13-0.93
				c0,0.67,0.06,1.12,0,1.56c-0.55,3.54-1,7.1-1.7,10.61c-1.25,6.24-2.66,12.45-3.99,18.68c-0.01,0.01-0.02,0.01-0.029,0.01
				c0,0.04,0,0.09-0.01,0.13c-0.54,2.45-1.08,4.9-1.62,7.33c0.649-1.76,1.109-3.56,1.489-5.38c0.131-0.64,0.101-1.3,0.131-1.95
				c0.01-0.04,0.02-0.07,0.029-0.11c0-0.01,0-0.02,0.01-0.03c0.19-0.04,0.381-0.08,0.631-0.13c0,1.57,0,3.13,0,4.69
				c0.149,0.02,0.29,0.04,0.43,0.05c2.28-5.6,3.54-11.49,4.59-17.42c1.061-5.92,1.811-11.9,2.71-17.97
				c0.21,0.15,0.43,0.27,0.601,0.44c1.739,1.76,3.479,3.52,5.18,5.31c0.06,0.06,0.12,0.12,0.18,0.18c0.41,0.45,0.851,0.95,0.94,1.47
				c0.319,2.03,1.62,3.44,2.81,4.93c2.54,3.18,5.11,6.33,7.65,9.52c0.16,0.21,0.229,0.67,0.109,0.91
				c-1.18,2.47-2.31,4.98-3.659,7.36c-2.381,4.18-4.9,8.28-7.381,12.4c-3.1,5.16-6.279,10.27-9.31,15.47
				c-1.85,3.2-3.49,6.54-5.21,9.82c-1.51,2.89-3,5.8-4.51,8.69c-0.55,1.06-1.13,2.09-1.681,3.14c-0.17,0.33-0.279,0.7-0.29,1.09
				c2.221-3.27,4.57-6.47,6.61-9.85c2.32-3.82,4.29-7.85,6.59-11.69c0.69-1.14,1.95-1.95,3.04-3.01c0.49,1.61,0.931,3.05,1.37,4.51
				c0.2-0.17,0.36-0.35,0.5-0.54c0.11,1.33,0.36,2.2,1.21,2.83c1.57,1.14,3.14,2.28,4.7,3.44c0.479,0.36,0.9,0.77,1.52,1.31
				c-0.33,0.3-0.649,0.59-0.979,0.88c-1.58,1.41-3.12,2.75-4.601,4.17c-2.609,2.51-5.17,5.09-7.72,7.67
				c-0.17,0.18-0.06,0.65-0.08,0.98c0.4,0.01,0.92,0.19,1.181,0.01c1.159-0.84,2.359-1.67,3.35-2.7c2.2-2.26,4.3-4.62,6.38-7
				c0.561-0.63,0.87-1.48,1.34-2.2c0.141-0.21,0.3-0.4,0.471-0.57c1.159-1.18,2.79-1.29,4.359-1.49c0.431-0.06,0.87-0.01,1.51-0.01
				c-0.279,0.35-0.43,0.61-0.64,0.8c-3.34,3.01-6.72,5.99-10.04,9.02c-3.5,3.18-6.96,6.4-10.42,9.62c-1.93,1.79-3.88,3.57-5.72,5.45
				c-1.57,1.61-2.99,3.36-4.391,5.25c0.61-0.34,1.301-0.6,1.83-1.05c1.21-1.02,2.41-2.05,3.601-3.09l1.26,1.43
				c-0.15,0.14-0.32,0.3-0.5,0.49c-2.31,2.42-4.51,4.94-6.76,7.42c-0.32,0.36-0.65,0.71-0.98,1.06c-0.28,0.3-0.51,0.54-0.7,0.72
				c-0.79,0.75-1.029,0.51-2.479-0.39c-2.08-1.3-4.271-2.42-6.41-3.63c-0.52-0.3-0.99-0.69-1.53-0.95
				c-0.88-0.42-1.62-0.35-2.26,0.58c-2.52,3.63-5.16,7.18-7.63,10.85c-0.83,1.23-1.29,2.72-1.94,4.07
				c-0.26,0.56-0.6,1.08-0.689,1.76l-0.86,1.05c-1.979-1.65-4.06-3.17-6.12-4.73c-1.01-0.77-2.75-0.94-3.33-0.24
				c-0.97,1.18-1.939,2.35-2.84,3.58l-2.13-0.81c0.15-0.06,0.29-0.12,0.44-0.18c-0.261-0.95-0.37-1.98-0.82-2.83
				c-3.55-6.7-7.17-13.36-10.78-20.03c-0.439-0.8-0.97-1.55-1.62-2.59c1.15,0.22,2.08,0.54,3.011,0.54
				c2.359,0.01,3.239,1.31,3.949,3.41c1.57,4.66,3.471,9.22,5.24,13.82c0.09-0.03,0.19-0.06,0.29-0.1
				c-0.05-0.21-0.08-0.44-0.16-0.64c-1.83-4.85-3.71-9.69-5.47-14.57c-0.21-0.57-0.36-1.16-0.47-1.76l0.85-0.16
				c3.23-0.59,6.15-1.82,8.82-4.04c1.17,6.58,2.3,12.88,3.439,19.31c-0.029-6.86-0.79-13.45-3.33-19.75l0.07-0.38
				c0.45,0.21,0.82,0.04,1.141-0.58c0.51-0.97,1.13-1.89,1.689-2.82c0.14,0.01,0.271,0.03,0.41,0.04
				c0.92,6.25,1.84,12.49,2.77,18.74c0.15-0.01,0.301-0.02,0.45-0.03c0-1.08,0.05-2.15-0.01-3.22c-0.22-4.38-0.45-8.76-0.72-13.14
				c-0.101-1.63-0.261-3.26-0.48-4.89c-0.18-1.34-1.1-2.01-2.34-2.42c-2-0.66-1.9-0.81-1.86-2.93c0.051-2.46-0.229-4.94-0.38-7.4
				c-0.27-4.51-0.55-9.01-0.819-13.51c-0.171-2.99-0.29-5.97-0.49-8.95c-0.09-1.27-0.37-2.53-0.48-3.8
				c-0.04-0.44,0.101-0.96,0.34-1.34c1.421-2.26,2.881-4.5,4.36-6.72c1.93-2.89,3.89-5.75,6.12-8.56c0.04,0.45,0.1,0.89,0.13,1.33
				c0.3,4.66,0.63,9.31,0.87,13.98c0.4,7.82,0.75,15.64,1.11,23.47c0.069,1.52,0.05,3.04,0.1,4.56c0.01,0.14,0.06,0.28,0.12,0.42
				c0.06,0.13,0.13,0.26,0.18,0.39c0,0.01,0,0.03,0,0.04c0,0.01,0,0.03,0,0.04c-0.05,0.34-0.14,0.68-0.13,1.01
				c0.18,5.86,0.37,11.72,0.58,17.58c0.03,1.11,0.14,2.22,0.22,3.32c0.05,0,0.101,0,0.15-0.01c-0.271-7.3-0.54-14.59-0.82-21.9
				c0-0.02,0.01-0.03,0.01-0.05l0.011-0.01c-0.011-0.02-0.011-0.03-0.021-0.05c-0.109-2.45-0.26-4.89-0.34-7.35
				c-0.15-4.67-0.31-9.35-0.35-14.02c0-1.11,0.67-2.22,0.71-3.34c0.12-3.83,0.069-7.67,0.12-11.5c0.02-1.34,0.149-2.68,0.239-4.22
				c0.41,0.29,0.67,0.44,0.891,0.64c3.729,3.31,7.47,6.61,11.16,9.96c0.399,0.37,0.659,1.09,0.659,1.65
				c0.011,2.47-0.08,4.94-0.18,7.42c-0.26,6.09-0.44,12.19-0.84,18.28c-0.3,4.57-0.89,9.12-1.351,13.69c-0.01,0.15,0,0.31,0.2,0.48
				c0.431-4.22,0.86-8.44,1.29-12.65c0.101,0.01,0.19,0.01,0.29,0.02c-0.59,6.83-1.18,13.66-1.77,20.49c0.029,0,0.06,0,0.1,0.01
				c0.22-1.65,0.44-3.29,0.66-4.93C163.66,87.891,163.72,87.901,163.79,87.911z"/>
			<path fill="#9F8CE2" d="M63.819,118.731c-0.25,3.53-0.529,7.05-0.829,10.58c-0.021,0.26-0.25,0.61-0.48,0.75
				c-3.15,1.85-6.31,3.67-9.47,5.5c2.359-7.22,5.18-14.06,10.79-19.73C63.83,116.981,63.88,117.861,63.819,118.731z"/>
			<path fill="#9F8CE2" d="M248.069,262.841c0.851-1.4,1.83-3.021,3.021-4.96c0.229,0.949,0.41,1.569,0.54,2.189
				c0.43,2.04,0.87,4.08,1.24,6.13c0.06,0.36-0.19,0.771-0.29,1.16c-0.4-0.13-0.931-0.149-1.17-0.42
				C250.3,265.671,249.27,264.341,248.069,262.841z"/>
			<path fill="#9F8CE2" d="M222.39,211.981c0.521-0.1,1.101,0.17,1.641,0.12c1.18-0.12,2.42-0.13,3.5-0.55
				c1.13-0.44,1.77-0.221,2.399,0.71c2.521,3.74,5.05,7.47,7.58,11.189c0.93,1.36,1.91,2.69,2.85,4.04
				c0.08,0.11,0.15,0.24,0.21,0.37c0.061,0.13,0.101,0.26,0.131,0.391c0.609,2.72,1.38,5.42,1.739,8.17
				c0.28,2.14,0.17,4.35-0.02,6.51c-0.271,3.13-0.76,6.25-1.18,9.37c-0.04,0.34-0.19,0.67-0.381,1.34
				c-0.369-0.851-0.569-1.45-0.88-1.99c-1.14-1.95-2.27-3.92-3.5-5.81c-1.649-2.53-3.26-5.11-5.13-7.471
				c-1.45-1.83-3.01-3.569-4.54-5.33c-1.54-1.76-3.06-3.529-4.42-5.409c-2.39-3.301-5.52-5.83-8.2-8.811
				c-1.12-1.24-2.67-2.109-4.01-3.16c-0.24-0.189-0.46-0.399-0.93-0.8c1.21-0.25,2.16-0.439,3.109-0.649
				C215.7,213.461,219.04,212.691,222.39,211.981z"/>
			<path fill="#D6CFF3" d="M14.189,196.991c0.36,0.221,0.83,0.391,1.24,0.36c1.99-0.14,3.97-0.35,5.96-0.53
				c0.021-0.18,0.05-0.35,0.07-0.52c-0.5-0.28-1-0.771-1.51-0.8c-1.851-0.101-3.71-0.061-5.561-0.011
				c-0.26,0.011-0.66,0.41-0.689,0.681C13.66,196.421,13.939,196.831,14.189,196.991z M76.13,166.601
				c1.67-2.74,2.09-8.061-1.79-10.33c-3.14-1.85-6.49-3.19-10.33-2.07c-1.79,0.521-3.59,0.88-5.14,2.08
				c-2.53,1.96-3.91,4.62-4.681,7.58c-0.359,1.37-0.14,2.9-0.09,4.351c0.01,0.279,0.51,0.79,0.7,0.75c0.35-0.07,0.79-0.4,0.92-0.73
				c0.19-0.51,0.15-1.1,0.19-1.66c0.04-0.56,0.069-1.13,0.109-1.92c1.311,2.04,2.46,3.851,3.62,5.66c-0.64-0.3-1.34-0.66-2.06-0.94
				c-0.61-0.239-1.221-0.39-1.65,0.391c-0.39,0.689-0.26,1.27,0.33,1.68c0.82,0.57,1.66,1.26,2.6,1.54
				c3.101,0.91,6.24,1.66,9.391-0.04C71.27,171.311,74.22,169.711,76.13,166.601z M107.01,136.971c0.34,0.21,0.56,0.46,0.8,0.49
				c0.46,0.04,0.94-0.04,1.4-0.07c-0.07-0.42-0.08-0.86-0.24-1.24c-0.14-0.31-0.45-0.55-0.71-0.8c-0.76-0.72-1.4-1.97-2.63-1.43
				c-1.18,0.52-0.86,1.86-0.84,2.9c0.01,0.41,0.27,1.02,0.58,1.16c0.27,0.12,0.79-0.28,1.18-0.49
				C106.71,137.401,106.81,137.211,107.01,136.971z M125.93,154.161c0.22,0.62,0.68,1.681,0.95,1.65c1-0.1,0.9-1.11,1.01-1.88
				c0.03-0.23,0-0.48-0.05-0.71c-0.28-1.11-0.54-2.23-0.89-3.32c-0.061-0.18-0.67-0.399-0.811-0.3c-1.42,1.03-2.8,2.11-4.399,3.34
				c1.569,0.42,2.35-0.87,3.659-1.03C125.58,152.711,125.67,153.471,125.93,154.161z M128.52,138.011
				c0.351,0.22,0.771,0.33,1.15,0.48c0.12-0.43,0.42-0.91,0.32-1.27c-0.21-0.67-0.57-1.33-1.021-1.87
				c-0.56-0.69-1.32-0.86-2.09-0.22c-0.39,0.32-0.78,0.64-1.25,1.04c-0.3-0.57-0.53-1.03-0.76-1.48c-0.891-1.72-2.2-2.13-3.311-0.65
				c-0.16,0.22-0.46,0.33-0.64,0.54c-1.021,1.16-2.021,2.34-3.03,3.51c0.13,0.12,0.26,0.24,0.391,0.36
				c1.859-0.49,2.64-2.42,4.199-3.47c0.7,1.16,1.13,2.42,2,3.19c1.25,1.09,2.311-0.19,3.301-0.94
				C128.08,137.561,128.26,137.851,128.52,138.011z M138.729,138.391c1.94,1.81,2.79,4.63,5.46,5.85c-1.1-2.29-1.38-4.95-3.38-6.81
				c-2.09-1.95-1.93-2.33-3.76-0.05c-1.35,1.68-2.54,3.49-3.81,5.25c0.159,0.13,0.31,0.27,0.46,0.409
				C135.359,141.501,137.02,139.961,138.729,138.391z M154.49,160.291c0.229-0.46,0.619-0.899,0.67-1.38
				c0.09-0.899,0.029-1.819-0.061-2.729c-0.04-0.5-0.26-0.98-0.39-1.47c-0.51,0.229-1.24,0.319-1.5,0.71
				c-1.12,1.689-2.11,3.479-3.141,5.22c0.12,0.1,0.24,0.189,0.36,0.29c0.96-0.79,1.93-1.58,2.96-2.42
				c0.101,0.26,0.141,0.46,0.24,0.62C153.899,159.521,154.2,159.901,154.49,160.291z M156,131.991c0.68,0.92,1.25,1.78,1.91,2.55
				c0.239,0.27,0.71,0.32,1.08,0.48c0.1-0.41,0.42-0.93,0.27-1.19c-0.83-1.48-1.729-2.93-2.7-4.32c-0.47-0.67-1.12-0.57-1.56,0.12
				c-0.72,1.15-1.46,2.29-2.061,3.5c-0.439,0.88-0.67,1.86-1,2.79C153.95,135.271,154.64,133.411,156,131.991z M213.229,125.081
				c2.061-1.13,4.11-2.27,5.82-3.22c1.75,1.54,3.48,2.96,5.08,4.49c1.15,1.1,2.12,2.38,3.24,3.52c0.239,0.25,0.75,0.25,1.13,0.37
				c0-0.36,0.109-0.78-0.03-1.07c-0.27-0.57-0.67-1.08-1.04-1.59c-1.07-1.43-2.25-2.79-3.2-4.3c-1-1.59-2.08-2.89-3.96-3.57
				c-1.2-0.44-2.04-0.38-2.92,0.43c-1.33,1.2-2.67,2.39-3.97,3.62c-0.39,0.38-0.68,0.87-1.22,1.57
				C212.78,125.191,213.03,125.191,213.229,125.081z M186.68,121.081c1.311-1.07,2.62-2.15,3.98-3.27c1,1.52,1.88,2.93,2.87,4.27
				c0.25,0.34,0.829,0.44,1.27,0.64c0.04-0.43,0.24-0.93,0.09-1.28c-0.729-1.76-1.53-3.49-2.34-5.21c-0.55-1.16-1.34-1.28-2.2-0.37
				c-0.979,1.05-1.96,2.1-2.89,3.19c-0.44,0.51-0.771,1.11-1.15,1.67C186.43,120.841,186.56,120.961,186.68,121.081z
				 M190.89,139.881c0.3-0.13,0.65-0.21,0.9-0.41c1.17-0.891,2.29-1.84,3.47-2.71c0.33-0.25,0.95-0.53,1.2-0.39
				c0.85,0.49,1.83,1.02,2.3,1.81c0.26,0.45-0.43,1.43-0.64,2.18c-0.08,0.271-0.011,0.57-0.011,0.86
				c0.28-0.07,0.671-0.061,0.83-0.24c0.851-0.94,1.66-1.92,2.45-2.92c0.44-0.54,0.8-1.15,1.17-1.69c2.66,1.71,4.181,4.419,6.7,6.06
				c-0.39-1.28-0.86-2.45-1.5-3.53c-0.66-1.13-1.47-2.18-2.24-3.24c-0.45-0.6-1.08-1.1-1.41-1.76c-0.55-1.11-0.829-1.24-1.649-0.29
				c-0.75,0.87-1.41,1.81-2.13,2.76c-1.12-1.18-2.24-2.33-3.53-3.69c-2.51,1.71-4.14,4.47-6.09,6.939
				C190.77,139.701,190.83,139.791,190.89,139.881z M171.3,131.531c1.89,0.91,3.66,1.74,5.42,2.6c1.4,0.7,2.54,0.35,3.26-1.07
				c0.301-0.59,0.561-1.2,0.87-1.86c0.63,0.33,1.101,0.64,1.61,0.83c0.71,0.27,1.5-0.34,1.46-1.07s-1.51-2.08-2.561-2.32
				c-1.02-0.23-1.689,0.31-2.189,1.09c-0.42,0.63-0.69,1.35-1.13,1.97c-0.141,0.19-0.78,0.32-0.9,0.2
				c-1.689-1.74-3.88-2.33-6.1-3.01c-1.2-0.38-1.57-0.05-1.8,1.05c-0.811,3.95-1.721,7.88-2.46,11.84
				c-0.23,1.26-0.03,2.61-0.03,3.91c0.16,0.021,0.319,0.03,0.479,0.04C169.149,141.191,169.64,136.231,171.3,131.531z
				 M162.64,118.511c0.79-3.23,1.59-6.47,2.5-10.17c0.38,0.54,0.61,0.94,0.9,1.28c1.09,1.27,2.14,2.58,3.33,3.76
				c0.84,0.82,1.899,1.41,2.79,2.18c0.77,0.66,1.46,1.42,2.18,2.14c0.1-0.08,0.19-0.16,0.29-0.24c-1.44-2.14-2.88-4.28-4.33-6.42
				c2.84,0.65,4.53,3.5,7.7,3.42c-0.28-1.82-2.16-2.25-2.92-3.41c0.18-0.16,0.359-0.32,0.54-0.49c2.97-2.67,5.899-5.31,8.96-8.06
				c0.58,0.58,1.25,1.23,1.899,1.9c0.98,1.01,1.63,2.28,3.33,2.51c0.75,0.1,1.34,1.18,2.05,1.76c0.641,0.51,1.36,0.92,2.011,1.41
				c0.569,0.43,1.39,0.82,1.59,1.4c0.5,1.47,1.229,0.77,1.85,0.3c0.98-0.75,1.87-1.62,2.811-2.43c0.229-0.21,0.46-0.42,0.729-0.66
				c0.66,0.73,0.86,1.33-0.06,1.98c-0.48,0.34-0.891,0.81-1.23,1.29c-0.2,0.28-0.189,0.71-0.279,1.07
				c0.38,0.06,0.819,0.29,1.109,0.17c0.65-0.27,1.271-0.67,1.83-1.1c0.67-0.51,1.29-1.09,1.87-1.69c0.66-0.66,1.27-0.64,2.02-0.14
				c1.82,1.23,3.671,2.42,5.521,3.6c0.33,0.21,0.76,0.44,1.1,0.4c0.37-0.05,0.79-0.35,1.011-0.66c0.1-0.14-0.131-0.7-0.36-0.87
				c-2.43-1.79-4.86-3.59-7.36-5.29c-0.47-0.32-1.239-0.19-2.109-0.3c-0.011-0.02-0.181-0.29-0.25-0.58c-0.42-1.68-1.74-2.2-3-1.02
				c-1.17,1.11-2.16,2.41-3.221,3.64c-0.22,0.26-0.399,0.55-0.649,0.9c-0.69-0.78-1.311-1.42-1.851-2.14
				c-0.149-0.18-0.159-0.71-0.02-0.84c0.729-0.63,1.18-1.49,2.46-1.61c1.16-0.11,2.29-1.06,3.33-1.77c2.31-1.57,4.55-3.26,6.84-4.85
				c1.6-1.11,1.86-1.1,3.12,0.32c1.58,1.79,3.07,3.66,4.62,5.53c-0.63,0.67-1.17,1.2-1.641,1.78c-0.189,0.25-0.229,0.63-0.34,0.95
				c0.37,0.04,0.851,0.24,1.09,0.09c1.2-0.78,2.351-1.65,3.5-2.5c0.311-0.23,0.591-0.51,0.98-0.84c0.38,1.58,0.7,3.02,1.09,4.45
				c0.47,1.71,0.93,3.44,1.54,5.11c0.53,1.45,1.37,1.63,2.57,0.65c1.42-1.16,2.8-2.36,4.31-3.63c1.391,1.6,2.68,3.21,4.12,4.68
				c0.76,0.77,1.76,1.3,2.67,1.91c0.13,0.09,0.53,0.04,0.53,0c0.08-0.34,0.09-0.7,0.13-1.14c0.75,0.29,1.51,0.68,2.32,0.89
				c3.63,0.96,7.31,1.72,10.89,2.81c4.09,1.26,7.99,3.08,11.46,5.56c2.94,2.09,6.06,4.03,8.28,7.01c0.21,0.29,0.56,0.47,0.85,0.71
				c0.09-0.06,0.18-0.13,0.271-0.19c-0.16-0.4-0.33-0.79-0.591-1.44c0.49,0.27,0.801,0.4,1.07,0.59c3.12,2.29,6.34,4.46,9.34,6.899
				c6.07,4.921,12.36,9.641,17.04,16.021c1.32,1.79,2.471,3.71,3.53,5.67c2.13,3.91,4.13,7.88,6.18,11.83
				c0.051,0.09,0.021,0.22,0.04,0.54c-0.739-0.33-1.39-0.58-1.989-0.92c-4.801-2.71-9.601-5.42-14.37-8.17
				c-0.931-0.54-1.87-1.15-2.58-1.94c-1.07-1.21-1.94-2.6-2.91-3.899c-1.561-2.101-2.47-4.511-3.51-6.881
				c-1-2.3-2.28-4.47-3.46-6.689c-0.08-0.16-0.23-0.271-0.61-0.3c0.09,0.34,0.17,0.68,0.29,1.01c1.24,3.37,2.86,6.65,3.63,10.12
				c1.021,4.609,1.7,9.35,1.94,14.06c0.27,5.23-0.03,10.49-0.29,15.73c-0.13,2.529-0.681,5.05-1.13,7.55
				c-0.841,4.71-1.721,9.42-2.66,14.11c-0.42,2.069-1.061,4.09-1.551,6.14c-0.289,1.2-0.439,2.44-0.739,3.64
				c-0.971,3.811-2.69,7.29-4.761,10.601c-0.779,1.239-1.55,2.51-2.5,3.6c-1.029,1.18-2.319,2.12-3.409,3.25
				c-1.601,1.66-3.271,3.28-4.65,5.11c-3.479,4.6-6.85,9.279-10.18,13.99c-2.101,2.979-4.04,6.069-6.07,9.1
				c-0.21,0.32-0.51,0.64-0.84,0.82c-0.811,0.43-1.28,0.069-1.3-0.83c-0.061-2.95-0.221-5.9-0.19-8.84
				c0.021-1.73,0.351-3.461,0.51-5.19c0.091-1.03,0.12-2.07,0.16-3.1c0.101-2.66,0.351-5.33,0.23-7.98
				c-0.08-1.76-0.5-3.56-1.11-5.22c-0.53-1.42-1.05-2.851-1.6-4.26c-0.98-2.551-2.011-5.08-3.17-7.54
				c-1.61-3.391-3.92-6.381-6.511-9.131c-0.38-0.399-0.71-0.84-1.13-1.34c0.271-0.2,0.46-0.43,0.69-0.51
				c4.53-1.6,8.479-4.19,12.13-7.229c1.27-1.061,2.01-2.771,3.31-3.75c3.011-2.271,4-5.62,5.301-8.851
				c0.149-0.37,0.3-0.74,0.479-1.09c0.74-1.43,1.28-2.82,1.23-4.54c-0.061-2.01,0.42-4.04,0.64-6.06
				c0.07-0.58,0.08-1.171,0.12-1.891c-1.87,1.88-2.04,4.311-2.8,6.48c-0.551,1.58-0.891,3.229-1.511,4.779
				c-0.399,1-1.13,1.87-1.699,2.801c-1.99,3.22-3.841,6.54-6,9.64c-1.99,2.85-4.92,4.44-8.391,4.99c-0.46,0.08-0.89,0.319-1.33,0.51
				c-0.899,0.39-1.79,0.78-2.68,1.19c-0.31,0.149-0.84,0.369-0.84,0.54c0.07,1.149-0.88,1.18-1.55,1.439
				c-1.771,0.69-3.53,1.44-5.351,1.94c-2.41,0.649-4.859,1.149-7.319,1.6c-2.66,0.49-5.33,0.89-8.011,1.25
				c-4.359,0.59-8.75,1.01-13.1,1.68c-4.36,0.681-8.69,1.511-13,2.4c-2.08,0.43-4.14,1.05-6.14,1.76
				c-1.21,0.431-2.301,1.19-3.44,1.8c-0.23-0.42-0.47-0.869-0.75-1.369c-1.88,1.72-1.8,4.039-1.92,6.189
				c-0.29,5.21-1.83,10.1-3.44,15.01c-0.54,1.63-1,3.25-1.77,4.801c-1.48,2.96-2.95,5.93-4.21,8.979
				c-2.04,4.97-5.23,9.26-7.96,13.82c-0.67,1.12-1.55,2.12-2.42,3.109c-0.271,0.311-0.82,0.37-1.5,0.66
				c1.22-13.05-1.92-24.689-8.49-35.439c-0.13,0.02-0.26,0.04-0.39,0.06c-0.021,0.14-0.11,0.33-0.051,0.4
				c1.53,1.87,0.881,4.14,1.181,6.229c0.64,4.5,1.14,9.021,1.84,13.51c0.36,2.271,1.149,4.48,1.5,6.75
				c0.29,1.851,0.22,3.75,0.3,5.62c-0.17,0.051-0.33,0.09-0.5,0.13c-1.15-1.55-2.39-3.05-3.43-4.68
				c-4.37-6.84-8.311-13.92-11.48-21.38c-1.88-4.44-3.67-8.92-5.72-13.3c-2.18-4.69-4.79-9.09-7.85-13.26
				c-1.9-2.601-3.98-4.96-6.561-6.921c-1.61-1.21-2.939-2.789-4.55-4.02c-1.061-0.81-2.37-1.28-3.57-1.91
				c-0.24-0.12-0.45-0.27-0.68-0.41c0.17-0.239,0.3-0.54,0.52-0.72c1.021-0.82,2.091-1.6,3.11-2.42c0.32-0.26,0.56-0.62,0.84-0.94
				c-0.06-0.09-0.12-0.189-0.18-0.279c-0.46,0.229-0.94,0.42-1.36,0.699c-3.67,2.41-7.74,3.921-11.95,5.03
				c-4.659,1.24-9.46,2-14.06,3.41c-5.75,1.76-11.69,2.31-17.54,3.46c-2.26,0.45-4.53,0.92-6.82,1.21
				c-1.729,0.22-3.5,0.12-5.239,0.25c-1.91,0.15-3.811,0.39-5.82,0.38c0.35-0.16,0.68-0.359,1.04-0.47
				c2.64-0.771,5.29-1.48,7.91-2.3c3.12-0.98,6.21-2.09,9.33-3.04c0.6-0.181,1.479-0.13,1.989,0.189c2.45,1.561,3.2,1.74,5.2-0.399
				c1.24-1.32,2.7-1.34,4.141-1.73c2.6-0.72,5.239-1.33,7.85-2.02c0.35-0.09,0.66-0.351,0.91-0.76c-0.38,0-0.76-0.051-1.13,0
				c-4.051,0.649-8.09,1.35-12.23,1.18c-2.77-0.11-5.34,0.91-7.89,1.87c-4.59,1.729-9.23,3.26-14.04,4.279
				c-3.16,0.671-6.3,1.44-9.47,2.061c-1.601,0.31-3.32,0.8-4.83,0.5c-2.391-0.49-4.721-1.41-6.94-2.45
				c-3.14-1.46-6.3-2.97-9.18-4.88c-2.7-1.79-5.221-3.96-7.49-6.28c-2.49-2.55-3.04-7.27-1.41-9.83c0.98-1.54,2.13-3.04,3.46-4.27
				c3.021-2.8,6.2-5.41,9.3-8.11c5.21-4.52,10.011-9.34,13.23-15.59c1.57-3.04,3.52-5.9,5.5-8.7c0.939-1.33,2.32-2.359,3.57-3.45
				c2.09-1.8,4.189-3.579,6.35-5.29c3.51-2.779,7.42-4.939,11.33-7.12c2.58-1.43,4.979-3.17,7.54-4.64
				c3.26-1.86,6.75-3.05,10.53-3.32c2.909-0.21,5.81-0.48,8.699-0.77c0.42-0.04,0.811-0.33,1.19-0.49
				c-1.04-2.06-2.91-1.47-4.53-1.77c1.91-1.01,4.271-0.86,5.83-2.47c-0.02-0.13-0.04-0.25-0.05-0.38c-0.78,0.04-1.56,0.08-2.34,0.12
				c-0.08-0.09-0.16-0.18-0.24-0.26c0.72-0.79,1.45-1.57,2.36-2.56c-1.641-0.23-1.4-1.48-1.53-2.52c-0.12-0.01-0.24-0.02-0.36-0.02
				c-0.51,1.04-1.13,2.05-1.5,3.15c-0.46,1.36-1.34,2.19-2.47,3.05c-2.33,1.77-4.91,1.72-7.82,1.63c2.63-4.77,5.24-9.49,7.83-14.2
				c1.84-3.33,3.681-6.65,5.511-9.97c0.119,0.31,0.35,0.73,0.46,1.17c0.859,3.61,1.59,7.25,2.579,10.83
				c0.9,3.26,2.07,6.45,3.141,9.67c0.27,0.83,0.59,1.64,0.88,2.46c0.31,0.88,0.91,1.12,1.84,1.14c4.311,0.09,8.63,0.15,12.93,0.47
				c2.2,0.16,4.36,0.85,6.53,1.31c0.71,0.15,1.41,0.33,2.12,0.49c0.07-0.15,0.15-0.3,0.22-0.46c-1-0.71-1.96-1.5-3.01-2.1
				s-1.2-0.88-0.59-1.93c0.51-0.86,0.97-1.74,1.59-2.87c0.73,0.66,1.45,1.24,2.08,1.9c0.57,0.61,1.01,1.34,1.56,1.97
				c1.051,1.18,1.921,1.12,2.561-0.3c0.68-1.53,1.16-3.14,1.72-4.72c0.15-0.41,0.271-0.82,0.44-1.35c1.069,0.43,2.06,0.83,3.05,1.21
				c0.29,0.12,0.59,0.27,0.9,0.3c2.8,0.22,2.89-0.23,3.529-3.14c0.13-0.6,0.021-1.25,0.021-1.9c2.6-0.24,3.93,1.26,5.13,3.02
				c0.52,0.77,1.14,1.47,1.72,2.2l2.13,0.81c-0.3,0.41-0.6,0.83-0.88,1.25c-1.34,2.01-2.54,4.12-3.729,6.22
				c-0.21,0.36-0.11,0.91-0.15,1.38c0.36-0.19,0.73-0.36,1.07-0.57c0.13-0.08,0.22-0.23,0.31-0.36c2.09-2.83,4.17-5.67,6.26-8.5
				c0.2-0.27,0.41-0.52,0.67-0.85c1.311,2.61,2.511,5,3.71,7.38c0.16-0.07,0.33-0.14,0.5-0.2c-0.64-1.97-1.279-3.94-1.92-5.91
				c0.11-0.05,0.23-0.1,0.341-0.16c1.67,1.15,3.34,2.3,5.02,3.44c0.54,0.37,1.271,0.81,1.61-0.01c0.18-0.44-0.11-1.38-0.511-1.71
				l-0.01-0.01l0.86-1.05c4.01-3.78,7.55-7.92,10.689-12.49c0.7,3.1-0.31,6.13-0.189,9.16
				C162.35,118.461,162.5,118.491,162.64,118.511z M165.39,133.171c-0.28-0.67-0.47-1.1-0.649-1.54
				c-0.311,0.14-0.801,0.19-0.891,0.41c-0.81,2.01-1.62,4.03-2.26,6.09c-0.14,0.44,0.42,1.1,0.67,1.66
				c0.45-0.319,1.15-0.55,1.31-0.979C164.27,136.941,164.81,135.001,165.39,133.171z"/>
			<path d="M213.38,123.761c1.3-1.23,2.64-2.42,3.97-3.62c0.88-0.81,1.72-0.87,2.92-0.43c1.88,0.68,2.96,1.98,3.96,3.57
				c0.95,1.51,2.13,2.87,3.2,4.3c0.37,0.51,0.771,1.02,1.04,1.59c0.14,0.29,0.03,0.71,0.03,1.07c-0.38-0.12-0.891-0.12-1.13-0.37
				c-1.12-1.14-2.09-2.42-3.24-3.52c-1.6-1.53-3.33-2.95-5.08-4.49c-1.71,0.95-3.76,2.09-5.82,3.22
				c-0.199,0.11-0.449,0.11-1.069,0.25C212.7,124.631,212.99,124.141,213.38,123.761z"/>
			<path d="M191.79,139.471c-0.25,0.2-0.601,0.28-0.9,0.41c-0.06-0.091-0.12-0.181-0.18-0.261c1.95-2.47,3.58-5.229,6.09-6.939
				c1.29,1.36,2.41,2.51,3.53,3.69c0.72-0.95,1.38-1.89,2.13-2.76c0.82-0.95,1.1-0.82,1.649,0.29c0.33,0.66,0.96,1.16,1.41,1.76
				c0.771,1.06,1.58,2.11,2.24,3.24c0.64,1.08,1.11,2.25,1.5,3.53c-2.52-1.641-4.04-4.35-6.7-6.06c-0.37,0.54-0.729,1.15-1.17,1.69
				c-0.79,1-1.6,1.979-2.45,2.92c-0.159,0.18-0.55,0.17-0.83,0.24c0-0.29-0.069-0.59,0.011-0.86c0.21-0.75,0.899-1.729,0.64-2.18
				c-0.47-0.79-1.45-1.32-2.3-1.81c-0.25-0.14-0.87,0.14-1.2,0.39C194.08,137.631,192.96,138.581,191.79,139.471z"/>
			<path d="M190.7,86.331c-0.261,0.18-0.78,0-1.181-0.01c0.021-0.33-0.09-0.8,0.08-0.98c2.55-2.58,5.11-5.16,7.72-7.67
				c1.48-1.42,3.021-2.76,4.601-4.17l0.32,0.36c-0.171,0.17-0.33,0.36-0.471,0.57c-0.47,0.72-0.779,1.57-1.34,2.2
				c-2.08,2.38-4.18,4.74-6.38,7C193.06,84.661,191.859,85.491,190.7,86.331z"/>
			<path d="M190.66,117.811c-1.36,1.12-2.67,2.2-3.98,3.27c-0.12-0.12-0.25-0.24-0.37-0.36c0.38-0.56,0.71-1.16,1.15-1.67
				c0.93-1.09,1.91-2.14,2.89-3.19c0.86-0.91,1.65-0.79,2.2,0.37c0.81,1.72,1.61,3.45,2.34,5.21c0.15,0.35-0.05,0.85-0.09,1.28
				c-0.44-0.2-1.02-0.3-1.27-0.64C192.54,120.741,191.66,119.331,190.66,117.811z"/>
			<path d="M185.41,89.261c0.069,0.08,0.14,0.16,0.22,0.23c-1.23,1.17-2.46,2.33-3.69,3.49c-0.08-0.08-0.159-0.17-0.239-0.25
				C182.939,91.571,184.17,90.421,185.41,89.261z"/>
			<path d="M184.67,82.221c-0.38,0.49-0.73,1-1.101,1.5c-0.06-0.04-0.13-0.08-0.199-0.12c0.859-1.41,1.689-2.83,2.569-4.22
				c1.9-3.03,3.79-6.07,5.78-9.05c0.45-0.68,1.25-1.14,1.9-1.7c0.12,0.09,0.25,0.18,0.38,0.27c-0.07,0.35-0.061,0.75-0.23,1.04
				c-1.89,3.03-3.81,6.05-5.729,9.06c-0.4,0.64-0.79,1.31-1.311,1.84c-0.39,0.39-1,0.56-1.479,0.86
				C185.03,81.831,184.83,82.021,184.67,82.221z"/>
			<path d="M183.54,35.681c0.01,0,0.02,0,0.029-0.01c-0.01,0.01-0.01,0.02-0.01,0.03L183.54,35.681z"/>
			<path d="M183.56,35.701c-0.01,0.04-0.02,0.07-0.029,0.11c0.01-0.04,0.01-0.09,0.01-0.13L183.56,35.701z"/>
			<path d="M181.91,43.141c0.54-2.43,1.08-4.88,1.62-7.33c-0.03,0.65,0,1.31-0.131,1.95C183.02,39.581,182.56,41.381,181.91,43.141z
				"/>
			<path d="M206.99,70.881c0.329,0.05,0.729,0.09,1-0.06c0.229-0.13,0.35-0.52,0.449-0.81c0.4-1.21,0.78-2.43,1.13-3.65
				c0.171-0.58,0.24-1.18,0.351-1.77c-0.07-0.02-0.14-0.03-0.21-0.05c-0.93,1.88-1.87,3.75-2.78,5.64
				C206.84,70.371,206.93,70.871,206.99,70.881z M183.97,75.771c-2.04,3.38-4.39,6.58-6.61,9.85c0.011-0.39,0.12-0.76,0.29-1.09
				c0.551-1.05,1.131-2.08,1.681-3.14c1.51-2.89,3-5.8,4.51-8.69c1.72-3.28,3.36-6.62,5.21-9.82c3.03-5.2,6.21-10.31,9.31-15.47
				c2.48-4.12,5-8.22,7.381-12.4c1.35-2.38,2.479-4.89,3.659-7.36c0.12-0.24,0.051-0.7-0.109-0.91c-2.54-3.19-5.11-6.34-7.65-9.52
				c-1.189-1.49-2.49-2.9-2.81-4.93c-0.09-0.52-0.53-1.02-0.94-1.47l0.91-0.94c4.06,3.83,7.55,8.12,10.45,12.88
				c0.58,0.96,1.24,1.87,1.93,2.74c0.88,1.1,1.021,2.24,0.351,3.45c-1.2,2.16-2.41,4.32-3.66,6.45
				c-3.46,5.94-6.95,11.86-10.431,17.79c-0.72,1.24-1.409,2.49-2.22,3.94c0.65-0.24,1.11-0.38,1.561-0.58
				c3.859-1.68,7.689-3.42,11.579-5.02c1.83-0.75,3.761-1.28,5.66-1.85c1.07-0.31,1.8,0.18,1.761,1.27
				c-0.08,1.82-0.11,3.7-0.591,5.44c-1.439,5.24-3.149,10.4-4.64,15.63c-0.43,1.52-1.31,2.54-2.45,3.55
				c-6.06,5.32-12.06,10.71-18.09,16.07c-0.74,0.66-1.54,1.27-2.24,1.98c-0.239,0.26-0.229,0.76-0.34,1.15
				c0.13,0.05,0.26,0.1,0.39,0.16c1.33-1.23,2.631-2.5,4.011-3.69c1.96-1.69,3.95-3.35,5.989-4.95c0.431-0.35,1.101-0.51,1.66-0.54
				c1.46-0.08,1.82,0.58,1.261,1.88c-0.15,0.34,0.06,0.84,0.109,1.27c0.33-0.15,0.76-0.21,0.98-0.46c0.39-0.45,0.77-0.91,1.149-1.37
				l1.37,1.15c-0.7,0.78-1.359,1.6-1.96,2.46c-2.05,2.9-4.729,5.05-7.8,6.76c-0.22,0.13-0.521,0.12-0.98,0.21
				c0.311-0.61,0.75-1.1,0.641-1.33c-0.601-1.27,0.33-2.01,0.79-2.94c0.37-0.73,0.609-1.51,0.899-2.27
				c-0.12-0.06-0.229-0.12-0.35-0.18c-1.91,1.57-3.81,3.15-5.74,4.69c-2.05,1.63-2.06,1.61-4.229,0.3
				c-0.09-0.05-0.21-0.07-0.36-0.12c-0.979,0.85-1.95,1.71-2.93,2.56c-1.19,1.04-2.391,2.07-3.601,3.09
				c-0.529,0.45-1.22,0.71-1.83,1.05c1.4-1.89,2.82-3.64,4.391-5.25c1.84-1.88,3.79-3.66,5.72-5.45c3.46-3.22,6.92-6.44,10.42-9.62
				c3.32-3.03,6.7-6.01,10.04-9.02c0.21-0.19,0.36-0.45,0.64-0.8c-0.64,0-1.079-0.05-1.51,0.01c-1.569,0.2-3.2,0.31-4.359,1.49
				l-0.32-0.36c0.33-0.29,0.649-0.58,0.979-0.88c-0.619-0.54-1.04-0.95-1.52-1.31c-1.561-1.16-3.13-2.3-4.7-3.44
				c-0.85-0.63-1.1-1.5-1.21-2.83c0.01-0.01,0.021-0.02,0.03-0.04c2.28,2.09,4.3,3.98,6.38,5.81c0.38,0.34,1.03,0.58,1.52,0.54
				c0.32-0.03,0.69-0.62,0.86-1.03c0.41-0.95,0.67-1.97,1.05-2.93c1.46-3.67,2.95-7.33,4.4-11c0.13-0.34,0.13-0.72,0.189-1.09
				c-2.33,1.76-4.359,3.61-6.42,5.43c-1.58,1.4-1.72,1.37-2.93-0.2c1.89-1.56,3.78-3.12,5.66-4.68c-0.33-0.14-0.55-0.1-0.75-0.02
				c-2.82,1.14-5.62,2.33-8.45,3.41c-1.05,0.39-1.36,0.86-1.1,2.02c0.29,1.32,0.35,2.68-0.41,3.74c-0.01-0.01-0.03-0.02-0.04-0.03
				c0,0.02,0,0.05,0.01,0.07c-0.14,0.19-0.3,0.37-0.5,0.54c-0.439-1.46-0.88-2.9-1.37-4.51c-1.09,1.06-2.35,1.87-3.04,3.01
				C188.26,67.921,186.29,71.951,183.97,75.771z"/>
			<path d="M251.09,257.881c-1.19,1.939-2.17,3.56-3.021,4.96c1.2,1.5,2.23,2.83,3.341,4.1c0.239,0.271,0.77,0.29,1.17,0.42
				c0.1-0.39,0.35-0.8,0.29-1.16c-0.37-2.05-0.811-4.09-1.24-6.13C251.5,259.451,251.319,258.831,251.09,257.881z M184.58,102.501
				c-3.061,2.75-5.99,5.39-8.96,8.06l-0.971-1.08c0.19-0.18,0.42-0.42,0.7-0.72c0.33-0.35,0.66-0.7,0.98-1.06
				c2.25-2.48,4.45-5,6.76-7.42c0.18-0.19,0.35-0.35,0.5-0.49c1.02-0.94,1.47-0.78,2.82,0.26c0.59,0.46,1.18,0.95,1.72,1.47
				c1.29,1.25,2.56,2.52,3.83,3.79c0.6,0.61,1.109,0.61,1.7-0.05c2.26-2.53,4.56-5.02,6.819-7.55c2.46-2.77,4.9-5.57,7.33-8.36
				c0.19-0.23,0.46-0.71,0.37-0.81c-0.53-0.62-1.08-1.29-1.77-1.68c-0.261-0.16-1.04,0.23-1.36,0.58c-0.24,0.26-0.47,0.51-0.7,0.78
				l-1.37-1.15c0.721-0.86,1.42-1.73,2.11-2.62c0.41-0.51,0.74-0.63,1.27-0.18c1.591,1.33,3.19,2.66,4.82,3.96
				c0.87,0.68,0.851,1.35,0.13,2.1c-1.67,1.72-3.33,3.45-4.99,5.17c-0.619,0.65-1.25,1.29-1.88,1.94c0.061,0.11,0.11,0.22,0.17,0.33
				c0.33-0.07,0.73-0.04,0.99-0.22c0.82-0.55,1.771-1.04,2.36-1.8c1.1-1.42,3.24-1,4.3,0.33c1.71,2.13,3.43,4.26,5.21,6.48
				c0.83-0.64,1.37-1.1,1.95-1.5c1.53-1.06,2.37-0.62,2.64,1.25c0.32,2.23,0.73,4.46,1.141,6.69c0.13,0.7,0.39,1.37,0.609,2.14
				c1.33-0.87,2.59-1.69,3.84-2.5c0.94-0.61,1.73-0.58,2.49,0.37c0.93,1.15,1.94,2.24,3,3.26c0.49,0.47,1.17,0.94,1.8,1.02
				c3.86,0.43,7.45,1.75,11.061,3.06c2.92,1.05,5.859,2.07,8.77,3.15c0.971,0.36,1.851,0.96,2.82,1.31
				c5.21,1.88,9.44,5.42,14.06,8.28c2.471,1.53,4.92,3.13,7.23,4.89c2.7,2.04,5.14,4.41,7.86,6.42c4.54,3.34,8.02,7.68,11.29,12.12
				c2.89,3.92,5.09,8.36,7.569,12.59c1.57,2.69,3.01,5.44,3.82,8.48c0.08,0.31,0.3,0.63,0.26,0.91
				c-0.06,0.479-0.21,0.989-0.49,1.359c-0.1,0.141-0.68,0-1.02-0.109c-6.3-2.101-11.851-5.69-17.601-8.91
				c-0.97-0.54-1.81-1.32-2.789-1.84c-0.98-0.53-2.061-0.881-3.261-1.37c0.15,2.729,0.21,5.149,0.42,7.56
				c0.61,7.24-0.26,14.34-1.6,21.43c-0.76,4.03-1.15,8.131-1.85,12.17c-0.33,1.921-0.91,3.801-1.5,5.66
				c-1.4,4.46-2.78,8.92-4.341,13.311c-0.59,1.63-1.529,3.189-2.56,4.59c-2.63,3.55-5.33,7.05-8.14,10.46
				c-1.431,1.729-3.16,3.21-4.71,4.86c-1.341,1.409-2.641,2.859-3.881,4.359c-1.399,1.7-2.14,3.65-2.27,5.891
				c-0.23,3.989-0.34,7.96,0.71,11.88c0.18,0.64,0.06,1.46-0.17,2.109c-0.32,0.9-0.88,1.4-2.09,1.23
				c-1.971-0.26-3.24-1.46-4.51-2.72c-0.851-0.841-1.461-1.601-2.82-0.521c-1.19,0.96-3.54-0.229-3.83-1.76
				c-0.2-1.01-0.47-2.09-0.3-3.08c0.51-3.06-1.49-5.12-2.71-7.521c-0.25-0.5-0.33-1.079-0.46-1.64c-0.271-1.24-0.45-2.49-1.61-3.32
				c-0.33-0.239-0.58-0.63-0.8-1c-0.96-1.6-1.9-3.229-2.84-4.84c-1.9-3.25-4.221-6.18-6.681-8.989l0.83-0.711
				c1.53,1.761,3.09,3.5,4.54,5.33c1.87,2.36,3.48,4.94,5.13,7.471c1.23,1.89,2.36,3.859,3.5,5.81c0.311,0.54,0.511,1.14,0.88,1.99
				c0.19-0.67,0.341-1,0.381-1.34c0.42-3.12,0.909-6.24,1.18-9.37c0.189-2.16,0.3-4.37,0.02-6.51c-0.359-2.75-1.13-5.45-1.739-8.17
				c-0.03-0.131-0.07-0.261-0.131-0.391l0.301-0.109c0.55,1.409,1.069,2.84,1.6,4.26c0.61,1.66,1.03,3.46,1.11,5.22
				c0.12,2.65-0.13,5.32-0.23,7.98c-0.04,1.029-0.069,2.069-0.16,3.1c-0.159,1.729-0.489,3.46-0.51,5.19
				c-0.03,2.939,0.13,5.89,0.19,8.84c0.02,0.899,0.489,1.26,1.3,0.83c0.33-0.181,0.63-0.5,0.84-0.82c2.03-3.03,3.97-6.12,6.07-9.1
				c3.33-4.711,6.7-9.391,10.18-13.99c1.38-1.83,3.05-3.45,4.65-5.11c1.09-1.13,2.38-2.07,3.409-3.25c0.95-1.09,1.721-2.36,2.5-3.6
				c2.07-3.311,3.79-6.79,4.761-10.601c0.3-1.199,0.45-2.439,0.739-3.64c0.49-2.05,1.131-4.07,1.551-6.14
				c0.939-4.69,1.819-9.4,2.66-14.11c0.449-2.5,1-5.021,1.13-7.55c0.26-5.24,0.56-10.5,0.29-15.73c-0.24-4.71-0.92-9.45-1.94-14.06
				c-0.77-3.47-2.39-6.75-3.63-10.12c-0.12-0.33-0.2-0.67-0.29-1.01c0.38,0.029,0.53,0.14,0.61,0.3c1.18,2.22,2.46,4.39,3.46,6.689
				c1.04,2.37,1.949,4.78,3.51,6.881c0.97,1.3,1.84,2.689,2.91,3.899c0.71,0.79,1.649,1.4,2.58,1.94
				c4.77,2.75,9.569,5.46,14.37,8.17c0.6,0.34,1.25,0.59,1.989,0.92c-0.02-0.32,0.011-0.45-0.04-0.54
				c-2.05-3.95-4.05-7.92-6.18-11.83c-1.06-1.96-2.21-3.88-3.53-5.67c-4.68-6.38-10.97-11.1-17.04-16.021
				c-3-2.439-6.22-4.609-9.34-6.899c-0.27-0.19-0.58-0.32-1.07-0.59c0.261,0.65,0.431,1.04,0.591,1.44
				c-0.091,0.06-0.181,0.13-0.271,0.19c-0.29-0.24-0.64-0.42-0.85-0.71c-2.221-2.98-5.34-4.92-8.28-7.01
				c-3.47-2.48-7.37-4.3-11.46-5.56c-3.58-1.09-7.26-1.85-10.89-2.81c-0.811-0.21-1.57-0.6-2.32-0.89c-0.04,0.44-0.05,0.8-0.13,1.14
				c0,0.04-0.4,0.09-0.53,0c-0.91-0.61-1.91-1.14-2.67-1.91c-1.44-1.47-2.729-3.08-4.12-4.68c-1.51,1.27-2.89,2.47-4.31,3.63
				c-1.2,0.98-2.04,0.8-2.57-0.65c-0.61-1.67-1.07-3.4-1.54-5.11c-0.39-1.43-0.71-2.87-1.09-4.45c-0.39,0.33-0.67,0.61-0.98,0.84
				c-1.149,0.85-2.3,1.72-3.5,2.5c-0.239,0.15-0.72-0.05-1.09-0.09c0.11-0.32,0.15-0.7,0.34-0.95c0.471-0.58,1.011-1.11,1.641-1.78
				c-1.55-1.87-3.04-3.74-4.62-5.53c-1.26-1.42-1.521-1.43-3.12-0.32c-2.29,1.59-4.53,3.28-6.84,4.85
				c-1.04,0.71-2.17,1.66-3.33,1.77c-1.28,0.12-1.73,0.98-2.46,1.61c-0.14,0.13-0.13,0.66,0.02,0.84c0.54,0.72,1.16,1.36,1.851,2.14
				c0.25-0.35,0.43-0.64,0.649-0.9c1.061-1.23,2.051-2.53,3.221-3.64c1.26-1.18,2.58-0.66,3,1.02c0.069,0.29,0.239,0.56,0.25,0.58
				c0.87,0.11,1.64-0.02,2.109,0.3c2.5,1.7,4.931,3.5,7.36,5.29c0.229,0.17,0.46,0.73,0.36,0.87c-0.221,0.31-0.641,0.61-1.011,0.66
				c-0.34,0.04-0.77-0.19-1.1-0.4c-1.85-1.18-3.7-2.37-5.521-3.6c-0.75-0.5-1.359-0.52-2.02,0.14c-0.58,0.6-1.2,1.18-1.87,1.69
				c-0.56,0.43-1.18,0.83-1.83,1.1c-0.29,0.12-0.729-0.11-1.109-0.17c0.09-0.36,0.079-0.79,0.279-1.07
				c0.34-0.48,0.75-0.95,1.23-1.29c0.92-0.65,0.72-1.25,0.06-1.98c-0.27,0.24-0.5,0.45-0.729,0.66c-0.94,0.81-1.83,1.68-2.811,2.43
				c-0.62,0.47-1.35,1.17-1.85-0.3c-0.2-0.58-1.021-0.97-1.59-1.4c-0.65-0.49-1.37-0.9-2.011-1.41c-0.71-0.58-1.3-1.66-2.05-1.76
				c-1.7-0.23-2.35-1.5-3.33-2.51C185.83,103.731,185.16,103.081,184.58,102.501z"/>
			<path d="M171.3,131.531c-1.66,4.7-2.15,9.66-4.07,14.2c-0.16-0.01-0.319-0.02-0.479-0.04c0-1.3-0.2-2.65,0.03-3.91
				c0.739-3.96,1.649-7.89,2.46-11.84c0.229-1.1,0.6-1.43,1.8-1.05c2.22,0.68,4.41,1.27,6.1,3.01c0.12,0.12,0.76-0.01,0.9-0.2
				c0.439-0.62,0.71-1.34,1.13-1.97c0.5-0.78,1.17-1.32,2.189-1.09c1.051,0.24,2.521,1.59,2.561,2.32s-0.75,1.34-1.46,1.07
				c-0.51-0.19-0.98-0.5-1.61-0.83c-0.31,0.66-0.569,1.27-0.87,1.86c-0.72,1.42-1.859,1.77-3.26,1.07
				C174.96,133.271,173.189,132.441,171.3,131.531z"/>
			<path d="M163.569,138.811c-0.159,0.43-0.859,0.66-1.31,0.979c-0.25-0.56-0.81-1.22-0.67-1.66c0.64-2.06,1.45-4.08,2.26-6.09
				c0.09-0.22,0.58-0.27,0.891-0.41c0.18,0.44,0.369,0.87,0.649,1.54C164.81,135.001,164.27,136.941,163.569,138.811z"/>
			<path d="M161.97,105.091c0.64-0.93,1.38-1,2.26-0.58c0.54,0.26,1.011,0.65,1.53,0.95c2.14,1.21,4.33,2.33,6.41,3.63
				c1.45,0.9,1.689,1.14,2.479,0.39l0.971,1.08c-0.181,0.17-0.36,0.33-0.54,0.49c0.76,1.16,2.64,1.59,2.92,3.41
				c-3.17,0.08-4.86-2.77-7.7-3.42c1.45,2.14,2.89,4.28,4.33,6.42c-0.1,0.08-0.19,0.16-0.29,0.24c-0.72-0.72-1.41-1.48-2.18-2.14
				c-0.891-0.77-1.95-1.36-2.79-2.18c-1.19-1.18-2.24-2.49-3.33-3.76c-0.29-0.34-0.521-0.74-0.9-1.28c-0.91,3.7-1.71,6.94-2.5,10.17
				c-0.14-0.02-0.29-0.05-0.43-0.07c-0.12-3.03,0.89-6.06,0.189-9.16c-3.14,4.57-6.68,8.71-10.689,12.49
				c0.09-0.68,0.43-1.2,0.689-1.76c0.65-1.35,1.11-2.84,1.94-4.07C156.81,112.271,159.45,108.721,161.97,105.091z"/>
			<path d="M157.91,134.541c-0.66-0.77-1.23-1.63-1.91-2.55c-1.36,1.42-2.05,3.28-4.061,3.93c0.33-0.93,0.561-1.91,1-2.79
				c0.601-1.21,1.341-2.35,2.061-3.5c0.439-0.69,1.09-0.79,1.56-0.12c0.971,1.39,1.87,2.84,2.7,4.32c0.15,0.26-0.17,0.78-0.27,1.19
				C158.62,134.861,158.149,134.811,157.91,134.541z"/>
			<path d="M152.1,73.371c0.28,7.31,0.55,14.6,0.82,21.9c-0.05,0.01-0.101,0.01-0.15,0.01c-0.08-1.1-0.189-2.21-0.22-3.32
				c-0.21-5.86-0.4-11.72-0.58-17.58C151.96,74.051,152.05,73.711,152.1,73.371z"/>
			<path d="M152.1,73.261c0.01,0.02,0.01,0.03,0.021,0.05l-0.011,0.01c0-0.01-0.01-0.02-0.01-0.03
				C152.1,73.281,152.1,73.271,152.1,73.261z"/>
			<path d="M152.1,73.291c0,0.01,0.01,0.02,0.01,0.03l-0.01,0.01C152.1,73.321,152.1,73.301,152.1,73.291z"/>
			<path d="M152.109,73.321c0,0.02-0.01,0.03-0.01,0.05c0-0.01,0-0.03,0-0.04L152.109,73.321z"/>
			<path d="M155.16,158.911c-0.051,0.48-0.44,0.92-0.67,1.38c-0.29-0.39-0.591-0.77-0.86-1.159c-0.1-0.16-0.14-0.36-0.24-0.62
				c-1.03,0.84-2,1.63-2.96,2.42c-0.12-0.101-0.24-0.19-0.36-0.29c1.03-1.74,2.021-3.53,3.141-5.22c0.26-0.391,0.99-0.48,1.5-0.71
				c0.13,0.489,0.35,0.97,0.39,1.47C155.189,157.091,155.25,158.011,155.16,158.911z"/>
			<path d="M158.71,254.231c1.26-3.05,2.729-6.02,4.21-8.979c0.77-1.551,1.229-3.171,1.77-4.801c1.61-4.91,3.15-9.8,3.44-15.01
				c0.12-2.15,0.04-4.47,1.92-6.189c0.28,0.5,0.52,0.949,0.75,1.369c1.14-0.609,2.23-1.369,3.44-1.8c2-0.71,4.06-1.33,6.14-1.76
				c4.31-0.89,8.64-1.72,13-2.4c4.35-0.67,8.74-1.09,13.1-1.68c2.681-0.36,5.351-0.76,8.011-1.25c2.46-0.45,4.909-0.95,7.319-1.6
				c1.82-0.5,3.58-1.25,5.351-1.94c0.67-0.26,1.62-0.29,1.55-1.439c0-0.171,0.53-0.391,0.84-0.54c0.89-0.41,1.78-0.801,2.68-1.19
				c0.44-0.19,0.87-0.43,1.33-0.51c3.471-0.55,6.4-2.141,8.391-4.99c2.159-3.1,4.01-6.42,6-9.64c0.569-0.931,1.3-1.801,1.699-2.801
				c0.62-1.55,0.96-3.199,1.511-4.779c0.76-2.17,0.93-4.601,2.8-6.48c-0.04,0.72-0.05,1.311-0.12,1.891
				c-0.22,2.02-0.7,4.05-0.64,6.06c0.05,1.72-0.49,3.11-1.23,4.54c-0.18,0.35-0.33,0.72-0.479,1.09
				c-1.301,3.23-2.29,6.58-5.301,8.851c-1.3,0.979-2.04,2.689-3.31,3.75c-3.65,3.039-7.6,5.63-12.13,7.229
				c-0.23,0.08-0.42,0.31-0.69,0.51c0.42,0.5,0.75,0.94,1.13,1.34c2.591,2.75,4.9,5.74,6.511,9.131
				c1.159,2.46,2.189,4.989,3.17,7.54l-0.301,0.109c-0.06-0.13-0.13-0.26-0.21-0.37c-0.939-1.35-1.92-2.68-2.85-4.04
				c-2.53-3.72-5.06-7.449-7.58-11.189c-0.63-0.931-1.27-1.15-2.399-0.71c-1.08,0.42-2.32,0.43-3.5,0.55
				c-0.54,0.05-1.12-0.22-1.641-0.12c-3.35,0.71-6.689,1.48-10.03,2.23c-0.949,0.21-1.899,0.399-3.109,0.649
				c0.47,0.4,0.689,0.61,0.93,0.8c1.34,1.051,2.89,1.92,4.01,3.16c2.681,2.98,5.811,5.51,8.2,8.811c1.36,1.88,2.88,3.649,4.42,5.409
				l-0.83,0.711c-0.87-0.99-1.75-1.961-2.64-2.921c-3.11-3.35-6.36-6.59-9.66-9.76c-1.689-1.609-3.64-2.95-5.49-4.39
				c-2.229-1.74-4.649-0.97-7.069-0.55c-3.771,0.649-7.54,1.35-11.33,1.779c-5.271,0.601-10.21,2.141-14.91,4.54
				c-0.94,0.48-1.86,1.04-2.78,1.57c-1.069,0.62-1.439,1.64-1.609,2.79c-0.271,1.82-0.351,3.7-0.881,5.43
				c-1,3.271-2.239,6.471-3.409,9.681c-0.7,1.949-1.311,3.949-2.21,5.81c-1.69,3.51-3.341,7.07-5.4,10.37
				c-2.92,4.65-6.18,9.09-9.3,13.61c-0.26,0.38-0.46,0.859-0.82,1.09c-1.02,0.63-1.99,0.3-2.21-0.86c0-0.01,0-0.02,0-0.03l0.57-0.09
				c0.68-0.29,1.229-0.35,1.5-0.66c0.87-0.989,1.75-1.989,2.42-3.109C153.479,263.491,156.67,259.201,158.71,254.231z"/>
			<path d="M140.81,137.431c2,1.859,2.28,4.52,3.38,6.81c-2.67-1.22-3.52-4.04-5.46-5.85c-1.71,1.57-3.37,3.11-5.029,4.649
				c-0.15-0.14-0.301-0.279-0.46-0.409c1.27-1.761,2.46-3.57,3.81-5.25C138.88,135.101,138.72,135.481,140.81,137.431z"/>
			<path d="M150.859,122.831c0.4,0.33,0.69,1.27,0.511,1.71c-0.34,0.82-1.07,0.38-1.61,0.01c-1.68-1.14-3.35-2.29-5.02-3.44
				c-0.11,0.06-0.23,0.11-0.341,0.16c0.641,1.97,1.28,3.94,1.92,5.91c-0.17,0.06-0.34,0.13-0.5,0.2
				c-1.199-2.38-2.399-4.77-3.71-7.38c-0.26,0.33-0.47,0.58-0.67,0.85c-2.09,2.83-4.17,5.67-6.26,8.5
				c-0.09,0.13-0.18,0.28-0.31,0.36c-0.34,0.21-0.71,0.38-1.07,0.57c0.04-0.47-0.06-1.02,0.15-1.38c1.189-2.1,2.39-4.21,3.729-6.22
				c0.28-0.42,0.58-0.84,0.88-1.25c0.9-1.23,1.87-2.4,2.84-3.58c0.58-0.7,2.32-0.53,3.33,0.24c2.061,1.56,4.141,3.08,6.12,4.73
				L150.859,122.831z"/>
			<path d="M139.819,91.051c2.54,6.3,3.301,12.89,3.33,19.75c-1.14-6.43-2.27-12.73-3.439-19.31c-2.67,2.22-5.59,3.45-8.82,4.04
				C133.93,94.011,136.979,92.481,139.819,91.051z"/>
			<path d="M127.89,153.931c-0.109,0.77-0.01,1.78-1.01,1.88c-0.271,0.03-0.73-1.03-0.95-1.65c-0.26-0.689-0.35-1.449-0.53-2.25
				c-1.31,0.16-2.09,1.45-3.659,1.03c1.6-1.229,2.979-2.31,4.399-3.34c0.141-0.1,0.75,0.12,0.811,0.3
				c0.35,1.09,0.609,2.21,0.89,3.32C127.89,153.451,127.92,153.701,127.89,153.931z"/>
			<path d="M128.97,135.351c0.45,0.54,0.811,1.2,1.021,1.87c0.1,0.36-0.2,0.84-0.32,1.27c-0.38-0.15-0.8-0.26-1.15-0.48
				c-0.26-0.16-0.439-0.45-0.739-0.78c-0.99,0.75-2.051,2.03-3.301,0.94c-0.87-0.77-1.3-2.03-2-3.19
				c-1.56,1.05-2.34,2.98-4.199,3.47c-0.131-0.12-0.261-0.24-0.391-0.36c1.01-1.17,2.01-2.35,3.03-3.51
				c0.18-0.21,0.479-0.32,0.64-0.54c1.11-1.48,2.42-1.07,3.311,0.65c0.229,0.45,0.46,0.91,0.76,1.48c0.47-0.4,0.86-0.72,1.25-1.04
				C127.649,134.491,128.41,134.661,128.97,135.351z"/>
			<path d="M108.97,136.151c0.16,0.38,0.17,0.82,0.24,1.24c-0.46,0.03-0.94,0.11-1.4,0.07c-0.24-0.03-0.46-0.28-0.8-0.49
				c-0.2,0.24-0.3,0.43-0.46,0.52c-0.39,0.21-0.91,0.61-1.18,0.49c-0.311-0.14-0.57-0.75-0.58-1.16c-0.021-1.04-0.34-2.38,0.84-2.9
				c1.229-0.54,1.87,0.71,2.63,1.43C108.52,135.601,108.83,135.841,108.97,136.151z"/>
			<path d="M129.64,95.121c-0.52-3.84-1.01-7.48-1.55-11.42c-1.36,3.23-2.65,6.23-3.88,9.25c-0.08,0.19,0.18,0.72,0.38,0.78
				C126.13,94.201,127.7,94.601,129.64,95.121z M140.109,89.201c0.631-1.37,1.181-2.55,1.73-3.74c-1.39-0.64-2.64-1.17-3.84-1.79
				c-1.87-0.98-3.7-2.01-5.561-3.02c-0.069,0.13-0.149,0.26-0.22,0.39C134.8,83.711,137.38,86.381,140.109,89.201z M162.6,100.081
				c0.4-4.05,0.79-8.11,1.19-12.17c-0.07-0.01-0.13-0.02-0.2-0.02c-0.22,1.64-0.44,3.28-0.66,4.93c-0.04-0.01-0.07-0.01-0.1-0.01
				c0.59-6.83,1.18-13.66,1.77-20.49c-0.1-0.01-0.189-0.01-0.29-0.02c-0.43,4.21-0.859,8.43-1.29,12.65
				c-0.2-0.17-0.21-0.33-0.2-0.48c0.461-4.57,1.051-9.12,1.351-13.69c0.399-6.09,0.58-12.19,0.84-18.28
				c0.1-2.48,0.19-4.95,0.18-7.42c0-0.56-0.26-1.28-0.659-1.65c-3.69-3.35-7.431-6.65-11.16-9.96c-0.221-0.2-0.48-0.35-0.891-0.64
				c-0.09,1.54-0.22,2.88-0.239,4.22c-0.051,3.83,0,7.67-0.12,11.5c-0.04,1.12-0.71,2.23-0.71,3.34c0.04,4.67,0.199,9.35,0.35,14.02
				c0.08,2.46,0.23,4.9,0.34,7.35c-0.05-0.12-0.12-0.24-0.18-0.36c-0.061-0.14-0.11-0.28-0.12-0.42c-0.05-1.52-0.03-3.04-0.1-4.56
				c-0.36-7.83-0.71-15.65-1.11-23.47c-0.24-4.67-0.57-9.32-0.87-13.98c-0.03-0.44-0.09-0.88-0.13-1.33
				c-2.23,2.81-4.19,5.67-6.12,8.56c-1.479,2.22-2.939,4.46-4.36,6.72c-0.239,0.38-0.38,0.9-0.34,1.34
				c0.11,1.27,0.391,2.53,0.48,3.8c0.2,2.98,0.319,5.96,0.49,8.95c0.27,4.5,0.55,9,0.819,13.51c0.15,2.46,0.431,4.94,0.38,7.4
				c-0.04,2.12-0.14,2.27,1.86,2.93c1.24,0.41,2.16,1.08,2.34,2.42c0.22,1.63,0.38,3.26,0.48,4.89c0.27,4.38,0.5,8.76,0.72,13.14
				c0.06,1.07,0.01,2.14,0.01,3.22c-0.149,0.01-0.3,0.02-0.45,0.03c-0.93-6.25-1.85-12.49-2.77-18.74
				c-0.14-0.01-0.271-0.03-0.41-0.04c-0.56,0.93-1.18,1.85-1.689,2.82c-0.32,0.62-0.69,0.79-1.141,0.58
				c-0.12-0.06-0.24-0.14-0.37-0.25c-1.939-1.65-3.89-3.3-5.79-5c-1.08-0.96-2.06-2.04-3.3-3.27c-0.1,3.97-1.35,7.49-0.79,11.14
				c0.13,0.8,0.23,1.61,0.4,2.4c0.109,0.6,0.26,1.19,0.47,1.76c1.76,4.88,3.64,9.72,5.47,14.57c0.08,0.2,0.11,0.43,0.16,0.64
				c-0.1,0.04-0.2,0.07-0.29,0.1c-1.77-4.6-3.67-9.16-5.24-13.82c-0.71-2.1-1.59-3.4-3.949-3.41c-0.931,0-1.86-0.32-3.011-0.54
				c0.65,1.04,1.181,1.79,1.62,2.59c3.61,6.67,7.23,13.33,10.78,20.03c0.45,0.85,0.56,1.88,0.82,2.83
				c-0.15,0.06-0.29,0.12-0.44,0.18c-0.58-0.73-1.2-1.43-1.72-2.2c-1.2-1.76-2.53-3.26-5.13-3.02c0,0.65,0.109,1.3-0.021,1.9
				c-0.64,2.91-0.729,3.36-3.529,3.14c-0.311-0.03-0.61-0.18-0.9-0.3c-0.99-0.38-1.98-0.78-3.05-1.21
				c-0.17,0.53-0.29,0.94-0.44,1.35c-0.56,1.58-1.04,3.19-1.72,4.72c-0.64,1.42-1.51,1.48-2.561,0.3
				c-0.55-0.63-0.989-1.36-1.56-1.97c-0.63-0.66-1.35-1.24-2.08-1.9c-0.62,1.13-1.08,2.01-1.59,2.87c-0.61,1.05-0.46,1.33,0.59,1.93
				s2.01,1.39,3.01,2.1c-0.069,0.16-0.149,0.31-0.22,0.46c-0.71-0.16-1.41-0.34-2.12-0.49c-2.17-0.46-4.33-1.15-6.53-1.31
				c-4.3-0.32-8.619-0.38-12.93-0.47c-0.93-0.02-1.53-0.26-1.84-1.14c-0.29-0.82-0.61-1.63-0.88-2.46
				c-1.07-3.22-2.24-6.41-3.141-9.67c-0.989-3.58-1.72-7.22-2.579-10.83c-0.11-0.44-0.341-0.86-0.46-1.17
				c-1.83,3.32-3.671,6.64-5.511,9.97l-1.34-0.74c1.03-1.87,2.05-3.74,3.061-5.62c1.09-2.04,2.069-4.14,3.09-6.21
				c0.16-0.33,0.279-0.67,0.47-0.98c0.45-0.73,0.98-0.86,1.42-0.02c0.43,0.85,0.91,1.71,1.13,2.62c0.92,3.85,1.641,7.75,2.62,11.57
				c0.98,3.79,2.18,7.51,3.34,11.25c0.08,0.28,0.61,0.6,0.94,0.61c3.46,0.11,6.92,0.15,10.38,0.24c0.67,0.01,1.37,0.05,2.01,0.25
				c1.48,0.47,2.46-0.17,3.26-1.3c0.801-1.14,1.58-2.3,2.341-3.47c0.47-0.73,1.06-1.01,1.779-0.42c0.79,0.64,1.54,1.36,2.25,2.08
				c0.5,0.51,0.92,1.09,1.561,1.86c0.5-1.37,0.93-2.54,1.35-3.71c0.351-0.97,0.66-1.97,1.07-2.92c0.5-1.2,1.28-1.33,2.399-0.69
				c1.37,0.78,2.82,1.43,4.351,2.19c0.12-1.14,0.22-2.08,0.33-3.03c0.189-1.6,0.55-1.91,2.109-1.89c0.28,0,0.551-0.02,0.99-0.04
				c-0.66-1.14-1.31-2.18-1.86-3.25c-2.26-4.4-4.449-8.84-6.76-13.21c-0.81-1.56-0.26-3.08,0.15-4.42
				c1.12-3.66,1.939-7.46,4.189-10.72c0.601-0.87,0.7-2.15,0.82-3.27c0.11-1.09,0.62-1.58,1.89-1.23
				c1.65,0.46,3.301,0.96,4.891,1.58c1.63,0.64,3.189,1.44,4.979,2.26c-0.069-1.45-0.12-2.81-0.22-4.17
				c-0.2-2.89-0.47-5.78-0.66-8.67c-0.24-3.7-0.39-7.41-0.64-11.11c-0.25-3.65-0.61-7.3-0.851-10.95
				c-0.09-1.37,0.311-2.58,1.171-3.77c1.449-2.02,2.59-4.27,3.979-6.33c2.09-3.11,4.26-6.16,6.48-9.17
				c0.54-0.73,1.31-1.42,2.13-1.77c0.569-0.25,1.55-0.11,2.08,0.25c0.84,0.57,1.489,1.43,2.149,2.23c3.21,3.86,6.4,7.73,9.59,11.61
				c0.4,0.48,0.75,1.01,1.32,1.78c0.2-1.08,0.37-1.87,0.49-2.66c0.34-2.25,0.689-4.49,1-6.74c0.33-2.41,0.58-4.84,0.95-7.24
				c0.31-1.99,0.439-4.1,1.229-5.91c0.64-1.46,1.98-2.73,3.28-3.76c5.7-4.51,11.52-8.87,17.26-13.34c1.58-1.23,2.04-1.21,3.16,0.4
				c0.64,0.92,1.43,1.73,2.06,2.65c0.95,1.41,1.811,2.88,2.75,4.3c0.391,0.6,0.841,1.18,1.36,1.66l-0.91,0.94
				c-0.06-0.06-0.12-0.12-0.18-0.18c-1.7-1.79-3.44-3.55-5.18-5.31c-0.171-0.17-0.391-0.29-0.601-0.44
				c-0.899,6.07-1.649,12.05-2.71,17.97c-1.05,5.93-2.31,11.82-4.59,17.42c-0.14-0.01-0.28-0.03-0.43-0.05c0-1.56,0-3.12,0-4.69
				c-0.25,0.05-0.44,0.09-0.631,0.13c1.33-6.23,2.74-12.44,3.99-18.68c0.7-3.51,1.15-7.07,1.7-10.61c0.06-0.44,0-0.89,0-1.56
				c-0.52,0.43-0.82,0.68-1.13,0.93c-2.271,1.83-4.42,3.84-6.84,5.45c-2.9,1.93-5.78,3.85-8.221,6.35
				c-0.43,0.44-0.68,1.12-0.859,1.74c-0.18,0.6-0.16,1.27-0.26,1.9c-0.73,4.85-1.58,9.69-2.17,14.55
				c-0.851,6.97-1.561,13.96-2.23,20.95c-0.69,7.18-1.23,14.39-1.89,21.58c-0.341,3.7-0.721,7.39-1.19,11.07
				c-0.26,2.01-0.79,3.98-1.11,5.99c-0.26,1.58-0.399,3.18-0.59,4.78C162.72,100.101,162.66,100.091,162.6,100.081z"/>
			<path d="M67.84,157.991c0.49,0.54,0.87,1.2,1.1,1.15c0.46-0.101,0.83-0.59,1.23-0.92c-0.37-0.431-0.75-0.86-1.12-1.3
				C68.72,157.211,68.399,157.501,67.84,157.991z M74.34,156.271c3.88,2.27,3.46,7.59,1.79,10.33c-1.91,3.11-4.86,4.71-7.88,6.34
				c-3.15,1.7-6.29,0.95-9.391,0.04c-0.939-0.28-1.779-0.97-2.6-1.54c-0.59-0.41-0.72-0.99-0.33-1.68
				c0.43-0.78,1.04-0.63,1.65-0.391c0.72,0.28,1.42,0.641,2.06,0.94c-1.16-1.81-2.31-3.62-3.62-5.66
				c-0.04,0.79-0.069,1.36-0.109,1.92c-0.04,0.561,0,1.15-0.19,1.66c-0.13,0.33-0.57,0.66-0.92,0.73c-0.19,0.04-0.69-0.471-0.7-0.75
				c-0.05-1.45-0.27-2.98,0.09-4.351c0.771-2.96,2.15-5.62,4.681-7.58c1.55-1.2,3.35-1.56,5.14-2.08
				C67.85,153.081,71.2,154.421,74.34,156.271z"/>
			<path d="M21.39,196.821c-1.99,0.181-3.97,0.391-5.96,0.53c-0.41,0.03-0.88-0.14-1.24-0.36c-0.25-0.16-0.529-0.569-0.489-0.819
				c0.029-0.271,0.43-0.67,0.689-0.681c1.851-0.05,3.71-0.09,5.561,0.011c0.51,0.029,1.01,0.52,1.51,0.8
				C21.439,196.471,21.41,196.641,21.39,196.821z"/>
			<path d="M61.42,206.191c1.1,1.061,1.33,1.021,2.39-0.479C62.92,205.891,62.22,206.031,61.42,206.191z M62.99,129.311
				c0.3-3.53,0.579-7.05,0.829-10.58c0.061-0.87,0.011-1.75,0.011-2.9c-5.61,5.67-8.431,12.51-10.79,19.73
				c3.16-1.83,6.319-3.65,9.47-5.5C62.74,129.921,62.97,129.571,62.99,129.311z M146.26,271.911c-0.3-1.58-0.4-3.199-0.51-4.81
				c-0.36-5.09-0.681-10.19-2.01-15.14c-0.62-2.32-1.591-4.54-2.41-6.811c-0.13,0.03-0.271,0.05-0.4,0.08
				c0.19,1.71,0.351,3.42,0.58,5.12c0.82,5.85,1.66,11.7,2.47,17.56c0.061,0.46,0.09,0.99-0.08,1.4c-0.22,0.54-0.59,1.32-1.01,1.4
				c-0.6,0.119-1.54-0.101-1.93-0.53c-1.87-2.061-3.8-4.11-5.33-6.42c-2.09-3.16-3.88-6.521-5.72-9.83
				c-1.351-2.44-2.63-4.91-3.83-7.43c-0.61-1.28-1-2.681-1.44-4.03c-2.13-6.53-4.68-12.91-7.87-18.97
				c-1.72-3.271-4.13-6.271-6.62-9.04c-2.71-3.011-5.729-5.86-9.569-7.44c-1.561-0.64-3.42-0.89-5.11-0.81
				c-5.17,0.27-10.14,1.64-15.14,2.89c-4.82,1.21-9.75,1.96-14.62,2.99c-4.37,0.93-8.7,1.989-13.07,2.939
				c-1.28,0.28-2.59,0.471-3.899,0.57c-2.71,0.18-5.421,0.27-8.131,0.41c-2.18,0.12-4.369,0.359-6.55,0.359
				c-1.38,0-2.779-0.25-4.14-0.55c-2.53-0.56-5.07-1.109-7.53-1.899c-1.41-0.45-2.71-1.311-3.99-2.101
				c-2.989-1.819-6.09-3.53-8.869-5.64c-2.75-2.08-5.391-4.391-7.23-7.41c-1.4-2.29-2.28-4.7-2.3-7.44
				c-0.021-2.64,1.34-4.46,3.2-6.069c1.05-0.91,2.05-1.87,3.09-2.79c1.069-0.95,2.2-1.83,3.24-2.811
				c3.039-2.859,6.14-5.67,9.05-8.659c3.06-3.15,5.729-6.62,8.04-10.37c1.479-2.41,3.279-4.65,4.609-7.13
				c1.99-3.7,4.98-6.341,8.34-8.66c3.181-2.19,6.381-4.32,9.53-6.541c0.45-0.31,0.73-0.91,0.99-1.43c2.13-4.23,4.14-8.51,6.35-12.7
				c2.24-4.22,4.65-8.34,7-12.5c0.58-1.03,1.24-2.01,1.86-3.02c0.16,0.05,0.31,0.09,0.47,0.14c0.24,6.59-0.63,13.16-0.67,19.89
				c1.79-0.52,3.36-1.27,4.28-2.78c1.97-3.22,3.82-6.53,5.68-9.84c1.05-1.86,2.09-3.72,3.12-5.58l1.34,0.74
				c-2.59,4.71-5.2,9.43-7.83,14.2c2.91,0.09,5.49,0.14,7.82-1.63c1.13-0.86,2.01-1.69,2.47-3.05c0.37-1.1,0.99-2.11,1.5-3.15
				c0.12,0,0.24,0.01,0.36,0.02c0.13,1.04-0.11,2.29,1.53,2.52c-0.91,0.99-1.641,1.77-2.36,2.56c0.08,0.08,0.16,0.17,0.24,0.26
				c0.78-0.04,1.56-0.08,2.34-0.12c0.01,0.13,0.03,0.25,0.05,0.38c-1.56,1.61-3.92,1.46-5.83,2.47c1.62,0.3,3.49-0.29,4.53,1.77
				c-0.38,0.16-0.771,0.45-1.19,0.49c-2.89,0.29-5.79,0.56-8.699,0.77c-3.78,0.27-7.271,1.46-10.53,3.32
				c-2.561,1.47-4.96,3.21-7.54,4.64c-3.91,2.18-7.82,4.34-11.33,7.12c-2.16,1.711-4.26,3.49-6.35,5.29
				c-1.25,1.091-2.631,2.12-3.57,3.45c-1.98,2.8-3.93,5.66-5.5,8.7c-3.22,6.25-8.021,11.07-13.23,15.59
				c-3.1,2.7-6.279,5.311-9.3,8.11c-1.33,1.229-2.479,2.729-3.46,4.27c-1.63,2.561-1.08,7.28,1.41,9.83
				c2.27,2.32,4.79,4.49,7.49,6.28c2.88,1.91,6.04,3.42,9.18,4.88c2.22,1.04,4.55,1.96,6.94,2.45c1.51,0.3,3.229-0.19,4.83-0.5
				c3.17-0.62,6.31-1.39,9.47-2.061c4.81-1.02,9.45-2.55,14.04-4.279c2.55-0.96,5.12-1.98,7.89-1.87
				c4.141,0.17,8.18-0.53,12.23-1.18c0.37-0.051,0.75,0,1.13,0c-0.25,0.409-0.561,0.67-0.91,0.76c-2.61,0.689-5.25,1.3-7.85,2.02
				c-1.44,0.391-2.9,0.41-4.141,1.73c-2,2.14-2.75,1.96-5.2,0.399c-0.51-0.319-1.39-0.37-1.989-0.189
				c-3.12,0.95-6.21,2.06-9.33,3.04c-2.62,0.819-5.271,1.529-7.91,2.3c-0.36,0.11-0.69,0.31-1.04,0.47
				c2.01,0.01,3.91-0.229,5.82-0.38c1.739-0.13,3.51-0.03,5.239-0.25c2.29-0.29,4.561-0.76,6.82-1.21
				c5.85-1.15,11.79-1.7,17.54-3.46c4.6-1.41,9.4-2.17,14.06-3.41c4.21-1.109,8.28-2.62,11.95-5.03c0.42-0.279,0.9-0.47,1.36-0.699
				c0.06,0.09,0.12,0.189,0.18,0.279c-0.28,0.32-0.52,0.681-0.84,0.94c-1.02,0.82-2.09,1.6-3.11,2.42
				c-0.22,0.18-0.35,0.48-0.52,0.72c0.229,0.141,0.439,0.29,0.68,0.41c1.2,0.63,2.51,1.101,3.57,1.91
				c1.61,1.23,2.939,2.81,4.55,4.02c2.58,1.961,4.66,4.32,6.561,6.921c3.06,4.17,5.67,8.569,7.85,13.26
				c2.05,4.38,3.84,8.859,5.72,13.3c3.17,7.46,7.11,14.54,11.48,21.38c1.04,1.63,2.279,3.13,3.43,4.68
				c0.17-0.04,0.33-0.079,0.5-0.13c-0.08-1.87-0.01-3.77-0.3-5.62c-0.351-2.27-1.14-4.479-1.5-6.75c-0.7-4.489-1.2-9.01-1.84-13.51
				c-0.3-2.09,0.35-4.359-1.181-6.229c-0.06-0.07,0.03-0.261,0.051-0.4c0.13-0.02,0.26-0.04,0.39-0.06
				c6.57,10.75,9.71,22.39,8.49,35.439L146.26,271.911z"/>
		</g>
	</g>
</g>
</svg>
