<?xml version="1.0" encoding="utf-8"?>
<!-- Generator: Adobe Illustrator 16.0.0, SVG Export Plug-In . SVG Version: 6.00 Build 0)  -->
<!DOCTYPE svg PUBLIC "-//W3C//DTD SVG 1.1//EN" "http://www.w3.org/Graphics/SVG/1.1/DTD/svg11.dtd">
<svg version="1.1" id="Layer_1" xmlns="http://www.w3.org/2000/svg" xmlns:xlink="http://www.w3.org/1999/xlink" x="0px" y="0px"
	 width="309.573px" height="274.172px" viewBox="0 0 309.573 274.172" enable-background="new 0 0 309.573 274.172"
	 xml:space="preserve">
<g>
	<g id="XMLID_5_">
		<g>
			<path fill="#9F8CE2" d="M63.811,118.335c-0.2,2.33-0.47,4.659-0.67,7c-0.11,1.189-0.07,2.39-0.18,3.58
				c-0.04,0.409-0.22,0.989-0.53,1.18c-3.1,1.85-6.24,3.64-9.68,5.63c2.59-7.37,5.48-14.17,11.07-19.91
				C63.821,116.875,63.881,117.604,63.811,118.335z"/>
			<path fill="#9F8CE2" d="M250.221,266.364c-0.21,0.091-0.409,0.19-0.609,0.28c-0.55-0.729-1.03-1.52-1.66-2.16
				c-1.1-1.14-0.67-2.229-0.07-3.35c0.65-1.23,1.32-2.45,1.98-3.67c0.12,0.02,0.24,0.04,0.359,0.06
				C250.221,260.475,250.221,263.425,250.221,266.364z"/>
			<path fill="#9F8CE2" d="M222.661,211.784c0.96-0.189,1.99-0.079,2.98-0.04c0.199,0.011,0.47,0.301,0.56,0.521
				c1.33,3.21,4.13,5.21,6.25,7.76c1.34,1.59,2.5,3.47,3.2,5.42c1.34,3.65,2.529,7.4,3.33,11.2c0.439,2.061,0.739,4.14,0.91,6.24
				c0.18,2.229,0.199,4.47,0.06,6.71c0,0.1-0.12,0.189-0.26,0.38c-0.79-1.51-1.4-3.01-2.3-4.29c-1.181-1.69-2.421-3.34-3.671-4.99
				c-0.869-1.149-1.739-2.29-2.59-3.45c-1.109-1.5-2.08-3.1-3.229-4.56c-1.19-1.5-2.521-2.88-3.78-4.33
				c-2.72-3.13-5.479-6.24-8.12-9.43c-0.87-1.05-1.41-2.36-2.14-3.521c-0.271-0.43-0.66-0.79-1.12-1.319
				c0.43-0.12,0.81-0.23,1.2-0.32C216.841,213.095,219.741,212.375,222.661,211.784z"/>
			<path fill="#D6CFF3" d="M213.181,125.104c2.061-1.13,4.12-2.27,5.94-3.28c1.69,1.511,3.39,2.94,4.98,4.49
				c1.17,1.13,2.17,2.44,3.31,3.61c0.23,0.24,0.75,0.189,1.14,0.27c-0.01-0.319,0.08-0.7-0.06-0.97c-0.28-0.57-0.65-1.09-1.021-1.6
				c-1.05-1.4-2.21-2.73-3.14-4.2c-1.04-1.65-2.14-3.061-4.11-3.75c-1.1-0.38-1.92-0.38-2.739,0.35
				c-1.431,1.271-2.83,2.561-4.221,3.87c-0.35,0.33-0.6,0.771-1.08,1.38C212.741,125.185,212.991,125.205,213.181,125.104z
				 M195.291,136.665c0.51-0.44,0.88-0.54,1.46-0.16c2.21,1.46,2.22,1.439,1.32,3.93c-0.01,0.04-0.05,0.07-0.04,0.11
				c0.01,0.22,0.03,0.439,0.05,0.649c0.25-0.029,0.54,0,0.75-0.109c0.23-0.13,0.4-0.38,0.57-0.601c1.1-1.35,2.189-2.7,3.39-4.189
				c2.11,2.13,4.19,4.229,6.26,6.319c0.101-0.109,0.19-0.229,0.28-0.34c-0.93-2.67-2.43-4.99-4.229-7.149
				c-0.33-0.391-0.771-0.73-0.98-1.181c-0.58-1.22-0.81-1.3-1.71-0.27c-0.74,0.859-1.39,1.79-2.09,2.7
				c-1.16-1.23-2.26-2.391-3.51-3.71c-2.521,1.779-4.19,4.47-5.98,7.09c0.39,0,0.7-0.08,0.93-0.261
				C192.961,138.574,194.161,137.654,195.291,136.665z M186.681,121.074c1.32-1.08,2.641-2.149,3.98-3.25c1,1.5,1.85,2.891,2.83,4.2
				c0.27,0.36,0.89,0.46,1.35,0.681c0.021-0.44,0.19-0.94,0.04-1.301c-0.72-1.729-1.5-3.43-2.3-5.109
				c-0.62-1.28-1.39-1.36-2.34-0.311c-0.89,0.971-1.8,1.931-2.66,2.92c-0.479,0.57-0.87,1.2-1.31,1.811
				C186.411,120.835,186.541,120.955,186.681,121.074z M171.312,131.545c1.84,0.88,3.609,1.699,5.359,2.569
				c1.48,0.73,2.601,0.38,3.34-1.109c0.28-0.57,0.54-1.15,0.841-1.79c0.59,0.31,1.05,0.68,1.569,0.779
				c0.38,0.07,0.96-0.09,1.21-0.359c0.221-0.24,0.24-0.87,0.07-1.17c-0.25-0.471-0.7-0.87-1.14-1.2
				c-1.521-1.14-2.69-0.85-3.591,0.85c-0.069,0.141-0.149,0.28-0.229,0.42c-0.311,0.511-0.63,1.011-0.94,1.521
				c-0.489-0.32-0.979-0.64-1.47-0.95c-0.37-0.24-0.729-0.51-1.13-0.67c-1.41-0.53-2.85-0.96-4.23-1.55
				c-1.149-0.49-1.5-0.01-1.71,1.01c-0.79,3.83-1.689,7.64-2.39,11.49c-0.25,1.39-0.04,2.859-0.04,4.29
				c0.13,0.02,0.26,0.04,0.38,0.06C169.181,141.205,169.621,136.194,171.312,131.545z M162.312,139.805
				c0.439-0.34,1.13-0.59,1.29-1.04c0.68-1.84,1.21-3.74,1.76-5.5c-0.25-0.7-0.37-1.17-0.601-1.59c-0.02-0.05-0.75,0.1-0.88,0.319
				c-1.189,1.9-2.189,3.9-2.3,6.181C161.551,138.705,162.051,139.265,162.312,139.805z M151.931,135.915
				c2.03-0.62,2.69-2.511,4.08-3.9c0.66,0.89,1.23,1.74,1.891,2.51c0.24,0.271,0.71,0.34,1.069,0.51
				c0.11-0.399,0.44-0.92,0.301-1.18c-0.86-1.51-1.79-2.99-2.79-4.41c-0.44-0.63-1.08-0.45-1.471,0.181
				c-0.729,1.18-1.479,2.359-2.109,3.6C152.471,134.064,152.251,135.015,151.931,135.915z M150.411,160.935
				c0.96-0.78,1.92-1.56,2.97-2.42c0.101,0.26,0.141,0.42,0.23,0.54c0.29,0.42,0.609,0.82,0.92,1.229c0.22-0.51,0.59-1,0.649-1.529
				c0.091-0.86,0.011-1.74-0.069-2.61c-0.04-0.47-0.21-0.939-0.33-1.4c-0.49,0.171-1.21,0.19-1.44,0.53
				c-1.17,1.75-2.21,3.57-3.3,5.37C150.161,160.744,150.281,160.835,150.411,160.935z M138.711,138.395c1.97,1.78,2.8,4.66,5.5,5.87
				c-0.66-1.85-1.34-3.69-2.28-5.38c-0.52-0.95-1.489-1.641-2.199-2.5c-0.69-0.82-1.351-0.65-1.891,0.04
				c-1.35,1.729-2.64,3.5-3.93,5.27c-0.23,0.311-0.33,0.721-0.5,1.09c0.11,0.091,0.22,0.171,0.33,0.261
				C135.381,141.515,137.021,139.975,138.711,138.395z M121.991,153.324c1.18-0.52,2.189-0.96,3.39-1.479
				c0.271,1.16,0.46,2.21,0.761,3.229c0.1,0.32,0.479,0.551,0.72,0.82c0.28-0.25,0.72-0.47,0.78-0.77
				c0.149-0.681,0.229-1.431,0.13-2.11c-0.141-0.93-0.57-1.82-0.721-2.74c-0.149-0.939-0.59-0.97-1.21-0.53
				c-1.279,0.931-2.529,1.91-3.79,2.881C121.991,152.665,122.031,152.835,121.991,153.324z M118.271,138.444
				c1.92-0.43,2.63-2.529,4.229-3.43c0.68,1.13,1.11,2.4,1.99,3.16c1.24,1.09,2.3-0.2,3.3-0.95c0.32,0.37,0.521,0.69,0.8,0.89
				c0.28,0.21,0.74,0.49,0.96,0.391c0.271-0.13,0.601-0.71,0.511-0.931c-0.351-0.869-0.74-1.8-1.37-2.439
				c-0.3-0.311-1.23-0.141-1.811,0.03c-0.439,0.14-0.779,0.609-1.25,1.01c-0.3-0.58-0.529-1.03-0.76-1.49
				c-0.89-1.7-2.2-2.13-3.31-0.63c-0.17,0.21-0.46,0.33-0.641,0.53c-1.02,1.159-2.02,2.34-3.029,3.51
				C118.021,138.215,118.142,138.324,118.271,138.444z M104.812,137.045c0.029,0.359,0.34,0.84,0.649,0.989
				c0.22,0.101,0.681-0.239,0.99-0.439c0.2-0.12,0.32-0.34,0.56-0.62c0.42,0.27,0.73,0.59,1.091,0.65
				c0.34,0.069,0.819-0.03,1.069-0.25c0.17-0.15,0.2-0.75,0.04-0.931c-0.729-0.84-1.479-1.68-2.35-2.359
				c-0.83-0.65-1.641-0.33-1.9,0.72C104.781,135.515,104.761,136.305,104.812,137.045z M14.981,197.244
				c1.73,0.04,3.47-0.109,5.21-0.229c0.41-0.03,0.81-0.25,1.21-0.39c0.02-0.15,0.05-0.301,0.07-0.45c-0.79-0.29-1.56-0.75-2.37-0.83
				c-1.33-0.12-2.69-0.05-4.02,0.08c-0.5,0.05-0.96,0.49-1.43,0.76C14.091,196.555,14.531,197.234,14.981,197.244z M65.351,207.265
				c1.24-1.33,2.7-1.34,4.14-1.73c2.61-0.72,5.24-1.34,7.86-2.02c0.35-0.09,0.65-0.36,0.9-0.76c-0.38,0-0.77-0.061-1.13,0
				c-4.05,0.66-8.09,1.34-12.23,1.18c-2.77-0.11-5.35,0.91-7.89,1.87c-4.59,1.729-9.24,3.26-14.04,4.28
				c-3.16,0.67-6.31,1.439-9.48,2.06c-1.59,0.311-3.31,0.8-4.83,0.5c-2.38-0.49-4.72-1.41-6.93-2.45c-3.14-1.46-6.31-2.97-9.18-4.88
				c-2.7-1.8-5.22-3.96-7.49-6.29c-2.49-2.55-3.04-7.27-1.41-9.819c0.99-1.54,2.13-3.04,3.46-4.28c3.02-2.79,6.2-5.41,9.31-8.101
				c5.2-4.52,10-9.35,13.22-15.59c1.57-3.04,3.52-5.91,5.5-8.7c0.94-1.329,2.32-2.369,3.58-3.449c2.08-1.801,4.18-3.591,6.34-5.29
				c3.52-2.79,7.43-4.95,11.33-7.12c2.58-1.431,4.98-3.181,7.55-4.641c3.25-1.859,6.74-3.05,10.52-3.319
				c2.91-0.21,5.81-0.49,8.71-0.771c0.39-0.04,0.77-0.279,1.16-0.43c-0.95-2.15-2.88-1.51-4.51-1.83c1.9-1.06,4.3-0.81,5.77-2.85
				c-0.77,0.04-1.55,0.08-2.33,0.109c-0.08-0.08-0.16-0.17-0.24-0.26c0.72-0.78,1.45-1.56,2.36-2.55c-1.64-0.23-1.39-1.49-1.54-2.53
				c-0.12,0-0.25-0.01-0.37-0.02c-0.51,1.09-1.09,2.149-1.52,3.27c-0.42,1.12-1.06,1.95-2.03,2.69c-2.41,1.83-5.1,2.149-8.19,1.819
				c2.61-4.729,5.21-9.43,7.8-14.13c1.84-3.33,3.67-6.649,5.51-9.979c0.12,0.31,0.35,0.729,0.46,1.17
				c0.86,3.609,1.59,7.26,2.58,10.83c0.899,3.26,2.07,6.45,3.14,9.67c0.271,0.83,0.59,1.64,0.88,2.46
				c0.311,0.89,0.91,1.12,1.84,1.14c4.311,0.09,8.631,0.15,12.931,0.47c2.2,0.16,4.359,0.851,6.54,1.311
				c0.7,0.15,1.399,0.33,2.1,0.49c0.08-0.15,0.15-0.311,0.23-0.46c-1-0.71-1.96-1.5-3.021-2.11c-1.04-0.59-1.189-0.87-0.569-1.92
				c0.5-0.86,0.96-1.74,1.619-2.93c0.95,0.979,1.851,1.869,2.721,2.8c0.399,0.43,0.699,0.979,1.13,1.38
				c0.91,0.86,1.689,0.78,2.189-0.34c0.721-1.601,1.25-3.28,1.851-4.931c0.14-0.409,0.26-0.829,0.43-1.35
				c1.07,0.43,2.061,0.83,3.05,1.21c0.29,0.12,0.59,0.271,0.9,0.3c2.8,0.221,2.89-0.229,3.53-3.149c0.13-0.601,0.02-1.25,0.02-1.87
				c2.561-0.29,3.87,1.2,5.07,2.899c0.56,0.79,1.18,1.54,1.77,2.311l2.12,0.89c-0.31,0.431-0.61,0.86-0.899,1.3
				c-1.29,1.9-2.421,3.91-3.57,5.91c-0.24,0.42-0.23,0.98-0.33,1.48c0.43-0.23,0.88-0.46,1.31-0.7c0.061-0.04,0.101-0.12,0.15-0.18
				c2.09-2.841,4.17-5.67,6.26-8.5c0.2-0.28,0.48-0.511,0.7-0.74c1.27,2.53,2.46,4.91,3.64,7.28c0.17-0.061,0.33-0.12,0.5-0.181
				c-0.64-1.97-1.27-3.95-1.909-5.92c0.1-0.06,0.189-0.109,0.279-0.17c0.32,0.2,0.65,0.4,0.96,0.62c1.45,0.99,2.88,2.02,4.37,2.94
				c0.33,0.199,0.91,0,1.37-0.021c-0.02-0.479,0-0.97-0.1-1.439c-0.03-0.181-0.32-0.33-0.5-0.48l0.93-0.95
				c4.02-3.78,7.56-7.92,10.69-12.49c0.729,3.091-0.33,6.131-0.16,9.16c0.14,0.021,0.27,0.04,0.41,0.07
				c0.789-3.23,1.59-6.47,2.5-10.18c0.38,0.55,0.6,0.949,0.899,1.279c1.09,1.28,2.14,2.591,3.33,3.771c0.83,0.82,1.9,1.41,2.79,2.17
				c0.77,0.66,1.46,1.43,2.18,2.14c0.101-0.069,0.19-0.149,0.29-0.229c-1.439-2.141-2.89-4.28-4.33-6.42
				c2.841,0.649,4.53,3.5,7.7,3.42c-0.28-1.82-2.16-2.25-2.92-3.41c0.18-0.16,0.36-0.32,0.54-0.49c2.97-2.67,5.9-5.31,8.96-8.06
				c0.58,0.569,1.25,1.22,1.9,1.899c0.97,1,1.63,2.28,3.33,2.511c0.75,0.1,1.34,1.18,2.05,1.75c0.64,0.52,1.359,0.93,2.01,1.42
				c0.57,0.43,1.39,0.81,1.59,1.39c0.5,1.47,1.23,0.78,1.851,0.31c0.979-0.75,1.869-1.619,2.81-2.43c0.23-0.21,0.46-0.42,0.73-0.66
				c0.659,0.73,0.859,1.33-0.061,1.98c-0.479,0.34-0.89,0.81-1.229,1.29c-0.2,0.279-0.19,0.71-0.28,1.06
				c0.38,0.07,0.82,0.3,1.11,0.181c0.649-0.271,1.27-0.671,1.829-1.11c0.66-0.5,1.29-1.08,1.87-1.68
				c0.66-0.66,1.271-0.65,2.021-0.141c1.819,1.23,3.67,2.42,5.52,3.601c0.33,0.21,0.75,0.439,1.101,0.399
				c0.37-0.05,0.79-0.35,1.01-0.66c0.1-0.14-0.13-0.699-0.36-0.87c-2.43-1.8-4.859-3.59-7.359-5.289
				c-0.471-0.32-1.24-0.19-2.11-0.301c-0.01-0.02-0.18-0.29-0.25-0.58c-0.42-1.68-1.74-2.199-3-1.02c-1.17,1.11-2.16,2.41-3.22,3.64
				c-0.221,0.25-0.4,0.55-0.65,0.9c-0.689-0.78-1.31-1.43-1.85-2.14c-0.15-0.19-0.16-0.711-0.021-0.841
				c0.73-0.64,1.181-1.489,2.46-1.609c1.16-0.12,2.28-1.061,3.33-1.771c2.28-1.55,4.48-3.21,6.74-4.79
				c1.72-1.189,1.91-1.2,3.3,0.351c1.561,1.75,3.01,3.6,4.54,5.439c-0.63,0.67-1.17,1.19-1.64,1.78c-0.19,0.25-0.23,0.63-0.34,0.95
				c0.369,0.04,0.85,0.24,1.09,0.09c1.2-0.78,2.34-1.65,3.5-2.5c0.31-0.23,0.59-0.51,0.97-0.84c0.39,1.58,0.71,3.02,1.1,4.439
				c0.471,1.721,0.931,3.45,1.54,5.12c0.53,1.45,1.37,1.62,2.57,0.65c1.42-1.16,2.8-2.36,4.311-3.63c1.39,1.6,2.68,3.21,4.119,4.68
				c0.75,0.77,1.761,1.3,2.67,1.91c0.131,0.09,0.521,0.04,0.53,0c0.08-0.351,0.09-0.71,0.13-1.141c0.75,0.29,1.511,0.681,2.32,0.891
				c3.63,0.95,7.31,1.72,10.89,2.81c4.091,1.261,7.98,3.07,11.46,5.561c2.94,2.09,6.061,4.02,8.28,7.01
				c0.21,0.29,0.561,0.47,0.851,0.71c0.09-0.07,0.18-0.13,0.27-0.2c-0.17-0.39-0.33-0.78-0.59-1.43c0.49,0.27,0.8,0.399,1.07,0.59
				c3.119,2.29,6.34,4.46,9.34,6.9c6.069,4.92,12.359,9.64,17.04,16.02c1.319,1.79,2.47,3.71,3.529,5.67
				c2.12,3.91,4.13,7.88,6.181,11.83c0.05,0.09,0.02,0.22,0.04,0.54c-0.74-0.34-1.391-0.58-1.99-0.92
				c-4.83-2.73-9.66-5.47-14.47-8.24c-0.891-0.52-1.801-1.109-2.48-1.87c-1.07-1.21-1.939-2.6-2.91-3.899
				c-1.56-2.101-2.47-4.51-3.51-6.88c-1-2.301-2.28-4.471-3.46-6.69c-0.08-0.16-0.24-0.28-0.61-0.3c0.09,0.33,0.17,0.68,0.29,1.01
				c1.24,3.37,2.87,6.65,3.62,10.12c1.01,4.65,2.08,9.35,2.03,14.17c-0.04,3.35,0.03,6.7-0.2,10.04c-0.28,4.19-0.54,8.42-1.34,12.53
				c-0.84,4.33-2.32,8.529-3.5,12.79c-0.18,0.64-0.15,1.35-0.38,1.979c-0.51,1.4-1.01,2.771-2.08,3.95
				c-0.68,0.75-0.94,1.92-1.311,2.93c-1.739,4.641-4.01,8.98-6.939,13c-1.82,2.5-3.45,5.13-5.101,7.75
				c-3.05,4.83-6.109,9.641-9.029,14.551c-1.891,3.159-3.48,6.51-5.33,9.71c-1.2,2.06-2.62,3.989-3.97,5.949
				c-0.181,0.261-0.53,0.4-0.801,0.601c-0.21-0.3-0.58-0.58-0.62-0.9c-0.47-3.47-1.109-6.939-1.27-10.43
				c-0.17-3.76-0.37-7.51-0.67-11.26c-0.17-2.061-0.37-4.11-0.61-6.16c-0.72-6.15-3.18-11.48-6.3-16.641
				c-1.13-1.869-2.5-3.609-3.57-5.52c-0.529-0.93-0.71-2.08-0.88-3.16c-0.2-1.27,0.71-1.79,1.73-2.17
				c3.87-1.45,7.46-3.41,10.569-6.13c1.48-1.311,2.761-2.84,4.171-4.23c0.75-0.739,1.8-1.279,2.3-2.14c1.25-2.13,2.27-4.39,3.38-6.6
				c0.1-0.21,0.1-0.48,0.22-0.681c2.05-3.31,1.83-7.09,2.24-10.739c0.11-0.9,0.16-1.811,0.24-2.87c-1.891,1.91-2.07,4.34-2.82,6.51
				c-0.55,1.58-0.89,3.229-1.51,4.78c-0.4,1-1.13,1.87-1.71,2.81c-1.98,3.22-3.83,6.53-5.99,9.63c-2,2.851-4.93,4.44-8.39,4.99
				c-0.46,0.08-0.9,0.32-1.33,0.51c-0.9,0.391-1.801,0.78-2.681,1.19c-0.31,0.149-0.84,0.38-0.84,0.54
				c0.07,1.16-0.89,1.18-1.56,1.439c-1.76,0.69-3.521,1.44-5.351,1.94c-2.399,0.649-4.859,1.149-7.319,1.6
				c-2.65,0.49-5.33,0.891-8,1.25c-4.37,0.59-8.761,1.01-13.11,1.681c-4.35,0.68-8.68,1.54-13,2.39c-1.58,0.31-3.16,0.71-4.67,1.25
				c-1.07,0.38-2.09,0.97-3.021,1.63c-3.34,2.36-5.88,5.44-7.739,9.08c-1.19,2.34-2.3,4.729-3.7,6.94
				c-1.72,2.729-2.15,5.859-3.2,8.8c-0.79,2.229-1.5,4.51-2.14,6.79c-1.59,5.72-3.94,11.12-6.59,16.39
				c-0.67,1.32-1.471,2.57-2.29,3.8c-0.221,0.33-0.75,0.45-1.141,0.67c-0.08-0.359-0.229-0.72-0.239-1.08
				c-0.091-7.109-0.44-14.199-2.15-21.14c-1.92-7.82-4.811-15.229-9.59-21.8c-0.311-0.43-0.71-0.79-1.07-1.19
				c-0.14,0.08-0.28,0.16-0.41,0.24c0.44,0.92,0.82,1.88,1.34,2.75c4.32,7.25,7.881,14.8,9.21,23.22c0.45,2.87,0.73,5.771,1,8.66
				c0.08,0.83-0.159,1.69-0.29,2.84c-1.039-2.029-1.85-3.85-2.859-5.54c-1.93-3.22-3.98-6.359-5.96-9.54
				c-1.94-3.109-3.86-6.239-5.8-9.35c-0.311-0.51-0.65-1-0.99-1.5s-0.68-0.99-0.99-1.5c-2.89-4.69-5.71-9.41-8.66-14.06
				c-2.76-4.351-5.47-8.75-9.3-12.28c-2.1-1.94-4.24-3.851-6.49-5.62c-1.04-0.82-2.38-1.271-3.58-1.9
				c-0.229-0.12-0.439-0.279-0.67-0.42c0.17-0.239,0.3-0.54,0.521-0.71c1.02-0.83,2.09-1.6,3.109-2.43
				c0.32-0.25,0.561-0.62,0.841-0.93c-0.061-0.091-0.12-0.19-0.181-0.28c-0.46,0.229-0.939,0.42-1.359,0.7
				c-3.681,2.41-7.75,3.92-11.95,5.029c-4.66,1.24-9.46,2-14.06,3.41c-5.75,1.76-11.7,2.311-17.54,3.46
				c-2.27,0.45-4.53,0.92-6.82,1.2c-1.77,0.23-3.58,0.14-5.37,0.28c-1.86,0.14-3.72,0.38-5.69,0.359
				c0.35-0.159,0.68-0.359,1.04-0.47c2.64-0.77,5.29-1.49,7.92-2.31c3.12-0.971,6.2-2.08,9.33-3.03c0.6-0.18,1.48-0.13,1.98,0.19
				C62.601,209.225,63.361,209.404,65.351,207.265z M76.111,166.625c1.73-2.811,2.07-8.15-1.85-10.41
				c-3.11-1.8-6.42-3.141-10.22-2.03c-1.79,0.53-3.6,0.88-5.15,2.08c-2.56,1.979-3.96,4.68-4.72,7.69
				c-0.34,1.369-0.11,2.89-0.05,4.35c0.01,0.24,0.45,0.68,0.65,0.66c0.33-0.021,0.77-0.3,0.9-0.59c0.19-0.46,0.19-1.011,0.23-1.521
				c0.06-0.66,0.07-1.31,0.11-2.229c1.32,2.06,2.47,3.869,3.62,5.67c-0.69-0.311-1.44-0.761-2.26-0.95
				c-0.41-0.101-1.2,0.12-1.35,0.43c-0.21,0.4-0.15,1.26,0.16,1.53c0.77,0.68,1.68,1.37,2.65,1.66c3.1,0.93,6.24,1.68,9.39-0.01
				C71.251,171.335,74.201,169.744,76.111,166.625z"/>
			<path fill="#FFE971" d="M140.102,89.205c-2.75-2.851-5.32-5.521-7.9-8.19c0.07-0.12,0.15-0.24,0.22-0.37
				c1.851,1.01,3.69,2.04,5.55,3c1.2,0.62,2.44,1.16,3.87,1.83C141.281,86.665,140.731,87.854,140.102,89.205z"/>
			<path fill="#FFE971" d="M124.181,93.045c1.24-3.061,2.54-6.09,3.82-9.13c0.07,0.029,0.13,0.05,0.2,0.079
				c0.11,1.381-0.08,2.87,0.4,4.11c0.729,1.89,0.569,3.82,0.8,5.73c0.05,0.38-0.04,0.779-0.07,1.21c-1.61-0.44-3.15-0.82-4.66-1.28
				C124.451,93.694,124.121,93.194,124.181,93.045z"/>
			<path fill="#FFE971" d="M130.911,95.524l-0.87,0.17c-0.17-0.79-0.27-1.609-0.399-2.41c-0.561-3.649,0.689-7.17,0.789-11.14
				c1.24,1.24,2.221,2.32,3.301,3.28c1.899,1.7,3.85,3.35,5.8,5c0.13,0.109,0.25,0.189,0.37,0.25l-0.101,0.39
				C136.971,92.484,133.941,94.005,130.911,95.524z"/>
			<path fill="#FFE971" d="M183.591,99.795l-1.26-1.431c0.98-0.85,1.95-1.71,2.93-2.56c0.15,0.05,0.271,0.06,0.36,0.12
				c1.89,1.14,2.14,1.3,3.521,0.26c0.21-0.16,0.439-0.35,0.71-0.56c1.93-1.54,3.829-3.131,5.739-4.69
				c0.12,0.06,0.23,0.12,0.351,0.18c-0.29,0.761-0.53,1.54-0.9,2.261c-0.46,0.93-1.39,1.68-0.79,2.939
				c0.11,0.23-0.33,0.73-0.64,1.34c0.46-0.09,0.76-0.08,0.979-0.21c3.07-1.71,5.75-3.859,7.801-6.76c0.8-1.14,1.71-2.22,2.659-3.24
				c0.32-0.35,1.101-0.739,1.36-0.59c0.69,0.4,1.24,1.07,1.77,1.69c0.091,0.1-0.18,0.58-0.369,0.8c-2.381,2.74-4.761,5.47-7.17,8.18
				c-2.341,2.62-4.711,5.21-7.061,7.82c-0.58,0.649-1.08,0.5-1.62-0.03c-1.27-1.27-2.54-2.54-3.83-3.79
				c-0.54-0.52-1.13-1.01-1.72-1.47C185.062,99.015,184.611,98.854,183.591,99.795z"/>
			<path fill="#FFE971" d="M208.241,70.425c-0.1,0.28-0.74,0.37-1.13,0.55c-0.01-0.37-0.16-0.79-0.021-1.09
				c0.84-1.79,1.74-3.561,2.61-5.33c0.11,0.03,0.22,0.07,0.32,0.11C209.441,66.585,208.901,68.524,208.241,70.425z"/>
			<path fill="#FFE971" d="M195.301,65.475l-0.109-0.11c1.08-1.1,1.04-2.62,0.72-4.109c-0.26-1.15,0.05-1.62,1.1-2.021
				c2.83-1.069,5.631-2.26,8.45-3.399c0.2-0.08,0.42-0.12,0.75,0.02c-1.88,1.561-3.77,3.12-5.66,4.68
				c1.21,1.57,1.351,1.601,2.931,0.2c2.05-1.819,4.09-3.68,6.42-5.43c-0.061,0.36-0.061,0.75-0.19,1.08
				c-1.46,3.68-2.939,7.34-4.399,11.01c-0.381,0.96-0.641,1.97-1.051,2.93c-0.17,0.41-0.54,0.99-0.859,1.021
				c-0.49,0.05-1.141-0.19-1.521-0.53c-2.09-1.84-4.12-3.74-6.17-5.62C195.571,65.295,195.431,65.385,195.301,65.475z"/>
			<path fill="#FFE971" d="M183.591,83.734c0.38-0.54,0.74-1.1,1.15-1.609c0.14-0.181,0.41-0.28,0.62-0.391
				c0.39-0.21,0.93-0.3,1.149-0.609c2.051-2.881,4.101-5.771,6.051-8.73c0.67-1.02,1.069-2.229,1.59-3.35
				c-0.15-0.13-0.3-0.261-0.45-0.391c-0.65,0.53-1.47,0.931-1.91,1.59c-2.06,3.07-4.02,6.211-5.99,9.341
				c-0.83,1.33-1.62,2.68-2.43,4.02C183.451,83.645,183.521,83.694,183.591,83.734z M181.941,92.984
				c1.229-1.16,2.46-2.319,3.689-3.49c-0.08-0.079-0.149-0.149-0.229-0.229c-1.24,1.16-2.471,2.32-3.7,3.479
				C181.781,92.824,181.861,92.904,181.941,92.984z M126.671,95.534c2.351,0.011,3.23,1.311,3.94,3.41
				c1.569,4.66,3.47,9.221,5.24,13.82c0.1-0.03,0.189-0.07,0.29-0.1c-0.051-0.221-0.08-0.44-0.16-0.65
				c-1.83-4.85-3.71-9.68-5.48-14.56c-0.2-0.57-0.35-1.16-0.46-1.761l0.87-0.17c0.08,0.16,0.15,0.32,0.23,0.48
				c2.869-1.36,5.75-2.71,8.649-4.07c1.08,6.09,2.21,12.41,3.37,18.89c-0.07-6.859-0.76-13.449-3.36-19.76l0.101-0.39
				c0.439,0.21,0.81,0.04,1.13-0.58c0.51-0.97,1.13-1.89,1.689-2.83c0.141,0.02,0.271,0.04,0.4,0.05
				c0.93,6.25,1.85,12.49,2.78,18.74c0.149-0.01,0.3-0.021,0.45-0.03c0-1.08,0.05-2.149-0.011-3.229
				c-0.22-4.37-0.449-8.75-0.72-13.13c-0.1-1.631-0.26-3.271-0.479-4.891c-0.181-1.34-1.11-2.01-2.341-2.42
				c-2.01-0.66-1.899-0.8-1.859-2.939c0.05-2.46-0.23-4.931-0.38-7.4c-0.271-4.5-0.561-9-0.82-13.51
				c-0.17-2.98-0.29-5.971-0.49-8.94c-0.09-1.27-0.38-2.53-0.479-3.8c-0.04-0.44,0.1-0.97,0.34-1.34c1.399-2.23,2.84-4.44,4.3-6.62
				c1.95-2.92,3.92-5.82,6.17-8.66c0.05,0.45,0.11,0.89,0.14,1.33c0.301,4.66,0.631,9.31,0.87,13.98
				c0.4,7.819,0.75,15.64,1.11,23.47c0.07,1.52,0.05,3.04,0.1,4.56c0.011,0.141,0.061,0.28,0.12,0.42
				c0.061,0.13,0.13,0.261,0.181,0.391c0,0.01,0,0.029,0,0.04c0,0.01,0,0.029,0,0.04c-0.051,0.33-0.141,0.68-0.131,1.01
				c0.181,5.859,0.37,11.72,0.57,17.58c0.04,1.109,0.15,2.21,0.23,3.319c0.05,0,0.1,0,0.149-0.01c-0.27-7.3-0.54-14.6-0.819-21.899
				c0-0.021,0.01-0.03,0.01-0.051l0.01-0.01c-0.01-0.02-0.02-0.04-0.02-0.06c-0.11-2.44-0.261-4.891-0.341-7.34
				c-0.149-4.671-0.31-9.351-0.35-14.021c0-1.11,0.67-2.22,0.71-3.34c0.12-3.83,0.07-7.67,0.12-11.5c0.02-1.34,0.15-2.68,0.24-4.22
				c0.41,0.29,0.67,0.439,0.89,0.64c3.73,3.31,7.47,6.6,11.16,9.96c0.399,0.37,0.66,1.09,0.66,1.65c0.01,2.47-0.08,4.939-0.19,7.409
				c-0.25,6.101-0.43,12.2-0.83,18.28c-0.3,4.58-0.89,9.13-1.35,13.7c-0.01,0.15,0,0.3,0.2,0.48c0.43-4.221,0.859-8.44,1.29-12.65
				c0.1,0,0.189,0.01,0.29,0.02c-0.591,6.83-1.181,13.66-1.771,20.48c0.03,0.01,0.061,0.01,0.1,0.01c0.221-1.64,0.44-3.28,0.66-4.92
				c0.07,0,0.13,0.01,0.2,0.021c-0.399,4.06-0.79,8.109-1.189,12.17c0.06,0.01,0.109,0.02,0.17,0.02
				c0.189-1.59,0.33-3.189,0.59-4.77c0.319-2.011,0.85-3.98,1.109-5.99c0.471-3.68,0.851-7.37,1.19-11.07
				c0.66-7.189,1.2-14.399,1.89-21.59c0.67-6.979,1.38-13.97,2.23-20.94c0.59-4.869,1.439-9.699,2.17-14.55
				c0.1-0.64,0.08-1.3,0.26-1.899c0.181-0.62,0.431-1.301,0.86-1.74c2.439-2.5,5.32-4.43,8.22-6.36c2.42-1.6,4.57-3.609,6.84-5.439
				c0.311-0.25,0.61-0.5,1.13-0.931c0,0.66,0.061,1.12-0.01,1.561c-0.54,3.54-0.99,7.1-1.689,10.609
				c-1.25,6.24-2.66,12.45-3.99,18.681c-0.01,0.01-0.021,0.01-0.03,0.01c0,0.04-0.01,0.09-0.01,0.13
				c-0.54,2.44-1.08,4.891-1.62,7.33c0.65-1.76,1.11-3.56,1.49-5.38c0.13-0.64,0.1-1.3,0.13-1.95c0.01-0.04,0.02-0.07,0.03-0.109
				c0-0.011,0-0.021,0.01-0.03c0.189-0.04,0.38-0.08,0.63-0.13c0,1.569,0,3.13,0,4.689c0.17,0.021,0.33,0.03,0.49,0.05
				c4.13-11.399,5.67-23.34,7.12-35.479c0.33,0.24,0.55,0.36,0.72,0.53c1.62,1.64,3.24,3.279,4.83,4.939
				c0.109,0.12,0.229,0.25,0.35,0.37c0.46,0.48,1.021,1.05,1.12,1.65c0.32,2.029,1.62,3.439,2.811,4.93
				c2.539,3.18,5.109,6.33,7.649,9.52c0.16,0.211,0.23,0.671,0.11,0.91c-1.181,2.471-2.311,4.98-3.66,7.36
				c-2.38,4.18-4.9,8.28-7.38,12.4c-3.101,5.159-6.28,10.27-9.311,15.47c-1.85,3.2-3.489,6.53-5.21,9.82
				c-1.51,2.89-3,5.8-4.51,8.689c-0.55,1.05-1.13,2.09-1.68,3.14c-0.17,0.33-0.28,0.7-0.29,1.091
				c2.22-3.271,4.569-6.471,6.609-9.851c2.32-3.819,4.29-7.85,6.591-11.689c0.689-1.15,1.949-1.95,3.04-3.011
				c0.489,1.61,0.93,3.051,1.369,4.5c0.08-0.069,0.15-0.14,0.221-0.21l0.109,0.11c0.42,0.78,0.69,1.74,1.32,2.28
				c1.5,1.29,3.17,2.38,4.76,3.56c0.48,0.351,0.9,0.771,1.521,1.3c-0.24,0.221-0.49,0.44-0.73,0.65c-1.67,1.51-3.3,2.92-4.85,4.4
				c-2.61,2.52-5.17,5.09-7.72,7.68c-0.171,0.18-0.061,0.64-0.08,0.979c0.399,0.011,0.92,0.19,1.18,0
				c1.16-0.83,2.36-1.659,3.35-2.689c2.19-2.271,4.301-4.62,6.38-7c0.561-0.63,0.86-1.48,1.341-2.2c0.22-0.32,0.46-0.59,0.72-0.81
				c1.14-0.96,2.65-1.07,4.11-1.25c0.43-0.061,0.869-0.011,1.51-0.011c-0.28,0.351-0.431,0.61-0.641,0.801
				c-3.35,3.01-6.72,5.989-10.04,9.02c-3.5,3.18-6.96,6.4-10.42,9.62c-1.93,1.79-3.88,3.56-5.72,5.45
				c-1.57,1.609-2.99,3.359-4.39,5.25c0.609-0.351,1.3-0.601,1.83-1.05c1.21-1.021,2.41-2.051,3.6-3.091l1.26,1.431
				c-0.149,0.14-0.319,0.3-0.5,0.489c-2.31,2.421-4.51,4.94-6.76,7.421c-0.33,0.359-0.65,0.71-0.979,1.06
				c-0.28,0.3-0.511,0.54-0.7,0.72c-0.79,0.75-1.03,0.51-2.48-0.39c-2.08-1.3-4.27-2.42-6.41-3.63c-0.52-0.3-0.989-0.69-1.529-0.95
				c-0.88-0.42-1.61-0.36-2.261,0.58c-2.52,3.63-5.159,7.18-7.63,10.85c-0.83,1.23-1.29,2.71-1.939,4.07
				c-0.26,0.56-0.601,1.08-0.7,1.76l-0.93,0.95c-1.96-1.5-3.931-2.98-5.87-4.5c-1.05-0.82-2.811-1.16-3.431-0.43
				c-1.01,1.22-2,2.449-2.93,3.729l-2.12-0.89c0.15-0.061,0.3-0.13,0.45-0.19c-0.26-0.95-0.37-1.979-0.82-2.83
				c-3.55-6.699-7.17-13.37-10.779-20.04c-0.44-0.8-0.971-1.54-1.62-2.58C124.801,95.215,125.731,95.534,126.671,95.534z"/>
			<path d="M219.121,121.824c-1.82,1.011-3.88,2.15-5.94,3.28c-0.189,0.101-0.439,0.08-1,0.17c0.48-0.609,0.73-1.05,1.08-1.38
				c1.391-1.31,2.79-2.6,4.221-3.87c0.819-0.729,1.64-0.729,2.739-0.35c1.971,0.689,3.07,2.1,4.11,3.75c0.93,1.47,2.09,2.8,3.14,4.2
				c0.37,0.51,0.74,1.029,1.021,1.6c0.14,0.27,0.05,0.65,0.06,0.97c-0.39-0.08-0.909-0.029-1.14-0.27
				c-1.14-1.17-2.14-2.48-3.31-3.61C222.511,124.765,220.812,123.335,219.121,121.824z"/>
			<path d="M195.291,136.665c-1.13,0.989-2.33,1.909-3.53,2.829c-0.229,0.181-0.54,0.261-0.93,0.261c1.79-2.62,3.46-5.311,5.98-7.09
				c1.25,1.319,2.35,2.479,3.51,3.71c0.7-0.91,1.35-1.841,2.09-2.7c0.9-1.03,1.13-0.95,1.71,0.27c0.21,0.45,0.65,0.79,0.98,1.181
				c1.8,2.159,3.3,4.479,4.229,7.149c-0.09,0.11-0.18,0.23-0.28,0.34c-2.069-2.09-4.149-4.189-6.26-6.319
				c-1.2,1.489-2.29,2.84-3.39,4.189c-0.17,0.221-0.34,0.471-0.57,0.601c-0.21,0.109-0.5,0.08-0.75,0.109
				c-0.02-0.21-0.04-0.43-0.05-0.649c-0.01-0.04,0.03-0.07,0.04-0.11c0.899-2.49,0.89-2.47-1.32-3.93
				C196.171,136.125,195.801,136.225,195.291,136.665z"/>
			<path d="M190.701,86.324c-0.26,0.19-0.78,0.011-1.18,0c0.02-0.34-0.091-0.8,0.08-0.979c2.55-2.59,5.109-5.16,7.72-7.68
				c1.55-1.48,3.18-2.891,4.85-4.4l0.32,0.36c-0.26,0.22-0.5,0.489-0.72,0.81c-0.48,0.72-0.78,1.57-1.341,2.2
				c-2.079,2.38-4.189,4.729-6.38,7C193.062,84.665,191.861,85.494,190.701,86.324z"/>
			<path d="M190.661,117.824c-1.34,1.101-2.66,2.17-3.98,3.25c-0.14-0.119-0.27-0.239-0.409-0.359c0.439-0.61,0.83-1.24,1.31-1.811
				c0.86-0.989,1.771-1.949,2.66-2.92c0.95-1.05,1.72-0.97,2.34,0.311c0.8,1.68,1.58,3.38,2.3,5.109c0.15,0.36-0.02,0.86-0.04,1.301
				c-0.46-0.221-1.08-0.32-1.35-0.681C192.511,120.715,191.661,119.324,190.661,117.824z"/>
			<path d="M185.631,89.494c-1.229,1.171-2.46,2.33-3.689,3.49c-0.08-0.08-0.16-0.16-0.24-0.24c1.229-1.159,2.46-2.319,3.7-3.479
				C185.481,89.345,185.551,89.415,185.631,89.494z"/>
			<path d="M184.741,82.125c-0.41,0.51-0.771,1.069-1.15,1.609c-0.069-0.04-0.14-0.09-0.22-0.13c0.81-1.34,1.6-2.689,2.43-4.02
				c1.971-3.13,3.931-6.271,5.99-9.341c0.44-0.659,1.26-1.06,1.91-1.59c0.15,0.13,0.3,0.261,0.45,0.391
				c-0.521,1.12-0.92,2.33-1.59,3.35c-1.95,2.96-4,5.85-6.051,8.73c-0.22,0.31-0.76,0.399-1.149,0.609
				C185.151,81.845,184.881,81.944,184.741,82.125z"/>
			<path d="M183.571,35.675c-0.01,0.01-0.01,0.02-0.01,0.03l-0.021-0.021C183.551,35.685,183.562,35.685,183.571,35.675z"/>
			<path d="M183.531,35.814c0-0.04,0.01-0.09,0.01-0.13l0.021,0.021C183.551,35.744,183.541,35.774,183.531,35.814z"/>
			<path d="M181.911,43.145c0.54-2.439,1.08-4.89,1.62-7.33c-0.03,0.65,0,1.311-0.13,1.95
				C183.021,39.585,182.562,41.385,181.911,43.145z"/>
			<path d="M207.111,70.975c0.39-0.18,1.03-0.27,1.13-0.55c0.66-1.9,1.2-3.84,1.78-5.76c-0.101-0.04-0.21-0.08-0.32-0.11
				c-0.87,1.77-1.771,3.54-2.61,5.33C206.951,70.185,207.102,70.604,207.111,70.975z M183.971,75.774
				c-2.04,3.38-4.39,6.58-6.609,9.851c0.01-0.391,0.12-0.761,0.29-1.091c0.55-1.05,1.13-2.09,1.68-3.14c1.51-2.89,3-5.8,4.51-8.689
				c1.721-3.29,3.36-6.62,5.21-9.82c3.03-5.2,6.21-10.311,9.311-15.47c2.479-4.12,5-8.221,7.38-12.4c1.35-2.38,2.479-4.89,3.66-7.36
				c0.12-0.239,0.05-0.699-0.11-0.91c-2.54-3.189-5.11-6.34-7.649-9.52c-1.19-1.49-2.49-2.9-2.811-4.93
				c-0.1-0.601-0.66-1.17-1.12-1.65c-0.12-0.12-0.24-0.25-0.35-0.37l0.95-0.92c0.319,0.36,0.649,0.7,1,1.021
				c4.899,4.409,8.29,9.989,12,15.319c0.689,1,0.88,1.98,0.31,3.03c-1.22,2.24-2.46,4.47-3.74,6.67
				c-3.46,5.94-6.96,11.86-10.43,17.79c-0.72,1.24-1.41,2.49-2.22,3.93c0.6-0.21,1.029-0.319,1.43-0.5c3.27-1.449,6.49-3,9.8-4.34
				c2.5-1.01,5.09-1.81,7.67-2.62c0.95-0.3,1.66,0.25,1.65,1.29c-0.01,1.431,0.05,2.92-0.32,4.271c-1.56,5.62-3.33,11.18-4.91,16.8
				c-0.439,1.57-1.37,2.6-2.529,3.63c-6.03,5.3-12,10.66-18,15.99c-0.75,0.66-1.551,1.27-2.24,1.99c-0.25,0.25-0.25,0.75-0.36,1.14
				c0.13,0.06,0.26,0.11,0.391,0.17l1.33,1.25c-1.381,1.04-1.631,0.88-3.521-0.26c-0.09-0.061-0.21-0.07-0.36-0.12
				c-0.979,0.85-1.949,1.71-2.93,2.56c-1.189,1.04-2.39,2.07-3.6,3.091c-0.53,0.449-1.221,0.699-1.83,1.05
				c1.399-1.891,2.819-3.641,4.39-5.25c1.84-1.891,3.79-3.66,5.72-5.45c3.46-3.22,6.92-6.44,10.42-9.62
				c3.32-3.03,6.69-6.01,10.04-9.02c0.21-0.19,0.36-0.45,0.641-0.801c-0.641,0-1.08-0.05-1.51,0.011
				c-1.46,0.18-2.971,0.29-4.11,1.25l-0.32-0.36c0.24-0.21,0.49-0.43,0.73-0.65c-0.62-0.529-1.04-0.949-1.521-1.3
				c-1.59-1.18-3.26-2.27-4.76-3.56c-0.63-0.54-0.9-1.5-1.32-2.28c0.13-0.09,0.271-0.18,0.41-0.28c2.05,1.88,4.08,3.78,6.17,5.62
				c0.38,0.34,1.03,0.58,1.521,0.53c0.319-0.03,0.689-0.61,0.859-1.021c0.41-0.96,0.67-1.97,1.051-2.93
				c1.46-3.67,2.939-7.33,4.399-11.01c0.13-0.33,0.13-0.72,0.19-1.08c-2.33,1.75-4.37,3.61-6.42,5.43
				c-1.58,1.4-1.721,1.37-2.931-0.2c1.891-1.56,3.78-3.119,5.66-4.68c-0.33-0.14-0.55-0.1-0.75-0.02
				c-2.819,1.14-5.62,2.33-8.45,3.399c-1.05,0.4-1.359,0.87-1.1,2.021c0.32,1.489,0.36,3.01-0.72,4.109
				c-0.07,0.07-0.141,0.141-0.221,0.21c-0.439-1.449-0.88-2.89-1.369-4.5c-1.091,1.061-2.351,1.86-3.04,3.011
				C188.261,67.925,186.291,71.955,183.971,75.774z"/>
			<path d="M247.881,261.135c-0.6,1.12-1.029,2.21,0.07,3.35c0.63,0.641,1.11,1.431,1.66,2.16c0.2-0.09,0.399-0.189,0.609-0.28
				c0-2.939,0-5.89,0-8.84c-0.119-0.02-0.239-0.04-0.359-0.06C249.201,258.685,248.531,259.904,247.881,261.135z M184.581,102.505
				c-3.06,2.75-5.99,5.39-8.96,8.06l-0.97-1.08c0.189-0.18,0.42-0.42,0.7-0.72c0.329-0.35,0.649-0.7,0.979-1.06
				c2.25-2.48,4.45-5,6.76-7.421c0.181-0.189,0.351-0.35,0.5-0.489c1.021-0.94,1.471-0.78,2.82,0.26c0.59,0.46,1.18,0.95,1.72,1.47
				c1.29,1.25,2.561,2.521,3.83,3.79c0.54,0.53,1.04,0.68,1.62,0.03c2.35-2.61,4.72-5.2,7.061-7.82
				c2.409-2.71,4.789-5.439,7.17-8.18c0.189-0.22,0.46-0.7,0.369-0.8c-0.529-0.62-1.079-1.29-1.77-1.69
				c-0.26-0.149-1.04,0.24-1.36,0.59c-0.949,1.021-1.859,2.101-2.659,3.24c-2.051,2.9-4.73,5.05-7.801,6.76
				c-0.22,0.13-0.52,0.12-0.979,0.21c0.31-0.609,0.75-1.109,0.64-1.34c-0.6-1.26,0.33-2.01,0.79-2.939
				c0.37-0.721,0.61-1.5,0.9-2.261c-0.12-0.06-0.23-0.12-0.351-0.18c-1.91,1.56-3.81,3.15-5.739,4.69
				c-0.271,0.21-0.5,0.399-0.71,0.56l-1.33-1.25c1.33-1.229,2.64-2.5,4.01-3.68c1.96-1.69,3.95-3.36,5.99-4.96
				c0.46-0.36,1.18-0.521,1.779-0.54c1.38-0.05,1.7,0.6,1.15,1.87c-0.15,0.34,0.06,0.84,0.1,1.27c0.33-0.14,0.771-0.2,0.98-0.439
				c1.1-1.271,2.18-2.561,3.189-3.891c0.471-0.62,0.83-0.75,1.44-0.229c1.56,1.319,3.12,2.62,4.72,3.89
				c0.86,0.68,0.87,1.34,0.141,2.1c-1.66,1.721-3.32,3.45-4.98,5.181c-0.63,0.64-1.26,1.29-1.89,1.93c0.06,0.12,0.12,0.23,0.18,0.35
				c0.36-0.09,0.79-0.09,1.07-0.279c0.85-0.59,1.689-1.21,2.45-1.9c1.21-1.11,3.069-0.979,4.05,0.37c0.819,1.12,1.59,2.3,2.46,3.38
				c0.87,1.09,1.85,2.09,2.84,3.19c0.83-0.641,1.4-1.13,2.02-1.54c1.44-0.96,2.261-0.55,2.53,1.18c0.33,2.15,0.68,4.31,1.07,6.46
				c0.149,0.811,0.439,1.61,0.7,2.5c1.3-0.85,2.52-1.64,3.729-2.439c1.021-0.671,1.851-0.66,2.67,0.399
				c0.88,1.13,1.88,2.17,2.92,3.16c0.49,0.47,1.17,0.95,1.811,1.02c3.85,0.44,7.439,1.761,11.05,3.061
				c2.92,1.05,5.86,2.07,8.77,3.16c0.971,0.359,1.851,0.96,2.82,1.31c5.21,1.87,9.44,5.41,14.061,8.28
				c2.47,1.53,4.92,3.13,7.229,4.88c2.7,2.04,5.14,4.42,7.86,6.42c4.54,3.34,8.029,7.68,11.29,12.12c2.909,3.96,5.1,8.45,7.62,12.7
				c1.64,2.75,3.039,5.609,3.869,8.72c0.15,0.54,0,1.2-0.149,1.771c-0.04,0.159-0.65,0.35-0.88,0.25c-3.69-1.7-7.431-3.311-11-5.221
				c-3.521-1.88-6.84-4.12-10.29-6.13c-0.761-0.439-1.7-0.56-2.69-0.86c0.12,1.971,0.19,3.75,0.34,5.53
				c0.4,4.99,0.13,9.97,0.021,14.96c-0.13,6-2.271,11.48-3.9,17.09c-1.3,4.471-2.83,8.891-4.45,13.271
				c-1.26,3.43-3.51,6.33-5.58,9.3c-2.729,3.94-5.6,7.78-8.159,11.82c-2.38,3.74-4.44,7.68-6.62,11.54
				c-1.19,2.109-2.36,4.239-3.53,6.37c-0.15,0.279-0.31,0.58-0.33,0.88c-0.17,3.029-0.33,6.06-0.46,9.09
				c-0.04,0.8,0.11,1.6,0.08,2.39c-0.04,1.03-0.28,2.021-1.37,2.46c-1.02,0.41-2.399,0-3.14-0.88c-0.48-0.57-0.95-1.149-1.49-1.82
				c-0.88,1.08-1.76,1.931-3.2,1.431c-0.91-0.32-1.62-0.771-1.71-1.891c-0.26-3.3-0.75-6.59-0.8-9.89
				c-0.05-2.37-0.87-4.38-2.03-6.29c-1.63-2.68-3.31-5.35-5.149-7.88l0.699-0.53c1.25,1.65,2.49,3.3,3.671,4.99
				c0.899,1.28,1.51,2.78,2.3,4.29c0.14-0.19,0.26-0.28,0.26-0.38c0.14-2.24,0.12-4.48-0.06-6.71l0.6-0.05
				c0.3,3.75,0.5,7.5,0.67,11.26c0.16,3.49,0.8,6.96,1.27,10.43c0.04,0.32,0.41,0.601,0.62,0.9c0.271-0.2,0.62-0.34,0.801-0.601
				c1.35-1.96,2.77-3.89,3.97-5.949c1.85-3.2,3.439-6.551,5.33-9.71c2.92-4.91,5.979-9.721,9.029-14.551
				c1.65-2.62,3.28-5.25,5.101-7.75c2.93-4.02,5.2-8.359,6.939-13c0.37-1.01,0.631-2.18,1.311-2.93c1.07-1.18,1.57-2.55,2.08-3.95
				c0.229-0.63,0.2-1.34,0.38-1.979c1.18-4.261,2.66-8.46,3.5-12.79c0.8-4.11,1.06-8.34,1.34-12.53c0.23-3.34,0.16-6.69,0.2-10.04
				c0.05-4.82-1.021-9.52-2.03-14.17c-0.75-3.47-2.38-6.75-3.62-10.12c-0.12-0.33-0.2-0.68-0.29-1.01c0.37,0.02,0.53,0.14,0.61,0.3
				c1.18,2.22,2.46,4.39,3.46,6.69c1.04,2.37,1.95,4.779,3.51,6.88c0.971,1.3,1.84,2.689,2.91,3.899
				c0.68,0.761,1.59,1.351,2.48,1.87c4.81,2.771,9.64,5.51,14.47,8.24c0.6,0.34,1.25,0.58,1.99,0.92
				c-0.021-0.32,0.01-0.45-0.04-0.54c-2.051-3.95-4.061-7.92-6.181-11.83c-1.06-1.96-2.21-3.88-3.529-5.67
				c-4.681-6.38-10.971-11.1-17.04-16.02c-3-2.44-6.221-4.61-9.34-6.9c-0.271-0.19-0.58-0.32-1.07-0.59
				c0.26,0.649,0.42,1.04,0.59,1.43c-0.09,0.07-0.18,0.13-0.27,0.2c-0.29-0.24-0.641-0.42-0.851-0.71
				c-2.22-2.99-5.34-4.92-8.28-7.01c-3.479-2.49-7.369-4.3-11.46-5.561c-3.58-1.09-7.26-1.859-10.89-2.81
				c-0.81-0.21-1.57-0.601-2.32-0.891c-0.04,0.431-0.05,0.79-0.13,1.141c-0.01,0.04-0.399,0.09-0.53,0
				c-0.909-0.61-1.92-1.141-2.67-1.91c-1.439-1.47-2.729-3.08-4.119-4.68c-1.511,1.27-2.891,2.47-4.311,3.63
				c-1.2,0.97-2.04,0.8-2.57-0.65c-0.609-1.67-1.069-3.399-1.54-5.12c-0.39-1.42-0.71-2.859-1.1-4.439
				c-0.38,0.33-0.66,0.609-0.97,0.84c-1.16,0.85-2.3,1.72-3.5,2.5c-0.24,0.15-0.721-0.05-1.09-0.09c0.109-0.32,0.149-0.7,0.34-0.95
				c0.47-0.59,1.01-1.11,1.64-1.78c-1.53-1.84-2.979-3.689-4.54-5.439c-1.39-1.551-1.58-1.54-3.3-0.351
				c-2.26,1.58-4.46,3.24-6.74,4.79c-1.05,0.71-2.17,1.65-3.33,1.771c-1.279,0.12-1.729,0.97-2.46,1.609
				c-0.14,0.13-0.13,0.65,0.021,0.841c0.54,0.71,1.16,1.359,1.85,2.14c0.25-0.351,0.43-0.65,0.65-0.9
				c1.06-1.229,2.05-2.529,3.22-3.64c1.26-1.18,2.58-0.66,3,1.02c0.07,0.29,0.24,0.561,0.25,0.58c0.87,0.11,1.64-0.02,2.11,0.301
				c2.5,1.699,4.93,3.489,7.359,5.289c0.23,0.171,0.46,0.73,0.36,0.87c-0.22,0.311-0.64,0.61-1.01,0.66
				c-0.351,0.04-0.771-0.189-1.101-0.399c-1.85-1.181-3.7-2.37-5.52-3.601c-0.75-0.51-1.36-0.52-2.021,0.141
				c-0.58,0.6-1.21,1.18-1.87,1.68c-0.56,0.439-1.18,0.84-1.829,1.11c-0.29,0.119-0.73-0.11-1.11-0.181
				c0.09-0.35,0.08-0.78,0.28-1.06c0.34-0.48,0.75-0.95,1.229-1.29c0.92-0.65,0.72-1.25,0.061-1.98c-0.271,0.24-0.5,0.45-0.73,0.66
				c-0.94,0.811-1.83,1.68-2.81,2.43c-0.62,0.471-1.351,1.16-1.851-0.31c-0.2-0.58-1.02-0.96-1.59-1.39
				c-0.65-0.49-1.37-0.9-2.01-1.42c-0.71-0.57-1.3-1.65-2.05-1.75c-1.7-0.23-2.36-1.511-3.33-2.511
				C185.831,103.725,185.161,103.074,184.581,102.505z"/>
			<path d="M171.312,131.545c-1.69,4.649-2.131,9.66-4.101,14.189c-0.12-0.02-0.25-0.04-0.38-0.06c0-1.431-0.21-2.9,0.04-4.29
				c0.7-3.851,1.6-7.66,2.39-11.49c0.21-1.02,0.561-1.5,1.71-1.01c1.381,0.59,2.82,1.02,4.23,1.55c0.4,0.16,0.76,0.43,1.13,0.67
				c0.49,0.311,0.98,0.63,1.47,0.95c0.311-0.51,0.63-1.01,0.94-1.521c0.08-0.14,0.16-0.279,0.229-0.42
				c0.9-1.699,2.07-1.989,3.591-0.85c0.439,0.33,0.89,0.729,1.14,1.2c0.17,0.3,0.15,0.93-0.07,1.17c-0.25,0.27-0.83,0.43-1.21,0.359
				c-0.52-0.1-0.979-0.47-1.569-0.779c-0.301,0.64-0.561,1.22-0.841,1.79c-0.739,1.489-1.859,1.84-3.34,1.109
				C174.921,133.244,173.151,132.425,171.312,131.545z"/>
			<path d="M163.602,138.765c-0.16,0.45-0.851,0.7-1.29,1.04c-0.261-0.54-0.761-1.1-0.73-1.63c0.11-2.28,1.11-4.28,2.3-6.181
				c0.13-0.22,0.86-0.369,0.88-0.319c0.23,0.42,0.351,0.89,0.601,1.59C164.812,135.024,164.281,136.925,163.602,138.765z"/>
			<path d="M162.392,109.284c-3.131,4.57-6.671,8.71-10.69,12.49c0.1-0.68,0.44-1.2,0.7-1.76c0.649-1.36,1.109-2.84,1.939-4.07
				c2.471-3.67,5.11-7.22,7.63-10.85c0.65-0.94,1.381-1,2.261-0.58c0.54,0.26,1.01,0.65,1.529,0.95c2.141,1.21,4.33,2.33,6.41,3.63
				c1.45,0.899,1.69,1.14,2.48,0.39l0.97,1.08c-0.18,0.17-0.36,0.33-0.54,0.49c0.76,1.16,2.64,1.59,2.92,3.41
				c-3.17,0.08-4.859-2.771-7.7-3.42c1.44,2.14,2.891,4.279,4.33,6.42c-0.1,0.08-0.189,0.16-0.29,0.229
				c-0.72-0.71-1.41-1.479-2.18-2.14c-0.89-0.76-1.96-1.35-2.79-2.17c-1.19-1.18-2.24-2.49-3.33-3.771
				c-0.3-0.33-0.52-0.729-0.899-1.279c-0.91,3.71-1.711,6.949-2.5,10.18c-0.141-0.03-0.271-0.05-0.41-0.07
				C162.062,115.415,163.121,112.375,162.392,109.284z"/>
			<path d="M152.901,133.225c0.63-1.24,1.38-2.42,2.109-3.6c0.391-0.631,1.03-0.811,1.471-0.181c1,1.42,1.93,2.9,2.79,4.41
				c0.14,0.26-0.19,0.78-0.301,1.18c-0.359-0.17-0.829-0.239-1.069-0.51c-0.66-0.77-1.23-1.62-1.891-2.51
				c-1.39,1.39-2.05,3.28-4.08,3.9C152.251,135.015,152.471,134.064,152.901,133.225z"/>
			<path d="M150.041,160.645c1.09-1.8,2.13-3.62,3.3-5.37c0.23-0.34,0.95-0.359,1.44-0.53c0.12,0.461,0.29,0.931,0.33,1.4
				c0.08,0.87,0.16,1.75,0.069,2.61c-0.06,0.529-0.43,1.02-0.649,1.529c-0.311-0.409-0.63-0.81-0.92-1.229
				c-0.09-0.12-0.13-0.28-0.23-0.54c-1.05,0.86-2.01,1.64-2.97,2.42C150.281,160.835,150.161,160.744,150.041,160.645z"/>
			<path d="M152.102,73.375c0.279,7.3,0.55,14.6,0.819,21.899c-0.05,0.01-0.1,0.01-0.149,0.01c-0.08-1.109-0.19-2.21-0.23-3.319
				c-0.2-5.86-0.39-11.721-0.57-17.58C151.961,74.055,152.051,73.705,152.102,73.375z"/>
			<path d="M152.102,73.255c0,0.02,0.01,0.04,0.02,0.06l-0.01,0.01c0-0.01-0.01-0.02-0.01-0.029
				C152.102,73.284,152.102,73.265,152.102,73.255z"/>
			<path d="M152.102,73.295c0,0.01,0.01,0.02,0.01,0.029l-0.01,0.011C152.102,73.324,152.102,73.305,152.102,73.295z"/>
			<path d="M152.111,73.324c0,0.021-0.01,0.03-0.01,0.051c0-0.011,0-0.03,0-0.04L152.111,73.324z"/>
			<path d="M139.791,91.935c-2.899,1.36-5.78,2.71-8.649,4.07c-0.08-0.16-0.15-0.32-0.23-0.48c3.03-1.52,6.06-3.04,8.89-4.46
				c2.601,6.311,3.29,12.9,3.36,19.76C142.001,104.345,140.871,98.024,139.791,91.935z"/>
			<path d="M133.741,130.215c0.1-0.5,0.09-1.061,0.33-1.48c1.149-2,2.28-4.01,3.57-5.91c0.289-0.439,0.59-0.869,0.899-1.3
				c0.93-1.28,1.92-2.51,2.93-3.729c0.62-0.73,2.381-0.391,3.431,0.43c1.939,1.52,3.91,3,5.87,4.5c0.18,0.15,0.47,0.3,0.5,0.48
				c0.1,0.47,0.08,0.96,0.1,1.439c-0.46,0.021-1.04,0.22-1.37,0.021c-1.49-0.921-2.92-1.95-4.37-2.94
				c-0.31-0.22-0.64-0.42-0.96-0.62c-0.09,0.061-0.18,0.11-0.279,0.17c0.64,1.97,1.27,3.95,1.909,5.92
				c-0.17,0.061-0.33,0.12-0.5,0.181c-1.18-2.37-2.37-4.75-3.64-7.28c-0.22,0.229-0.5,0.46-0.7,0.74c-2.09,2.83-4.17,5.659-6.26,8.5
				c-0.05,0.06-0.09,0.14-0.15,0.18C134.621,129.755,134.171,129.984,133.741,130.215z"/>
			<path d="M133.911,141.694c1.29-1.77,2.58-3.54,3.93-5.27c0.54-0.69,1.2-0.86,1.891-0.04c0.71,0.859,1.68,1.55,2.199,2.5
				c0.94,1.689,1.62,3.53,2.28,5.38c-2.7-1.21-3.53-4.09-5.5-5.87c-1.689,1.58-3.33,3.12-4.97,4.65c-0.11-0.09-0.22-0.17-0.33-0.261
				C133.581,142.415,133.681,142.005,133.911,141.694z"/>
			<path d="M150.671,269.244c-0.62,0.98-1.189,1.86-1.84,2.87C150.801,272.154,151.261,271.345,150.671,269.244z M128.321,241.135
				c-0.351-0.601-0.7-1.19-1.07-1.78l0.82-0.38c0.34,0.5,0.68,0.99,0.99,1.5c1.939,3.11,3.859,6.24,5.8,9.35
				c1.979,3.181,4.03,6.32,5.96,9.54c1.01,1.69,1.82,3.511,2.859,5.54c0.131-1.149,0.37-2.01,0.29-2.84c-0.27-2.89-0.55-5.79-1-8.66
				c-1.329-8.42-4.89-15.97-9.21-23.22c-0.52-0.87-0.899-1.83-1.34-2.75c0.13-0.08,0.271-0.16,0.41-0.24
				c0.36,0.4,0.76,0.761,1.07,1.19c4.779,6.57,7.67,13.979,9.59,21.8c1.71,6.94,2.06,14.03,2.15,21.14
				c0.01,0.36,0.159,0.721,0.239,1.08c0.391-0.22,0.92-0.34,1.141-0.67c0.819-1.229,1.62-2.479,2.29-3.8
				c2.649-5.27,5-10.67,6.59-16.39c0.64-2.28,1.35-4.561,2.14-6.79c1.05-2.94,1.48-6.07,3.2-8.8c1.4-2.211,2.51-4.601,3.7-6.94
				c1.859-3.64,4.399-6.72,7.739-9.08c0.931-0.66,1.95-1.25,3.021-1.63c1.51-0.54,3.09-0.94,4.67-1.25c4.32-0.85,8.65-1.71,13-2.39
				c4.35-0.671,8.74-1.091,13.11-1.681c2.67-0.359,5.35-0.76,8-1.25c2.46-0.45,4.92-0.95,7.319-1.6c1.83-0.5,3.591-1.25,5.351-1.94
				c0.67-0.26,1.63-0.279,1.56-1.439c0-0.16,0.53-0.391,0.84-0.54c0.88-0.41,1.78-0.8,2.681-1.19c0.43-0.189,0.87-0.43,1.33-0.51
				c3.46-0.55,6.39-2.14,8.39-4.99c2.16-3.1,4.01-6.41,5.99-9.63c0.58-0.939,1.31-1.81,1.71-2.81c0.62-1.551,0.96-3.2,1.51-4.78
				c0.75-2.17,0.93-4.6,2.82-6.51c-0.08,1.06-0.13,1.97-0.24,2.87c-0.41,3.649-0.19,7.43-2.24,10.739
				c-0.12,0.2-0.12,0.471-0.22,0.681c-1.11,2.21-2.13,4.47-3.38,6.6c-0.5,0.86-1.55,1.4-2.3,2.14c-1.41,1.391-2.69,2.92-4.171,4.23
				c-3.109,2.72-6.699,4.68-10.569,6.13c-1.021,0.38-1.931,0.9-1.73,2.17c0.17,1.08,0.351,2.23,0.88,3.16
				c1.07,1.91,2.44,3.65,3.57,5.52c3.12,5.16,5.58,10.49,6.3,16.641c0.24,2.05,0.44,4.1,0.61,6.16l-0.6,0.05
				c-0.171-2.101-0.471-4.18-0.91-6.24c-0.801-3.8-1.99-7.55-3.33-11.2c-0.7-1.95-1.86-3.83-3.2-5.42
				c-2.12-2.55-4.92-4.55-6.25-7.76c-0.09-0.22-0.36-0.51-0.56-0.521c-0.99-0.039-2.021-0.149-2.98,0.04
				c-2.92,0.591-5.82,1.311-8.72,1.98c-0.391,0.09-0.771,0.2-1.2,0.32c0.46,0.529,0.85,0.89,1.12,1.319
				c0.729,1.16,1.27,2.471,2.14,3.521c2.641,3.189,5.4,6.3,8.12,9.43c1.26,1.45,2.59,2.83,3.78,4.33
				c1.149,1.46,2.12,3.06,3.229,4.56c0.851,1.16,1.721,2.301,2.59,3.45l-0.699,0.53c-1.32-1.83-2.98-3.41-4.44-5.13
				c-1.81-2.12-3.59-4.26-5.34-6.43c-1.44-1.801-2.68-3.78-4.23-5.46c-2.859-3.08-5.859-6.021-8.859-8.971
				c-0.271-0.26-0.91-0.26-1.351-0.21c-0.739,0.09-1.46,0.38-2.199,0.49c-2.98,0.44-5.98,0.84-8.96,1.27
				c-2.53,0.37-5.04,0.851-7.57,1.12c-4.36,0.471-8.55,1.54-12.59,3.23c-0.33,0.13-0.66,0.3-1.011,0.35
				c-3.859,0.54-6.31,3-8.35,6.061c-0.479,0.72-1.15,1.319-1.61,2.05c-0.93,1.47-1.899,2.939-2.649,4.51
				c-1.13,2.37-2.141,4.811-3.09,7.26c-1.04,2.71-1.95,5.471-2.92,8.2c-1.351,3.79-2.71,7.57-4.03,11.37
				c-0.75,2.16-1.63,4.25-1.24,6.71c0.21,1.32-0.28,2.82-0.71,4.16c-0.44,1.37-1.8,1.86-3.14,1.24c-0.62-0.28-0.971-0.351-1.38,0.25
				c-0.53,0.779-1.381,1.04-2.23,0.779c-0.91-0.279-0.979-1.159-0.979-1.979c0.01-0.75-0.021-1.51,0.039-2.25
				c0.15-2.11-1.01-3.73-1.979-5.41c-2.06-3.58-3.95-7.29-6.28-10.69C133.131,249.675,130.781,245.385,128.321,241.135z"/>
			<path d="M122.051,152.625c1.261-0.971,2.511-1.95,3.79-2.881c0.62-0.439,1.061-0.409,1.21,0.53c0.15,0.92,0.58,1.811,0.721,2.74
				c0.1,0.68,0.02,1.43-0.13,2.11c-0.061,0.3-0.5,0.52-0.78,0.77c-0.24-0.27-0.62-0.5-0.72-0.82c-0.301-1.02-0.49-2.069-0.761-3.229
				c-1.2,0.52-2.21,0.96-3.39,1.479C122.031,152.835,121.991,152.665,122.051,152.625z"/>
			<path d="M117.892,138.095c1.01-1.17,2.01-2.351,3.029-3.51c0.181-0.2,0.471-0.32,0.641-0.53c1.109-1.5,2.42-1.07,3.31,0.63
				c0.23,0.46,0.46,0.91,0.76,1.49c0.471-0.4,0.811-0.87,1.25-1.01c0.58-0.171,1.511-0.341,1.811-0.03
				c0.63,0.64,1.02,1.57,1.37,2.439c0.09,0.221-0.24,0.801-0.511,0.931c-0.22,0.1-0.68-0.181-0.96-0.391
				c-0.279-0.199-0.479-0.52-0.8-0.89c-1,0.75-2.06,2.04-3.3,0.95c-0.88-0.76-1.311-2.03-1.99-3.16c-1.6,0.9-2.31,3-4.229,3.43
				C118.142,138.324,118.021,138.215,117.892,138.095z"/>
			<path d="M104.812,137.045c-0.051-0.74-0.03-1.53,0.149-2.24c0.26-1.05,1.07-1.37,1.9-0.72c0.87,0.68,1.62,1.52,2.35,2.359
				c0.16,0.181,0.13,0.78-0.04,0.931c-0.25,0.22-0.729,0.319-1.069,0.25c-0.36-0.061-0.671-0.381-1.091-0.65
				c-0.239,0.28-0.359,0.5-0.56,0.62c-0.31,0.2-0.771,0.54-0.99,0.439C105.151,137.885,104.841,137.404,104.812,137.045z"/>
			<path d="M137.971,83.645c-1.859-0.96-3.699-1.99-5.55-3c-0.069,0.13-0.149,0.25-0.22,0.37c2.58,2.67,5.15,5.34,7.9,8.19
				c0.63-1.351,1.18-2.54,1.739-3.73C140.411,84.805,139.171,84.265,137.971,83.645z M124.181,93.045
				c-0.06,0.149,0.271,0.649,0.49,0.72c1.51,0.46,3.05,0.84,4.66,1.28c0.03-0.431,0.12-0.83,0.07-1.21
				c-0.23-1.91-0.07-3.841-0.8-5.73c-0.48-1.24-0.29-2.729-0.4-4.11c-0.07-0.029-0.13-0.05-0.2-0.079
				C126.721,86.955,125.421,89.984,124.181,93.045z M85.031,101.255c-1.84,3.33-3.67,6.649-5.51,9.979l-1.35-0.74
				c1.03-1.869,2.05-3.739,3.06-5.619c1.1-2.04,2.07-4.141,3.1-6.21c0.12-0.25,0.21-0.521,0.34-0.771
				c0.601-1.07,1.2-1.15,1.641-0.04c0.71,1.8,1.31,3.67,1.72,5.57c1.43,6.479,2.93,12.93,5.07,19.22c0.27,0.8,0.6,1.11,1.489,1.11
				c2.431-0.011,4.86,0.109,7.29,0.22c1.94,0.09,3.891,0.37,5.82,0.29c0.72-0.03,1.57-0.68,2.09-1.29c0.92-1.08,1.66-2.34,2.44-3.54
				c0.47-0.729,1.06-1.03,1.779-0.44c0.79,0.641,1.54,1.351,2.261,2.08c0.51,0.53,0.96,1.131,1.58,1.87
				c0.689-1.91,1.29-3.59,1.899-5.27c0.15-0.41,0.271-0.84,0.44-1.24c0.56-1.34,1.3-1.47,2.54-0.74c1.33,0.78,2.76,1.37,4.26,2.101
				c0.12-1.07,0.24-1.971,0.33-2.88c0.18-1.721,0.52-2.03,2.229-2.021c0.24,0.01,0.471-0.02,0.87-0.04
				c-0.63-1.11-1.25-2.1-1.79-3.14c-2.22-4.33-4.359-8.7-6.67-12.98c-0.939-1.75-0.41-3.439,0.061-4.979
				c1.109-3.62,1.939-7.38,4.18-10.601c0.6-0.859,0.63-2.16,0.77-3.279c0.12-1,0.66-1.46,1.881-1.12c1.649,0.46,3.3,0.96,4.89,1.58
				c1.63,0.63,3.189,1.43,4.99,2.25c-0.07-1.44-0.12-2.79-0.21-4.15c-0.21-2.89-0.48-5.78-0.67-8.67
				c-0.24-3.7-0.391-7.41-0.641-11.11c-0.25-3.649-0.609-7.3-0.85-10.949c-0.09-1.37,0.3-2.58,1.16-3.771
				c1.46-2.02,2.59-4.27,3.989-6.33c2.091-3.11,4.261-6.16,6.471-9.18c0.54-0.73,1.31-1.41,2.13-1.771
				c0.569-0.239,1.55-0.109,2.08,0.24c0.84,0.57,1.489,1.43,2.149,2.23c3.21,3.859,6.4,7.729,9.59,11.609
				c0.4,0.48,0.75,1.01,1.36,1.84c0.22-1.359,0.39-2.39,0.55-3.42c0.33-2.12,0.67-4.25,0.971-6.38c0.31-2.17,0.529-4.35,0.869-6.52
				c0.33-2.11,0.45-4.34,1.25-6.271c0.601-1.46,1.971-2.74,3.271-3.76c5.67-4.49,11.46-8.82,17.17-13.26
				c1.71-1.34,2.06-1.351,3.33,0.39c0.9,1.22,1.92,2.351,2.79,3.601c0.72,1.029,1.24,2.21,1.95,3.25
				c0.27,0.39,0.56,0.779,0.87,1.149l-0.95,0.92c-1.59-1.66-3.21-3.3-4.83-4.939c-0.17-0.17-0.39-0.29-0.72-0.53
				c-1.45,12.14-2.99,24.08-7.12,35.479c-0.16-0.02-0.32-0.029-0.49-0.05c0-1.56,0-3.12,0-4.689c-0.25,0.05-0.44,0.09-0.63,0.13
				c1.33-6.23,2.74-12.44,3.99-18.681c0.699-3.51,1.149-7.069,1.689-10.609c0.07-0.44,0.01-0.9,0.01-1.561
				c-0.52,0.431-0.819,0.681-1.13,0.931c-2.27,1.83-4.42,3.84-6.84,5.439c-2.899,1.931-5.78,3.86-8.22,6.36
				c-0.43,0.439-0.68,1.12-0.86,1.74c-0.18,0.6-0.16,1.26-0.26,1.899c-0.73,4.851-1.58,9.681-2.17,14.55
				c-0.851,6.971-1.561,13.961-2.23,20.94c-0.689,7.19-1.229,14.4-1.89,21.59c-0.34,3.7-0.72,7.391-1.19,11.07
				c-0.26,2.01-0.79,3.979-1.109,5.99c-0.26,1.58-0.4,3.18-0.59,4.77c-0.061,0-0.11-0.01-0.17-0.02
				c0.399-4.061,0.79-8.11,1.189-12.17c-0.07-0.011-0.13-0.021-0.2-0.021c-0.22,1.64-0.439,3.28-0.66,4.92
				c-0.039,0-0.069,0-0.1-0.01c0.59-6.82,1.18-13.65,1.771-20.48c-0.101-0.01-0.19-0.02-0.29-0.02c-0.431,4.21-0.86,8.43-1.29,12.65
				c-0.2-0.181-0.21-0.33-0.2-0.48c0.46-4.57,1.05-9.12,1.35-13.7c0.4-6.08,0.58-12.18,0.83-18.28c0.11-2.47,0.2-4.939,0.19-7.409
				c0-0.561-0.261-1.28-0.66-1.65c-3.69-3.36-7.43-6.65-11.16-9.96c-0.22-0.2-0.479-0.35-0.89-0.64c-0.09,1.54-0.221,2.88-0.24,4.22
				c-0.05,3.83,0,7.67-0.12,11.5c-0.04,1.12-0.71,2.229-0.71,3.34c0.04,4.67,0.2,9.35,0.35,14.021c0.08,2.449,0.23,4.899,0.341,7.34
				c-0.061-0.12-0.12-0.23-0.181-0.351c-0.06-0.14-0.109-0.279-0.12-0.42c-0.05-1.52-0.029-3.04-0.1-4.56
				c-0.36-7.83-0.71-15.65-1.11-23.47c-0.239-4.671-0.569-9.32-0.87-13.98c-0.029-0.44-0.09-0.88-0.14-1.33
				c-2.25,2.84-4.22,5.74-6.17,8.66c-1.46,2.18-2.9,4.39-4.3,6.62c-0.24,0.37-0.38,0.899-0.34,1.34c0.1,1.27,0.39,2.53,0.479,3.8
				c0.2,2.97,0.32,5.96,0.49,8.94c0.26,4.51,0.55,9.01,0.82,13.51c0.149,2.47,0.43,4.94,0.38,7.4c-0.04,2.14-0.15,2.279,1.859,2.939
				c1.23,0.41,2.16,1.08,2.341,2.42c0.22,1.62,0.38,3.26,0.479,4.891c0.271,4.38,0.5,8.76,0.72,13.13
				c0.061,1.08,0.011,2.149,0.011,3.229c-0.15,0.01-0.301,0.021-0.45,0.03c-0.931-6.25-1.851-12.49-2.78-18.74
				c-0.13-0.01-0.26-0.03-0.4-0.05c-0.56,0.94-1.18,1.86-1.689,2.83c-0.32,0.62-0.69,0.79-1.13,0.58
				c-0.12-0.061-0.24-0.141-0.37-0.25c-1.95-1.65-3.9-3.3-5.8-5c-1.08-0.96-2.061-2.04-3.301-3.28c-0.1,3.97-1.35,7.49-0.789,11.14
				c0.13,0.801,0.229,1.62,0.399,2.41c0.11,0.601,0.26,1.19,0.46,1.761c1.771,4.88,3.65,9.71,5.48,14.56
				c0.08,0.21,0.109,0.43,0.16,0.65c-0.101,0.029-0.19,0.069-0.29,0.1c-1.771-4.6-3.671-9.16-5.24-13.82
				c-0.71-2.1-1.59-3.399-3.94-3.41c-0.939,0-1.87-0.319-3.02-0.54c0.649,1.04,1.18,1.78,1.62,2.58
				c3.609,6.67,7.229,13.341,10.779,20.04c0.45,0.851,0.561,1.88,0.82,2.83c-0.15,0.061-0.3,0.13-0.45,0.19
				c-0.59-0.771-1.21-1.521-1.77-2.311c-1.2-1.699-2.51-3.189-5.07-2.899c0,0.62,0.11,1.27-0.02,1.87
				c-0.641,2.92-0.73,3.37-3.53,3.149c-0.311-0.029-0.61-0.18-0.9-0.3c-0.989-0.38-1.979-0.78-3.05-1.21
				c-0.17,0.521-0.29,0.94-0.43,1.35c-0.601,1.65-1.13,3.33-1.851,4.931c-0.5,1.12-1.279,1.2-2.189,0.34
				c-0.431-0.4-0.73-0.95-1.13-1.38c-0.87-0.931-1.771-1.82-2.721-2.8c-0.659,1.189-1.119,2.069-1.619,2.93
				c-0.62,1.05-0.471,1.33,0.569,1.92c1.061,0.61,2.021,1.4,3.021,2.11c-0.08,0.149-0.15,0.31-0.23,0.46
				c-0.7-0.16-1.399-0.34-2.1-0.49c-2.181-0.46-4.34-1.15-6.54-1.311c-4.3-0.319-8.62-0.38-12.931-0.47
				c-0.93-0.02-1.529-0.25-1.84-1.14c-0.29-0.82-0.609-1.63-0.88-2.46c-1.069-3.22-2.24-6.41-3.14-9.67
				c-0.99-3.57-1.72-7.221-2.58-10.83C85.381,101.984,85.151,101.564,85.031,101.255z"/>
			<path d="M67.751,158.024c0.6,0.561,0.96,1.15,1.26,1.12c0.41-0.04,1.14-0.66,1.09-0.84c-0.16-0.51-0.64-0.92-0.99-1.38
				C68.751,157.215,68.401,157.505,67.751,158.024z M64.041,154.185c3.8-1.11,7.11,0.23,10.22,2.03c3.92,2.26,3.58,7.6,1.85,10.41
				c-1.91,3.119-4.86,4.71-7.89,6.33c-3.15,1.689-6.29,0.939-9.39,0.01c-0.97-0.29-1.88-0.98-2.65-1.66
				c-0.31-0.271-0.37-1.13-0.16-1.53c0.15-0.31,0.94-0.53,1.35-0.43c0.82,0.189,1.57,0.64,2.26,0.95c-1.15-1.801-2.3-3.61-3.62-5.67
				c-0.04,0.92-0.05,1.569-0.11,2.229c-0.04,0.51-0.04,1.061-0.23,1.521c-0.13,0.29-0.57,0.569-0.9,0.59
				c-0.2,0.02-0.64-0.42-0.65-0.66c-0.06-1.46-0.29-2.98,0.05-4.35c0.76-3.011,2.16-5.711,4.72-7.69
				C60.441,155.064,62.251,154.715,64.041,154.185z"/>
			<path d="M19.101,195.345c0.81,0.08,1.58,0.54,2.37,0.83c-0.02,0.149-0.05,0.3-0.07,0.45c-0.4,0.14-0.8,0.359-1.21,0.39
				c-1.74,0.12-3.48,0.27-5.21,0.229c-0.45-0.01-0.89-0.689-1.33-1.06c0.47-0.27,0.93-0.71,1.43-0.76
				C16.411,195.295,17.771,195.225,19.101,195.345z"/>
			<path d="M61.361,206.205c1.23,1.01,1.58,0.93,2.36-0.5C62.921,205.875,62.241,206.024,61.361,206.205z M63.141,125.335
				c0.2-2.341,0.47-4.67,0.67-7c0.07-0.73,0.01-1.46,0.01-2.521c-5.59,5.74-8.48,12.54-11.07,19.91c3.44-1.99,6.58-3.78,9.68-5.63
				c0.31-0.19,0.49-0.771,0.53-1.18C63.071,127.725,63.031,126.524,63.141,125.335z M64.891,203.935c4.14,0.16,8.18-0.52,12.23-1.18
				c0.36-0.061,0.75,0,1.13,0c-0.25,0.399-0.55,0.67-0.9,0.76c-2.62,0.68-5.25,1.3-7.86,2.02c-1.44,0.391-2.9,0.4-4.14,1.73
				c-1.99,2.14-2.75,1.96-5.2,0.4c-0.5-0.32-1.38-0.37-1.98-0.19c-3.13,0.95-6.21,2.06-9.33,3.03c-2.63,0.819-5.28,1.54-7.92,2.31
				c-0.36,0.11-0.69,0.311-1.04,0.47c1.97,0.021,3.83-0.22,5.69-0.359c1.79-0.141,3.6-0.05,5.37-0.28c2.29-0.28,4.55-0.75,6.82-1.2
				c5.84-1.149,11.79-1.7,17.54-3.46c4.6-1.41,9.4-2.17,14.06-3.41c4.2-1.109,8.27-2.619,11.95-5.029
				c0.42-0.28,0.899-0.471,1.359-0.7c0.061,0.09,0.12,0.189,0.181,0.28c-0.28,0.31-0.521,0.68-0.841,0.93
				c-1.02,0.83-2.09,1.6-3.109,2.43c-0.221,0.17-0.351,0.471-0.521,0.71c0.23,0.141,0.44,0.3,0.67,0.42c1.2,0.63,2.54,1.08,3.58,1.9
				c2.25,1.77,4.391,3.68,6.49,5.62c3.83,3.53,6.54,7.93,9.3,12.28c2.95,4.649,5.771,9.369,8.66,14.06c0.311,0.51,0.65,1,0.99,1.5
				l-0.82,0.38c-1.12-1.75-2.38-3.43-3.979-4.86c-1.141-1.01-1.761-2.63-2.591-3.989c-0.27-0.44-0.489-0.91-0.75-1.36
				c-1.689-2.93-3.31-5.9-5.09-8.77c-2.88-4.641-6.8-8.311-11.109-11.61c-3.2-2.46-6.73-2.82-10.641-2.36
				c-4.35,0.521-8.5,1.75-12.74,2.721c-4.85,1.1-9.76,1.93-14.63,2.97c-4.36,0.92-8.7,1.979-13.06,2.93
				c-1.28,0.28-2.6,0.48-3.91,0.57c-2.74,0.189-5.5,0.27-8.25,0.42c-2.14,0.12-4.28,0.36-6.42,0.35c-1.42,0-2.86-0.26-4.26-0.569
				c-2.49-0.54-5-1.08-7.42-1.87c-1.44-0.47-2.78-1.34-4.09-2.15c-2.96-1.8-6.02-3.49-8.77-5.58c-2.75-2.08-5.39-4.39-7.23-7.41
				c-1.4-2.279-2.28-4.699-2.31-7.43c-0.04-2.6,1.31-4.399,3.09-6.03c1.08-0.979,2.16-1.97,3.26-2.93c1.01-0.9,2.11-1.71,3.08-2.65
				c3.68-3.569,7.47-7.05,10.94-10.81c2.28-2.47,4.15-5.34,6.1-8.1c1.7-2.41,3.43-4.83,4.82-7.42c1.95-3.641,4.89-6.21,8.17-8.49
				c3.23-2.25,6.51-4.42,9.74-6.67c0.41-0.29,0.65-0.88,0.89-1.36c2.12-4.24,4.2-8.49,6.33-12.71c1.04-2.07,2.13-4.1,3.27-6.11
				c1.66-2.909,3.38-5.779,5.08-8.649c0.16-0.271,0.41-0.48,0.61-0.72c0.13,0.029,0.26,0.05,0.39,0.069
				c0.22,6.601-0.62,13.17-0.68,19.9c1.8-0.5,3.36-1.26,4.28-2.76c1.98-3.221,3.83-6.53,5.68-9.841c1.04-1.859,2.08-3.72,3.12-5.58
				l1.35,0.74c-2.59,4.7-5.19,9.4-7.8,14.13c3.09,0.33,5.78,0.011,8.19-1.819c0.97-0.74,1.61-1.57,2.03-2.69
				c0.43-1.12,1.01-2.18,1.52-3.27c0.12,0.01,0.25,0.02,0.37,0.02c0.15,1.04-0.1,2.3,1.54,2.53c-0.91,0.99-1.64,1.77-2.36,2.55
				c0.08,0.09,0.16,0.18,0.24,0.26c0.78-0.029,1.561-0.069,2.33-0.109c-1.47,2.04-3.87,1.79-5.77,2.85
				c1.63,0.32,3.56-0.32,4.51,1.83c-0.391,0.15-0.771,0.39-1.16,0.43c-2.9,0.28-5.8,0.561-8.71,0.771
				c-3.78,0.27-7.27,1.46-10.52,3.319c-2.57,1.46-4.97,3.21-7.55,4.641c-3.9,2.17-7.81,4.33-11.33,7.12
				c-2.16,1.699-4.26,3.489-6.34,5.29c-1.26,1.08-2.64,2.12-3.58,3.449c-1.98,2.79-3.93,5.66-5.5,8.7
				c-3.22,6.24-8.02,11.07-13.22,15.59c-3.11,2.69-6.29,5.311-9.31,8.101c-1.33,1.24-2.47,2.74-3.46,4.28
				c-1.63,2.55-1.08,7.27,1.41,9.819c2.27,2.33,4.79,4.49,7.49,6.29c2.87,1.91,6.04,3.42,9.18,4.88c2.21,1.04,4.55,1.96,6.93,2.45
				c1.52,0.3,3.24-0.189,4.83-0.5c3.17-0.62,6.32-1.39,9.48-2.06c4.8-1.021,9.45-2.551,14.04-4.28
				C59.541,204.845,62.121,203.824,64.891,203.935z"/>
		</g>
	</g>
</g>
</svg>
